<svg version="1.1" xmlns="http://www.w3.org/2000/svg" xmlns:xlink="http://www.w3.org/1999/xlink" width="309.2973" height="159.64866" viewBox="0,0,309.2973,159.64866"><g transform="translate(-85.36403,-100.57682)"><g data-paper-data="{&quot;isPaintingLayer&quot;:true}" fill-rule="nonzero" stroke-linecap="butt" stroke-linejoin="miter" stroke-miterlimit="10" stroke-dasharray="" stroke-dashoffset="0" style="mix-blend-mode: normal"><path d="" fill="#adc213" stroke="none" stroke-width="1"/><path d="M90.6971,255.05894v-149.31559h298.63117v149.31559z" fill="#c2d916" stroke="none" stroke-width="1"/><path d="M106.89386,152.48311l24.71173,14.25665v28.5133l-24.71173,14.25615l-16.36063,-9.43861c0.00981,-12.71402 0.00606,-25.42806 -0.01125,-38.14207z" fill="#adc213" stroke="none" stroke-width="1"/><path d="M238.02181,197.87107l22.79551,13.13977v26.37909l-22.79551,13.13977l-22.79551,-13.13977v-26.37909z" fill="#adc213" stroke="none" stroke-width="1"/><path d="M212.39129,109.27317l-17.75263,10.25499l-17.75213,-10.25549l0,-4.76617c11.83492,0.00693 23.66984,0.01392 35.50476,0.02094z" fill="#adc213" stroke="none" stroke-width="1"/><path d="M117.6411,104.47865v20.51098l-17.75263,10.25499l-9.43913,-5.45303c-0.02668,-8.44491 -0.05934,-16.88979 -0.09798,-25.33463c9.09292,0.00506 18.18583,0.01017 27.27875,0.01533z" fill="#adc213" stroke="none" stroke-width="1"/><path d="M152.20168,117.39047l17.75213,10.25549v20.51049l-17.75213,10.25549l-17.75263,-10.25549v-20.51098z" fill="#adc213" stroke="none" stroke-width="1"/><path d="M236.77751,117.6886l17.66901,10.20323v20.40646l-17.66901,10.20323l-17.66901,-10.20323v-20.40646z" fill="#adc213" stroke="none" stroke-width="1"/><path d="M378.87618,163.47871l10.64691,6.14245c-0.00833,8.84673 -0.01009,17.69347 -0.00529,26.54021l-10.64162,6.1394l-16.82289,-9.70551v-19.41103z" fill="#adc213" stroke="none" stroke-width="1"/><path d="M366.58253,114.95115l-15.08087,8.71008l-15.08087,-8.71008l0,-10.34956c10.05392,0.006 20.10783,0.01198 30.16175,0.01794z" fill="#adc213" stroke="none" stroke-width="1"/><path d="M183.77048,229.67529l19.41103,11.19867v14.47097c-12.94069,0.00849 -25.88138,0.02162 -38.82205,0.03937v-14.51034z" fill="#adc213" stroke="none" stroke-width="1"/><path d="M296.75261,231.66617l18.51513,10.70095l0,13.02005c-12.34341,-0.0174 -24.68684,-0.03059 -37.03027,-0.03957v-12.98048z" fill="#adc213" stroke="none" stroke-width="1"/><path d="M283.3142,142.57453l13.78681,7.9635v15.927l-13.78681,7.9635l-13.78681,-7.9635v-15.927z" fill="#adc213" stroke="none" stroke-width="1"/><path d="M99.65255,232.30723l15.08087,8.71008l0,14.45778c-8.10968,0.01854 -16.21935,0.03891 -24.32902,0.06109c0.02314,-5.97416 0.04329,-11.94833 0.06044,-17.92252z" fill="#adc213" stroke="none" stroke-width="1"/><path d="M334.0815,198.31902l12.49274,7.21692v14.43384l-12.49274,7.21692l-12.49274,-7.21692v-14.43384z" fill="#adc213" stroke="none" stroke-width="1"/><path d="M139.51035,207.77269l12.07615,6.96707v13.93363l-12.07615,6.96707l-12.07664,-6.96707v-13.93363z" fill="#adc213" stroke="none" stroke-width="1"/><path d="M376.63396,235.96944l12.97206,7.48388c0.01285,4.02991 0.02706,8.05981 0.04263,12.08971c-9.94585,-0.02766 -19.89171,-0.05259 -29.83758,-0.07477v-9.79331z" fill="#adc213" stroke="none" stroke-width="1"/><path d="M380.04482,141.77022v-12.94068l9.5819,-5.53621c-0.02823,7.99113 -0.0511,15.98228 -0.06861,23.97346z" fill="#adc213" stroke="none" stroke-width="1"/><path d="M181.27542,171.68261l11.19867,6.47034v12.94068l-11.19867,6.47034l-11.19867,-6.47034v-12.94068z" fill="#adc213" stroke="none" stroke-width="1"/><path d="M307.95128,113.70685l-11.19867,6.47034l-11.19867,-6.47034v-9.13571c7.46578,0.00448 14.93156,0.00895 22.39734,0.01342z" fill="#adc213" stroke="none" stroke-width="1"/><path d="M333.86201,141.80655l10.66959,6.15529v12.31157l-10.66959,6.15578l-10.67009,-6.15578v-12.31157z" fill="#adc213" stroke="none" stroke-width="1"/><path d="M192.05694,227.35768v-40.2755h40.14034v40.2755z" fill="#adc213" stroke="#ffffff" stroke-width="0"/><path d="M252.10217,167.4804v40.866c0,0.07411 -0.03065,0.14056 -0.04346,0.21204c-0.01533,0.09447 -0.02035,0.18642 -0.05615,0.27585c-0.06381,0.15577 -0.15839,0.29883 -0.27585,0.41628l-17.87885,17.87885c-0.0103,0.01017 -0.02562,0.01281 -0.03579,0.02298c-0.11231,0.10225 -0.23489,0.19156 -0.37797,0.25034c-0.15589,0.06645 -0.32182,0.09961 -0.48788,0.09961h-40.866c-0.70494,0 -1.27711,-0.57216 -1.27711,-1.27699v-40.86098c0,-0.16858 0.03317,-0.33463 0.09709,-0.49553c0.05879,-0.14044 0.14822,-0.26567 0.25034,-0.37546c0.0127,-0.0103 0.01533,-0.02562 0.0255,-0.0358l17.87874,-17.87885c0.12009,-0.11997 0.26053,-0.21191 0.41892,-0.27836c0.08692,-0.0358 0.18138,-0.03831 0.27333,-0.05363c0.0716,-0.01281 0.13793,-0.04346 0.21204,-0.04346h40.866c0.09709,0 0.1839,0.0358 0.27081,0.05363c0.07147,0.01796 0.14295,0.01533 0.2094,0.04346c0.31667,0.13026 0.56702,0.3806 0.69727,0.69727c0.02814,0.06633 0.02814,0.14044 0.04346,0.20941c0.02035,0.08943 0.05615,0.17623 0.05615,0.27333zM231.6691,186.63636h-38.31192v38.31192h38.31192zM247.74226,168.75738h-37.25451l-15.32476,15.32477h37.25451zM249.54808,170.5632l-15.32477,15.32476v37.25451l15.32477,-15.32476z" fill="#7e8d0b" stroke="#7e8d0b" stroke-width="6"/><path d="M233.8653,227.26543v-40.2755h40.14034v40.2755z" fill="#adc213" stroke="#ffffff" stroke-width="0"/><path d="M235.35199,187.39539l17.43469,-18.65106l38.11306,0.54062l-16.48863,17.70499z" fill="#adc213" stroke="none" stroke-width="0"/><path d="M274.68141,226.58967v-56.35866h17.9753l-0.67577,38.78881z" fill="#adc213" stroke="#ffffff" stroke-width="0"/><path d="M293.91053,167.38815v40.866c0,0.07411 -0.03065,0.14056 -0.04346,0.21204c-0.01533,0.09447 -0.02035,0.18642 -0.05615,0.27585c-0.06381,0.15577 -0.15839,0.29883 -0.27585,0.41628l-17.87885,17.87885c-0.0103,0.01017 -0.02562,0.01281 -0.03579,0.02298c-0.11231,0.10225 -0.23489,0.19156 -0.37797,0.25034c-0.15589,0.06645 -0.32182,0.09961 -0.48788,0.09961h-40.866c-0.70494,0 -1.2771,-0.57216 -1.2771,-1.27699v-40.86098c0,-0.16858 0.03317,-0.33463 0.09709,-0.49553c0.05879,-0.14044 0.14822,-0.26567 0.25034,-0.37546c0.0127,-0.0103 0.01533,-0.02562 0.0255,-0.0358l17.87874,-17.87885c0.12009,-0.11997 0.26053,-0.21191 0.41892,-0.27836c0.08692,-0.0358 0.18139,-0.03831 0.27334,-0.05363c0.0716,-0.01281 0.13793,-0.04346 0.21204,-0.04346h40.866c0.09709,0 0.1839,0.0358 0.27081,0.05363c0.07147,0.01796 0.14295,0.01533 0.2094,0.04346c0.31667,0.13026 0.56702,0.3806 0.69727,0.69727c0.02814,0.06633 0.02814,0.14044 0.04346,0.20941c0.02035,0.08943 0.05615,0.17623 0.05615,0.27333zM273.47747,186.5441h-38.31192v38.31192h38.31192zM289.55063,168.66514h-37.25451l-15.32476,15.32477h37.25451zM291.35644,170.47095l-15.32477,15.32476v37.25451l15.32477,-15.32476z" fill="#7e8d0b" stroke="#7e8d0b" stroke-width="6"/><path d="M191.92179,185.70593v-40.2755h40.14034v40.2755z" fill="#adc213" stroke="#ffffff" stroke-width="0"/><path d="M193.40847,145.83589l17.43469,-18.65107l38.11306,0.54062l-16.48863,17.70499z" fill="#adc213" stroke="none" stroke-width="0"/><path d="M232.7379,185.03017v-56.35866h17.9753l-0.67577,38.78881z" fill="#adc213" stroke="#ffffff" stroke-width="0"/><path d="M251.96702,127.07294v40.866c0,0.07411 -0.03065,0.14056 -0.04346,0.21204c-0.01533,0.09447 -0.02035,0.18642 -0.05615,0.27585c-0.06381,0.15577 -0.15839,0.29883 -0.27585,0.41628l-17.87886,17.87885c-0.0103,0.01017 -0.02562,0.01281 -0.03579,0.02298c-0.11231,0.10225 -0.23489,0.19156 -0.37797,0.25034c-0.15589,0.06645 -0.32182,0.09961 -0.48788,0.09961h-40.866c-0.70494,0 -1.27711,-0.57216 -1.27711,-1.27699v-40.86098c0,-0.16858 0.03317,-0.33464 0.09709,-0.49553c0.05879,-0.14044 0.14822,-0.26567 0.25034,-0.37546c0.0127,-0.0103 0.01533,-0.02562 0.0255,-0.0358l17.87874,-17.87885c0.12009,-0.11997 0.26053,-0.21191 0.41892,-0.27836c0.08692,-0.0358 0.18138,-0.03831 0.27333,-0.05363c0.0716,-0.01281 0.13793,-0.04346 0.21204,-0.04346h40.866c0.09709,0 0.1839,0.0358 0.27081,0.05363c0.07147,0.01796 0.14295,0.01533 0.2094,0.04346c0.31667,0.13026 0.56702,0.3806 0.69727,0.69727c0.02814,0.06633 0.02814,0.14044 0.04346,0.20941c0.02035,0.08943 0.05615,0.17623 0.05615,0.27333zM231.53396,146.2289h-38.31192v38.31192h38.31192zM247.60712,128.34993h-37.25451l-15.32476,15.32476h37.25451zM249.41293,130.15574l-15.32476,15.32476v37.25451l15.32476,-15.32476z" fill="#7e8d0b" stroke="#7e8d0b" stroke-width="6"/><path d="M90.36403,118.07248c0,-6.39897 5.91545,-12.49566 13.1192,-12.49566c28.93252,0 219.72832,0 272.60996,0c8.61359,0 13.56814,4.64378 13.56814,12.24625c0,30.59212 0,109.0924 0,125.70487c0,6.03964 -4.85913,11.69754 -13.31873,11.69754c-52.46667,0 -243.42599,0 -272.60996,0c-7.3279,0 -13.36861,-4.5235 -13.36861,-11.94695c0,-30.16113 0,-108.19342 0,-125.20604z" data-paper-data="{&quot;index&quot;:null}" fill="none" stroke="#7e8d0b" stroke-width="10"/></g></g></svg>