<svg version="1.1" xmlns="http://www.w3.org/2000/svg" xmlns:xlink="http://www.w3.org/1999/xlink" width="309.2973" height="161.07269" viewBox="0,0,309.2973,161.07269"><g transform="translate(-85.35135,-100.17567)"><g data-paper-data="{&quot;isPaintingLayer&quot;:true}" fill-rule="nonzero" stroke-linejoin="miter" stroke-miterlimit="10" stroke-dasharray="" stroke-dashoffset="0" style="mix-blend-mode: normal"><path d="M93.88065,254.53015l0,-145.22275c97.98949,0.31166 195.98055,0.27212 293.9699,-0.06702l0,33.2409c-0.03562,17.01483 -0.03502,34.02977 0,51.04462v61.00426h-279.15004c-1.30455,-0.62366 -2.7654,-0.97286 -4.30782,-0.97286c-1.54242,0 -3.00326,0.3492 -4.30781,0.97286z" fill="#169fb0" stroke="none" stroke-width="1" stroke-linecap="butt"/><path d="M387.82407,168.4768c-4.66953,31.18082 -16.09231,61.12012 -33.79326,86.44861" data-paper-data="{&quot;index&quot;:null}" fill="none" stroke="#00b2c9" stroke-width="12.5" stroke-linecap="round"/><path d="M388.02447,238.94498c-2.90213,5.51031 -6.06024,10.86445 -9.45566,16.05337" data-paper-data="{&quot;index&quot;:null}" fill="none" stroke="#00b2c9" stroke-width="12.5" stroke-linecap="round"/><path d="M342.36866,144.82525c-1.84099,42.10999 -22.46603,82.45652 -53.38714,109.98427" fill="none" stroke="#00b2c9" stroke-width="12.5" stroke-linecap="round"/><path d="M105.5974,253.62911c-4.234,-3.7523 -8.27643,-7.73827 -12.10854,-11.93324" fill="none" stroke="#00b2c9" stroke-width="12.5" stroke-linecap="round"/><path d="M338.77988,109.38492c2.82231,11.68058 4.10583,23.61346 3.58878,35.44033" fill="none" stroke="#00b2c9" stroke-width="12.5" stroke-linecap="round"/><path d="M326.11661,142.204c-1.92611,47.39453 -31.97451,92.11142 -73.26477,112.58867" fill="none" stroke="#00b2c9" stroke-width="12.5" stroke-linecap="round"/><path d="M154.04679,254.91348c-25.59721,-12.23416 -46.90729,-33.27521 -60.53576,-58.75865" fill="none" stroke="#00b2c9" stroke-width="12.5" stroke-linecap="round"/><path d="M322.32247,109.42193c2.88036,10.75852 4.2399,21.81352 3.79414,32.78207" fill="none" stroke="#00b2c9" stroke-width="12.5" stroke-linecap="round"/><path d="M307.24326,140.89335c-2.28916,54.08157 -48.67341,103.99676 -102.75498,102.75497c-54.08156,-1.24179 -98.45076,-48.6734 -102.75497,-102.75496c-0.8876,-11.15244 0.6607,-21.72281 4.15226,-31.54953" fill="none" stroke="#00b2c9" stroke-width="12.5" stroke-linecap="round"/><path d="M302.88734,109.4581c3.22636,10.25159 4.80194,20.89793 4.35592,31.43525" fill="none" stroke="#00b2c9" stroke-width="12.5" stroke-linecap="round"/><path d="M287.32138,140.10695c-2.05622,42.76859 -38.49172,82.37575 -81.26031,81.26031c-42.76858,-1.11543 -77.39408,-38.49172 -81.26032,-81.26031c-1.00253,-11.09007 1.10299,-21.3925 5.5178,-30.69975" fill="none" stroke="#00b2c9" stroke-width="12.5" stroke-linecap="round"/><path d="M281.97417,109.48781c3.87207,9.86499 5.84172,20.33346 5.34721,30.61915" fill="none" stroke="#00b2c9" stroke-width="12.5" stroke-linecap="round"/><path d="M266.87529,139.58269c-1.89333,31.4556 -28.31005,60.79271 -59.76565,59.76564c-31.4556,-1.02707 -56.20569,-28.31004 -59.76565,-59.76564c-1.29433,-11.43663 2.09484,-21.5522 8.44477,-30.12464" fill="none" stroke="#00b2c9" stroke-width="12.5" stroke-linecap="round"/><path d="M259.71697,109.50881c5.03767,9.3861 7.76931,19.92279 7.15832,30.07389" fill="none" stroke="#00b2c9" stroke-width="12.5" stroke-linecap="round"/><path d="M171.09135,151.11295c-4.00703,-14.59634 -0.14734,-31.48527 10.1076,-41.61944" fill="none" stroke="#00b2c9" stroke-width="12.5" stroke-linecap="round"/><path d="M233.42279,109.51933c4.50972,3.88863 7.89277,8.90739 9.42035,14.94118c5.72712,22.62155 -5.89905,36.18104 -22.54967,49.20212c-16.65062,13.02108 -43.8492,-3.0507 -49.20212,-22.54968" fill="none" stroke="#00b2c9" stroke-width="12.5" stroke-linecap="round"/><path d="M364.3995,144.91413c-1.77277,40.54945 -18.67778,79.67828 -44.99455,109.93573" data-paper-data="{&quot;index&quot;:null}" fill="none" stroke="#00b2c9" stroke-width="12.5" stroke-linecap="round"/><path d="M361.43405,109.3245c2.42909,11.77396 3.48401,23.7281 2.96545,35.58963" data-paper-data="{&quot;index&quot;:null}" fill="none" stroke="#00b2c9" stroke-width="12.5" stroke-linecap="round"/><path d="M177.28252,209.19857l26.67129,-23.79767l0.67993,0.76204l-26.67128,23.79766z" data-paper-data="{&quot;index&quot;:null}" fill="#5bd3e3" stroke-opacity="0.14902" stroke="#000000" stroke-width="20" stroke-linecap="butt"/><path d="M149.14323,198.08416l-1.27986,-35.72181l1.02062,-0.03657l1.27985,35.72182z" fill="#5bd3e3" stroke-opacity="0.14902" stroke="#000000" stroke-width="20" stroke-linecap="butt"/><text transform="translate(219.2095,183.26832) scale(0.50316,0.50316)" font-size="40" xml:space="preserve" fill="#ffffff" fill-rule="nonzero" stroke-opacity="0.14902" stroke="#000000" stroke-width="5" stroke-linecap="butt" stroke-linejoin="miter" stroke-miterlimit="10" stroke-dasharray="" stroke-dashoffset="0" font-family="Sans Serif" font-weight="normal" text-anchor="start" style="mix-blend-mode: normal"><tspan x="0" dy="0">Boxed Physics</tspan></text><text transform="translate(220.23077,193.65132) scale(0.22285,0.22285)" font-size="40" xml:space="preserve" fill="#ffffff" fill-rule="nonzero" stroke-opacity="0.14902" stroke="#000000" stroke-width="10" stroke-linecap="butt" stroke-linejoin="miter" stroke-miterlimit="10" stroke-dasharray="" stroke-dashoffset="0" font-family="Sans Serif" font-weight="normal" text-anchor="start" style="mix-blend-mode: normal"><tspan x="0" dy="0">By pooiod7</tspan></text><path d="M131.18839,222.7543l17.63263,-41.33226l41.33227,17.63263l-17.63264,41.33226z" fill="#5bd3e3" stroke-opacity="0.14902" stroke="#000000" stroke-width="20" stroke-linecap="butt"/><path d="M177.28252,209.19857l26.67129,-23.79767l0.67993,0.76204l-26.67128,23.79766z" data-paper-data="{&quot;index&quot;:null}" fill="#5bd3e3" stroke="#ffffff" stroke-width="10" stroke-linecap="butt"/><path d="M149.14323,198.08416l-1.27986,-35.72181l1.02062,-0.03657l1.27985,35.72182z" fill="#5bd3e3" stroke="#ffffff" stroke-width="10" stroke-linecap="butt"/><path d="M131.18839,222.7543l17.63263,-41.33226l41.33227,17.63263l-17.63264,41.33226z" fill="#5bd3e3" stroke="#ffffff" stroke-width="10" stroke-linecap="butt"/><path d="M223.40179,138.63392c0,8.77436 -7.11303,15.88739 -15.88739,15.88739c-8.77436,0 -15.88737,-7.11303 -15.88737,-15.88739c0,-8.77436 7.11301,-15.88737 15.88737,-15.88737c8.77436,0 15.88739,7.11302 15.88739,15.88737z" data-paper-data="{&quot;index&quot;:null}" fill="#5bd3e3" stroke-opacity="0.14902" stroke="#000000" stroke-width="20" stroke-linecap="butt"/><path d="M184.70633,176.6305l15.37967,-15.51001" data-paper-data="{&quot;index&quot;:null}" fill="#00ffff" stroke-opacity="0.14902" stroke="#000000" stroke-width="20" stroke-linecap="round"/><path d="M173.23672,172.72042l15.37968,-15.51" data-paper-data="{&quot;index&quot;:null}" fill="#00ffff" stroke-opacity="0.14902" stroke="#000000" stroke-width="20" stroke-linecap="round"/><path d="M184.70633,145.74083l-15.37967,15.51001" data-paper-data="{&quot;index&quot;:null}" fill="#00ffff" stroke-opacity="0.14902" stroke="#000000" stroke-width="20" stroke-linecap="round"/><path d="M223.40179,138.63392c0,8.77436 -7.11303,15.88739 -15.88739,15.88739c-8.77436,0 -15.88737,-7.11303 -15.88737,-15.88739c0,-8.77436 7.11301,-15.88737 15.88737,-15.88737c8.77436,0 15.88739,7.11302 15.88739,15.88737z" data-paper-data="{&quot;index&quot;:null}" fill="#5bd3e3" stroke="#ffffff" stroke-width="10" stroke-linecap="butt"/><path d="M184.70633,176.6305l15.37967,-15.51001" data-paper-data="{&quot;index&quot;:null}" fill="#00ffff" stroke="#ffffff" stroke-width="10" stroke-linecap="round"/><path d="M173.23672,172.72042l15.37968,-15.51" data-paper-data="{&quot;index&quot;:null}" fill="#00ffff" stroke="#ffffff" stroke-width="10" stroke-linecap="round"/><path d="M184.70633,145.74083l-15.37967,15.51001" data-paper-data="{&quot;index&quot;:null}" fill="#00ffff" stroke="#ffffff" stroke-width="10" stroke-linecap="round"/><text transform="translate(219.2095,183.26832) scale(0.50316,0.50316)" font-size="40" xml:space="preserve" fill="#ffffff" fill-rule="nonzero" stroke="none" stroke-width="1" stroke-linecap="butt" stroke-linejoin="miter" stroke-miterlimit="10" stroke-dasharray="" stroke-dashoffset="0" font-family="Sans Serif" font-weight="normal" text-anchor="start" style="mix-blend-mode: normal"><tspan x="0" dy="0">Boxed Physics</tspan></text><text transform="translate(220.23077,193.65132) scale(0.22285,0.22285)" font-size="40" xml:space="preserve" fill="#ffffff" fill-rule="nonzero" stroke="none" stroke-width="1" stroke-linecap="butt" stroke-linejoin="miter" stroke-miterlimit="10" stroke-dasharray="" stroke-dashoffset="0" font-family="Sans Serif" font-weight="normal" text-anchor="start" style="mix-blend-mode: normal"><tspan x="0" dy="0">By pooiod7</tspan></text><text transform="translate(337.13789,252.12509) rotate(-58.04211) scale(0.08249,0.08249)" font-size="40" xml:space="preserve" fill="#00abc1" fill-rule="nonzero" stroke="none" stroke-width="1" stroke-linecap="butt" stroke-linejoin="miter" stroke-miterlimit="10" stroke-dasharray="" stroke-dashoffset="0" font-family="Sans Serif" font-weight="normal" text-anchor="start" style="mix-blend-mode: normal"><tspan x="0" dy="0">Made with Penginmod</tspan></text><path d="M90.35135,117.67133c0,-6.39897 5.91545,-12.49566 13.1192,-12.49566c28.93252,0 219.72832,0 272.60996,0c8.61359,0 13.56814,4.64378 13.56814,12.24625c0,30.59212 0,109.0924 0,125.70487c0,6.03964 -4.85913,11.69754 -13.31873,11.69754c-52.46667,0 -243.42599,0 -272.60996,0c-7.3279,0 -13.36861,-4.5235 -13.36861,-11.94695c0,-30.16113 0,-108.19342 0,-125.20604z" data-paper-data="{&quot;index&quot;:null}" fill="none" stroke="#ffffff" stroke-width="10" stroke-linecap="butt"/></g></g></svg>