<svg version="1.1" xmlns="http://www.w3.org/2000/svg" xmlns:xlink="http://www.w3.org/1999/xlink" width="309.2973" height="159.64866" viewBox="0,0,309.2973,159.64866"><g transform="translate(-85.35135,-100.17567)"><g data-paper-data="{&quot;isPaintingLayer&quot;:true}" stroke-linecap="butt" stroke-linejoin="miter" stroke-miterlimit="10" stroke-dasharray="" stroke-dashoffset="0" style="mix-blend-mode: normal"><path d="" fill="#00c28c" fill-rule="nonzero" stroke="none" stroke-width="1"/><g><path d="M90.35133,254.82433v-149.64866h299.29733v149.64866z" data-paper-data="{&quot;index&quot;:null}" fill="#00c28c" fill-rule="nonzero" stroke="none" stroke-width="1"/><path d="M328.78796,121.34044c-2.15777,0 -3.90702,-1.74924 -3.90702,-3.90701c0,-2.15778 1.74925,-3.90702 3.90702,-3.90702c2.15778,0 3.90701,1.74923 3.90701,3.90702c0,2.15777 -1.74923,3.90701 -3.90701,3.90701zM328.78796,120.16833c-1.51045,0 -2.73491,-1.22446 -2.73491,-2.73491c0,-1.51045 1.22446,-2.73492 2.73491,-2.73492c1.51045,0 2.73491,1.22447 2.73491,2.73492c0,1.51045 -1.22446,2.73491 -2.73491,2.73491z" data-paper-data="{&quot;index&quot;:null}" fill="#17e8ad" fill-rule="evenodd" stroke="#17e8ad" stroke-width="2.5"/><path d="M303.56216,122.0342c-2.53991,0 -4.59896,-2.05904 -4.59896,-4.59895c0,-2.53993 2.05905,-4.59896 4.59896,-4.59896c2.53993,0 4.59896,2.05902 4.59896,4.59896c0,2.53991 -2.05902,4.59895 -4.59896,4.59895zM303.56216,120.65451c-1.77796,0 -3.21927,-1.44131 -3.21927,-3.21926c0,-1.77795 1.44131,-3.21927 3.21927,-3.21927c1.77796,0 3.21926,1.44132 3.21926,3.21927c0,1.77796 -1.44132,3.21926 -3.21926,3.21926z" data-paper-data="{&quot;index&quot;:null}" fill="#17e8ad" fill-rule="evenodd" stroke="#17e8ad" stroke-width="2.5"/><path d="M278.33636,122.72432c-2.92206,0 -5.2909,-2.36885 -5.2909,-5.2909c0,-2.92209 2.36885,-5.2909 5.2909,-5.2909c2.92209,0 5.2909,2.36882 5.2909,5.2909c0,2.92206 -2.36882,5.2909 -5.2909,5.2909zM278.33636,121.13705c-2.04546,0 -3.70363,-1.65817 -3.70363,-3.70363c0,-2.04546 1.65817,-3.70363 3.70363,-3.70363c2.04546,0 3.70363,1.65818 3.70363,3.70363c0,2.04546 -1.65817,3.70363 -3.70363,3.70363z" data-paper-data="{&quot;index&quot;:null}" fill="#17e8ad" fill-rule="evenodd" stroke="#17e8ad" stroke-width="2.5"/><path d="M253.11056,123.41809c-3.3042,0 -5.98284,-2.67863 -5.98284,-5.98284c0,-3.30424 2.67863,-5.98284 5.98284,-5.98284c3.30424,0 5.98284,2.67861 5.98284,5.98284c0,3.30421 -2.67861,5.98284 -5.98284,5.98284zM253.11056,121.62324c-2.31297,0 -4.18799,-1.87502 -4.18799,-4.18799c0,-2.31296 1.87502,-4.18799 4.18799,-4.18799c2.31296,0 4.18799,1.87503 4.18799,4.18799c0,2.31297 -1.87503,4.18799 -4.18799,4.18799z" data-paper-data="{&quot;index&quot;:null}" fill="#17e8ad" fill-rule="evenodd" stroke="#17e8ad" stroke-width="2.5"/><path d="M177.43316,122.72432c-2.92206,0 -5.2909,-2.36885 -5.2909,-5.2909c0,-2.92209 2.36885,-5.2909 5.2909,-5.2909c2.92209,0 5.2909,2.36882 5.2909,5.2909c0,2.92206 -2.36882,5.2909 -5.2909,5.2909zM177.43316,121.13705c-2.04546,0 -3.70363,-1.65817 -3.70363,-3.70363c0,-2.04546 1.65817,-3.70363 3.70363,-3.70363c2.04546,0 3.70363,1.65818 3.70363,3.70363c0,2.04546 -1.65817,3.70363 -3.70363,3.70363z" data-paper-data="{&quot;index&quot;:null}" fill="#17e8ad" fill-rule="evenodd" stroke="#17e8ad" stroke-width="2.5"/><path d="M328.78796,147.95195c-2.92206,0 -5.2909,-2.36885 -5.2909,-5.2909c0,-2.92209 2.36885,-5.2909 5.2909,-5.2909c2.92209,0 5.2909,2.36882 5.2909,5.2909c0,2.92206 -2.36882,5.2909 -5.2909,5.2909zM328.78796,146.36467c-2.04546,0 -3.70363,-1.65817 -3.70363,-3.70363c0,-2.04546 1.65817,-3.70363 3.70363,-3.70363c2.04546,0 3.70363,1.65817 3.70363,3.70363c0,2.04546 -1.65817,3.70363 -3.70363,3.70363z" data-paper-data="{&quot;index&quot;:null}" fill="#17e8ad" fill-rule="evenodd" stroke="#17e8ad" stroke-width="2.5"/><path d="M227.88476,152.10361c-5.21494,0 -9.44255,-4.22763 -9.44255,-9.44256c0,-5.21498 4.22762,-9.44256 9.44255,-9.44256c5.21498,0 9.44256,4.22758 9.44256,9.44256c0,5.21494 -4.22758,9.44256 -9.44256,9.44256zM227.88476,149.27084c-3.65049,0 -6.60979,-2.9593 -6.60979,-6.60979c0,-3.65048 2.9593,-6.60979 6.60979,-6.60979c3.65048,0 6.60979,2.95931 6.60979,6.60979c0,3.65049 -2.9593,6.60979 -6.60979,6.60979z" data-paper-data="{&quot;index&quot;:null}" fill="#17e8ad" fill-rule="evenodd" stroke="#17e8ad" stroke-width="2.5"/><path d="M202.65714,152.10361c-5.21494,0 -9.44255,-4.22763 -9.44255,-9.44256c0,-5.21498 4.22762,-9.44256 9.44255,-9.44256c5.21498,0 9.44255,4.22758 9.44255,9.44256c0,5.21494 -4.22758,9.44256 -9.44255,9.44256zM202.65714,149.27084c-3.65049,0 -6.60979,-2.9593 -6.60979,-6.60979c0,-3.65048 2.9593,-6.60979 6.60979,-6.60979c3.65048,0 6.60979,2.95931 6.60979,6.60979c0,3.65049 -2.95931,6.60979 -6.60979,6.60979z" data-paper-data="{&quot;index&quot;:null}" fill="#17e8ad" fill-rule="evenodd" stroke="#17e8ad" stroke-width="2.5"/><path d="M152.20554,149.33583c-3.68635,0 -6.67479,-2.98843 -6.67479,-6.67479c0,-3.68638 2.98843,-6.67479 6.67479,-6.67479c3.68638,0 6.67479,2.9884 6.67479,6.67479c0,3.68635 -2.9884,6.67479 -6.67479,6.67479zM152.20554,147.33339c-2.58048,0 -4.67235,-2.09188 -4.67235,-4.67235c0,-2.58047 2.09188,-4.67235 4.67235,-4.67235c2.58047,0 4.67236,2.09189 4.67236,4.67235c0,2.58048 -2.09189,4.67235 -4.67236,4.67235z" data-paper-data="{&quot;index&quot;:null}" fill="#17e8ad" fill-rule="evenodd" stroke="#17e8ad" stroke-width="2.5"/><path d="M126.98156,147.95195c-2.92206,0 -5.2909,-2.36885 -5.2909,-5.2909c0,-2.92209 2.36885,-5.2909 5.2909,-5.2909c2.92209,0 5.2909,2.36882 5.2909,5.2909c0,2.92206 -2.36882,5.2909 -5.2909,5.2909zM126.98156,146.36467c-2.04546,0 -3.70363,-1.65817 -3.70363,-3.70363c0,-2.04546 1.65817,-3.70363 3.70363,-3.70363c2.04546,0 3.70363,1.65817 3.70363,3.70363c0,2.04546 -1.65817,3.70363 -3.70363,3.70363z" data-paper-data="{&quot;index&quot;:null}" fill="#17e8ad" fill-rule="evenodd" stroke="#17e8ad" stroke-width="2.5"/><path d="M101.75394,146.56806c-2.15777,0 -3.90702,-1.74925 -3.90702,-3.90701c0,-2.15778 1.74925,-3.90701 3.90702,-3.90701c2.15778,0 3.90701,1.74923 3.90701,3.90701c0,2.15777 -1.74923,3.90701 -3.90701,3.90701zM101.75394,145.39595c-1.51045,0 -2.73492,-1.22446 -2.73492,-2.73491c0,-1.51045 1.22446,-2.73491 2.73492,-2.73491c1.51045,0 2.73491,1.22446 2.73491,2.73491c0,1.51045 -1.22446,2.73491 -2.73491,2.73491z" data-paper-data="{&quot;index&quot;:null}" fill="#17e8ad" fill-rule="evenodd" stroke="#17e8ad" stroke-width="2.5"/><path d="M354.01741,172.42372c-2.50764,0 -4.54054,-2.03288 -4.54054,-4.54053c0,-2.50767 2.0329,-4.54054 4.54054,-4.54054c2.50767,0 4.54054,2.03286 4.54054,4.54054c0,2.50765 -2.03286,4.54053 -4.54054,4.54053zM354.01741,171.06156c-1.75537,0 -3.17838,-1.42301 -3.17838,-3.17838c0,-1.75536 1.423,-3.17838 3.17838,-3.17838c1.75536,0 3.17838,1.42301 3.17838,3.17838c0,1.75537 -1.42301,3.17838 -3.17838,3.17838z" data-paper-data="{&quot;index&quot;:null}" fill="#17e8ad" fill-rule="evenodd" stroke="#17e8ad" stroke-width="2.5"/><path d="M278.33819,178.47777c-5.85118,0 -10.59458,-4.74341 -10.59458,-10.59458c0,-5.85123 4.74341,-10.59458 10.59458,-10.59458c5.85123,0 10.59458,4.74335 10.59458,10.59458c0,5.85118 -4.74335,10.59458 -10.59458,10.59458zM278.33819,175.29941c-4.09587,0 -7.4162,-3.32035 -7.4162,-7.41621c0,-4.09586 3.32033,-7.41621 7.4162,-7.41621c4.09586,0 7.4162,3.32036 7.4162,7.41621c0,4.09587 -3.32035,7.41621 -7.4162,7.41621z" data-paper-data="{&quot;index&quot;:null}" fill="#17e8ad" fill-rule="evenodd" stroke="#17e8ad" stroke-width="2.5"/><path d="M253.11056,180.50065c-6.96635,0 -12.61382,-5.64745 -12.61382,-12.61382c0,-6.96641 5.64745,-12.61382 12.61382,-12.61382c6.96641,0 12.61382,5.64739 12.61382,12.61382c0,6.96636 -5.64739,12.61382 -12.61382,12.61382zM253.11056,176.71651c-4.8765,0 -8.82967,-3.95317 -8.82967,-8.82967c0,-4.87649 3.95317,-8.82967 8.82967,-8.82967c4.87649,0 8.82967,3.95318 8.82967,8.82967c0,4.8765 -3.95318,8.82967 -8.82967,8.82967z" data-paper-data="{&quot;index&quot;:null}" fill="#17e8ad" fill-rule="evenodd" stroke="#17e8ad" stroke-width="2.5"/><path d="M227.88659,180.50065c-6.96635,0 -12.61382,-5.64745 -12.61382,-12.61382c0,-6.96641 5.64745,-12.61382 12.61382,-12.61382c6.96641,0 12.61382,5.64739 12.61382,12.61382c0,6.96636 -5.64739,12.61382 -12.61382,12.61382zM227.88659,176.71651c-4.8765,0 -8.82967,-3.95317 -8.82967,-8.82967c0,-4.87649 3.95317,-8.82967 8.82967,-8.82967c4.87649,0 8.82967,3.95318 8.82967,8.82967c0,4.8765 -3.95318,8.82967 -8.82967,8.82967z" data-paper-data="{&quot;index&quot;:null}" fill="#17e8ad" fill-rule="evenodd" stroke="#17e8ad" stroke-width="2.5"/><path d="M202.65896,180.50065c-6.96636,0 -12.61382,-5.64745 -12.61382,-12.61382c0,-6.96641 5.64746,-12.61382 12.61382,-12.61382c6.96641,0 12.61382,5.64739 12.61382,12.61382c0,6.96636 -5.64739,12.61382 -12.61382,12.61382zM202.65896,176.71651c-4.8765,0 -8.82967,-3.95317 -8.82967,-8.82967c0,-4.87649 3.95317,-8.82967 8.82967,-8.82967c4.87649,0 8.82967,3.95318 8.82967,8.82967c0,4.8765 -3.95318,8.82967 -8.82967,8.82967z" data-paper-data="{&quot;index&quot;:null}" fill="#17e8ad" fill-rule="evenodd" stroke="#17e8ad" stroke-width="2.5"/><path d="M177.43499,178.47777c-5.85118,0 -10.59458,-4.74341 -10.59458,-10.59458c0,-5.85123 4.74341,-10.59458 10.59458,-10.59458c5.85123,0 10.59458,4.74335 10.59458,10.59458c0,5.85118 -4.74335,10.59458 -10.59458,10.59458zM177.43499,175.29941c-4.09587,0 -7.4162,-3.32035 -7.4162,-7.41621c0,-4.09586 3.32033,-7.41621 7.4162,-7.41621c4.09586,0 7.4162,3.32036 7.4162,7.41621c0,4.09587 -3.32035,7.41621 -7.4162,7.41621z" data-paper-data="{&quot;index&quot;:null}" fill="#17e8ad" fill-rule="evenodd" stroke="#17e8ad" stroke-width="2.5"/><path d="M152.20554,176.46219c-4.73701,0 -8.57718,-3.84018 -8.57718,-8.57718c0,-4.73705 3.84017,-8.57718 8.57718,-8.57718c4.73705,0 8.57718,3.84013 8.57718,8.57718c0,4.737 -3.84014,8.57718 -8.57718,8.57718zM152.20554,173.88904c-3.31593,0 -6.00402,-2.68809 -6.00402,-6.00402c0,-3.31592 2.68808,-6.00402 6.00402,-6.00402c3.31592,0 6.00402,2.68809 6.00402,6.00402c0,3.31593 -2.68809,6.00402 -6.00402,6.00402z" data-paper-data="{&quot;index&quot;:null}" fill="#17e8ad" fill-rule="evenodd" stroke="#17e8ad" stroke-width="2.5"/><path d="M328.79161,199.66693c-3.62182,0 -6.55794,-2.93612 -6.55794,-6.55794c0,-3.62185 2.93612,-6.55794 6.55794,-6.55794c3.62185,0 6.55794,2.93609 6.55794,6.55794c0,3.62182 -2.93609,6.55794 -6.55794,6.55794zM328.79161,197.69955c-2.5353,0 -4.59056,-2.05525 -4.59056,-4.59056c0,-2.53529 2.05526,-4.59056 4.59056,-4.59056c2.53529,0 4.59056,2.05526 4.59056,4.59056c0,2.53529 -2.05526,4.59056 -4.59056,4.59056z" data-paper-data="{&quot;index&quot;:null}" fill="#17e8ad" fill-rule="evenodd" stroke="#17e8ad" stroke-width="2.5"/><path d="M253.11056,205.72463c-6.96635,0 -12.61382,-5.64745 -12.61382,-12.61382c0,-6.96641 5.64745,-12.61382 12.61382,-12.61382c6.96641,0 12.61382,5.64739 12.61382,12.61382c0,6.96636 -5.64739,12.61382 -12.61382,12.61382zM253.11056,201.94048c-4.8765,0 -8.82967,-3.95317 -8.82967,-8.82967c0,-4.87649 3.95317,-8.82967 8.82967,-8.82967c4.87649,0 8.82967,3.95318 8.82967,8.82967c0,4.8765 -3.95318,8.82967 -8.82967,8.82967z" data-paper-data="{&quot;index&quot;:null}" fill="#17e8ad" fill-rule="evenodd" stroke="#17e8ad" stroke-width="2.5"/><path d="M227.88659,205.72463c-6.96635,0 -12.61382,-5.64745 -12.61382,-12.61382c0,-6.96641 5.64745,-12.61382 12.61382,-12.61382c6.96641,0 12.61382,5.64739 12.61382,12.61382c0,6.96636 -5.64739,12.61382 -12.61382,12.61382zM227.88659,201.94048c-4.8765,0 -8.82967,-3.95317 -8.82967,-8.82967c0,-4.87649 3.95317,-8.82967 8.82967,-8.82967c4.87649,0 8.82967,3.95318 8.82967,8.82967c0,4.8765 -3.95318,8.82967 -8.82967,8.82967z" data-paper-data="{&quot;index&quot;:null}" fill="#17e8ad" fill-rule="evenodd" stroke="#17e8ad" stroke-width="2.5"/><path d="M202.65896,205.72463c-6.96636,0 -12.61382,-5.64745 -12.61382,-12.61382c0,-6.96641 5.64746,-12.61382 12.61382,-12.61382c6.96641,0 12.61382,5.64739 12.61382,12.61382c0,6.96636 -5.64739,12.61382 -12.61382,12.61382zM202.65896,201.94048c-4.8765,0 -8.82967,-3.95317 -8.82967,-8.82967c0,-4.87649 3.95317,-8.82967 8.82967,-8.82967c4.87649,0 8.82967,3.95318 8.82967,8.82967c0,4.8765 -3.95318,8.82967 -8.82967,8.82967z" data-paper-data="{&quot;index&quot;:null}" fill="#17e8ad" fill-rule="evenodd" stroke="#17e8ad" stroke-width="2.5"/><path d="M152.20554,201.68982c-4.73701,0 -8.57718,-3.84017 -8.57718,-8.57718c0,-4.73705 3.84017,-8.57718 8.57718,-8.57718c4.73705,0 8.57718,3.84013 8.57718,8.57718c0,4.737 -3.84014,8.57718 -8.57718,8.57718zM152.20554,199.11667c-3.31593,0 -6.00402,-2.68809 -6.00402,-6.00402c0,-3.31592 2.68808,-6.00402 6.00402,-6.00402c3.31592,0 6.00402,2.68809 6.00402,6.00402c0,3.31593 -2.68809,6.00402 -6.00402,6.00402z" data-paper-data="{&quot;index&quot;:null}" fill="#17e8ad" fill-rule="evenodd" stroke="#17e8ad" stroke-width="2.5"/><path d="M126.98156,199.66693c-3.62182,0 -6.55794,-2.93612 -6.55794,-6.55794c0,-3.62185 2.93612,-6.55794 6.55794,-6.55794c3.62185,0 6.55794,2.93609 6.55794,6.55794c0,3.62182 -2.93609,6.55794 -6.55794,6.55794zM126.98156,197.69955c-2.53529,0 -4.59056,-2.05525 -4.59056,-4.59056c0,-2.53529 2.05526,-4.59056 4.59056,-4.59056c2.53529,0 4.59056,2.05526 4.59056,4.59056c0,2.53529 -2.05526,4.59056 -4.59056,4.59056z" data-paper-data="{&quot;index&quot;:null}" fill="#17e8ad" fill-rule="evenodd" stroke="#17e8ad" stroke-width="2.5"/><path d="M354.01558,222.24364c-2.15777,0 -3.90701,-1.74925 -3.90701,-3.90702c0,-2.15778 1.74925,-3.90701 3.90701,-3.90701c2.15778,0 3.90702,1.74923 3.90702,3.90701c0,2.15777 -1.74923,3.90702 -3.90702,3.90702zM354.01558,221.07153c-1.51045,0 -2.73491,-1.22446 -2.73491,-2.73491c0,-1.51045 1.22446,-2.73491 2.73491,-2.73491c1.51045,0 2.73491,1.22446 2.73491,2.73491c0,1.51045 -1.22446,2.73491 -2.73491,2.73491z" data-paper-data="{&quot;index&quot;:null}" fill="#17e8ad" fill-rule="evenodd" stroke="#17e8ad" stroke-width="2.5"/><path d="M328.78796,223.62752c-2.92206,0 -5.2909,-2.36885 -5.2909,-5.2909c0,-2.92209 2.36885,-5.2909 5.2909,-5.2909c2.92209,0 5.2909,2.36882 5.2909,5.2909c0,2.92206 -2.36882,5.2909 -5.2909,5.2909zM328.78796,222.04025c-2.04546,0 -3.70363,-1.65817 -3.70363,-3.70363c0,-2.04546 1.65817,-3.70363 3.70363,-3.70363c2.04546,0 3.70363,1.65817 3.70363,3.70363c0,2.04546 -1.65817,3.70363 -3.70363,3.70363z" data-paper-data="{&quot;index&quot;:null}" fill="#17e8ad" fill-rule="evenodd" stroke="#17e8ad" stroke-width="2.5"/><path d="M303.56399,225.01141c-3.68635,0 -6.67478,-2.98843 -6.67478,-6.67478c0,-3.68638 2.98843,-6.67478 6.67478,-6.67478c3.68638,0 6.67479,2.9884 6.67479,6.67478c0,3.68635 -2.9884,6.67478 -6.67479,6.67478zM303.56399,223.00896c-2.58048,0 -4.67235,-2.09188 -4.67235,-4.67235c0,-2.58047 2.09188,-4.67235 4.67235,-4.67235c2.58047,0 4.67235,2.09188 4.67235,4.67235c0,2.58048 -2.09189,4.67235 -4.67235,4.67235z" data-paper-data="{&quot;index&quot;:null}" fill="#17e8ad" fill-rule="evenodd" stroke="#17e8ad" stroke-width="2.5"/><path d="M227.88476,227.77918c-5.21494,0 -9.44255,-4.22762 -9.44255,-9.44255c0,-5.21498 4.22762,-9.44255 9.44255,-9.44255c5.21498,0 9.44256,4.22758 9.44256,9.44255c0,5.21494 -4.22758,9.44255 -9.44256,9.44255zM227.88476,224.94641c-3.65049,0 -6.60979,-2.9593 -6.60979,-6.60979c0,-3.65048 2.9593,-6.60979 6.60979,-6.60979c3.65048,0 6.60979,2.95931 6.60979,6.60979c0,3.65049 -2.9593,6.60979 -6.60979,6.60979z" data-paper-data="{&quot;index&quot;:null}" fill="#17e8ad" fill-rule="evenodd" stroke="#17e8ad" stroke-width="2.5"/><path d="M202.65714,227.77918c-5.21494,0 -9.44255,-4.22762 -9.44255,-9.44255c0,-5.21498 4.22762,-9.44255 9.44255,-9.44255c5.21498,0 9.44255,4.22758 9.44255,9.44255c0,5.21494 -4.22758,9.44255 -9.44255,9.44255zM202.65714,224.94641c-3.65049,0 -6.60979,-2.9593 -6.60979,-6.60979c0,-3.65048 2.9593,-6.60979 6.60979,-6.60979c3.65048,0 6.60979,2.95931 6.60979,6.60979c0,3.65049 -2.95931,6.60979 -6.60979,6.60979z" data-paper-data="{&quot;index&quot;:null}" fill="#17e8ad" fill-rule="evenodd" stroke="#17e8ad" stroke-width="2.5"/><path d="M152.20554,225.01141c-3.68635,0 -6.67479,-2.98843 -6.67479,-6.67478c0,-3.68638 2.98843,-6.67478 6.67479,-6.67478c3.68638,0 6.67479,2.9884 6.67479,6.67478c0,3.68635 -2.9884,6.67478 -6.67479,6.67478zM152.20554,223.00896c-2.58048,0 -4.67235,-2.09188 -4.67235,-4.67235c0,-2.58047 2.09188,-4.67235 4.67235,-4.67235c2.58047,0 4.67236,2.09188 4.67236,4.67235c0,2.58048 -2.09189,4.67235 -4.67236,4.67235z" data-paper-data="{&quot;index&quot;:null}" fill="#17e8ad" fill-rule="evenodd" stroke="#17e8ad" stroke-width="2.5"/><path d="M101.75394,222.24364c-2.15777,0 -3.90702,-1.74925 -3.90702,-3.90702c0,-2.15778 1.74925,-3.90701 3.90702,-3.90701c2.15778,0 3.90701,1.74923 3.90701,3.90701c0,2.15777 -1.74923,3.90702 -3.90701,3.90702zM101.75394,221.07153c-1.51045,0 -2.73492,-1.22446 -2.73492,-2.73491c0,-1.51045 1.22446,-2.73491 2.73492,-2.73491c1.51045,0 2.73491,1.22446 2.73491,2.73491c0,1.51045 -1.22446,2.73491 -2.73491,2.73491z" data-paper-data="{&quot;index&quot;:null}" fill="#17e8ad" fill-rule="evenodd" stroke="#17e8ad" stroke-width="2.5"/><path d="M328.78796,247.47126c-2.15777,0 -3.90702,-1.74924 -3.90702,-3.90701c0,-2.15778 1.74925,-3.90702 3.90702,-3.90702c2.15778,0 3.90701,1.74923 3.90701,3.90702c0,2.15777 -1.74923,3.90701 -3.90701,3.90701zM328.78796,246.29915c-1.51045,0 -2.73491,-1.22446 -2.73491,-2.73491c0,-1.51045 1.22446,-2.73491 2.73491,-2.73491c1.51045,0 2.73491,1.22446 2.73491,2.73491c0,1.51045 -1.22446,2.73491 -2.73491,2.73491z" data-paper-data="{&quot;index&quot;:null}" fill="#17e8ad" fill-rule="evenodd" stroke="#17e8ad" stroke-width="2.5"/><path d="M253.11056,249.54526c-3.3042,0 -5.98284,-2.67864 -5.98284,-5.98284c0,-3.30424 2.67863,-5.98284 5.98284,-5.98284c3.30424,0 5.98284,2.6786 5.98284,5.98284c0,3.3042 -2.67861,5.98284 -5.98284,5.98284zM253.11056,247.7504c-2.31297,0 -4.18799,-1.87502 -4.18799,-4.18799c0,-2.31296 1.87502,-4.18799 4.18799,-4.18799c2.31296,0 4.18799,1.87503 4.18799,4.18799c0,2.31297 -1.87503,4.18799 -4.18799,4.18799z" data-paper-data="{&quot;index&quot;:null}" fill="#17e8ad" fill-rule="evenodd" stroke="#17e8ad" stroke-width="2.5"/><path d="M227.88659,249.54526c-3.3042,0 -5.98284,-2.67864 -5.98284,-5.98284c0,-3.30424 2.67864,-5.98284 5.98284,-5.98284c3.30424,0 5.98284,2.6786 5.98284,5.98284c0,3.3042 -2.6786,5.98284 -5.98284,5.98284zM227.88659,247.7504c-2.31297,0 -4.18799,-1.87502 -4.18799,-4.18799c0,-2.31296 1.87502,-4.18799 4.18799,-4.18799c2.31296,0 4.18799,1.87503 4.18799,4.18799c0,2.31297 -1.87503,4.18799 -4.18799,4.18799z" data-paper-data="{&quot;index&quot;:null}" fill="#17e8ad" fill-rule="evenodd" stroke="#17e8ad" stroke-width="2.5"/><path d="M177.43316,248.85515c-2.92206,0 -5.2909,-2.36885 -5.2909,-5.2909c0,-2.92209 2.36885,-5.2909 5.2909,-5.2909c2.92209,0 5.2909,2.36882 5.2909,5.2909c0,2.92206 -2.36882,5.2909 -5.2909,5.2909zM177.43316,247.26787c-2.04546,0 -3.70363,-1.65817 -3.70363,-3.70363c0,-2.04546 1.65817,-3.70363 3.70363,-3.70363c2.04546,0 3.70363,1.65817 3.70363,3.70363c0,2.04546 -1.65817,3.70363 -3.70363,3.70363z" data-paper-data="{&quot;index&quot;:null}" fill="#17e8ad" fill-rule="evenodd" stroke="#17e8ad" stroke-width="2.5"/><path d="M148.30267,117.43342c0,-2.15778 1.74923,-3.90702 3.90701,-3.90702c2.15777,0 3.90702,1.74923 3.90702,3.90702c0,2.15777 -1.74925,3.90701 -3.90702,3.90701c-2.15778,0 -3.90701,-1.74924 -3.90701,-3.90701zM149.47477,117.43342c0,-1.51045 1.22446,-2.73492 2.73491,-2.73492c1.51045,0 2.73491,1.22447 2.73491,2.73492c0,1.51045 -1.22446,2.73491 -2.73491,2.73491c-1.51045,0 -2.73491,-1.22446 -2.73491,-2.73491z" data-paper-data="{&quot;index&quot;:null}" fill="#17e8ad" fill-rule="evenodd" stroke="#17e8ad" stroke-width="2.5"/><path d="M148.30267,243.56425c0,-2.15778 1.74923,-3.90702 3.90701,-3.90702c2.15777,0 3.90702,1.74923 3.90702,3.90702c0,2.15777 -1.74925,3.90701 -3.90702,3.90701c-2.15778,0 -3.90701,-1.74924 -3.90701,-3.90701zM149.47477,243.56425c0,-1.51045 1.22446,-2.73491 2.73491,-2.73491c1.51045,0 2.73491,1.22446 2.73491,2.73491c0,1.51045 -1.22446,2.73491 -2.73491,2.73491c-1.51045,0 -2.73491,-1.22446 -2.73491,-2.73491z" data-paper-data="{&quot;index&quot;:null}" fill="#17e8ad" fill-rule="evenodd" stroke="#17e8ad" stroke-width="2.5"/><path d="M375.3367,218.33661c0,-2.15778 1.74923,-3.90701 3.90701,-3.90701c2.15777,0 3.90702,1.74923 3.90702,3.90701c0,2.15777 -1.74925,3.90702 -3.90702,3.90702c-2.15778,0 -3.90701,-1.74925 -3.90701,-3.90702zM376.5088,218.33662c0,-1.51045 1.22446,-2.73491 2.73491,-2.73491c1.51045,0 2.73492,1.22446 2.73492,2.73491c0,1.51045 -1.22446,2.73491 -2.73492,2.73491c-1.51045,0 -2.73491,-1.22446 -2.73491,-2.73491z" data-paper-data="{&quot;index&quot;:null}" fill="#17e8ad" fill-rule="evenodd" stroke="#17e8ad" stroke-width="2.5"/></g><g fill-rule="evenodd"><path d="M279.819,160.30636c20.06812,0 36.33653,16.26872 36.33653,36.33721c0,20.06849 -16.26842,36.33723 -36.33653,36.33723h-79.638c-20.06812,0 -36.33653,-16.26874 -36.33653,-36.33723c0,-20.06849 16.26842,-36.33721 36.33653,-36.33721h3.60395c1.58522,-18.81944 17.32258,-33.28716 36.2083,-33.28716c18.88572,0 34.62308,14.46773 36.2083,33.28717z" fill="none" stroke-opacity="0.14902" stroke="#000000" stroke-width="10"/><path d="M279.819,160.30636c20.06812,0 36.33653,16.26872 36.33653,36.33721c0,20.06849 -16.26842,36.33723 -36.33653,36.33723h-79.638c-20.06812,0 -36.33653,-16.26874 -36.33653,-36.33723c0,-20.06849 16.26842,-36.33721 36.33653,-36.33721h3.60395c1.58522,-18.81944 17.32258,-33.28716 36.2083,-33.28716c18.88572,0 34.62308,14.46773 36.2083,33.28717z" fill="#ffffff" stroke="none" stroke-width="1"/><path d="M282.37011,211.92356v7.81548h-31.05881v-54.87028h7.82881v47.05481zM224.80129,219.73903c-15.02127,0 -27.19841,-12.17737 -27.19841,-27.19892c0,-15.02155 12.17714,-27.19891 27.19841,-27.19891h18.22225v7.72097h-18.22225v0.09447c-10.5095,0.27732 -18.88496,8.87685 -18.88496,19.3902c0,10.51335 8.37547,19.11288 18.88496,19.3902v0.081h18.22225v7.72097z" fill="#00c28c" stroke="none" stroke-width="1"/></g><path d="M90.35135,117.67133c0,-6.39897 5.91545,-12.49566 13.1192,-12.49566c28.93252,0 219.72832,0 272.60996,0c8.61359,0 13.56814,4.64378 13.56814,12.24625c0,30.59212 0,109.0924 0,125.70487c0,6.03964 -4.85913,11.69754 -13.31873,11.69754c-52.46667,0 -243.42599,0 -272.60996,0c-7.3279,0 -13.36861,-4.5235 -13.36861,-11.94695c0,-30.16113 0,-108.19342 0,-125.20604z" data-paper-data="{&quot;index&quot;:null}" fill="none" fill-rule="nonzero" stroke="#17e8ad" stroke-width="10"/></g></g></svg>