<svg version="1.1" xmlns="http://www.w3.org/2000/svg" xmlns:xlink="http://www.w3.org/1999/xlink" width="309.2973" height="159.64866" viewBox="0,0,309.2973,159.64866"><g transform="translate(-85.35135,-100.17567)"><g data-paper-data="{&quot;isPaintingLayer&quot;:true}" fill-rule="nonzero" stroke-miterlimit="10" stroke-dasharray="" stroke-dashoffset="0" style="mix-blend-mode: normal"><path d="M90.35134,254.82433v-149.64866h299.29732v149.64866z" fill="#778899" stroke="none" stroke-width="0" stroke-linecap="butt" stroke-linejoin="miter"/><path d="M99.80693,225.46416c0,-12.12181 9.82666,-21.94847 21.94847,-21.94847c12.12181,0 21.94847,9.82666 21.94847,21.94847c0,12.12181 -9.82666,21.94847 -21.94847,21.94847c-12.12181,0 -21.94847,-9.82666 -21.94847,-21.94847z" fill="#677b8c" stroke="none" stroke-width="0" stroke-linecap="butt" stroke-linejoin="miter"/><path d="M127.56398,189.04965c0,-7.98937 6.47666,-14.46604 14.46604,-14.46604c7.98937,0 14.46604,6.47666 14.46604,14.46604c0,7.98937 -6.47666,14.46604 -14.46604,14.46604c-7.98937,0 -14.46604,-6.47666 -14.46604,-14.46604z" fill="#677b8c" stroke="none" stroke-width="0" stroke-linecap="butt" stroke-linejoin="miter"/><path d="M161.23217,173.96417c0,-5.92315 4.80167,-10.72482 10.72482,-10.72482c5.92315,0 10.72482,4.80167 10.72482,10.72482c0,5.92315 -4.80167,10.72482 -10.72482,10.72482c-5.92315,0 -10.72482,-4.80167 -10.72482,-10.72482z" fill="#677b8c" stroke="none" stroke-width="0" stroke-linecap="butt" stroke-linejoin="miter"/><path d="M187.30983,187.9126c0,-7.30063 5.91833,-13.21896 13.21896,-13.21896c7.30063,0 13.21896,5.91833 13.21896,13.21896c0,7.30063 -5.91833,13.21896 -13.21896,13.21896c-7.30063,0 -13.21896,-5.91833 -13.21896,-13.21896z" fill="#677b8c" stroke="none" stroke-width="0" stroke-linecap="butt" stroke-linejoin="miter"/><path d="M222.39505,175.89209c0,-8.38575 6.79799,-15.18375 15.18375,-15.18375c8.38575,0 15.18375,6.79799 15.18375,15.18375c0,8.38575 -6.79799,15.18375 -15.18375,15.18375c-8.38575,0 -15.18375,-6.79799 -15.18375,-15.18375z" fill="#677b8c" stroke="none" stroke-width="0" stroke-linecap="butt" stroke-linejoin="miter"/><path d="M261.41152,180.21555c0,-9.85491 7.98898,-17.84389 17.84389,-17.84389c9.85491,0 17.84389,7.98898 17.84389,17.84389c0,9.85491 -7.98898,17.84389 -17.84389,17.84389c-9.85491,0 -17.84389,-7.98898 -17.84389,-17.84389z" fill="#677b8c" stroke="none" stroke-width="0" stroke-linecap="butt" stroke-linejoin="miter"/><path d="M301.66909,168.3576c0,-13.77478 11.16667,-24.94144 24.94144,-24.94144c13.77478,0 24.94144,11.16666 24.94144,24.94144c0,13.77478 -11.16666,24.94144 -24.94144,24.94144c-13.77478,0 -24.94144,-11.16667 -24.94144,-24.94144z" fill="#677b8c" stroke="none" stroke-width="0" stroke-linecap="butt" stroke-linejoin="miter"/><path d="M345.75172,127.12414c0,-12.1218 9.82667,-21.94847 21.94847,-21.94847c12.1218,0 21.94847,9.82666 21.94847,21.94847c0,12.1218 -9.82667,21.94847 -21.94847,21.94847c-12.1218,0 -21.94847,-9.82667 -21.94847,-21.94847z" fill="#677b8c" stroke="none" stroke-width="0" stroke-linecap="butt" stroke-linejoin="miter"/><path d="M313.39157,123.56368c0,-7.30063 5.91834,-13.21896 13.21896,-13.21896c7.30063,0 13.21896,5.91833 13.21896,13.21896c0,7.30063 -5.91834,13.21896 -13.21896,13.21896c-7.30063,0 -13.21896,-5.91833 -13.21896,-13.21896z" fill="#677b8c" stroke="none" stroke-width="0" stroke-linecap="butt" stroke-linejoin="miter"/><path d="M359.71893,169.27518c0,-5.92315 4.80167,-10.72482 10.72482,-10.72482c5.92315,0 10.72482,4.80167 10.72482,10.72482c0,5.92315 -4.80167,10.72482 -10.72482,10.72482c-5.92315,0 -10.72482,-4.80167 -10.72482,-10.72482z" fill="#677b8c" stroke="none" stroke-width="0" stroke-linecap="butt" stroke-linejoin="miter"/><path d="M98.83143,181.24707c0,-5.92315 4.80167,-10.72482 10.72482,-10.72482c5.92315,0 10.72482,4.80167 10.72482,10.72482c0,5.92315 -4.80167,10.72482 -10.72482,10.72482c-5.92315,0 -10.72482,-4.80167 -10.72482,-10.72482z" fill="#677b8c" stroke="none" stroke-width="0" stroke-linecap="butt" stroke-linejoin="miter"/><path d="M290.6262,117.55601c0,-4.63351 3.7562,-8.38971 8.38971,-8.38971c4.63351,0 8.38971,3.7562 8.38971,8.38971c0,4.63351 -3.7562,8.38971 -8.38971,8.38971c-4.63351,0 -8.38971,-3.7562 -8.38971,-8.38971z" fill="#677b8c" stroke="none" stroke-width="0" stroke-linecap="butt" stroke-linejoin="miter"/><g fill="#5e707f" stroke="none" stroke-width="1" stroke-linecap="butt" stroke-linejoin="miter"><path d="M178.73079,109.4576c3.26086,0 3.00302,-0.33367 3.00302,4.0192c0,1.88068 0.0455,3.41253 0.12134,3.41253c0.06067,0 1.16784,-1.57735 2.45702,-3.50353c1.28918,-1.92618 2.48736,-3.6097 2.65419,-3.71587c0.21233,-0.15166 0.87967,-0.21233 2.57835,-0.21233c2.50252,0 2.95753,0.12134 2.95753,0.84934c0,0.2275 -0.87967,1.69868 -2.27502,3.77653l-2.27502,3.41253l0.21233,0.5005c0.10617,0.25784 1.41051,3.06369 2.88169,6.20322c1.47118,3.15469 2.66936,5.86955 2.66936,6.05155c0,0.182 -0.10617,0.47017 -0.25784,0.62184c-0.21233,0.24267 -0.51567,0.273 -3.00302,0.273c-2.66936,0 -2.76035,-0.01517 -3.06369,-0.34884c-0.16683,-0.182 -1.03134,-1.89585 -1.91102,-3.82203c-0.87967,-1.91102 -1.66835,-3.50353 -1.75935,-3.53386c-0.07584,-0.03033 -0.54601,0.57634 -1.06168,1.33468l-0.92517,1.38018v2.19919c0,2.94236 0.15166,2.79069 -3.00302,2.79069c-1.91102,0 -2.45702,-0.0455 -2.73003,-0.24267l-0.33367,-0.2275v-20.74817l0.33367,-0.2275c0.273,-0.19717 0.81901,-0.24267 2.73003,-0.24267zM226.98124,109.38057c2.91202,0.75834 4.98987,2.92719 6.14255,6.37005c1.44085,4.3377 0.69767,9.46408 -1.85035,12.67944c-1.89585,2.38119 -5.44488,3.50353 -8.82708,2.79069c-2.62385,-0.54601 -4.61071,-2.16885 -5.89988,-4.80787c-1.10718,-2.24469 -1.57735,-4.77754 -1.38018,-7.3104c0.39433,-5.03537 2.97269,-8.67541 6.90089,-9.70675c1.12234,-0.30334 3.7917,-0.30334 4.91404,-0.01517zM223.50804,114.74962c-1.22851,0.637 -1.72902,1.92618 -1.85035,4.79271c-0.10617,2.21435 0.12134,3.80686 0.6825,4.92921c0.54601,1.09201 1.16784,1.51668 2.27502,1.51668c0.77351,0 0.86451,-0.0455 1.47118,-0.65217c0.91001,-0.89484 1.15267,-1.77451 1.24368,-4.50453c0.10617,-3.16986 -0.37917,-5.14154 -1.47118,-5.94538c-0.60668,-0.43984 -1.63801,-0.5005 -2.35085,-0.1365z"/><path d="M202.3297,109.51826c5.21738,0.06067 5.59655,0.07584 6.52172,0.39433c1.75935,0.59151 3.44286,2.19919 4.09503,3.9282c0.455,1.19818 0.56117,3.00302 0.24267,4.3377c-0.54601,2.32052 -1.65318,3.76136 -3.64003,4.7472l-1.19818,0.59151l-5.79372,0.15167l-0.07584,3.51869c-0.06067,2.60869 -0.12134,3.56419 -0.273,3.71587c-0.15166,0.15166 -0.87967,0.19717 -2.85136,0.19717c-2.45702,0 -2.68452,-0.01517 -2.88169,-0.28817c-0.182,-0.25784 -0.21233,-1.94135 -0.21233,-10.54092c0,-9.44891 0.01517,-10.25275 0.25784,-10.51058c0.24267,-0.273 0.51567,-0.28817 5.80888,-0.24267zM204.25588,114.67497c-0.94034,-0.03033 -1.74418,0 -1.80485,0.06067c-0.07584,0.06067 -0.12134,0.92517 -0.12134,1.92618v1.80485l1.80485,-0.06067c2.07785,-0.0455 2.51769,-0.24267 2.86652,-1.25884c0.25784,-0.75834 -0.01517,-1.65318 -0.62184,-2.10819c-0.36401,-0.273 -0.69767,-0.3185 -2.12335,-0.36401z"/><path d="M161.71873,109.48125c5.73305,0.0455 5.94538,0.06067 6.91606,0.4095c1.30434,0.455 2.32052,1.22851 3.09403,2.36602c0.84934,1.24368 1.18301,2.41152 1.18301,4.0192c-0.01517,2.12335 -0.75834,3.7007 -2.38119,4.95954c-0.37917,0.30334 -0.69767,0.637 -0.69767,0.74317c0,0.10617 0.71284,1.91102 1.59251,4.00403c0.87967,2.10819 1.59251,4.0192 1.59251,4.26187c0,0.78867 -0.37917,0.89484 -3.27602,0.89484c-2.25985,0 -2.65419,-0.03033 -2.92719,-0.273c-0.19717,-0.15166 -0.84934,-1.62284 -1.71385,-3.82203c-0.75834,-1.95652 -1.44085,-3.6552 -1.53185,-3.76136c-0.091,-0.10617 -0.51567,-0.182 -1.10718,-0.182h-0.97068v7.29523l-0.37917,0.37917c-0.37917,0.37917 -0.39433,0.37917 -2.88169,0.33367c-2.15368,-0.0455 -2.53285,-0.07584 -2.76035,-0.3185c-0.25784,-0.25784 -0.273,-0.87967 -0.273,-10.48025c0,-9.93425 0.01517,-10.22242 0.30334,-10.55609c0.28817,-0.3185 0.30334,-0.3185 6.21839,-0.273zM161.5974,114.56212c-0.06067,0.0455 -0.10617,0.86451 -0.10617,1.82002v1.71385h1.74418c2.01718,0 2.65419,-0.19717 3.01819,-0.89484c0.43984,-0.83418 0.182,-2.06268 -0.51567,-2.44185c-0.3185,-0.16683 -3.98887,-0.34884 -4.14053,-0.19717z"/><path d="M103.36093,109.20546c2.62385,-0.03033 4.5652,0.59151 6.15772,1.94135c0.72801,0.62184 1.71385,2.09302 1.97168,2.91202c0.273,0.95551 -0.01517,1.21334 -2.18402,1.94135c-2.33569,0.77351 -2.77552,0.78867 -3.12436,0.1365c-0.43984,-0.81901 -1.13751,-1.44085 -1.86552,-1.63801c-0.71284,-0.19717 -1.89585,-0.12134 -2.41152,0.15166c-0.4095,0.2275 -0.54601,0.83418 -0.25784,1.25884c0.24267,0.37917 0.69767,0.53084 3.89787,1.31951c2.38119,0.57634 3.56419,1.13751 4.62587,2.13852c2.74519,2.59352 2.69969,6.85539 -0.10617,9.69158c-1.69868,1.71385 -3.59453,2.35085 -6.94639,2.33569c-1.95652,-0.01517 -2.33569,-0.06067 -3.4277,-0.4095c-1.50151,-0.5005 -2.79069,-1.30434 -3.73104,-2.36602c-1.25884,-1.39534 -1.98685,-3.44286 -1.42568,-3.98887c0.30334,-0.30334 4.1102,-1.22851 4.79271,-1.15267c0.455,0.0455 0.56117,0.15166 0.97068,0.95551c0.36401,0.69767 0.62184,0.98584 1.10718,1.25884c1.71385,0.94034 4.44387,0.4095 4.44387,-0.86451c0,-0.74317 -0.42467,-0.97068 -3.33669,-1.68351c-4.3377,-1.09201 -6.23355,-2.35085 -6.93122,-4.67137c-0.34884,-1.16784 -0.34884,-3.33669 0,-4.3832c0.42467,-1.19818 1.34985,-2.53285 2.33569,-3.29119c0.80384,-0.637 2.41152,-1.34985 3.38219,-1.50151c0.21233,-0.03033 1.13751,-0.07584 2.06268,-0.091z"/><path d="M117.39788,109.45532c2.07785,0 2.45702,0.03033 2.73003,0.25784c0.30334,0.25784 0.3185,0.42467 0.36401,3.91303l0.03033,3.64003l2.39635,0.0455l2.38119,0.0455v-7.15872l0.37917,-0.36401c0.34884,-0.36401 0.42467,-0.37917 2.69969,-0.37917c2.07785,0 2.38119,0.03033 2.69969,0.28817l0.36401,0.28817l0.0455,9.84325c0.03033,5.39938 0,10.04042 -0.0455,10.31342c-0.16683,0.91001 -0.30334,0.95551 -3.00302,0.95551c-1.34985,0 -2.53285,-0.06067 -2.62385,-0.12134c-0.455,-0.30334 -0.51567,-0.83418 -0.51567,-4.50453v-3.73104l-2.38119,0.0455l-2.39635,0.0455l-0.03033,3.86753c-0.0455,3.73104 -0.06067,3.8827 -0.36401,4.12537c-0.273,0.24267 -0.65217,0.273 -2.73003,0.273c-2.21435,0 -2.44185,-0.03033 -2.71486,-0.30334c-0.30334,-0.30334 -0.30334,-0.5005 -0.30334,-10.54092c0,-10.04042 0,-10.23758 0.30334,-10.54092c0.273,-0.273 0.5005,-0.30334 2.71486,-0.30334z"/><path d="M146.84522,109.75112c0.25784,0.273 6.46105,19.97467 6.46105,20.53584c0,0.78867 -0.2275,0.84934 -3.24569,0.84934c-2.38119,0 -2.82102,-0.03033 -2.98786,-0.24267c-0.12134,-0.1365 -0.455,-1.04651 -0.74317,-2.01718l-0.54601,-1.75935h-5.41454l-0.51567,1.65318c-0.77351,2.53285 -0.53084,2.36602 -3.26086,2.36602c-2.47219,0 -2.85136,-0.10617 -2.85136,-0.83418c0,-0.16683 1.13751,-3.86753 2.51769,-8.20524c3.98887,-12.5126 3.89787,-12.2396 4.32254,-12.46711c0.56117,-0.28817 5.96055,-0.182 6.26389,0.12134zM143.14451,118.4872c-0.10617,-0.10617 -0.66734,1.48635 -0.98584,2.82102l-0.10617,0.42467h1.00101c0.69767,0 1.00101,-0.06067 1.00101,-0.19717c0,-0.091 -0.182,-0.80384 -0.39433,-1.54701c-0.2275,-0.75834 -0.455,-1.42568 -0.51567,-1.50151z"/><path d="M259.78245,109.45221c2.15368,0 2.45702,0.03033 2.77552,0.28817l0.36401,0.28817l0.091,15.65213h3.7007c4.07987,0 4.0647,0 4.26187,0.97068c0.0455,0.28817 0.06067,1.25884 0.03033,2.18402c-0.07584,2.54802 0.66734,2.30535 -7.17389,2.30535c-5.41454,0 -6.59756,-0.03033 -6.84023,-0.21233c-0.273,-0.21233 -0.28817,-0.51567 -0.33367,-10.46509l-0.03033,-10.25275l0.36401,-0.37917c0.37917,-0.37917 0.42467,-0.37917 2.79069,-0.37917z"/><path d="M247.56506,109.38057c2.91202,0.75834 4.98987,2.92719 6.14255,6.37005c1.44085,4.3377 0.69767,9.46408 -1.85035,12.67944c-1.89585,2.38119 -5.44488,3.50353 -8.82708,2.79069c-2.62385,-0.54601 -4.61071,-2.16885 -5.89988,-4.80787c-1.10718,-2.24469 -1.57735,-4.77754 -1.38018,-7.3104c0.39433,-5.03537 2.97269,-8.67541 6.90089,-9.70675c1.12234,-0.30334 3.7917,-0.30334 4.91404,-0.01517zM244.09186,114.74962c-1.22851,0.637 -1.72902,1.92618 -1.85035,4.79271c-0.10617,2.21435 0.12134,3.80686 0.6825,4.92921c0.54601,1.09201 1.16784,1.51668 2.27502,1.51668c0.77351,0 0.86451,-0.0455 1.47118,-0.65217c0.91001,-0.89484 1.15267,-1.77451 1.24368,-4.50453c0.10617,-3.16986 -0.37917,-5.14154 -1.47118,-5.94538c-0.60668,-0.43984 -1.63801,-0.5005 -2.35085,-0.1365z"/></g><g fill="#5e707f" stroke="none" stroke-width="1" stroke-linecap="butt" stroke-linejoin="miter"><path d="M190.2989,135.65399c0.25872,0.27394 6.48324,20.04326 6.48324,20.60636c0,0.79138 -0.22828,0.85225 -3.25684,0.85225c-2.38937,0 -2.83071,-0.03043 -2.99812,-0.2435c-0.12175,-0.13697 -0.45657,-1.0501 -0.74572,-2.02411l-0.54788,-1.76539h-2.70896h-2.72418l-0.51744,1.65886c-0.77616,2.54155 -0.53266,2.37415 -3.27206,2.37415c-2.48068,0 -2.86115,-0.10653 -2.86115,-0.83704c0,-0.16741 1.14142,-3.88081 2.52634,-8.23341c4.00256,-12.55558 3.91125,-12.28164 4.33738,-12.50992c0.5631,-0.28916 5.98102,-0.18263 6.2854,0.12175zM186.58549,144.42007c-0.10653,-0.10653 -0.66963,1.49145 -0.98923,2.83071l-0.10653,0.42613h1.00445c0.70007,0 1.00445,-0.06088 1.00445,-0.19785c0,-0.09131 -0.18263,-0.8066 -0.39569,-1.55233c-0.22828,-0.76094 -0.45657,-1.43057 -0.51744,-1.50667z"/><path d="M99.73311,135.38614c4.01779,0.06088 4.70263,0.10653 5.73751,0.38047c1.40014,0.38047 1.91758,0.62398 2.99812,1.46101c1.70452,1.29361 3.18074,3.56122 3.75906,5.79839c0.41091,1.56754 0.38047,4.90048 -0.06088,6.51368c-1.03489,3.7895 -3.77428,6.54412 -7.28985,7.32028c-1.55233,0.35003 -9.80096,0.36525 -10.13578,0.01522c-0.36525,-0.35003 -0.44134,-2.61765 -0.38047,-12.14467l0.04566,-8.81173l0.38047,-0.30438c0.36525,-0.28916 0.53266,-0.30438 4.94614,-0.22828zM100.64624,140.86493c-0.04566,0.09131 -0.06088,2.58721 -0.04566,5.50924l0.04566,5.3266l0.98923,0.04566c1.53711,0.0761 2.69375,-0.48701 3.40903,-1.62842c2.03933,-3.27206 1.03489,-8.3856 -1.79583,-9.22264c-0.94357,-0.28916 -2.51111,-0.30438 -2.60243,-0.03043z"/><path d="M255.4771,135.38203l7.28985,0.04566l0.28916,0.36525c0.2435,0.30438 0.28916,0.60876 0.28916,2.29805c0,1.68929 -0.04566,1.99367 -0.28916,2.29805l-0.28916,0.36525l-4.50479,0.04566l-4.50479,0.04566v1.29361v1.27838h3.40903c4.41347,0 4.12432,-0.18263 4.12432,2.6633c0,2.84593 0.28916,2.6633 -4.12432,2.6633h-3.40903v1.44579v1.43057l4.56566,0.04566c3.4699,0.03043 4.5961,0.09131 4.74829,0.2435c0.13697,0.13697 0.21306,0.83704 0.2435,2.32849c0.04566,1.76539 0.01522,2.19152 -0.18263,2.51111l-0.2435,0.36525h-7.53334h-7.51813l-0.22828,-0.33481c-0.21306,-0.30438 -0.2435,-1.55233 -0.2435,-10.5619v-10.24231l0.41091,-0.31959c0.39569,-0.30438 0.48701,-0.31959 7.70075,-0.27394z"/><path d="M117.27569,135.35718c2.23717,0 2.46546,0.03043 2.7394,0.30438c0.30438,0.30438 0.30438,0.50222 0.30438,10.57712c0,10.0749 0,10.27274 -0.30438,10.57712c-0.27394,0.27394 -0.50222,0.30438 -2.78506,0.30438c-1.90236,0 -2.55677,-0.04566 -2.78506,-0.21306c-0.27394,-0.21306 -0.28916,-0.51744 -0.33481,-10.50103l-0.03043,-10.28796l0.36525,-0.38047c0.38047,-0.38047 0.42613,-0.38047 2.83071,-0.38047z"/><path d="M164.09127,135.35406c2.16108,0 2.46546,0.03043 2.78506,0.28916l0.36525,0.28916l0.04566,7.85294l0.04566,7.85294h3.71341c4.09388,0 4.07866,0 4.2765,0.97401c0.04566,0.28916 0.06088,1.26316 0.03043,2.19152c-0.0761,2.55677 0.66963,2.31327 -7.19853,2.31327c-5.43314,0 -6.62021,-0.03043 -6.86372,-0.21306c-0.27394,-0.21306 -0.28916,-0.51744 -0.33481,-10.50103l-0.03043,-10.28796l0.36525,-0.38047c0.38047,-0.38047 0.42613,-0.38047 2.80028,-0.38047z"/><path d="M131.05965,135.10646c2.63287,-0.03043 4.58088,0.59354 6.17887,1.94802c0.7305,0.62398 1.71973,2.1002 1.97846,2.92202c0.27394,0.95879 -0.01522,1.21751 -2.19152,1.94802c-2.34371,0.77616 -2.78506,0.79138 -3.13509,0.13697c-0.44134,-0.82182 -1.14142,-1.44579 -1.87193,-1.64364c-0.71529,-0.19785 -1.90236,-0.12175 -2.4198,0.15219c-0.41091,0.22828 -0.54788,0.83704 -0.25872,1.26316c0.2435,0.38047 0.70007,0.53266 3.91125,1.32404c2.38937,0.57832 3.57643,1.14142 4.64176,2.14586c2.75462,2.60243 2.70896,6.87893 -0.10653,9.72487c-1.70452,1.71973 -3.60688,2.35893 -6.97025,2.34371c-1.96324,-0.01522 -2.34371,-0.06088 -3.43947,-0.41091c-1.50667,-0.50222 -2.80028,-1.30882 -3.74385,-2.37415c-1.26316,-1.40014 -1.99367,-3.45469 -1.43057,-4.00256c0.30438,-0.30438 4.12432,-1.23273 4.80916,-1.15663c0.45657,0.04566 0.5631,0.15219 0.97401,0.95879c0.36525,0.70007 0.62398,0.98923 1.11098,1.26316c1.71973,0.94357 4.45913,0.41091 4.45913,-0.86747c0,-0.74572 -0.42613,-0.97401 -3.34815,-1.68929c-4.3526,-1.09576 -6.25496,-2.35893 -6.95503,-4.68742c-0.35003,-1.17185 -0.35003,-3.34815 0,-4.39825c0.42613,-1.20229 1.35448,-2.54155 2.34371,-3.3025c0.8066,-0.63919 2.4198,-1.35448 3.39381,-1.50667c0.21306,-0.03043 1.14142,-0.0761 2.06977,-0.09131z"/><path d="M147.75024,135.42033c5.23529,0.06088 5.61577,0.0761 6.54412,0.39569c1.76539,0.59354 3.45469,2.20674 4.1091,3.94169c0.45657,1.20229 0.5631,3.01334 0.2435,4.3526c-0.54788,2.32849 -1.65886,3.77428 -3.65253,4.76351l-1.20229,0.59354l-2.90681,0.0761l-2.90681,0.0761l-0.0761,3.53078c-0.06088,2.61765 -0.12175,3.57643 -0.27394,3.72863c-0.15219,0.15219 -0.8827,0.19785 -2.86115,0.19785c-2.46546,0 -2.69375,-0.01522 -2.89159,-0.28916c-0.18263,-0.25872 -0.21306,-1.94802 -0.21306,-10.57712c0,-9.48136 0.01522,-10.28796 0.25872,-10.54668c0.2435,-0.27394 0.51744,-0.28916 5.82883,-0.2435zM149.68304,140.59475c-0.94357,-0.03043 -1.75017,0 -1.81105,0.06088c-0.0761,0.06088 -0.12175,0.92835 -0.12175,1.9328v1.81105l1.81105,-0.06088c2.08498,-0.04566 2.52634,-0.2435 2.87637,-1.26316c0.25872,-0.76094 -0.01522,-1.65886 -0.62398,-2.11543c-0.36525,-0.27394 -0.70007,-0.31959 -2.13064,-0.36525z"/><path d="M237.01157,135.35718c6.27018,0 7.57901,0.03043 7.83772,0.21306c0.25872,0.19785 0.28916,0.44134 0.33481,2.14586c0.09131,3.18074 0.15219,3.11987 -2.80028,3.11987h-2.19152v7.76163v7.77685l-0.38047,0.36525c-0.36525,0.36525 -0.42613,0.38047 -2.78506,0.38047c-2.16108,0 -2.46546,-0.03043 -2.78506,-0.28916l-0.36525,-0.28916l-0.04566,-7.85294l-0.04566,-7.85294h-2.19152c-2.1763,0 -2.19152,0 -2.4959,-0.39569c-0.28916,-0.36525 -0.31959,-0.60876 -0.31959,-2.29805c0,-1.81105 0.10653,-2.40458 0.51744,-2.6633c0.09131,-0.06088 3.56122,-0.12175 7.71597,-0.12175z"/><path d="M269.12193,135.40025c3.546,0 3.01334,-0.33481 4.70263,2.86115c0.62398,1.18707 1.20229,2.13064 1.27838,2.11543c0.09131,-0.03043 0.7305,-1.08054 1.43057,-2.32849c0.68485,-1.24795 1.3697,-2.35893 1.50667,-2.46546c0.18263,-0.12175 0.97401,-0.18263 2.64808,-0.18263c2.58721,0 2.87637,0.0761 2.87637,0.82182c0,0.18263 -1.17185,2.31327 -2.60243,4.74829c-1.47623,2.51111 -2.55677,4.50479 -2.52634,4.65698c0.04566,0.13697 1.38492,2.51111 2.9829,5.28095c1.59798,2.75462 2.90681,5.14398 2.90681,5.29617c0,0.16741 -0.09131,0.42613 -0.21306,0.59354c-0.19785,0.27394 -0.42613,0.28916 -3.18074,0.28916c-2.25239,0 -3.01334,-0.04566 -3.19597,-0.21306c-0.13697,-0.10653 -0.98923,-1.52189 -1.88714,-3.15031c-0.89792,-1.62842 -1.68929,-2.95246 -1.73495,-2.95246c-0.04566,0 -0.8066,1.27838 -1.65886,2.83071c-0.86747,1.56754 -1.70452,2.9829 -1.84148,3.16553c-0.2435,0.30438 -0.39569,0.31959 -2.70896,0.31959c-2.06977,0 -2.48068,-0.04566 -2.69375,-0.25872c-0.54788,-0.54788 -0.70007,-0.2435 3.95691,-8.24863c0.95879,-1.67407 1.73495,-3.07421 1.70452,-3.11987c-0.03043,-0.04566 -1.18707,-2.03933 -2.58721,-4.41347c-1.38492,-2.37415 -2.57199,-4.47435 -2.61765,-4.68742c-0.06088,-0.2435 0,-0.45657 0.16741,-0.65441c0.25872,-0.28916 0.48701,-0.30438 3.28728,-0.30438z"/><path d="M195.47826,135.35483h3.02856c2.67852,0 3.04378,0.03043 3.24162,0.25872c0.13697,0.15219 0.89792,1.59798 1.70452,3.19597c0.8066,1.6132 1.52189,2.93724 1.58276,2.93724c0.0761,0 0.77616,-1.27838 1.56754,-2.84593c0.79138,-1.55233 1.55233,-2.99812 1.70452,-3.19597c0.27394,-0.33481 0.35003,-0.35003 2.67852,-0.35003c2.58721,0 2.75462,0.04566 2.75462,0.8066c0,0.42613 -0.51744,1.43057 -4.62654,8.93348l-1.53711,2.81549l-0.0761,4.38304c-0.06088,3.66775 -0.10653,4.39825 -0.30438,4.52001c-0.71529,0.44134 -5.14398,0.39569 -5.60055,-0.04566c-0.22828,-0.2435 -0.27394,-0.74572 -0.33481,-4.64176l-0.0761,-4.36782l-0.77616,-1.44579c-0.44134,-0.79138 -1.78061,-3.28728 -2.99812,-5.52445c-1.21751,-2.23717 -2.26761,-4.21563 -2.31327,-4.38304c-0.06088,-0.16741 0,-0.45657 0.13697,-0.66963z"/><path d="M293.46724,135.35718c6.27018,0 7.57901,0.03043 7.83772,0.21306c0.25872,0.19785 0.28916,0.44134 0.33481,2.14586c0.09131,3.18074 0.15219,3.11987 -2.80028,3.11987h-2.19152v7.76163v7.77685l-0.38047,0.36525c-0.36525,0.36525 -0.42613,0.38047 -2.78506,0.38047c-2.16108,0 -2.46546,-0.03043 -2.78506,-0.28916l-0.36525,-0.28916l-0.04566,-7.85294l-0.04566,-7.85294h-2.19152c-2.1763,0 -2.19152,0 -2.4959,-0.39569c-0.28916,-0.36525 -0.31959,-0.60876 -0.31959,-2.29805c0,-1.81105 0.10653,-2.40458 0.51744,-2.6633c0.09131,-0.06088 3.56122,-0.12175 7.71597,-0.12175z"/></g><g fill="#5e707f" stroke="none" stroke-width="1" stroke-linecap="butt" stroke-linejoin="miter"><path d="M293.14829,202.91936c3.26086,0 3.00302,-0.33367 3.00302,4.0192c0,1.88068 0.0455,3.41253 0.12134,3.41253c0.06067,0 1.16784,-1.57735 2.45702,-3.50352c1.28918,-1.92618 2.48736,-3.6097 2.65419,-3.71587c0.21233,-0.15166 0.87967,-0.21233 2.57835,-0.21233c2.50252,0 2.95753,0.12134 2.95753,0.84934c0,0.2275 -0.87967,1.69869 -2.27502,3.77653l-2.27502,3.41253l0.21233,0.5005c0.10617,0.25784 1.41051,3.06369 2.88169,6.20322c1.47118,3.1547 2.66935,5.86955 2.66935,6.05155c0,0.182 -0.10617,0.47017 -0.25784,0.62184c-0.21233,0.24267 -0.51567,0.273 -3.00302,0.273c-2.66936,0 -2.76035,-0.01517 -3.06369,-0.34884c-0.16683,-0.182 -1.03134,-1.89585 -1.91102,-3.82203c-0.87967,-1.91102 -1.66834,-3.50352 -1.75935,-3.53386c-0.07584,-0.03033 -0.54601,0.57634 -1.06168,1.33468l-0.92517,1.38018v2.19918c0,2.94236 0.15167,2.79069 -3.00302,2.79069c-1.91102,0 -2.45702,-0.0455 -2.73003,-0.24267l-0.33367,-0.2275v-20.74817l0.33367,-0.2275c0.273,-0.19717 0.81901,-0.24267 2.73003,-0.24267zM341.39874,202.84232c2.91203,0.75834 4.98987,2.92719 6.14255,6.37005c1.44085,4.33771 0.69767,9.46408 -1.85035,12.67944c-1.89585,2.38118 -5.44488,3.50353 -8.82708,2.79069c-2.62385,-0.546 -4.6107,-2.16885 -5.89988,-4.80787c-1.10718,-2.24469 -1.57735,-4.77754 -1.38018,-7.3104c0.39434,-5.03538 2.97269,-8.67541 6.90089,-9.70675c1.12234,-0.30334 3.79169,-0.30334 4.91404,-0.01517zM337.92554,208.21137c-1.22851,0.637 -1.72902,1.92619 -1.85035,4.79271c-0.10617,2.21436 0.12134,3.80686 0.68251,4.92921c0.546,1.09201 1.16784,1.51668 2.27502,1.51668c0.77351,0 0.86451,-0.0455 1.47118,-0.65217c0.91001,-0.89484 1.15267,-1.77451 1.24368,-4.50453c0.10617,-3.16986 -0.37917,-5.14154 -1.47118,-5.94538c-0.60667,-0.43984 -1.63801,-0.5005 -2.35085,-0.1365z"/><path d="M316.7472,202.98001c5.21738,0.06067 5.59655,0.07584 6.52172,0.39434c1.75935,0.59151 3.44286,2.19919 4.09503,3.9282c0.45501,1.19817 0.56117,3.00302 0.24267,4.33771c-0.546,2.32052 -1.65318,3.76136 -3.64003,4.74721l-1.19817,0.5915l-5.79372,0.15167l-0.07584,3.51869c-0.06067,2.60869 -0.12134,3.56419 -0.273,3.71587c-0.15166,0.15166 -0.87967,0.19717 -2.85136,0.19717c-2.45702,0 -2.68453,-0.01517 -2.88169,-0.28817c-0.182,-0.25784 -0.21234,-1.94134 -0.21234,-10.54092c0,-9.44892 0.01517,-10.25275 0.25784,-10.51059c0.24267,-0.273 0.51567,-0.28817 5.80888,-0.24267zM318.67338,208.13672c-0.94034,-0.03033 -1.74419,0 -1.80485,0.06067c-0.07583,0.06067 -0.12134,0.92517 -0.12134,1.92618v1.80485l1.80485,-0.06067c2.07785,-0.0455 2.51769,-0.24267 2.86652,-1.25884c0.25784,-0.75834 -0.01517,-1.65318 -0.62184,-2.10819c-0.36401,-0.273 -0.69767,-0.3185 -2.12335,-0.36401z"/><path d="M276.13624,202.94301c5.73305,0.0455 5.94538,0.06067 6.91606,0.4095c1.30434,0.455 2.32052,1.22851 3.09403,2.36602c0.84934,1.24368 1.18301,2.41152 1.18301,4.0192c-0.01517,2.12335 -0.75834,3.7007 -2.38118,4.95954c-0.37917,0.30334 -0.69767,0.63701 -0.69767,0.74318c0,0.10617 0.71284,1.91102 1.59251,4.00403c0.87967,2.10819 1.59251,4.0192 1.59251,4.26187c0,0.78867 -0.37916,0.89484 -3.27602,0.89484c-2.25985,0 -2.65419,-0.03033 -2.92719,-0.273c-0.19717,-0.15167 -0.84934,-1.62285 -1.71385,-3.82203c-0.75834,-1.95652 -1.44084,-3.6552 -1.53184,-3.76136c-0.091,-0.10617 -0.51567,-0.182 -1.10718,-0.182h-0.97067v7.29523l-0.37916,0.37917c-0.37917,0.37916 -0.39434,0.37916 -2.88169,0.33367c-2.15368,-0.0455 -2.53285,-0.07584 -2.76035,-0.3185c-0.25784,-0.25784 -0.273,-0.87967 -0.273,-10.48025c0,-9.93425 0.01517,-10.22242 0.30334,-10.55609c0.28817,-0.3185 0.30333,-0.3185 6.21839,-0.273zM276.0149,208.02388c-0.06067,0.0455 -0.10617,0.86451 -0.10617,1.82002v1.71385h1.74419c2.01718,0 2.65418,-0.19717 3.01819,-0.89484c0.43983,-0.83418 0.182,-2.06268 -0.51567,-2.44185c-0.3185,-0.16683 -3.98887,-0.34884 -4.14053,-0.19717z"/><path d="M217.77843,202.66722c2.62385,-0.03033 4.56521,0.59151 6.15772,1.94135c0.728,0.62184 1.71385,2.09302 1.97168,2.91203c0.273,0.95551 -0.01517,1.21335 -2.18402,1.94135c-2.33569,0.77351 -2.77552,0.78867 -3.12436,0.1365c-0.43983,-0.81901 -1.1375,-1.44085 -1.86552,-1.63801c-0.71284,-0.19717 -1.89585,-0.12134 -2.41152,0.15167c-0.4095,0.2275 -0.54601,0.83418 -0.25784,1.25884c0.24267,0.37917 0.69767,0.53084 3.89787,1.31951c2.38119,0.57634 3.5642,1.13751 4.62587,2.13852c2.74519,2.59352 2.69969,6.85539 -0.10617,9.69158c-1.69868,1.71385 -3.59453,2.35086 -6.94639,2.33569c-1.95652,-0.01516 -2.33569,-0.06067 -3.4277,-0.4095c-1.50151,-0.5005 -2.79069,-1.30434 -3.73103,-2.36602c-1.25884,-1.39534 -1.98686,-3.44286 -1.42568,-3.98887c0.30334,-0.30334 4.1102,-1.22851 4.79271,-1.15268c0.455,0.0455 0.56117,0.15167 0.97067,0.95551c0.36401,0.69767 0.62184,0.98584 1.10718,1.25884c1.71385,0.94034 4.44387,0.4095 4.44387,-0.86451c0,-0.74318 -0.42467,-0.97068 -3.33669,-1.68351c-4.3377,-1.09201 -6.23355,-2.35085 -6.93122,-4.67137c-0.34884,-1.16784 -0.34884,-3.33669 0,-4.3832c0.42467,-1.19818 1.34985,-2.53285 2.33569,-3.29119c0.80384,-0.637 2.41152,-1.34985 3.38219,-1.50151c0.21234,-0.03033 1.13751,-0.07584 2.06268,-0.091z"/><path d="M231.81538,202.91708c2.07785,0 2.45702,0.03033 2.73003,0.25784c0.30334,0.25784 0.3185,0.42467 0.36401,3.91303l0.03033,3.64003l2.39636,0.0455l2.38118,0.0455v-7.15873l0.37916,-0.364c0.34884,-0.36401 0.42467,-0.37916 2.69969,-0.37916c2.07785,0 2.38118,0.03033 2.69969,0.28817l0.36401,0.28817l0.0455,9.84325c0.03033,5.39938 0,10.04042 -0.0455,10.31342c-0.16683,0.91001 -0.30334,0.95551 -3.00302,0.95551c-1.34985,0 -2.53285,-0.06067 -2.62386,-0.12134c-0.45501,-0.30334 -0.51567,-0.83418 -0.51567,-4.50453v-3.73104l-2.38119,0.0455l-2.39635,0.0455l-0.03033,3.86753c-0.0455,3.73103 -0.06067,3.8827 -0.36401,4.12537c-0.273,0.24267 -0.65217,0.273 -2.73003,0.273c-2.21435,0 -2.44185,-0.03033 -2.71485,-0.30334c-0.30334,-0.30334 -0.30334,-0.5005 -0.30334,-10.54092c0,-10.04042 0,-10.23758 0.30334,-10.54092c0.273,-0.273 0.5005,-0.30334 2.71485,-0.30334z"/><path d="M261.26272,203.21288c0.25784,0.273 6.46105,19.97466 6.46105,20.53584c0,0.78867 -0.2275,0.84934 -3.24569,0.84934c-2.38118,0 -2.82102,-0.03033 -2.98786,-0.24267c-0.12134,-0.1365 -0.455,-1.04651 -0.74317,-2.01718l-0.54601,-1.75935h-5.41454l-0.51567,1.65318c-0.77351,2.53285 -0.53084,2.36602 -3.26086,2.36602c-2.47219,0 -2.85136,-0.10617 -2.85136,-0.83417c0,-0.16683 1.13751,-3.86753 2.51769,-8.20524c3.98887,-12.5126 3.89786,-12.2396 4.32254,-12.46711c0.56117,-0.28817 5.96055,-0.182 6.26389,0.12134zM257.56202,211.94895c-0.10617,-0.10617 -0.66734,1.48635 -0.98584,2.82102l-0.10617,0.42467h1.00101c0.69767,0 1.00101,-0.06067 1.00101,-0.19717c0,-0.091 -0.182,-0.80384 -0.39434,-1.54701c-0.2275,-0.75834 -0.455,-1.42568 -0.51567,-1.50151z"/><path d="M374.19995,202.91397c2.15369,0 2.45702,0.03033 2.77552,0.28817l0.36401,0.28817l0.091,15.65213h3.7007c4.07987,0 4.0647,0 4.26187,0.97067c0.0455,0.28817 0.06067,1.25884 0.03033,2.18402c-0.07583,2.54802 0.66734,2.30535 -7.17389,2.30535c-5.41454,0 -6.59756,-0.03033 -6.84022,-0.21233c-0.273,-0.21234 -0.28817,-0.51567 -0.33367,-10.46509l-0.03033,-10.25275l0.36401,-0.37917c0.37917,-0.37916 0.42467,-0.37917 2.79069,-0.37917z"/><path d="M361.98256,202.84232c2.91202,0.75834 4.98987,2.92719 6.14255,6.37005c1.44085,4.33771 0.69767,9.46408 -1.85035,12.67944c-1.89585,2.38118 -5.44488,3.50353 -8.82708,2.79069c-2.62386,-0.546 -4.61071,-2.16885 -5.89988,-4.80787c-1.10718,-2.24469 -1.57735,-4.77754 -1.38018,-7.3104c0.39434,-5.03538 2.97269,-8.67541 6.90089,-9.70675c1.12234,-0.30334 3.7917,-0.30334 4.91404,-0.01517zM358.50936,208.21137c-1.22851,0.637 -1.72901,1.92619 -1.85035,4.79271c-0.10617,2.21436 0.12134,3.80686 0.6825,4.92921c0.54601,1.09201 1.16785,1.51668 2.27502,1.51668c0.77351,0 0.86451,-0.0455 1.47118,-0.65217c0.91001,-0.89484 1.15267,-1.77451 1.24368,-4.50453c0.10617,-3.16986 -0.37916,-5.14154 -1.47118,-5.94538c-0.60667,-0.43984 -1.63801,-0.5005 -2.35085,-0.1365z"/></g><g fill="#5e707f" stroke="none" stroke-width="1" stroke-linecap="butt" stroke-linejoin="miter"><path d="M274.28784,229.11575c0.25872,0.27394 6.48324,20.04326 6.48324,20.60636c0,0.79138 -0.22828,0.85226 -3.25684,0.85226c-2.38937,0 -2.83071,-0.03043 -2.99812,-0.2435c-0.12175,-0.13697 -0.45656,-1.0501 -0.74572,-2.02411l-0.54788,-1.7654h-2.70896h-2.72418l-0.51744,1.65886c-0.77616,2.54155 -0.53266,2.37415 -3.27206,2.37415c-2.48068,0 -2.86115,-0.10653 -2.86115,-0.83704c0,-0.16741 1.14142,-3.88081 2.52633,-8.23341c4.00256,-12.55558 3.91125,-12.28164 4.33738,-12.50992c0.5631,-0.28916 5.98102,-0.18263 6.2854,0.12175zM270.57443,237.88182c-0.10653,-0.10653 -0.66963,1.49145 -0.98923,2.83071l-0.10653,0.42613h1.00445c0.70007,0 1.00445,-0.06087 1.00445,-0.19785c0,-0.09131 -0.18263,-0.8066 -0.39569,-1.55233c-0.22828,-0.76094 -0.45657,-1.43057 -0.51745,-1.50667z"/><path d="M183.72205,228.84789c4.01778,0.06087 4.70263,0.10653 5.73751,0.38047c1.40014,0.38047 1.91758,0.62397 2.99812,1.46101c1.70451,1.2936 3.18074,3.56122 3.75906,5.79839c0.41091,1.56754 0.38047,4.90048 -0.06088,6.51368c-1.03488,3.7895 -3.77428,6.54412 -7.28985,7.32028c-1.55233,0.35003 -9.80095,0.36525 -10.13577,0.01522c-0.36525,-0.35003 -0.44134,-2.61765 -0.38047,-12.14467l0.04566,-8.81173l0.38047,-0.30438c0.36525,-0.28916 0.53266,-0.30438 4.94613,-0.22828zM184.63518,234.32669c-0.04565,0.09131 -0.06088,2.58721 -0.04565,5.50923l0.04565,5.32661l0.98923,0.04565c1.53711,0.0761 2.69375,-0.487 3.40903,-1.62842c2.03933,-3.27206 1.03488,-8.3856 -1.79583,-9.22264c-0.94357,-0.28916 -2.51111,-0.30438 -2.60243,-0.03043z"/><path d="M339.46605,228.84378l7.28985,0.04566l0.28916,0.36525c0.2435,0.30438 0.28916,0.60876 0.28916,2.29805c0,1.6893 -0.04565,1.99367 -0.28916,2.29804l-0.28916,0.36526l-4.50478,0.04565l-4.50478,0.04566v1.29361v1.27838h3.40903c4.41347,0 4.12432,-0.18263 4.12432,2.6633c0,2.84593 0.28916,2.6633 -4.12432,2.6633h-3.40903v1.44579v1.43057l4.56566,0.04565c3.4699,0.03043 4.5961,0.09131 4.74829,0.2435c0.13697,0.13697 0.21306,0.83704 0.2435,2.32849c0.04566,1.7654 0.01522,2.19151 -0.18263,2.51111l-0.2435,0.36525h-7.53334h-7.51813l-0.22828,-0.33481c-0.21306,-0.30438 -0.2435,-1.55233 -0.2435,-10.5619v-10.2423l0.41091,-0.31959c0.39569,-0.30438 0.48701,-0.31959 7.70075,-0.27394z"/><path d="M201.26463,228.81893c2.23717,0 2.46546,0.03043 2.7394,0.30438c0.30438,0.30438 0.30438,0.50222 0.30438,10.57712c0,10.0749 0,10.27275 -0.30438,10.57712c-0.27394,0.27394 -0.50223,0.30438 -2.78506,0.30438c-1.90236,0 -2.55677,-0.04566 -2.78505,-0.21306c-0.27394,-0.21306 -0.28916,-0.51744 -0.33481,-10.50103l-0.03044,-10.28797l0.36525,-0.38047c0.38047,-0.38047 0.42613,-0.38047 2.83071,-0.38047z"/><path d="M248.08021,228.81581c2.16108,0 2.46546,0.03043 2.78506,0.28916l0.36526,0.28916l0.04565,7.85294l0.04566,7.85294h3.71341c4.09388,0 4.07866,0 4.2765,0.97401c0.04565,0.28916 0.06088,1.26317 0.03043,2.19152c-0.0761,2.55677 0.66963,2.31327 -7.19853,2.31327c-5.43313,0 -6.62021,-0.03043 -6.86372,-0.21306c-0.27394,-0.21306 -0.28916,-0.51744 -0.33481,-10.50103l-0.03043,-10.28796l0.36525,-0.38047c0.38047,-0.38047 0.42613,-0.38047 2.80028,-0.38047z"/><path d="M215.04859,228.56821c2.63287,-0.03043 4.58088,0.59354 6.17887,1.94801c0.7305,0.62398 1.71973,2.10021 1.97846,2.92203c0.27394,0.95879 -0.01522,1.21751 -2.19151,1.94801c-2.34371,0.77617 -2.78506,0.79138 -3.13509,0.13697c-0.44134,-0.82182 -1.14141,-1.4458 -1.87192,-1.64364c-0.71529,-0.19785 -1.90235,-0.12175 -2.4198,0.15219c-0.41091,0.22828 -0.54788,0.83704 -0.25872,1.26316c0.2435,0.38047 0.70007,0.53266 3.91126,1.32404c2.38937,0.57832 3.57643,1.14142 4.64176,2.14586c2.75462,2.60243 2.70896,6.87893 -0.10653,9.72486c-1.70451,1.71973 -3.60688,2.35893 -6.97025,2.34371c-1.96324,-0.01522 -2.34371,-0.06088 -3.43946,-0.41091c-1.50667,-0.50222 -2.80028,-1.30882 -3.74385,-2.37415c-1.26316,-1.40014 -1.99367,-3.45469 -1.43057,-4.00256c0.30438,-0.30438 4.12431,-1.23273 4.80916,-1.15663c0.45656,0.04566 0.5631,0.15219 0.97401,0.95879c0.36525,0.70007 0.62397,0.98923 1.11098,1.26316c1.71973,0.94357 4.45913,0.41091 4.45913,-0.86747c0,-0.74572 -0.42613,-0.97401 -3.34815,-1.6893c-4.3526,-1.09576 -6.25496,-2.35893 -6.95503,-4.68742c-0.35003,-1.17185 -0.35003,-3.34815 0,-4.39825c0.42613,-1.20229 1.35448,-2.54155 2.34371,-3.3025c0.8066,-0.63919 2.4198,-1.35448 3.39381,-1.50667c0.21306,-0.03043 1.14142,-0.0761 2.06977,-0.09131z"/><path d="M231.73918,228.88209c5.23529,0.06088 5.61577,0.0761 6.54412,0.39569c1.7654,0.59354 3.45468,2.20673 4.1091,3.94169c0.45656,1.20229 0.5631,3.01334 0.2435,4.3526c-0.54788,2.32849 -1.65886,3.77428 -3.65253,4.76351l-1.20229,0.59354l-2.90681,0.0761l-2.90681,0.0761l-0.0761,3.53078c-0.06087,2.61764 -0.12175,3.57643 -0.27394,3.72863c-0.15219,0.15219 -0.88269,0.19785 -2.86115,0.19785c-2.46546,0 -2.69375,-0.01522 -2.89159,-0.28916c-0.18263,-0.25872 -0.21306,-1.94801 -0.21306,-10.57712c0,-9.48136 0.01522,-10.28796 0.25872,-10.54668c0.2435,-0.27394 0.51745,-0.28916 5.82884,-0.2435zM233.67198,234.0565c-0.94357,-0.03043 -1.75018,0 -1.81105,0.06088c-0.0761,0.06087 -0.12175,0.92835 -0.12175,1.9328v1.81105l1.81105,-0.06088c2.08498,-0.04565 2.52633,-0.2435 2.87637,-1.26316c0.25872,-0.76094 -0.01522,-1.65886 -0.62398,-2.11543c-0.36526,-0.27394 -0.70007,-0.31959 -2.13064,-0.36526z"/><path d="M321.0005,228.81893c6.27018,0 7.57901,0.03043 7.83772,0.21306c0.25872,0.19785 0.28916,0.44134 0.33481,2.14586c0.09131,3.18074 0.15219,3.11987 -2.80028,3.11987h-2.19152v7.76162v7.77685l-0.38047,0.36525c-0.36525,0.36525 -0.42613,0.38047 -2.78505,0.38047c-2.16108,0 -2.46546,-0.03043 -2.78506,-0.28916l-0.36525,-0.28916l-0.04565,-7.85294l-0.04566,-7.85294h-2.19152c-2.1763,0 -2.19152,0 -2.4959,-0.39569c-0.28916,-0.36525 -0.31959,-0.60876 -0.31959,-2.29805c0,-1.81105 0.10653,-2.40459 0.51744,-2.6633c0.09131,-0.06087 3.56122,-0.12175 7.71597,-0.12175z"/><path d="M353.11087,228.862c3.546,0 3.01334,-0.33481 4.70263,2.86115c0.62398,1.18707 1.20229,2.13064 1.27838,2.11543c0.09131,-0.03043 0.7305,-1.08054 1.43058,-2.32849c0.68485,-1.24795 1.36969,-2.35893 1.50667,-2.46546c0.18263,-0.12175 0.97401,-0.18263 2.64809,-0.18263c2.58721,0 2.87636,0.0761 2.87636,0.82182c0,0.18263 -1.17185,2.31327 -2.60243,4.74829c-1.47623,2.51112 -2.55677,4.50479 -2.52633,4.65698c0.04566,0.13697 1.38492,2.51111 2.9829,5.28095c1.59798,2.75462 2.90681,5.14398 2.90681,5.29617c0,0.16741 -0.09132,0.42613 -0.21306,0.59354c-0.19785,0.27394 -0.42613,0.28916 -3.18075,0.28916c-2.25239,0 -3.01334,-0.04566 -3.19596,-0.21306c-0.13697,-0.10653 -0.98923,-1.52189 -1.88714,-3.15031c-0.89792,-1.62842 -1.6893,-2.95246 -1.73495,-2.95246c-0.04565,0 -0.8066,1.27838 -1.65886,2.83071c-0.86748,1.56754 -1.70452,2.98291 -1.84148,3.16553c-0.2435,0.30438 -0.39569,0.31959 -2.70896,0.31959c-2.06977,0 -2.48068,-0.04566 -2.69375,-0.25872c-0.54788,-0.54788 -0.70007,-0.2435 3.95691,-8.24863c0.95879,-1.67408 1.73495,-3.07421 1.70452,-3.11987c-0.03043,-0.04565 -1.18708,-2.03933 -2.58721,-4.41347c-1.38492,-2.37414 -2.57199,-4.47435 -2.61764,-4.68742c-0.06087,-0.2435 0,-0.45656 0.16741,-0.65441c0.25872,-0.28916 0.48701,-0.30438 3.28728,-0.30438z"/><path d="M279.4672,228.81659h3.02856c2.67852,0 3.04377,0.03044 3.24162,0.25872c0.13697,0.15219 0.89792,1.59798 1.70452,3.19596c0.8066,1.6132 1.52189,2.93724 1.58276,2.93724c0.0761,0 0.77616,-1.27838 1.56754,-2.84593c0.79138,-1.55233 1.55232,-2.99812 1.70451,-3.19597c0.27394,-0.33481 0.35003,-0.35003 2.67852,-0.35003c2.58721,0 2.75462,0.04566 2.75462,0.8066c0,0.42613 -0.51745,1.43058 -4.62654,8.93348l-1.53711,2.81549l-0.0761,4.38304c-0.06087,3.66775 -0.10653,4.39826 -0.30438,4.52001c-0.71529,0.44135 -5.14398,0.39569 -5.60055,-0.04565c-0.22828,-0.2435 -0.27394,-0.74573 -0.33481,-4.64176l-0.0761,-4.36782l-0.77616,-1.44579c-0.44135,-0.79138 -1.78061,-3.28728 -2.99812,-5.52445c-1.21751,-2.23717 -2.26762,-4.21563 -2.31327,-4.38304c-0.06088,-0.16741 0,-0.45656 0.13697,-0.66963z"/><path d="M377.45618,228.81893c6.27018,0 7.57901,0.03043 7.83772,0.21306c0.25872,0.19785 0.28916,0.44134 0.33481,2.14586c0.09131,3.18074 0.15219,3.11987 -2.80028,3.11987h-2.19152v7.76162v7.77685l-0.38047,0.36525c-0.36525,0.36525 -0.42613,0.38047 -2.78506,0.38047c-2.16108,0 -2.46546,-0.03043 -2.78505,-0.28916l-0.36525,-0.28916l-0.04566,-7.85294l-0.04566,-7.85294h-2.19152c-2.1763,0 -2.19152,0 -2.4959,-0.39569c-0.28916,-0.36525 -0.31959,-0.60876 -0.31959,-2.29805c0,-1.81105 0.10653,-2.40459 0.51744,-2.6633c0.09131,-0.06087 3.56122,-0.12175 7.71597,-0.12175z"/></g><path d="M226.63875,150.54048c-1.00655,0 -1.82252,-0.81596 -1.82252,-1.82252v-3.19268c0,-1.00655 0.81596,-1.82252 1.82252,-1.82252h26.72247c1.00655,0 1.82252,0.81596 1.82252,1.82252v3.19268c0,1.00655 -0.81596,1.82252 -1.82252,1.82252z" fill="none" stroke-opacity="0.50588" stroke="#000000" stroke-width="17.5" stroke-linecap="butt" stroke-linejoin="miter"/><path d="M143.70387,238.75825v-22.09209c0,-0.6123 0.15205,-1.09515 0.45614,-1.44856c0.3082,-0.35752 0.70682,-0.53628 1.19583,-0.53628h6.15176c3.90392,0 6.8668,0.98215 8.88862,2.94643c2.02593,1.96428 3.0389,5.05661 3.0389,9.27696c0,9.03245 -3.85256,13.54867 -11.55767,13.54867h-6.2997c-1.24926,0 -1.87388,-0.56504 -1.87388,-1.69513zM150.76791,221.67756v11.00906c0,0.51367 0.03698,0.83832 0.11095,0.97393c0.07397,0.13561 0.29588,0.20342 0.66572,0.20342c1.34789,0 2.37111,-0.5034 3.06971,-1.5102c0.70271,-1.0068 1.05407,-2.68138 1.05407,-5.02373c0,-2.34646 -0.36368,-3.87516 -1.09104,-4.58608c-0.72326,-0.71093 -1.86977,-1.06639 -3.43956,-1.06639zM172.93626,240.23147c0,0.19725 -1.12392,0.29588 -3.37175,0.29588c-2.24373,0 -3.36559,-0.0863 -3.36559,-0.25889v-18.07927c0,-0.16848 1.12187,-0.25272 3.36559,-0.25272c2.24784,0 3.37175,0.07191 3.37175,0.21574zM172.93626,219.98244c0,0.17259 -1.12392,0.25889 -3.37175,0.25889c-2.24373,0 -3.36559,-0.07397 -3.36559,-0.22191v-5.30111c0,-0.24656 1.12187,-0.36984 3.36559,-0.36984c2.24784,0 3.37175,0.07397 3.37175,0.2219zM177.02079,233.82698c1.98895,1.20406 3.56079,1.80608 4.71553,1.80608c0.73558,0 1.10337,-0.25889 1.10337,-0.77668c0,-0.36574 -0.63901,-0.84448 -1.91703,-1.43623c-3.06561,-1.24925 -4.59841,-3.29778 -4.59841,-6.14559c0,-1.81635 0.66161,-3.20327 1.98484,-4.16076c1.32733,-0.95749 2.91767,-1.43623 4.77101,-1.43623c1.85333,0 3.42312,0.19725 4.70936,0.59175c1.29036,0.39039 1.93552,0.90406 1.93552,1.54102c0,0.54244 -0.26505,1.25542 -0.79517,2.13894c-0.52601,0.88352 -0.88763,1.36227 -1.08488,1.43623c-1.05612,-0.59175 -2.19647,-0.88763 -3.42106,-0.88763c-0.66162,0 -0.99242,0.23424 -0.99242,0.70271c0,0.29177 0.12739,0.54244 0.38217,0.75202c0.25889,0.20958 0.73147,0.46847 1.41774,0.77667c0.68627,0.3041 1.25542,0.57942 1.70745,0.82599c0.45614,0.24656 0.96777,0.5897 1.53486,1.0294c1.1794,0.93283 1.7691,2.14921 1.7691,3.64914c0,1.96018 -0.65134,3.54846 -1.95401,4.76484c-1.30268,1.21638 -3.26696,1.82457 -5.89287,1.82457c-1.74238,0 -3.32655,-0.29382 -4.75251,-0.88147c-1.42185,-0.59175 -2.13277,-1.40336 -2.13277,-2.43481c0,-0.68627 0.16643,-1.40952 0.49929,-2.16976c0.33286,-0.76024 0.66983,-1.26364 1.01091,-1.5102zM200.73312,247.15374c0,0.17259 -1.04995,0.25889 -3.14984,0.25889c-2.09579,0 -3.14369,-0.0863 -3.14369,-0.25889v-18.96073h-1.25131c-0.59175,0 -0.99859,-0.54039 -1.22049,-1.62115c-0.07397,-0.34108 -0.11095,-0.78078 -0.11095,-1.31912c0,-0.54244 0.17259,-1.18145 0.51778,-1.91703c0.49313,-1.08077 1.27802,-1.62115 2.35468,-1.62115c0.71503,0 1.37254,0.16643 1.97251,0.49929c0.59997,0.32875 1.01708,0.6349 1.25131,0.91845c0.23424,0.27944 0.35136,0.44381 0.35136,0.49313c1.64376,-1.27391 3.42312,-1.91087 5.3381,-1.91087c1.91498,0 3.55874,0.74175 4.93127,2.22524c1.37665,1.48349 2.06497,3.77859 2.06497,6.88529c0,3.1067 -0.68832,5.51275 -2.06497,7.21815c-1.37254,1.7054 -3.11492,2.5581 -5.22715,2.5581c-0.95749,0 -1.82868,-0.04931 -2.61357,-0.14794zM202.24333,228.15602c-0.41916,0 -0.82394,0.13561 -1.21432,0.40683v6.51545c0.41505,0.04931 0.75201,0.07397 1.01091,0.07397c0.25889,0 0.46231,0 0.61025,0c1.0027,-0.09863 1.50404,-1.38692 1.50404,-3.86488c0,-2.08757 -0.63695,-3.13136 -1.91087,-3.13136zM219.95288,240.1575c0,0.22191 -1.25131,0.33286 -3.75393,0.33286c-1.96428,-0.02466 -2.94643,-0.12328 -2.94643,-0.29588v-25.06935c0,-0.36984 1.18967,-0.55477 3.56901,-0.55477c2.08757,0.07397 3.13135,0.19725 3.13135,0.36984zM225.58473,227.08963c-0.68627,-1.22871 -1.0294,-2.22935 -1.0294,-3.00191c0,-0.77257 0.20752,-1.2698 0.62258,-1.49171c1.40131,-0.6123 3.32244,-0.91845 5.76342,-0.91845c2.44098,0 4.16487,0.5712 5.17167,1.71362c1.00681,1.1383 1.5102,2.82521 1.5102,5.06072v5.8189h1.25131c0.41916,0 0.74379,0.24451 0.97393,0.73353c0.23424,0.48902 0.35136,1.16501 0.35136,2.02798c0,0.85887 -0.21574,1.7054 -0.64723,2.53961c-0.42738,0.83421 -1.00886,1.25131 -1.74443,1.25131c-1.32322,0 -2.39167,-0.35547 -3.20532,-1.06639c-0.36574,-0.29588 -0.64723,-0.65339 -0.84448,-1.07255c-1.13009,1.42596 -2.88479,2.13894 -5.26413,2.13894c-1.79169,0 -3.3019,-0.63696 -4.5306,-1.91087c-1.2246,-1.27802 -1.8369,-2.79027 -1.8369,-4.53677c0,-3.99844 2.39167,-5.99766 7.175,-5.99766h2.02798v-0.36985c0,-0.63696 -0.10479,-1.04789 -0.31437,-1.23282c-0.20958,-0.18493 -0.69448,-0.27738 -1.45472,-0.27738c-0.93283,0 -2.25811,0.19725 -3.97584,0.59175zM228.53117,233.86397c0,0.53834 0.14588,0.94927 0.43765,1.23282c0.29588,0.28355 0.66983,0.42532 1.12187,0.42532c0.45614,0 0.86914,-0.18493 1.23899,-0.55477v-2.83548h-1.0294c-1.1794,0 -1.76909,0.57737 -1.76909,1.73211zM241.01373,222.22616c0,-0.26711 1.12187,-0.40066 3.36559,-0.40066c2.24784,0 3.40874,0.12123 3.48271,0.36368l2.65056,8.69136l2.53961,-8.76534c0.09863,-0.19315 0.85886,-0.28971 2.28072,-0.28971c3.26697,0 4.82648,0.15821 4.67855,0.47464l-8.65438,24.6317c-0.02466,0.14794 -0.69448,0.22191 -2.00949,0.22191c-1.3109,0 -2.53138,-0.04315 -3.66147,-0.12945c-1.12597,-0.0863 -1.66636,-0.19109 -1.62115,-0.31437l3.20532,-7.72977zM280.26313,239.86162c0,0.49313 -1.21638,0.73969 -3.64914,0.73969c-2.42865,0 -3.64297,-0.24657 -3.64297,-0.73969v-18.47994h-4.41965c-0.41505,0 -0.70887,-0.56504 -0.88146,-1.69512c-0.07397,-0.53834 -0.11095,-1.08899 -0.11095,-1.65198c0,-0.5671 0.03698,-1.11981 0.11095,-1.65814c0.17259,-1.13009 0.46641,-1.69513 0.88147,-1.69513h16.0143c0.41916,0 0.71503,0.56504 0.88763,1.69513c0.07397,0.53833 0.11095,1.09104 0.11095,1.65814c0,0.56299 -0.03699,1.11364 -0.11095,1.65198c-0.17259,1.13009 -0.46847,1.69513 -0.88763,1.69513h-4.30253zM300.10769,239.46096c-1.54924,0.90818 -3.53819,1.36226 -5.96684,1.36226c-2.42865,0 -4.47924,-0.82804 -6.15176,-2.48412c-1.66842,-1.6602 -2.50262,-3.95529 -2.50262,-6.88528c0,-2.93411 0.80339,-5.29701 2.41016,-7.0887c1.61088,-1.79169 3.64298,-2.68754 6.09628,-2.68754c2.45331,0 4.34774,0.62668 5.68329,1.88005c1.33966,1.24925 2.00949,2.76973 2.00949,4.56143c0,3.9779 -2.28277,5.96684 -6.8483,5.96684h-2.5396c0,0.73558 0.20136,1.24514 0.60408,1.52869c0.40683,0.27944 1.00475,0.41916 1.79375,0.41916c1.71773,0 3.34916,-0.39245 4.89428,-1.17734c0.02466,-0.02466 0.13561,0.14794 0.33286,0.51778c0.58764,1.05612 0.88147,1.9458 0.88147,2.66905c0,0.72326 -0.23218,1.19583 -0.69654,1.41774zM295.50312,228.82174c0,-1.03146 -0.5034,-1.54718 -1.5102,-1.54718c-0.46436,0 -0.86297,0.14178 -1.19583,0.42532c-0.33286,0.27944 -0.49929,0.68832 -0.49929,1.22666v1.14652h1.991c0.80955,0 1.21433,-0.41711 1.21433,-1.25131zM315.12886,222.1522c0.09863,-0.19315 0.71093,-0.28971 1.8369,-0.28971c3.68202,0 5.47371,0.13355 5.37509,0.40066l-2.49214,9.69423c3.01629,5.6422 2.52912,8.08917 2.52912,8.08917c0,0.14794 -0.73558,0.27122 -2.20674,0.36985c-1.47116,0.09863 -2.51495,0.14794 -3.13136,0.14794c-1.54513,0 -2.36701,-0.16027 -2.46564,-0.4808l-1.98484,-6.14559l-2.28687,6.40449c-0.04931,0.17259 -0.74996,0.25889 -2.10195,0.25889c-1.34788,0 -2.54988,-0.04931 -3.60599,-0.14794c-1.05201,-0.09863 -1.53075,-0.22191 -1.43623,-0.36985l4.16077,-8.46946c-2.89301,-6.06136 -4.33952,-9.10436 -4.33952,-9.12901c0,-0.14794 0.37395,-0.28149 1.12186,-0.40066c0.74791,-0.12328 1.59445,-0.18493 2.53961,-0.18493c0.94516,0 1.84717,0.04315 2.70604,0.12945c0.85886,0.08219 1.33761,0.19725 1.43623,0.34519l1.94785,5.96684zM333.05998,240.23147c0,0.29588 -1.03146,0.44381 -3.09438,0.44381c-2.45331,-0.09863 -3.67996,-0.25889 -3.67996,-0.4808v-13.03088h-1.88005c-0.49313,0 -0.73969,-0.84654 -0.73969,-2.53961c0,-0.44382 0.04315,-0.9842 0.12945,-1.62115c0.0863,-0.64106 0.26506,-0.9616 0.53628,-0.9616h1.95402v-3.23614c0,-0.49313 1.03557,-0.73969 3.1067,-0.73969c2.07525,0 3.11287,0.19725 3.11287,0.59175v2.35468l0.03698,1.02941h3.13136c0.41505,0 0.62258,0.86092 0.62258,2.58276c0,1.71772 -0.20752,2.57659 -0.62257,2.57659h-2.61357z" fill="none" stroke-opacity="0.50588" stroke="#000000" stroke-width="15" stroke-linecap="square" stroke-linejoin="round"/><path d="M213.4166,193.64913c-3.60092,0 -6.52006,-2.91914 -6.52006,-6.52008v-9.71413h5.11901v5.60336c0,3.04409 2.46773,5.51184 5.51182,5.51184h5.60336v5.11901zM262.47262,188.53012c3.04409,0 5.51182,-2.46773 5.51182,-5.51184v-5.60336h5.11901v9.71413c0,3.60094 -2.91914,6.52008 -6.52008,6.52008h-9.71413v-5.11901zM206.89654,133.96228c0,-3.60094 2.91912,-6.52006 6.52006,-6.52006h9.71413v5.11901h-5.60336c-3.04409,0 -5.51182,2.46773 -5.51182,5.51182v5.60336h-5.11901zM266.58339,127.44222c3.60094,0 6.52008,2.91912 6.52008,6.52006v9.71413h-5.11901v-5.60336c0,-3.04409 -2.46773,-5.51182 -5.51182,-5.51182h-5.60336v-5.11901z" fill="none" stroke-opacity="0.50588" stroke="#000000" stroke-width="20" stroke-linecap="butt" stroke-linejoin="miter"/><path d="M143.70387,238.75825v-22.09209c0,-0.6123 0.15205,-1.09515 0.45614,-1.44856c0.3082,-0.35752 0.70682,-0.53628 1.19583,-0.53628h6.15176c3.90392,0 6.8668,0.98215 8.88862,2.94643c2.02593,1.96428 3.0389,5.05661 3.0389,9.27696c0,9.03245 -3.85256,13.54867 -11.55767,13.54867h-6.2997c-1.24926,0 -1.87388,-0.56504 -1.87388,-1.69513zM150.76791,221.67756v11.00906c0,0.51367 0.03698,0.83832 0.11095,0.97393c0.07397,0.13561 0.29588,0.20342 0.66572,0.20342c1.34789,0 2.37111,-0.5034 3.06971,-1.5102c0.70271,-1.0068 1.05407,-2.68138 1.05407,-5.02373c0,-2.34646 -0.36368,-3.87516 -1.09104,-4.58608c-0.72326,-0.71093 -1.86977,-1.06639 -3.43956,-1.06639zM172.93626,240.23147c0,0.19725 -1.12392,0.29588 -3.37175,0.29588c-2.24373,0 -3.36559,-0.0863 -3.36559,-0.25889v-18.07927c0,-0.16848 1.12187,-0.25272 3.36559,-0.25272c2.24784,0 3.37175,0.07191 3.37175,0.21574zM172.93626,219.98244c0,0.17259 -1.12392,0.25889 -3.37175,0.25889c-2.24373,0 -3.36559,-0.07397 -3.36559,-0.22191v-5.30111c0,-0.24656 1.12187,-0.36984 3.36559,-0.36984c2.24784,0 3.37175,0.07397 3.37175,0.2219zM177.02079,233.82698c1.98895,1.20406 3.56079,1.80608 4.71553,1.80608c0.73558,0 1.10337,-0.25889 1.10337,-0.77668c0,-0.36574 -0.63901,-0.84448 -1.91703,-1.43623c-3.06561,-1.24925 -4.59841,-3.29778 -4.59841,-6.14559c0,-1.81635 0.66161,-3.20327 1.98484,-4.16076c1.32733,-0.95749 2.91767,-1.43623 4.77101,-1.43623c1.85333,0 3.42312,0.19725 4.70936,0.59175c1.29036,0.39039 1.93552,0.90406 1.93552,1.54102c0,0.54244 -0.26505,1.25542 -0.79517,2.13894c-0.52601,0.88352 -0.88763,1.36227 -1.08488,1.43623c-1.05612,-0.59175 -2.19647,-0.88763 -3.42106,-0.88763c-0.66162,0 -0.99242,0.23424 -0.99242,0.70271c0,0.29177 0.12739,0.54244 0.38217,0.75202c0.25889,0.20958 0.73147,0.46847 1.41774,0.77667c0.68627,0.3041 1.25542,0.57942 1.70745,0.82599c0.45614,0.24656 0.96777,0.5897 1.53486,1.0294c1.1794,0.93283 1.7691,2.14921 1.7691,3.64914c0,1.96018 -0.65134,3.54846 -1.95401,4.76484c-1.30268,1.21638 -3.26696,1.82457 -5.89287,1.82457c-1.74238,0 -3.32655,-0.29382 -4.75251,-0.88147c-1.42185,-0.59175 -2.13277,-1.40336 -2.13277,-2.43481c0,-0.68627 0.16643,-1.40952 0.49929,-2.16976c0.33286,-0.76024 0.66983,-1.26364 1.01091,-1.5102zM200.73312,247.15374c0,0.17259 -1.04995,0.25889 -3.14984,0.25889c-2.09579,0 -3.14369,-0.0863 -3.14369,-0.25889v-18.96073h-1.25131c-0.59175,0 -0.99859,-0.54039 -1.22049,-1.62115c-0.07397,-0.34108 -0.11095,-0.78078 -0.11095,-1.31912c0,-0.54244 0.17259,-1.18145 0.51778,-1.91703c0.49313,-1.08077 1.27802,-1.62115 2.35468,-1.62115c0.71503,0 1.37254,0.16643 1.97251,0.49929c0.59997,0.32875 1.01708,0.6349 1.25131,0.91845c0.23424,0.27944 0.35136,0.44381 0.35136,0.49313c1.64376,-1.27391 3.42312,-1.91087 5.3381,-1.91087c1.91498,0 3.55874,0.74175 4.93127,2.22524c1.37665,1.48349 2.06497,3.77859 2.06497,6.88529c0,3.1067 -0.68832,5.51275 -2.06497,7.21815c-1.37254,1.7054 -3.11492,2.5581 -5.22715,2.5581c-0.95749,0 -1.82868,-0.04931 -2.61357,-0.14794zM202.24333,228.15602c-0.41916,0 -0.82394,0.13561 -1.21432,0.40683v6.51545c0.41505,0.04931 0.75201,0.07397 1.01091,0.07397c0.25889,0 0.46231,0 0.61025,0c1.0027,-0.09863 1.50404,-1.38692 1.50404,-3.86488c0,-2.08757 -0.63695,-3.13136 -1.91087,-3.13136zM219.95288,240.1575c0,0.22191 -1.25131,0.33286 -3.75393,0.33286c-1.96428,-0.02466 -2.94643,-0.12328 -2.94643,-0.29588v-25.06935c0,-0.36984 1.18967,-0.55477 3.56901,-0.55477c2.08757,0.07397 3.13135,0.19725 3.13135,0.36984zM225.58473,227.08963c-0.68627,-1.22871 -1.0294,-2.22935 -1.0294,-3.00191c0,-0.77257 0.20752,-1.2698 0.62258,-1.49171c1.40131,-0.6123 3.32244,-0.91845 5.76342,-0.91845c2.44098,0 4.16487,0.5712 5.17167,1.71362c1.00681,1.1383 1.5102,2.82521 1.5102,5.06072v5.8189h1.25131c0.41916,0 0.74379,0.24451 0.97393,0.73353c0.23424,0.48902 0.35136,1.16501 0.35136,2.02798c0,0.85887 -0.21574,1.7054 -0.64723,2.53961c-0.42738,0.83421 -1.00886,1.25131 -1.74443,1.25131c-1.32322,0 -2.39167,-0.35547 -3.20532,-1.06639c-0.36574,-0.29588 -0.64723,-0.65339 -0.84448,-1.07255c-1.13009,1.42596 -2.88479,2.13894 -5.26413,2.13894c-1.79169,0 -3.3019,-0.63696 -4.5306,-1.91087c-1.2246,-1.27802 -1.8369,-2.79027 -1.8369,-4.53677c0,-3.99844 2.39167,-5.99766 7.175,-5.99766h2.02798v-0.36985c0,-0.63696 -0.10479,-1.04789 -0.31437,-1.23282c-0.20958,-0.18493 -0.69448,-0.27738 -1.45472,-0.27738c-0.93283,0 -2.25811,0.19725 -3.97584,0.59175zM228.53117,233.86397c0,0.53834 0.14588,0.94927 0.43765,1.23282c0.29588,0.28355 0.66983,0.42532 1.12187,0.42532c0.45614,0 0.86914,-0.18493 1.23899,-0.55477v-2.83548h-1.0294c-1.1794,0 -1.76909,0.57737 -1.76909,1.73211zM241.01373,222.22616c0,-0.26711 1.12187,-0.40066 3.36559,-0.40066c2.24784,0 3.40874,0.12123 3.48271,0.36368l2.65056,8.69136l2.53961,-8.76534c0.09863,-0.19315 0.85886,-0.28971 2.28072,-0.28971c3.26697,0 4.82648,0.15821 4.67855,0.47464l-8.65438,24.6317c-0.02466,0.14794 -0.69448,0.22191 -2.00949,0.22191c-1.3109,0 -2.53138,-0.04315 -3.66147,-0.12945c-1.12597,-0.0863 -1.66636,-0.19109 -1.62115,-0.31437l3.20532,-7.72977zM280.26313,239.86162c0,0.49313 -1.21638,0.73969 -3.64914,0.73969c-2.42865,0 -3.64297,-0.24657 -3.64297,-0.73969v-18.47994h-4.41965c-0.41505,0 -0.70887,-0.56504 -0.88146,-1.69512c-0.07397,-0.53834 -0.11095,-1.08899 -0.11095,-1.65198c0,-0.5671 0.03698,-1.11981 0.11095,-1.65814c0.17259,-1.13009 0.46641,-1.69513 0.88147,-1.69513h16.0143c0.41916,0 0.71503,0.56504 0.88763,1.69513c0.07397,0.53833 0.11095,1.09104 0.11095,1.65814c0,0.56299 -0.03699,1.11364 -0.11095,1.65198c-0.17259,1.13009 -0.46847,1.69513 -0.88763,1.69513h-4.30253zM300.10769,239.46096c-1.54924,0.90818 -3.53819,1.36226 -5.96684,1.36226c-2.42865,0 -4.47924,-0.82804 -6.15176,-2.48412c-1.66842,-1.6602 -2.50262,-3.95529 -2.50262,-6.88528c0,-2.93411 0.80339,-5.29701 2.41016,-7.0887c1.61088,-1.79169 3.64298,-2.68754 6.09628,-2.68754c2.45331,0 4.34774,0.62668 5.68329,1.88005c1.33966,1.24925 2.00949,2.76973 2.00949,4.56143c0,3.9779 -2.28277,5.96684 -6.8483,5.96684h-2.5396c0,0.73558 0.20136,1.24514 0.60408,1.52869c0.40683,0.27944 1.00475,0.41916 1.79375,0.41916c1.71773,0 3.34916,-0.39245 4.89428,-1.17734c0.02466,-0.02466 0.13561,0.14794 0.33286,0.51778c0.58764,1.05612 0.88147,1.9458 0.88147,2.66905c0,0.72326 -0.23218,1.19583 -0.69654,1.41774zM295.50312,228.82174c0,-1.03146 -0.5034,-1.54718 -1.5102,-1.54718c-0.46436,0 -0.86297,0.14178 -1.19583,0.42532c-0.33286,0.27944 -0.49929,0.68832 -0.49929,1.22666v1.14652h1.991c0.80955,0 1.21433,-0.41711 1.21433,-1.25131zM315.12886,222.1522c0.09863,-0.19315 0.71093,-0.28971 1.8369,-0.28971c3.68202,0 5.47371,0.13355 5.37509,0.40066l-4.48745,9.3201c3.01629,5.6422 4.52444,8.4633 4.52444,8.4633c0,0.14794 -0.73558,0.27122 -2.20674,0.36985c-1.47116,0.09863 -2.51495,0.14794 -3.13136,0.14794c-1.54513,0 -2.36701,-0.16027 -2.46564,-0.4808l-1.98484,-6.14559l-2.28687,6.40449c-0.04931,0.17259 -0.74996,0.25889 -2.10195,0.25889c-1.34788,0 -2.54988,-0.04931 -3.60599,-0.14794c-1.05201,-0.09863 -1.53075,-0.22191 -1.43623,-0.36985l4.16077,-8.46946c-2.89301,-6.06136 -4.33952,-9.10436 -4.33952,-9.12901c0,-0.14794 0.37395,-0.28149 1.12186,-0.40066c0.74791,-0.12328 1.59445,-0.18493 2.53961,-0.18493c0.94516,0 1.84717,0.04315 2.70604,0.12945c0.85886,0.08219 1.33761,0.19725 1.43623,0.34519l1.94785,5.96684zM333.05998,240.23147c0,0.29588 -1.03146,0.44381 -3.09438,0.44381c-2.45331,-0.09863 -3.67996,-0.25889 -3.67996,-0.4808v-13.03088h-1.88005c-0.49313,0 -0.73969,-0.84654 -0.73969,-2.53961c0,-0.44382 0.04315,-0.9842 0.12945,-1.62115c0.0863,-0.64106 0.26506,-0.9616 0.53628,-0.9616h1.95402v-3.23614c0,-0.49313 1.03557,-0.73969 3.1067,-0.73969c2.07525,0 3.11287,0.19725 3.11287,0.59175v2.35468l0.03698,1.02941h3.13136c0.41505,0 0.62258,0.86092 0.62258,2.58276c0,1.71772 -0.20752,2.57659 -0.62257,2.57659h-2.61357z" fill="#ffffff" stroke="none" stroke-width="1" stroke-linecap="square" stroke-linejoin="round"/><path d="M236.58114,148.84359c0,-1.00655 0.81596,-1.82252 1.82252,-1.82252h3.1927c1.00655,0 1.82252,0.81596 1.82252,1.82252v26.72247c0,1.00655 -0.81596,1.82252 -1.82252,1.82252h-3.1927c-1.00655,0 -1.82252,-0.81596 -1.82252,-1.82252z" fill="none" stroke-opacity="0.50588" stroke="#000000" stroke-width="17.5" stroke-linecap="butt" stroke-linejoin="miter"/><path d="M213.4166,193.64913c-3.60092,0 -6.52006,-2.91914 -6.52006,-6.52008v-9.71413h5.11901v5.60336c0,3.04409 2.46773,5.51184 5.51182,5.51184h5.60336v5.11901zM262.47262,188.53012c3.04409,0 5.51182,-2.46773 5.51182,-5.51184v-5.60336h5.11901v9.71413c0,3.60094 -2.91914,6.52008 -6.52008,6.52008h-9.71413v-5.11901zM206.89654,133.96228c0,-3.60094 2.91912,-6.52006 6.52006,-6.52006h9.71413v5.11901h-5.60336c-3.04409,0 -5.51182,2.46773 -5.51182,5.51182v5.60336h-5.11901zM266.58339,127.44222c3.60094,0 6.52008,2.91912 6.52008,6.52006v9.71413h-5.11901v-5.60336c0,-3.04409 -2.46773,-5.51182 -5.51182,-5.51182h-5.60336v-5.11901z" fill="#ffffff" stroke="#ffffff" stroke-width="7.5" stroke-linecap="butt" stroke-linejoin="miter"/><path d="M226.63875,150.54048c-1.00655,0 -1.82252,-0.81596 -1.82252,-1.82252v-3.19268c0,-1.00655 0.81596,-1.82252 1.82252,-1.82252h26.72247c1.00655,0 1.82252,0.81596 1.82252,1.82252v3.19268c0,1.00655 -0.81596,1.82252 -1.82252,1.82252z" fill="#ffffff" stroke="#ffffff" stroke-width="4.5" stroke-linecap="butt" stroke-linejoin="miter"/><path d="M236.58114,148.84359c0,-1.00655 0.81596,-1.82252 1.82252,-1.82252h3.1927c1.00655,0 1.82252,0.81596 1.82252,1.82252v26.72247c0,1.00655 -0.81596,1.82252 -1.82252,1.82252h-3.1927c-1.00655,0 -1.82252,-0.81596 -1.82252,-1.82252z" fill="#ffffff" stroke="#ffffff" stroke-width="4.5" stroke-linecap="butt" stroke-linejoin="miter"/><path d="M90.35135,117.67133c0,-6.39897 5.91545,-12.49566 13.1192,-12.49566c28.93252,0 219.72832,0 272.60996,0c8.61359,0 13.56814,4.64378 13.56814,12.24625c0,30.59212 0,109.0924 0,125.70487c0,6.03964 -4.85913,11.69754 -13.31873,11.69754c-52.46667,0 -243.42599,0 -272.60996,0c-7.3279,0 -13.36861,-4.5235 -13.36861,-11.94695c0,-30.16113 0,-108.19342 0,-125.20604z" data-paper-data="{&quot;index&quot;:null}" fill="none" stroke="#333d45" stroke-width="10" stroke-linecap="butt" stroke-linejoin="miter"/></g></g></svg>