<svg version="1.1" xmlns="http://www.w3.org/2000/svg" xmlns:xlink="http://www.w3.org/1999/xlink" width="720" height="540" viewBox="0,0,720,540"><defs><clipPath id="clip-1"><path d="M-120,450v-540h720v540z" fill="none" stroke="none" stroke-width="1" stroke-linecap="butt" stroke-linejoin="miter"/></clipPath></defs><g transform="translate(120,90)"><g clip-path="url(#clip-1)" data-paper-data="{&quot;isPaintingLayer&quot;:true}" fill-rule="nonzero" stroke-miterlimit="10" stroke-dasharray="" stroke-dashoffset="0" style="mix-blend-mode: normal"><path d="M88.70371,255.76597v-151.731h28.50348c32.06532,0.08087 64.13086,0.10352 96.1963,0.06796c42.69127,0.02424 85.38258,0.00251 128.07377,-0.06796h50.68846v151.731z" fill="#767676" stroke="none" stroke-width="1" stroke-linecap="butt" stroke-linejoin="miter"/><g fill="#a2a2a2" stroke="none" stroke-width="1" stroke-linecap="butt" stroke-linejoin="miter"><path d="M183.89676,255.90897c-31.84074,0.02266 -63.68144,0.08065 -95.52198,0.17577c-0.01633,-1.55929 -0.03374,-3.11856 -0.05221,-4.67781l49.16167,-147.32858c25.30637,0.04445 50.61284,0.05265 75.91925,0.02459c7.04876,0.004 14.09751,0.00675 21.14627,0.00823z"/><path d=""/><path d=""/><path d=""/><path d="M342.46287,256.0801c-32.33965,-0.09115 -64.67945,-0.14891 -97.01928,-0.17139l50.65942,-151.81706c32.37737,-0.02752 64.75469,-0.08251 97.13192,-0.16618z"/><path d=""/><path d=""/></g><path d="M100.90288,212.77552v-63.72702h55.71562v15.93176h-36.87063v31.86351h38.50933v15.93176zM110.82609,188.01302v-14.93033h42.42399v14.93033zM175.48271,212.77552l-3.55051,-9.65009l17.29733,-15.65864c1.63869,-1.39593 3.33808,-2.91324 5.09816,-4.55193c1.76008,-1.63869 3.36843,-3.30774 4.82505,-5.00712c1.51731,-1.76008 2.73116,-3.42912 3.64154,-5.00712c0.91039,-1.578 1.36558,-2.97393 1.36558,-4.18778c0,-0.84969 -0.21242,-1.578 -0.63727,-2.18493c-0.42485,-0.66762 -1.06212,-1.21385 -1.91181,-1.63869c-0.84969,-0.42485 -1.88146,-0.63727 -3.09531,-0.63727c-1.45662,0 -2.85254,0.27312 -4.18778,0.81935c-1.27454,0.48554 -2.57943,1.36558 -3.91466,2.64012c-1.33523,1.21385 -2.7615,2.91324 -4.27881,5.09816l-14.3841,-7.73828c1.94216,-3.2167 4.36985,-6.19062 7.28309,-8.92178c2.91324,-2.73116 6.19062,-4.91608 9.83217,-6.55478c3.70224,-1.63869 7.6169,-2.4277 11.74398,-2.367c4.30916,0 8.16313,0.81935 11.5619,2.45804c3.45947,1.578 6.19062,3.79328 8.19347,6.64582c2.00285,2.85254 3.00427,6.12993 3.00427,9.83217c0,1.76008 -0.27312,3.52016 -0.81935,5.28024c-0.54623,1.76008 -1.33523,3.48981 -2.367,5.1892c-1.03177,1.69939 -2.27597,3.42912 -3.73258,5.1892c-1.39593,1.76008 -2.94358,3.48981 -4.64297,5.1892c-1.63869,1.63869 -3.39877,3.30774 -5.28024,5.00712l-17.02422,14.83929l-0.09104,-10.83359h37.41687v16.7511zM242.88415,212.77552v-63.72702h55.71562v15.93176h-36.87063v31.86351h38.50933v15.93176zM252.80736,188.01302v-14.93033h42.42399v14.93033zM321.7428,212.77552v-63.72702h55.71562v15.93176h-36.87063v31.86351h38.50933v15.93176zM331.66601,188.01302v-14.93033h42.42399v14.93033z" fill="#575757" stroke="none" stroke-width="1" stroke-linecap="butt" stroke-linejoin="miter"/><path d="M277.52434,184.53687c0,23.18096 -16.22662,34.77169 -35.51315,41.49388c-1.01002,0.34241 -2.10704,0.32622 -3.10644,-0.04603c-19.33306,-6.67616 -35.55968,-18.2669 -35.55968,-41.44785v-32.45374c0,-1.22958 0.48857,-2.40883 1.35799,-3.2783c0.86942,-0.86947 2.04837,-1.35794 3.2779,-1.35794c9.27279,0 20.86301,-5.56347 28.93004,-12.61052c0.98221,-0.83917 2.23196,-1.30023 3.5237,-1.30023c1.29174,0 2.54149,0.46106 3.5237,1.30023c8.11306,7.09342 19.65726,12.61052 28.93004,12.61052c1.22953,0 2.40848,0.48847 3.2784,1.35794c0.86942,0.86947 1.35749,2.04872 1.35749,3.2783z" fill="#767676" stroke="#ffffff" stroke-width="5" stroke-linecap="round" stroke-linejoin="round"/><path d="M234.5172,176.71412c-1.10207,-3.16309 -1.09752,-6.60687 0.01214,-9.76743c1.10966,-3.16056 3.25868,-5.85075 6.09605,-7.63106c2.83788,-1.7798 6.19518,-2.54453 9.52365,-2.16824c3.32847,0.37629 6.43087,1.87084 8.79939,4.23936c2.36852,2.36852 3.86307,5.47091 4.23936,8.79939c0.37629,3.32847 -0.38843,6.68577 -2.16824,9.52365c-1.78031,2.83737 -4.4705,4.98639 -7.63106,6.09605c-3.16056,1.10966 -6.60434,1.11421 -9.76743,0.01214l-3.18635,3.18635h-4.55193v6.8279h-6.8279v6.8279h-9.10386c-1.36558,0 -2.27597,-0.91039 -2.27597,-2.27597v-6.8279z" fill="#ffffff" stroke="none" stroke-width="1" stroke-linecap="butt" stroke-linejoin="miter"/><path d="M247.09618,168.24298c0,-2.75923 2.2368,-4.99602 4.99602,-4.99602c2.75923,0 4.99602,2.2368 4.99602,4.99602c0,2.75923 -2.2368,4.99602 -4.99602,4.99602c-2.75923,0 -4.99602,-2.2368 -4.99602,-4.99602z" fill="#767676" stroke="none" stroke-width="1" stroke-linecap="butt" stroke-linejoin="miter"/><path d="M90.35135,117.67134c0,-6.39897 5.91545,-12.49566 13.1192,-12.49566c28.93252,0 219.72832,0 272.60996,0c8.61359,0 13.56814,4.64378 13.56814,12.24625c0,30.59212 0,109.0924 0,125.70487c0,6.03964 -4.85913,11.69754 -13.31873,11.69754c-52.46667,0 -243.42599,0 -272.60996,0c-7.3279,0 -13.36861,-4.5235 -13.36861,-11.94695c0,-30.16113 0,-108.19342 0,-125.20604z" data-paper-data="{&quot;index&quot;:null}" fill="none" stroke="#ffffff" stroke-width="10" stroke-linecap="butt" stroke-linejoin="miter"/></g></g></svg>