<svg version="1.1" xmlns="http://www.w3.org/2000/svg" xmlns:xlink="http://www.w3.org/1999/xlink" width="309.2973" height="159.64866" viewBox="0,0,309.2973,159.64866"><defs><linearGradient x1="240" y1="254.82434" x2="240" y2="105.17568" gradientUnits="userSpaceOnUse" id="color-1"><stop offset="0" stop-color="#8700e7"/><stop offset="1" stop-color="#5c009f"/></linearGradient></defs><g transform="translate(-85.35135,-100.17567)"><g data-paper-data="{&quot;isPaintingLayer&quot;:true}" fill-rule="nonzero" stroke-linejoin="miter" stroke-miterlimit="10" stroke-dasharray="" stroke-dashoffset="0" style="mix-blend-mode: normal"><path d="M89.19503,254.82433l0.04934,-149.64866l301.56061,0.09802v149.55064zM89.19503,254.82433" fill="#9400ff" stroke="none" stroke-width="1" stroke-linecap="butt"/><path d="M390.80497,105.27369v18.40762l-9.3761,-9.31555l-18.80943,18.68403h-28.33353l27.96252,-27.7761zM390.80497,105.27369" fill="#8700e7" stroke="none" stroke-width="1" stroke-linecap="butt"/><path d="M117.75157,105.27369l27.96252,27.7761h-28.33353l-18.80745,-18.68403l-9.37807,9.31555l0.01579,-18.488zM117.75157,105.27369" fill="#8700e7" stroke="none" stroke-width="1" stroke-linecap="butt"/><path d="M211.80856,133.04979l-18.80745,-18.68403l-18.80943,18.68403h-28.33353l27.96252,-27.7761h38.35891l27.96252,27.7761zM211.80856,133.04979" fill="#8700e7" stroke="none" stroke-width="1" stroke-linecap="butt"/><path d="M305.80832,133.04979l-18.80745,-18.68403l-18.80943,18.68403h-28.33353l27.96252,-27.7761h38.35891l27.96252,27.7761zM305.80832,133.04979" fill="#8700e7" stroke="none" stroke-width="1" stroke-linecap="butt"/><path d="M334.28592,179.95687l47.14296,-46.82867l9.3761,9.31555v28.14464l-9.3761,-9.31555l-18.80943,18.68403zM334.28592,179.95687" fill="#8700e7" stroke="none" stroke-width="1" stroke-linecap="butt"/><path d="M117.38055,179.95687l-18.80745,-18.68403l-9.37807,9.31555v-28.14464l9.37807,-9.31555l47.14099,46.82867zM117.38055,179.95687" fill="#8700e7" stroke="none" stroke-width="1" stroke-linecap="butt"/><path d="M211.80856,179.95687l-18.80745,-18.68403l-18.80943,18.68403h-28.33353l47.14296,-46.82867l47.14099,46.82867zM211.80856,179.95687" fill="#8700e7" stroke="none" stroke-width="1" stroke-linecap="butt"/><path d="M305.80832,179.95687l-18.80745,-18.68403l-18.80943,18.68403h-28.33353l47.14296,-46.82867l47.14099,46.82867zM305.80832,179.95687" fill="#8700e7" stroke="none" stroke-width="1" stroke-linecap="butt"/><path d="M334.28592,226.86396l47.14296,-46.82867l9.3761,9.31555v28.14464l-9.3761,-9.31555l-18.80943,18.68403zM334.28592,226.86396" fill="#8700e7" stroke="none" stroke-width="1" stroke-linecap="butt"/><path d="M117.38055,226.86396l-18.80745,-18.68403l-9.37807,9.31555v-28.14464l9.37807,-9.31555l47.14099,46.82867zM117.38055,226.86396" fill="#8700e7" stroke="none" stroke-width="1" stroke-linecap="butt"/><path d="M211.80856,226.86396l-18.80745,-18.68403l-18.80943,18.68403h-28.33353l47.14296,-46.82867l47.14099,46.82867zM211.80856,226.86396" fill="#8700e7" stroke="none" stroke-width="1" stroke-linecap="butt"/><path d="M305.80832,226.86396l-18.80745,-18.68403l-18.80943,18.68403h-28.33353l47.14296,-46.82867l47.14099,46.82867zM305.80832,226.86396" fill="#8700e7" stroke="none" stroke-width="1" stroke-linecap="butt"/><path d="M353.35979,254.82433l28.06909,-27.88196l9.3761,9.31555l-0.09275,18.47035zM353.35979,254.82433" fill="#8700e7" stroke="none" stroke-width="1" stroke-linecap="butt"/><path d="M89.19503,254.82433v-18.56641l9.37807,-9.31555l28.06909,27.88196zM89.19503,254.82433" fill="#8700e7" stroke="none" stroke-width="1" stroke-linecap="butt"/><path d="M193.00111,226.94237l28.06909,27.88196h-56.13817zM193.00111,226.94237" fill="#8700e7" stroke="none" stroke-width="1" stroke-linecap="butt"/><path d="M287.00087,226.94237l28.06909,27.88196h-56.13817zM287.00087,226.94237" fill="#8700e7" stroke="none" stroke-width="1" stroke-linecap="butt"/><path d="M117.63908,179.60009h56.27631l-28.13816,27.95057zM117.63908,179.60009" fill="#8700e7" stroke="none" stroke-width="1" stroke-linecap="butt"/><path d="M211.76712,179.60009h56.27631l-28.13816,27.95057zM211.76712,179.60009" fill="#8700e7" stroke="none" stroke-width="1" stroke-linecap="butt"/><path d="M305.7057,179.60009h56.77956l-28.6414,27.95057zM305.7057,179.60009" fill="#8700e7" stroke="none" stroke-width="1" stroke-linecap="butt"/><path d="M211.26387,226.1994h57.2828l-28.6414,27.95057zM211.26387,226.1994" fill="#8700e7" stroke="none" stroke-width="1" stroke-linecap="butt"/><path d="M305.20246,226.26213h57.78604l-29.14464,27.95057zM305.20246,226.26213" fill="#8700e7" stroke="none" stroke-width="1" stroke-linecap="butt"/><path d="M116.82007,226.1994h57.78604l-28.6414,27.95057zM116.82007,226.1994" fill="#8700e7" stroke="none" stroke-width="1" stroke-linecap="butt"/><path d="M117.32332,132.52246h57.2828l-28.13618,27.95057zM117.32332,132.52246" fill="#8700e7" stroke="none" stroke-width="1" stroke-linecap="butt"/><path d="M211.26387,132.52246h57.2828l-28.6414,27.95057zM211.26387,132.52246" fill="#8700e7" stroke="none" stroke-width="1" stroke-linecap="butt"/><path d="M305.20246,132.52246h57.78604l-29.14464,27.95057zM305.20246,132.52246" fill="#8700e7" stroke="none" stroke-width="1" stroke-linecap="butt"/><path d="M145.77723,114.61668l-9.4057,-9.343h18.80943zM145.77723,114.61668" fill="#8700e7" stroke="none" stroke-width="1" stroke-linecap="butt"/><path d="M240.21906,114.61668l-9.40373,-9.343h18.80942zM240.21906,114.61668" fill="#8700e7" stroke="none" stroke-width="1" stroke-linecap="butt"/><path d="M334.66286,114.61668l-9.4057,-9.343h18.80943zM334.66286,114.61668" fill="#8700e7" stroke="none" stroke-width="1" stroke-linecap="butt"/><path d="M130.41748,206.72728c0,3.44236 -1.49986,6.05942 -4.49563,7.84921c1.63406,0.59398 3.00169,1.61924 4.10291,3.07774c1.09727,1.4585 1.64787,3.52077 1.64787,6.18684c0,2.66607 -0.99267,4.77932 -2.97998,6.33583c-1.98139,1.55259 -4.82323,2.32889 -8.52157,2.32889h-11.80548c-0.56245,0 -1.02819,-0.18819 -1.39724,-0.56458c-0.36904,-0.38227 -0.55258,-0.88999 -0.55258,-1.52123v-31.79284c0,-0.3607 0.0592,-0.5979 0.17564,-0.71552c0.11841,-0.11566 0.36115,-0.17447 0.72822,-0.17447h11.40288c7.79532,0 11.69496,2.99736 11.69496,8.99013zM116.01686,205.78632v6.50442h0.25261c3.19904,0 4.7956,-1.05859 4.7956,-3.17576c0,-1.16052 -0.30984,-2.00151 -0.92754,-2.52884c-0.61376,-0.53321 -1.63603,-0.79982 -3.06485,-0.79982zM116.01686,218.15216v6.45345h0.90584c1.43473,0 2.48266,-0.26269 3.14773,-0.79002c0.6631,-0.53125 0.99464,-1.37616 0.99464,-2.53668c0,-1.1566 -0.30984,-1.96622 -0.92754,-2.42691c-0.61376,-0.46656 -1.63603,-0.69984 -3.06485,-0.69984zM146.1226,233.00371c-3.29969,0 -6.0843,-1.11543 -8.3558,-3.35023c-2.26558,-2.24067 -3.39837,-5.33605 -3.39837,-9.2881c0,-3.95989 1.09135,-7.14545 3.27206,-9.56451c2.18861,-2.4171 4.94756,-3.62467 8.2808,-3.62467c3.33127,0 5.90471,0.84491 7.71836,2.53668c1.81957,1.68589 2.72935,3.73641 2.72935,6.15352c0,5.36546 -3.10037,8.04917 -9.3011,8.04917h-3.44968c0,0.99193 0.27432,1.68001 0.82098,2.06228c0.55258,0.37835 1.36566,0.56654 2.43727,0.56654c2.33268,0 4.54694,-0.52929 6.64675,-1.58984c0.03355,-0.03137 0.18354,0.19996 0.44996,0.69984c0.79927,1.42517 1.19791,2.6249 1.19791,3.59919c0,0.97821 -0.31576,1.61336 -0.94531,1.91329c0,0 -4.80547,1.83684 -8.10319,1.83684zM147.97176,216.81521c0,-1.39184 -0.68283,-2.08777 -2.05047,-2.08777c-0.63152,0 -1.17226,0.19015 -1.62419,0.57242c-0.45193,0.37835 -0.67888,0.9292 -0.67888,1.65649v1.54475h2.70369c1.10121,0 1.64985,-0.56262 1.64985,-1.68589zM171.12683,232.20586c0,0.39991 -1.40118,0.59986 -4.20355,0.59986c-3.33127,-0.1333 -4.9969,-0.34894 -4.9969,-0.64887v-17.58035h-2.55371c-0.66902,0 -1.00451,-1.14092 -1.00451,-3.42472c0,-0.59986 0.05921,-1.32715 0.17564,-2.18774c0.11644,-0.86451 0.36115,-1.29775 0.72822,-1.29775h2.65436v-4.36372c0,-0.66652 1.40513,-0.99977 4.21934,-0.99977c2.81816,0 4.22724,0.26661 4.22724,0.79786v3.17772l0.04934,1.38792h4.25487c0.56245,0 0.84466,1.16248 0.84466,3.48549c0,2.31712 -0.28221,3.47569 -0.84466,3.47569h-3.55033zM189.52774,232.20586c0,0.39991 -1.40118,0.59986 -4.20355,0.59986c-3.33127,-0.1333 -4.9969,-0.34894 -4.9969,-0.64887v-17.58035h-2.55371c-0.66902,0 -1.00451,-1.14092 -1.00451,-3.42472c0,-0.59986 0.0592,-1.32715 0.17564,-2.18774c0.11841,-0.86451 0.36115,-1.29775 0.72822,-1.29775h2.65436v-4.36372c0,-0.66652 1.40513,-0.99977 4.21934,-0.99977c2.81816,0 4.22724,0.26661 4.22724,0.79786v3.17772l0.05131,1.38792h4.25289c0.56245,0 0.84466,1.16248 0.84466,3.48549c0,2.31712 -0.28221,3.47569 -0.84466,3.47569h-3.55033zM215.32928,231.16687c-2.10375,1.22521 -4.80547,1.83684 -8.10319,1.83684c-3.29969,0 -6.0843,-1.11543 -8.3558,-3.35023c-2.26558,-2.24067 -3.39837,-5.33605 -3.39837,-9.2881c0,-3.95989 1.09134,-7.14545 3.27403,-9.56451c2.18664,-2.4171 4.94559,-3.62467 8.27883,-3.62467c3.33127,0 5.90471,0.84491 7.71836,2.53668c1.81957,1.68589 2.72935,3.73641 2.72935,6.15352c0,5.36546 -3.10037,8.04917 -9.3011,8.04917h-3.44968c0,0.99193 0.27432,1.68001 0.82098,2.06228c0.55258,0.37835 1.36369,0.56654 2.43727,0.56654c2.33268,0 4.54694,-0.52929 6.64477,-1.58984c0.03355,-0.03137 0.18551,0.19996 0.45391,0.69984c0.7973,1.42517 1.19594,2.6249 1.19594,3.59919c0,0.97821 -0.31576,1.61336 -0.94531,1.91329zM209.07526,216.81521c0,-1.39184 -0.68283,-2.08777 -2.05046,-2.08777c-0.63152,0 -1.17226,0.19015 -1.62419,0.57242c-0.45193,0.37835 -0.67888,0.9292 -0.67888,1.65649v1.54475h2.70567c1.09924,0 1.64787,-0.56262 1.64787,-1.68589zM231.67775,232.45678c0,0.23328 -1.51762,0.34894 -4.55286,0.34894c-3.0313,-0.06665 -4.54694,-0.19996 -4.54694,-0.39991v-16.48844h-1.3479c-0.53679,0 -0.96307,-0.3215 -1.2808,-0.96449c-0.31773,-0.65083 -0.47759,-1.45457 -0.47759,-2.41318c0,-3.57567 1.06964,-5.3635 3.20694,-5.3635c1.50183,0 2.75106,0.4548 3.74965,1.3644c0.99859,0.90764 1.49986,1.9427 1.49986,3.10126c0.69665,-1.35852 1.63801,-2.44259 2.82013,-3.25221c1.1841,-0.80766 2.39188,-1.21345 3.62532,-1.21345c1.936,0 3.10432,0.49597 3.50888,1.4879c0.09275,0.26661 0.14012,0.65868 0.14012,1.17228c0,0.50969 -0.15788,1.42909 -0.47759,2.75232c-0.31181,1.32715 -0.63547,2.28772 -0.97096,2.88562c-0.33352,0.59398 -0.53482,0.88999 -0.60192,0.88999c-0.06118,0 -0.36905,-0.1235 -0.91965,-0.37246c-0.55455,-0.25092 -1.04398,-0.37443 -1.4742,-0.37443c-1.26699,0 -1.90048,0.99389 -1.90048,2.9856zM253.479,223.96653v-17.68817h-3.55032c-0.56837,0 -0.97096,-0.71356 -1.20384,-2.13677c-0.0967,-0.69396 -0.14209,-1.40361 -0.14209,-2.12893c0,-0.73121 0.04539,-1.44477 0.14209,-2.13873c0.23287,-1.42321 0.63547,-2.13677 1.20384,-2.13677h16.80237c0.56245,0 0.94531,0.71356 1.1466,2.13677c0.1342,0.69396 0.2013,1.40753 0.2013,2.13873c0,0.72533 -0.0671,1.43497 -0.2013,2.12893c-0.2013,1.42321 -0.58416,2.13677 -1.1466,2.13677h-3.34903v17.68817h3.49902c0.56442,0 0.96307,0.70964 1.19791,2.12697c0.1342,0.69984 0.2013,1.41537 0.2013,2.14658c0,0.72533 -0.0671,1.43693 -0.2013,2.12893c-0.23485,1.42517 -0.63349,2.13678 -1.19791,2.13678h-16.85171c-0.56837,0 -0.9532,-0.71161 -1.1545,-2.13678c-0.1342,-0.692 -0.2013,-1.4036 -0.2013,-2.12893c0,-0.73121 0.0671,-1.44673 0.2013,-2.14658c0.2013,-1.41733 0.58613,-2.12697 1.1545,-2.12697zM281.82832,232.20586c0,0.23328 -1.19989,0.3509 -3.59966,0.3509c-3.33127,-0.09998 -4.9969,-0.28425 -4.9969,-0.55086v-16.08853h-1.30646c-0.86636,0 -1.43079,-0.73121 -1.69918,-2.18774c-0.0671,-0.42735 -0.10065,-0.85667 -0.10065,-1.2899c0,-1.02526 0.2013,-2.05052 0.60192,-3.07578c0.60389,-1.4585 1.53736,-2.18774 2.80434,-2.18774c1.26699,0 2.39978,0.29993 3.40034,0.89784c0.99859,0.59398 1.66366,1.18601 1.99916,1.77999c2.0998,-1.78587 4.59628,-2.67783 7.49338,-2.67783c2.90302,0 5.00282,0.77826 6.30336,2.33673c1.30054,1.55259 1.95179,4.09908 1.95179,7.64338v14.90056c0,0.39991 -1.42684,0.59987 -4.27855,0.59987c-2.84776,0 -4.26868,-0.19996 -4.26868,-0.59987v-14.35363c0,-1.65649 -0.58416,-2.48571 -1.7505,-2.48571c-0.3355,0 -0.80519,0.14114 -1.4071,0.42343c-0.596,0.28425 -0.97886,0.49205 -1.1466,0.62535zM309.68229,241.54493c0,0.23328 -1.42684,0.34894 -4.27855,0.34894c-2.84776,0 -4.26868,-0.11566 -4.26868,-0.34894v-25.57855h-1.70116c-0.80321,0 -1.35579,-0.72925 -1.65774,-2.18774c-0.10065,-0.45872 -0.14999,-1.05271 -0.14999,-1.77999c0,-0.73121 0.23485,-1.59376 0.70454,-2.58569c0.66902,-1.4585 1.73471,-2.18578 3.19707,-2.18578c0.97096,0 1.86496,0.22348 2.67804,0.6724c0.81506,0.44304 1.38145,0.85667 1.70116,1.23894c0.31773,0.37639 0.47561,0.5979 0.47561,0.66456c2.23203,-1.71726 4.64956,-2.57589 7.25064,-2.57589c2.60107,0 4.8331,0.99977 6.69608,3.00128c1.87088,2.00151 2.80434,5.09689 2.80434,9.2881c0,4.19121 -0.93346,7.43754 -2.80434,9.73702c-1.86298,2.30144 -4.22921,3.45216 -7.09868,3.45216c-1.30054,0 -2.48266,-0.06665 -3.54835,-0.19995zM311.73276,215.91737c-0.57034,0 -1.11898,0.18231 -1.64985,0.54694v8.79018c0.56442,0.06665 1.02227,0.09998 1.37355,0.09998c0.35128,0 0.62757,0 0.82887,0c1.36171,-0.1333 2.04257,-1.87017 2.04257,-5.21451c0,-2.81505 -0.86636,-4.22258 -2.59515,-4.22258zM326.43336,207.96622c0,-0.3607 1.43079,-0.54105 4.29433,-0.54105c2.86947,0 4.3042,0.18035 4.3042,0.54105v14.50262c0,1.65845 0.53284,2.48571 1.59656,2.48571c0.80519,0 1.70708,-0.34502 2.70567,-1.03898v-15.94935c0,-0.32738 1.415,-0.49009 4.24302,-0.49009c2.83592,0 4.25486,0.16271 4.25486,0.49009v16.29045h1.30449c1.13279,0 1.69918,1.07819 1.69918,3.23456c0,1.09191 -0.23287,2.20147 -0.70256,3.3267c-0.66507,1.4585 -1.56301,2.18578 -2.6958,2.18578c-2.23795,0 -3.88977,-0.9096 -4.95546,-2.73468l-0.05131,0.05097c-2.03073,1.78979 -4.21342,2.68371 -6.5461,2.68371c-3.23654,0 -5.6225,-0.80178 -7.15788,-2.40926c-1.52946,-1.60748 -2.29321,-4.26766 -2.29321,-7.97467zM365.38826,232.20586c0,0.39991 -1.40118,0.59986 -4.20158,0.59986c-3.33324,-0.1333 -4.99887,-0.34894 -4.99887,-0.64887v-17.58035h-2.55371c-0.66902,0 -1.00451,-1.14092 -1.00451,-3.42472c0,-0.59986 0.0592,-1.32715 0.17564,-2.18774c0.11841,-0.86451 0.36115,-1.29775 0.7302,-1.29775h2.65238v-4.36372c0,-0.66652 1.4071,-0.99977 4.21934,-0.99977c2.81816,0 4.22724,0.26661 4.22724,0.79786v3.17772l0.05131,1.38792h4.25289c0.56245,0 0.84466,1.16248 0.84466,3.48549c0,2.31712 -0.28221,3.47569 -0.84466,3.47569h-3.55033zM365.38826,232.20586" fill="none" stroke="#5c009f" stroke-width="10" stroke-linecap="square"/><path d="M130.4688,206.72732c0,3.44236 -1.49986,6.05942 -4.49563,7.84921c1.63406,0.59398 3.00367,1.61924 4.10093,3.07774c1.10121,1.4585 1.64984,3.52078 1.64984,6.18684c0,2.66607 -0.99267,4.77932 -2.97998,6.33583c-1.98139,1.55259 -4.82126,2.32889 -8.52157,2.32889h-11.8035c-0.56442,0 -1.03017,-0.18819 -1.39921,-0.56458c-0.36904,-0.38227 -0.55258,-0.88999 -0.55258,-1.52123v-31.79284c0,-0.3607 0.05921,-0.59791 0.17564,-0.71553c0.11841,-0.11566 0.36115,-0.17447 0.72822,-0.17447h11.40288c7.7973,0 11.69496,2.99737 11.69496,8.99013zM116.07015,205.78635v6.50442h0.25063c3.19904,0 4.79758,-1.05859 4.79758,-3.17576c0,-1.16052 -0.30984,-2.00151 -0.92952,-2.52884c-0.61376,-0.53321 -1.63603,-0.79982 -3.06484,-0.79982zM116.07015,218.1522v6.45345h0.90386c1.43474,0 2.48266,-0.26269 3.14773,-0.79002c0.6631,-0.53125 0.99662,-1.37616 0.99662,-2.53669c0,-1.1566 -0.30984,-1.96622 -0.92952,-2.4269c-0.61376,-0.46656 -1.63603,-0.69984 -3.06484,-0.69984zM154.2771,231.16691c-2.10375,1.22521 -4.80547,1.83684 -8.10319,1.83684c-3.29969,0 -6.0843,-1.11544 -8.3558,-3.35023c-2.26558,-2.24067 -3.39837,-5.33605 -3.39837,-9.2881c0,-3.95989 1.09135,-7.14545 3.27404,-9.56451c2.18664,-2.4171 4.94756,-3.62467 8.27883,-3.62467c3.33127,0 5.90471,0.84491 7.71836,2.53669c1.81957,1.68589 2.72935,3.73641 2.72935,6.15351c0,5.36546 -3.10037,8.04917 -9.3011,8.04917h-3.44968c0,0.99193 0.27432,1.68001 0.82098,2.06228c0.55258,0.37835 1.36369,0.56654 2.43727,0.56654c2.33268,0 4.54694,-0.52929 6.64477,-1.58984c0.03355,-0.03137 0.18551,0.19995 0.4539,0.69984c0.79729,1.42517 1.19594,2.6249 1.19594,3.59919c0,0.97821 -0.31379,1.61336 -0.94531,1.91329zM148.02308,216.81524c0,-1.39184 -0.68283,-2.08776 -2.05046,-2.08776c-0.63152,0 -1.17226,0.19015 -1.62419,0.57242c-0.45193,0.37835 -0.67888,0.9292 -0.67888,1.65649v1.54475h2.70567c1.09924,0 1.64787,-0.56262 1.64787,-1.68589zM171.17815,232.20589c0,0.39991 -1.40118,0.59986 -4.20158,0.59986c-3.33324,-0.1333 -4.99888,-0.34894 -4.99888,-0.64887v-17.58036h-2.55371c-0.66902,0 -1.00451,-1.14092 -1.00451,-3.42472c0,-0.59987 0.05921,-1.32715 0.17564,-2.18774c0.11841,-0.86451 0.36115,-1.29775 0.7302,-1.29775h2.65238v-4.36568c0,-0.66456 1.40711,-0.99782 4.21934,-0.99782c2.81816,0 4.22724,0.26661 4.22724,0.79786v3.17772l0.04934,1.38792h4.25487c0.56245,0 0.84466,1.16249 0.84466,3.48549c0,2.31712 -0.28221,3.47569 -0.84466,3.47569h-3.55033zM189.57906,232.20589c0,0.39991 -1.40119,0.59986 -4.20158,0.59986c-3.33324,-0.1333 -4.99887,-0.34894 -4.99887,-0.64887v-17.58036h-2.55371c-0.66902,0 -1.00451,-1.14092 -1.00451,-3.42472c0,-0.59987 0.05921,-1.32715 0.17564,-2.18774c0.11841,-0.86451 0.36115,-1.29775 0.7302,-1.29775h2.65238v-4.36568c0,-0.66456 1.40711,-0.99782 4.21934,-0.99782c2.81816,0 4.22723,0.26661 4.22723,0.79786v3.17772l0.05131,1.38792h4.25289c0.56245,0 0.84466,1.16249 0.84466,3.48549c0,2.31712 -0.28221,3.47569 -0.84466,3.47569h-3.55032zM215.38059,231.16691c-2.10375,1.22521 -4.80547,1.83684 -8.10319,1.83684c-3.29969,0 -6.0843,-1.11544 -8.3558,-3.35023c-2.26558,-2.24067 -3.39837,-5.33605 -3.39837,-9.2881c0,-3.95989 1.09135,-7.14545 3.27403,-9.56451c2.18664,-2.4171 4.94756,-3.62467 8.27883,-3.62467c3.33324,0 5.90471,0.84491 7.71836,2.53669c1.81957,1.68589 2.72935,3.73641 2.72935,6.15351c0,5.36546 -3.10037,8.04917 -9.3011,8.04917h-3.4477c0,0.99193 0.27234,1.68001 0.819,2.06228c0.55258,0.37835 1.36369,0.56654 2.4353,0.56654c2.33465,0 4.54892,-0.52929 6.64872,-1.58984c0.03355,-0.03137 0.18354,0.19995 0.45193,0.69984c0.79729,1.42517 1.19792,2.6249 1.19792,3.59919c0,0.97821 -0.31576,1.61336 -0.94728,1.91329zM209.12657,216.81524c0,-1.39184 -0.68283,-2.08776 -2.05047,-2.08776c-0.63152,0 -1.17226,0.19015 -1.62419,0.57242c-0.45193,0.37835 -0.67691,0.9292 -0.67691,1.65649v1.54475h2.70369c1.09924,0 1.64787,-0.56262 1.64787,-1.68589zM231.72906,232.45682c0,0.23328 -1.51762,0.34894 -4.55484,0.34894c-3.02932,-0.06665 -4.54497,-0.19995 -4.54497,-0.39991v-16.48845h-1.3479c-0.53482,0 -0.96307,-0.3215 -1.2808,-0.96449c-0.31773,-0.65083 -0.47759,-1.45458 -0.47759,-2.41318c0,-3.57567 1.06964,-5.3635 3.20694,-5.3635c1.50183,0 2.75106,0.4548 3.75162,1.3644c0.99859,0.90764 1.49789,1.9427 1.49789,3.10126c0.69665,-1.35852 1.638,-2.44259 2.82013,-3.25221c1.1841,-0.80766 2.39188,-1.21345 3.62532,-1.21345c1.936,0 3.10629,0.49597 3.50691,1.4879c0.0967,0.26661 0.14407,0.65868 0.14407,1.17228c0,0.50969 -0.15986,1.42909 -0.47759,2.75232c-0.31379,1.32715 -0.63744,2.28772 -0.97096,2.88562c-0.3355,0.59398 -0.53679,0.89 -0.60389,0.89c-0.06118,0 -0.36905,-0.1235 -0.91965,-0.37247c-0.55258,-0.25092 -1.04398,-0.37443 -1.47421,-0.37443c-1.26699,0 -1.90048,0.99389 -1.90048,2.9856zM253.53031,223.96657v-17.68817h-3.54835c-0.57034,0 -0.97096,-0.71357 -1.20581,-2.13678c-0.09473,-0.69396 -0.14209,-1.40361 -0.14209,-2.12893c0,-0.73121 0.04736,-1.44477 0.14209,-2.13873c0.23485,-1.42321 0.63547,-2.13678 1.20581,-2.13678h16.8004c0.56442,0 0.94728,0.71356 1.1466,2.13678c0.1342,0.69396 0.2013,1.40753 0.2013,2.13873c0,0.72533 -0.0671,1.43497 -0.2013,2.12893c-0.19932,1.42321 -0.58218,2.13678 -1.1466,2.13678h-3.34706v17.68817h3.49704c0.56442,0 0.96307,0.70964 1.19791,2.12697c0.1342,0.69984 0.2013,1.41537 0.2013,2.14658c0,0.72533 -0.0671,1.43497 -0.2013,2.12893c-0.23485,1.42517 -0.63349,2.13677 -1.19791,2.13677h-16.84974c-0.57034,0 -0.95517,-0.7116 -1.15647,-2.13677c-0.1342,-0.69396 -0.2013,-1.40361 -0.2013,-2.12893c0,-0.73121 0.0671,-1.44673 0.2013,-2.14658c0.2013,-1.41733 0.58613,-2.12697 1.15647,-2.12697zM281.87964,232.20589c0,0.23328 -1.19989,0.3509 -3.59966,0.3509c-3.33127,-0.09998 -4.9969,-0.28425 -4.9969,-0.55086v-16.08853h-1.30646c-0.86439,0 -1.43079,-0.73121 -1.69918,-2.18774c-0.0671,-0.42736 -0.10065,-0.85667 -0.10065,-1.28991c0,-1.02526 0.2013,-2.05052 0.60389,-3.07578c0.60192,-1.4585 1.53538,-2.18774 2.80434,-2.18774c1.26501,0 2.39978,0.29993 3.39837,0.89784c0.99859,0.59398 1.66564,1.18601 1.99916,1.77999c2.0998,-1.78587 4.59628,-2.67783 7.49338,-2.67783c2.90302,0 5.00479,0.77826 6.30336,2.33673c1.30054,1.55259 1.95179,4.09908 1.95179,7.64338v14.90057c0,0.39991 -1.42684,0.59987 -4.27855,0.59987c-2.84579,0 -4.26868,-0.19996 -4.26868,-0.59987v-14.35363c0,-1.65649 -0.58416,-2.48571 -1.7505,-2.48571c-0.3355,0 -0.80321,0.14114 -1.40711,0.42343c-0.596,0.28425 -0.97885,0.49204 -1.1466,0.62535zM309.73361,241.54497c0,0.23328 -1.42684,0.34894 -4.27855,0.34894c-2.84579,0 -4.26868,-0.11566 -4.26868,-0.34894v-25.57856h-1.69918c-0.80519,0 -1.35777,-0.72925 -1.65774,-2.18774c-0.10065,-0.45872 -0.15196,-1.0527 -0.15196,-1.77999c0,-0.73121 0.23485,-1.59376 0.70454,-2.58569c0.66902,-1.4585 1.73471,-2.18578 3.19707,-2.18578c0.97096,0 1.86496,0.22348 2.68001,0.6724c0.81506,0.44304 1.37947,0.85667 1.69918,1.23894c0.31773,0.37639 0.47759,0.5979 0.47759,0.66456c2.23203,-1.71726 4.64759,-2.57589 7.24866,-2.57589c2.60107,0 4.8331,0.99978 6.69608,3.00129c1.87088,2.00151 2.80632,5.09689 2.80632,9.28811c0,4.19121 -0.93544,7.43754 -2.80632,9.73702c-1.86298,2.30144 -4.22921,3.45216 -7.09868,3.45216c-1.30054,0 -2.48266,-0.06665 -3.54835,-0.19996zM311.78407,215.91741c-0.56837,0 -1.11897,0.18231 -1.64787,0.54693v8.79018c0.56245,0.06665 1.0203,0.09998 1.37158,0.09998c0.35128,0 0.62955,0 0.82887,0c1.36171,-0.1333 2.04257,-1.87017 2.04257,-5.21451c0,-2.81505 -0.86439,-4.22258 -2.59515,-4.22258zM326.48467,207.96625c0,-0.3607 1.43079,-0.54105 4.29434,-0.54105c2.86947,0 4.30223,0.18035 4.30223,0.54105v14.50262c0,1.65845 0.53482,2.48571 1.60051,2.48571c0.80321,0 1.7051,-0.34502 2.70369,-1.03898v-15.94935c0,-0.32738 1.415,-0.49009 4.24302,-0.49009c2.83592,0 4.25487,0.16271 4.25487,0.49009v16.29045h1.30448c1.13279,0 1.69918,1.07819 1.69918,3.23457c0,1.09191 -0.23485,2.20147 -0.70257,3.3267c-0.6631,1.4585 -1.56301,2.18578 -2.6958,2.18578c-2.23795,0 -3.88977,-0.9096 -4.95546,-2.73468l-0.05131,0.05097c-2.03073,1.78979 -4.21342,2.68371 -6.5461,2.68371c-3.23654,0 -5.6225,-0.80178 -7.15788,-2.40926c-1.52749,-1.60748 -2.29321,-4.26766 -2.29321,-7.97467zM365.43958,232.20589c0,0.39991 -1.40118,0.59986 -4.20158,0.59986c-3.33324,-0.1333 -4.99888,-0.34894 -4.99888,-0.64887v-17.58036h-2.55173c-0.67099,0 -1.00451,-1.14092 -1.00451,-3.42472c0,-0.59987 0.05723,-1.32715 0.17564,-2.18774c0.11644,-0.86451 0.35918,-1.29775 0.72822,-1.29775h2.65238v-4.36568c0,-0.66456 1.40711,-0.99782 4.21934,-0.99782c2.81816,0 4.22724,0.26661 4.22724,0.79786v3.17772l0.05131,1.38792h4.25289c0.56245,0 0.84466,1.16249 0.84466,3.48549c0,2.31712 -0.28221,3.47569 -0.84466,3.47569h-3.55032zM365.43958,232.20589" fill="#ffffff" stroke="none" stroke-width="1" stroke-linecap="butt"/><path d="M245.58895,121.54451l8.32422,0.03136c8.07951,0.06077 8.32422,0.09018 8.84523,0.45676c1.86693,1.42713 1.83733,3.76974 -0.12236,5.07533c-0.58218,0.39599 -0.8565,0.42735 -3.33522,0.42735h-2.69383v47.45597h2.66225c3.02932,0 3.76544,0.24504 4.468,1.48986c0.79729,1.39968 0.39865,3.01109 -0.97886,4.01478c-0.52101,0.39403 -0.76572,0.39403 -8.84523,0.4548l-8.32422,0.06077l-0.8565,-0.42539c-0.88807,-0.48617 -1.6834,-1.64081 -1.6834,-2.58373c0,-0.66848 0.76374,-2.0368 1.37553,-2.49356c0.45983,-0.36463 0.85847,-0.39599 3.33719,-0.45676l2.81618,-0.06077v-47.42657l-2.81618,-0.06077c-2.47872,-0.06077 -2.87736,-0.09017 -3.33719,-0.45676c-0.61179,-0.42539 -1.37553,-1.79371 -1.37553,-2.4916c0,-0.94292 0.76374,-2.12893 1.6834,-2.58373zM245.58895,121.54451" fill="none" stroke="#5c009f" stroke-width="10" stroke-linecap="butt"/><path d="M226.36903,134.83172h21.54469v32.86318l-21.85256,-0.02941c-21.66705,-0.06077 -21.85256,-0.06077 -22.52552,-0.45676c-0.36707,-0.21172 -0.8565,-0.69788 -1.07161,-1.12524l-0.42825,-0.72925v-14.07526c0,-13.53029 0.03158,-14.07722 0.36707,-14.7751c0.45983,-0.82138 0.73612,-1.09583 1.65379,-1.42909c0.58218,-0.18231 4.74429,-0.24308 22.31239,-0.24308zM218.65463,142.46137c-0.48943,0.30385 -1.00846,1.36832 -3.85622,7.63161c-3.55033,7.81393 -3.73386,8.3295 -2.93657,9.18028c0.8861,0.94292 2.2636,0.97429 3.05892,0.03137c0.24471,-0.30385 0.61376,-0.97233 0.79729,-1.48986l0.3355,-0.94292h7.34537l0.42825,1.09583c0.55258,1.48986 1.13279,2.00543 2.234,2.00543c0.70454,0 0.91965,-0.09017 1.3775,-0.60771c0.39865,-0.42539 0.55258,-0.79002 0.55258,-1.27618c0,-0.48617 -0.88807,-2.73664 -2.90894,-7.20622c-3.82464,-8.54317 -3.64111,-8.17855 -4.25289,-8.4824c-0.70454,-0.39403 -1.47026,-0.36462 -2.1748,0.06077zM218.65463,142.46137" fill="none" stroke="#5c009f" stroke-width="10" stroke-linecap="butt"/><path d="M219.78741,148.29927c0.12236,0.12154 1.98929,4.6813 1.98929,4.8342c0,0.12154 -0.91768,0.18231 -2.08007,0.18231c-1.59261,0 -2.05046,-0.06077 -1.98929,-0.24308c0.06118,-0.12154 0.51903,-1.24678 1.06964,-2.52296c0.55258,-1.24678 1.01043,-2.28184 1.01043,-2.25047zM219.78741,148.29927" fill="none" stroke="#53157e" stroke-width="10" stroke-linecap="butt"/><path d="M259.3916,151.27899v-16.47864l6.36651,0.06077c5.99747,0.06077 6.39611,0.09214 7.0079,0.45676c0.36707,0.21172 0.85847,0.69788 1.07161,1.12524l0.42825,0.72925v28.18189l-0.42825,0.72925c-0.21314,0.42735 -0.70454,0.91352 -1.07161,1.12524c-0.64139,0.39599 -1.01043,0.39599 -7.0079,0.45676l-6.36651,0.06077zM259.3916,151.27899" fill="none" stroke="#6300aa" stroke-width="10" stroke-linecap="butt"/><path d="M245.58895,121.54454l8.32422,0.03137c8.07951,0.06077 8.32422,0.09017 8.84523,0.45676c1.86693,1.42713 1.83733,3.76974 -0.12236,5.07533c-0.58218,0.39599 -0.8565,0.42736 -3.33522,0.42736h-2.69383v47.45598h2.66225c3.02932,0 3.76544,0.24504 4.468,1.48986c0.79729,1.39968 0.39865,3.01109 -0.97886,4.01478c-0.521,0.39403 -0.76572,0.39403 -8.84523,0.4548l-8.32422,0.06077l-0.8565,-0.42539c-0.88807,-0.48617 -1.6834,-1.64081 -1.6834,-2.58373c0,-0.66848 0.76374,-2.0368 1.37553,-2.49356c0.45983,-0.36463 0.85847,-0.39599 3.33719,-0.45676l2.81618,-0.06077v-47.42658l-2.81618,-0.06077c-2.47872,-0.06077 -2.87736,-0.09018 -3.33719,-0.45676c-0.61179,-0.42539 -1.37553,-1.79371 -1.37553,-2.49159c0,-0.94292 0.76374,-2.12893 1.6834,-2.58373zM245.58895,121.54454" fill="#ffffff" stroke="none" stroke-width="1" stroke-linecap="butt"/><path d="M246.88949,134.83174v32.86319c0,0 -42.68088,-0.09017 -43.35384,-0.48617c-0.36707,-0.21172 -0.8565,-0.69788 -1.07161,-1.12524l-0.42825,-0.72925v-14.07526c0,-13.53029 0.03158,-14.07722 0.36707,-14.77511c0.45983,-0.82138 0.73612,-1.09583 1.65379,-1.42909c0.58218,-0.18231 42.83284,-0.24308 42.83284,-0.24308zM218.65463,142.46139c-0.48943,0.30385 -1.00846,1.36832 -3.85622,7.63161c-3.55032,7.81393 -3.73386,8.3295 -2.93657,9.18029c0.8861,0.94292 2.2636,0.97429 3.05893,0.03137c0.24471,-0.30385 0.61376,-0.97233 0.79729,-1.48986l0.3355,-0.94292h7.34537l0.42825,1.09583c0.55258,1.48986 1.13279,2.00543 2.234,2.00543c0.70454,0 0.91965,-0.09017 1.3775,-0.60771c0.39865,-0.42539 0.55258,-0.79002 0.55258,-1.27618c0,-0.48617 -0.88807,-2.73664 -2.90894,-7.20622c-3.82464,-8.54317 -3.64111,-8.17855 -4.25289,-8.4824c-0.70454,-0.39403 -1.47026,-0.36462 -2.1748,0.06077zM218.65463,142.46139" fill="#ffffff" stroke="none" stroke-width="1" stroke-linecap="butt"/><path d="M218.64871,142.41239c0.70454,-0.42539 1.4821,-0.45676 2.18664,-0.06077c0.61179,0.30385 0.47167,-0.01372 4.29828,8.52945c2.01889,4.46958 2.89512,6.75338 2.89512,7.23955c0,0.48617 -0.15788,0.85667 -0.55455,1.28207c-0.45983,0.51557 -0.67888,0.61163 -1.38342,0.61163c-1.10121,0 -1.73668,-0.59987 -2.28926,-2.08973l-0.37497,-1.00958l-3.70031,0.00784l-3.69834,-0.00784l-0.28418,0.85667c-0.18354,0.51753 -0.60192,1.27226 -0.84663,1.57611c-0.79729,0.94292 -2.18269,0.90568 -3.07076,-0.03724c-0.79532,-0.85079 -0.62757,-1.41341 2.92275,-9.22733c2.84776,-6.2633 3.41021,-7.36697 3.89964,-7.67082zM218.64871,142.41239" fill="#6300aa" stroke="none" stroke-width="1" stroke-linecap="butt"/><path d="M219.78742,148.2993c0.12236,0.12154 1.98929,4.6813 1.98929,4.8342c0,0.12154 -0.91768,0.18231 -2.08007,0.18231c-1.59261,0 -2.05046,-0.06077 -1.98929,-0.24308c0.06118,-0.12154 0.51903,-1.24678 1.06964,-2.52296c0.55258,-1.24678 1.01043,-2.28184 1.01043,-2.25047zM219.78742,148.2993" fill="#ffffff" stroke="none" stroke-width="1" stroke-linecap="butt"/><path d="M260.41585,134.80037c0,0 11.73838,0.15291 12.35016,0.51753c0.36707,0.21172 0.8565,0.69788 1.07161,1.12524l0.42825,0.72925v28.18189l-0.42825,0.72925c-0.21511,0.42735 -0.70454,0.91352 -1.07161,1.12524c-0.64139,0.39599 -12.35016,0.51753 -12.35016,0.51753zM260.41585,134.80037" fill="#ffffff" stroke="none" stroke-width="1" stroke-linecap="butt"/><path d="M145.53844,167.34596c0,0 -16.85763,2.00543 -17.42403,1.85645c-0.32365,-0.07645 -0.76966,-0.29209 -0.97885,-0.50185l-0.40852,-0.35286l-0.95517,-7.66494l-0.95715,-7.68062l0.30984,-0.44304c0.15196,-0.25288 0.53087,-0.5685 0.82492,-0.72337c0.4914,-0.26072 17.35496,-2.41906 17.35496,-2.41906zM145.53844,167.34596" fill="none" stroke="#5c009f" stroke-width="7.5" stroke-linecap="butt"/><path d="M140.94018,149.7068c0,0 17.86017,-2.11129 18.40091,-1.97603c0.32365,0.07841 0.76769,0.29209 0.97688,0.50185l0.41049,0.35286l0.95715,7.68258l0.95517,7.66494l-0.31181,0.44108c-0.14998,0.25288 -0.5289,0.5685 -0.82492,0.72337c-0.51311,0.28229 -18.32987,2.53864 -18.32987,2.53864zM140.94018,149.7068" fill="none" stroke="#5c009f" stroke-width="7.5" stroke-linecap="butt"/><path d="M141.80261,149.60096c0,0 16.99775,-2.00543 17.53849,-1.87017c0.32365,0.07841 0.76769,0.29209 0.97688,0.50185l0.41049,0.35286l0.95715,7.68062l0.95517,7.6669l-0.31181,0.44108c-0.14998,0.25288 -0.5289,0.5685 -0.82492,0.72337c-0.51311,0.28229 -17.46744,2.43278 -17.46744,2.43278zM141.80261,149.60096" fill="#ffffff" stroke="none" stroke-width="1" stroke-linecap="butt"/><path d="M144.67602,167.45185c0,0 -15.99521,1.89957 -16.56161,1.75059c-0.32365,-0.07645 -0.76967,-0.29209 -0.97886,-0.50185l-0.40851,-0.35286l-0.95517,-7.66494l-0.95715,-7.68062l0.30984,-0.44304c0.15196,-0.25288 0.53087,-0.5685 0.82492,-0.72337c0.4914,-0.26072 16.49254,-2.3132 16.49254,-2.3132zM144.67602,167.45185" fill="#ffffff" stroke="none" stroke-width="1" stroke-linecap="butt"/><path d="M113.71181,151.25155l-0.88807,-7.13173l7.17959,-0.88216zM113.71181,151.25155" fill="none" stroke="#5c009f" stroke-width="7.5" stroke-linecap="butt"/><path d="M175.32052,165.2778l0.89005,7.12976l-7.17959,0.88412zM175.32052,165.2778" fill="none" stroke="#5c009f" stroke-width="7.5" stroke-linecap="butt"/><path d="M113.71181,151.25157l-0.88807,-7.13173l7.17959,-0.88215zM113.71181,151.25157" fill="#ffffff" stroke="none" stroke-width="1" stroke-linecap="butt"/><path d="M175.32052,165.27783l0.89005,7.12977l-7.17959,0.88412zM175.32052,165.27783" fill="#ffffff" stroke="none" stroke-width="1" stroke-linecap="butt"/><path d="M124.43186,178.77476l-7.17959,0.88412l-0.89005,-7.13173zM124.43186,178.77476" fill="none" stroke="#5c009f" stroke-width="7.5" stroke-linecap="butt"/><path d="M164.60244,137.75459l7.17762,-0.88412l0.89005,7.13173zM164.60244,137.75459" fill="none" stroke="#5c009f" stroke-width="7.5" stroke-linecap="butt"/><path d="M124.43186,178.77479l-7.17959,0.88412l-0.89005,-7.13173zM124.43186,178.77479" fill="#ffffff" stroke="none" stroke-width="1" stroke-linecap="butt"/><path d="M164.60245,137.75461l7.17762,-0.88412l0.89005,7.13173zM164.60245,137.75461" fill="#ffffff" stroke="none" stroke-width="1" stroke-linecap="butt"/><path d="M142.21112,152.50031c0.45785,-0.3607 1.00056,-0.44892 1.52946,-0.23132c0.45785,0.16075 0.32365,-0.05685 3.76149,5.61834c1.81167,2.96796 2.6287,4.49115 2.67015,4.83224c0.04342,0.34306 -0.03355,0.61555 -0.27629,0.94881c-0.27826,0.40383 -0.42233,0.48812 -0.91768,0.5489c-0.77559,0.09606 -1.26304,-0.25877 -1.78207,-1.25854l-0.36312,-0.69004l-2.59515,0.32346l-2.59713,0.31561l-0.13222,0.64103c-0.08289,0.38031 -0.30392,0.93116 -0.44996,1.1664c-0.47759,0.73121 -1.4525,0.82531 -2.15901,0.23916c-0.63547,-0.52929 -0.56245,-0.93116 1.24922,-6.73182c1.4525,-4.64797 1.74458,-5.46544 2.06231,-5.72224zM142.21112,152.50031" fill="#5c009f" stroke="none" stroke-width="1" stroke-linecap="butt"/><path d="M143.52547,156.53274c0.0967,0.07449 1.8097,3.1189 1.82351,3.22672c0.00987,0.0843 -0.62955,0.2078 -1.44855,0.30777c-1.11898,0.13723 -1.44658,0.1333 -1.41895,0c0.03158,-0.09017 0.25655,-0.92136 0.53087,-1.86625c0.27826,-0.92332 0.51114,-1.68981 0.51311,-1.66825zM143.52547,156.53274" fill="#ffffff" stroke="none" stroke-width="1" stroke-linecap="butt"/><path d="M321.47001,147.48573c0.79532,-5.55169 5.97181,-9.41357 11.56076,-8.62159c5.58895,0.79002 9.47477,5.93004 8.67945,11.48369c-0.79532,5.55169 -5.97181,9.41161 -11.56076,8.62159c-5.58895,-0.79002 -9.47477,-5.932 -8.67945,-11.48369zM321.47001,147.48573" fill="none" stroke="#5c009f" stroke-width="7.5" stroke-linecap="butt"/><path d="M308.9442,163.51937c0.79532,-5.55365 5.97181,-9.41357 11.56076,-8.62355c5.58895,0.79198 9.47477,5.932 8.67945,11.48565c-0.79532,5.55169 -5.97181,9.41161 -11.56076,8.62159c-5.58895,-0.79002 -9.47477,-5.932 -8.67945,-11.48369zM308.9442,163.51937" fill="none" stroke="#5c009f" stroke-width="7.5" stroke-linecap="butt"/><path d="M328.99496,166.35403c0.79532,-5.55169 5.96984,-9.41357 11.56076,-8.62355c5.58895,0.79198 9.47477,5.932 8.67945,11.48565c-0.79532,5.55169 -5.97181,9.4116 -11.56076,8.62158c-5.58895,-0.79002 -9.47675,-5.93199 -8.67945,-11.48369zM328.99496,166.35403" fill="none" stroke="#5c009f" stroke-width="7.5" stroke-linecap="butt"/><path d="M321.47001,147.48575c0.79532,-5.55169 5.97181,-9.41357 11.56076,-8.62159c5.58895,0.79002 9.47477,5.93004 8.67945,11.48369c-0.79532,5.55169 -5.97181,9.41161 -11.56076,8.62159c-5.58895,-0.79002 -9.47477,-5.932 -8.67945,-11.48369zM321.47001,147.48575" fill="#00ff01" stroke="none" stroke-width="1" stroke-linecap="butt"/><path d="M308.94421,163.5194c0.79532,-5.55365 5.97181,-9.41357 11.56076,-8.62355c5.58895,0.79198 9.47477,5.932 8.67945,11.48565c-0.79532,5.55169 -5.97181,9.41161 -11.56076,8.62159c-5.58895,-0.79002 -9.47477,-5.932 -8.67945,-11.48369zM308.94421,163.5194" fill="#ff0000" stroke="none" stroke-width="1" stroke-linecap="butt"/><path d="M328.99497,166.35405c0.79532,-5.55169 5.96984,-9.41357 11.56076,-8.62355c5.58895,0.79198 9.47477,5.932 8.67945,11.48565c-0.79532,5.55169 -5.97181,9.41161 -11.56076,8.62159c-5.58895,-0.79002 -9.47674,-5.932 -8.67945,-11.48369zM328.99497,166.35405" fill="#0071ff" stroke="none" stroke-width="1" stroke-linecap="butt"/><path d="M90.35135,117.67133c0,-6.39897 5.91545,-12.49566 13.1192,-12.49566c28.93252,0 219.72832,0 272.60996,0c8.61359,0 13.56814,4.64378 13.56814,12.24625c0,30.59212 0,109.0924 0,125.70487c0,6.03964 -4.85913,11.69754 -13.31873,11.69754c-52.46667,0 -243.42599,0 -272.60996,0c-7.3279,0 -13.36861,-4.5235 -13.36861,-11.94695c0,-30.16113 0,-108.19342 0,-125.20604z" data-paper-data="{&quot;index&quot;:null}" fill="none" stroke="url(#color-1)" stroke-width="10" stroke-linecap="butt"/></g></g></svg>