<svg version="1.1" xmlns="http://www.w3.org/2000/svg" xmlns:xlink="http://www.w3.org/1999/xlink" width="309.2973" height="159.64866" viewBox="0,0,309.2973,159.64866"><defs><linearGradient x1="238.40265" y1="144.65285" x2="238.40265" y2="163.49186" gradientUnits="userSpaceOnUse" id="color-1"><stop offset="0" stop-color="#ffffff"/><stop offset="1" stop-color="#0090ff"/></linearGradient><linearGradient x1="241.0972" y1="166.79379" x2="241.0972" y2="185.33669" gradientUnits="userSpaceOnUse" id="color-2"><stop offset="0" stop-color="#0090ff"/><stop offset="1" stop-color="#ffffff"/></linearGradient><linearGradient x1="219.40799" y1="166.34203" x2="237.21061" y2="166.34203" gradientUnits="userSpaceOnUse" id="color-3"><stop offset="0" stop-color="#ffffff"/><stop offset="1" stop-color="#0090ff"/></linearGradient><linearGradient x1="242.58533" y1="163.64748" x2="260.09185" y2="163.64748" gradientUnits="userSpaceOnUse" id="color-4"><stop offset="0" stop-color="#0090ff"/><stop offset="1" stop-color="#ffffff"/></linearGradient><linearGradient x1="245.30648" y1="153.26232" x2="255.38225" y2="155.21396" gradientUnits="userSpaceOnUse" id="color-5"><stop offset="0" stop-color="#0090ff"/><stop offset="1" stop-color="#ffffff"/></linearGradient><linearGradient x1="224.11759" y1="174.77558" x2="234.19337" y2="176.7272" gradientUnits="userSpaceOnUse" id="color-6"><stop offset="0" stop-color="#ffffff"/><stop offset="1" stop-color="#0090ff"/></linearGradient><linearGradient x1="221.64911" y1="154.07095" x2="235.80957" y2="156.35161" gradientUnits="userSpaceOnUse" id="color-7"><stop offset="0" stop-color="#ffffff"/><stop offset="1" stop-color="#0090ff"/></linearGradient><linearGradient x1="244.14185" y1="173.90338" x2="257.89681" y2="176.11875" gradientUnits="userSpaceOnUse" id="color-8"><stop offset="0" stop-color="#0090ff"/><stop offset="1" stop-color="#ffffff"/></linearGradient><linearGradient x1="240" y1="254.82434" x2="240" y2="105.17568" gradientUnits="userSpaceOnUse" id="color-9"><stop offset="0" stop-color="#4e9eff"/><stop offset="1" stop-color="#000000"/></linearGradient></defs><g transform="translate(-85.35135,-100.17567)"><g data-paper-data="{&quot;isPaintingLayer&quot;:true}" fill-rule="nonzero" stroke-linejoin="miter" stroke-miterlimit="10" stroke-dasharray="" stroke-dashoffset="0" style="mix-blend-mode: normal"><path d="M389.94699,105.77627v149.04806h-73.5466c0,0 -43.87856,-21.81369 -48.69763,-41.51336c-4.81906,-19.69967 29.4398,-28.38543 27.09806,-52.95846c-2.34174,-24.57303 -37.15518,-54.57623 -37.15518,-54.57623z" data-paper-data="{&quot;index&quot;:null}" fill="#0090ff" stroke="none" stroke-width="0" stroke-linecap="butt"/><path d="M222.86513,254.82432l-10.00322,-149.54822l128.28686,0.50016c0,0 -30.2155,11.38181 -32.54399,33.01062c-2.32849,21.62881 21.41387,19.72419 24.61111,42.17661c3.19724,22.45242 -27.0326,22.85006 -24.15285,40.29138c2.87976,17.44132 36.01778,33.56946 36.01778,33.56946z" data-paper-data="{&quot;index&quot;:null}" fill="#0076ff" stroke="none" stroke-width="0" stroke-linecap="butt"/><path d="M242.59523,136.84487c2.71458,15.09721 -18.19035,21.1915 -17.05479,35.95299c1.13557,14.76149 24.90065,24.28018 26.92051,44.78135c2.01985,20.50116 -18.98677,37.24508 -18.98677,37.24508h-86.1731v-149.29814l66.88985,-0.35047c0,0 25.68972,16.57199 28.4043,31.66921z" data-paper-data="{&quot;index&quot;:null}" fill="#005eff" stroke="none" stroke-width="0" stroke-linecap="butt"/><path d="M90.05301,254.82432v-149.54821h99.44278c0,0 -38.20212,17.49314 -38.80768,38.01366c-0.60556,20.52052 25.01472,16.16744 24.72271,37.0105c-0.29201,20.84306 -25.8324,18.25628 -25.82201,41.45475c0.01039,23.19847 37.85947,33.0693 37.85947,33.0693z" fill="#0052de" stroke="none" stroke-width="0" stroke-linecap="butt"/><g stroke="none" stroke-width="0" stroke-linecap="butt"><path d="M132.46723,197.42041c-3.33173,0 -6.03263,-2.7009 -6.03263,-6.03263v-52.68498c0,-3.33173 2.7009,-6.03263 6.03263,-6.03263h52.68498c3.33173,0 6.03263,2.7009 6.03263,6.03263v52.68498c0,3.33173 -2.7009,6.03263 -6.03263,6.03263z" fill="#1b79ec"/><path d="M147.19859,202.87084c-3.23096,0.8132 -6.50941,-1.1468 -7.32261,-4.37776l-12.85921,-51.09157c-0.81319,-3.23096 1.14679,-6.50941 4.37775,-7.32261l51.09158,-12.85921c3.23096,-0.8132 6.50942,1.1468 7.32261,4.37776l12.8592,51.09157c0.8132,3.23096 -1.14679,6.50941 -4.37775,7.32261z" fill="#1c82ff"/><path d="M161.83615,205.79297c-2.97837,1.49321 -6.60333,0.28923 -8.09654,-2.68914l-23.61232,-47.0974c-1.49321,-2.97837 -0.28923,-6.60333 2.68914,-8.09654l47.0974,-23.61232c2.97837,-1.49321 6.60333,-0.28923 8.09654,2.68914l23.61233,47.0974c1.49321,2.97837 0.28924,6.60333 -2.68913,8.09654z" fill="#3590ff"/><path d="M177.08809,206.78304c-2.57521,2.11393 -6.37652,1.73998 -8.49045,-0.83523l-33.42782,-40.72209c-2.11393,-2.57521 -1.73999,-6.37653 0.83522,-8.49045l40.7221,-33.42782c2.57521,-2.11393 6.37653,-1.73998 8.49045,0.83523l33.42782,40.72209c2.11393,2.57521 1.73999,6.37653 -0.83522,8.49045z" fill="#4e9eff"/><path d="M191.22071,205.95381c-2.11578,2.57368 -5.91738,2.94489 -8.49105,0.8291l-40.69796,-33.45719c-2.57368,-2.11578 -2.94489,-5.91738 -0.8291,-8.49105l33.4572,-40.69796c2.11578,-2.57368 5.91738,-2.94489 8.49106,-0.8291l40.69796,33.4572c2.57368,2.11578 2.94489,5.91738 0.8291,8.49106z" fill="#6aadff"/><path d="M203.9945,203.98657c-1.65436,2.89196 -5.3399,3.89526 -8.23187,2.24089l-45.73107,-26.16058c-2.89196,-1.65436 -3.89526,-5.33991 -2.24089,-8.23187l26.16058,-45.73107c1.65436,-2.89196 5.3399,-3.89526 8.23187,-2.24089l45.73107,26.16058c2.89196,1.65436 3.89526,5.33991 2.24089,8.23187z" fill="#82baff"/><path d="M216.43634,200.86138c-1.13796,3.13137 -4.59894,4.74734 -7.73031,3.60939l-49.51665,-17.99469c-3.13137,-1.13796 -4.74734,-4.59894 -3.60939,-7.73031l17.99469,-49.51665c1.13796,-3.13137 4.59894,-4.74734 7.73031,-3.60939l49.51665,17.99469c3.13137,1.13796 4.74734,4.59894 3.60938,7.73031z" fill="#9bc8ff"/><path d="M224.78617,199.36883c-0.9288,3.19964 -4.27559,5.04053 -7.47523,4.11173l-50.59636,-14.68727c-3.19964,-0.9288 -5.04052,-4.27558 -4.11173,-7.47522l14.68727,-50.59636c0.9288,-3.19964 4.27559,-5.04052 7.47523,-4.11173l50.59636,14.68727c3.19964,0.9288 5.04053,4.27558 4.11173,7.47522z" fill="#b4d6ff"/><path d="M233.42886,197.40771c-0.67588,3.26244 -3.86855,5.35929 -7.13099,4.68341l-51.58952,-10.68777c-3.26244,-0.67588 -5.35929,-3.86854 -4.68341,-7.13099l10.68777,-51.58953c0.67588,-3.26244 3.86854,-5.35929 7.13099,-4.68341l51.58953,10.68777c3.26244,0.67588 5.35929,3.86854 4.68341,7.13099z" fill="#d0e5ff"/><path d="M241.02537,196.06846c-0.51417,3.29181 -3.59954,5.54355 -6.89135,5.02938l-52.05383,-8.13063c-3.29181,-0.51417 -5.54354,-3.59954 -5.02937,-6.89135l8.13063,-52.05382c0.51417,-3.29181 3.59954,-5.54355 6.89135,-5.02938l52.05382,8.13063c3.29181,0.51417 5.54355,3.59954 5.02938,6.89135z" fill="#e8f2ff"/><path d="M248.56866,194.63913c-0.34955,3.31333 -3.31894,5.71595 -6.63228,5.36641l-52.3942,-5.52764c-3.31333,-0.34955 -5.71595,-3.31893 -5.36641,-6.63227l5.52764,-52.39421c0.34955,-3.31333 3.31894,-5.71595 6.63227,-5.36641l52.39421,5.52764c3.31333,0.34955 5.71595,3.31893 5.36641,6.63227z" fill="#ffffff"/></g><g data-paper-data="{&quot;index&quot;:null}" stroke="none" stroke-width="0" stroke-linecap="butt"><path d="M294.34763,197.42041c-3.33173,0 -6.03263,-2.7009 -6.03263,-6.03263v-52.68498c0,-3.33173 2.7009,-6.03263 6.03263,-6.03263h52.68498c3.33173,0 6.03263,2.7009 6.03263,6.03263v52.68498c0,3.33173 -2.70089,6.03263 -6.03263,6.03263z" fill="#1b79ec"/><path d="M281.20967,190.01162c-3.23096,-0.8132 -5.19095,-4.09165 -4.37775,-7.32261l12.8592,-51.09157c0.81319,-3.23096 4.09165,-5.19095 7.32261,-4.37776l51.09158,12.85921c3.23096,0.8132 5.19095,4.09165 4.37775,7.32261l-12.8592,51.09157c-0.81319,3.23096 -4.09166,5.19095 -7.32261,4.37776z" fill="#1c82ff"/><path d="M270.56628,182.18064c-2.97837,-1.49321 -4.18234,-5.11817 -2.68913,-8.09654l23.61233,-47.0974c1.49321,-2.97837 5.11816,-4.18234 8.09653,-2.68914l47.09741,23.61233c2.97837,1.49321 4.18234,5.11817 2.68914,8.09654l-23.61233,47.0974c-1.49321,2.97837 -5.11817,4.18234 -8.09654,2.68914z" fill="#3590ff"/><path d="M261.68966,173.35525c-2.5752,-2.11393 -2.94914,-5.91525 -0.83522,-8.49045l33.42782,-40.72209c2.11393,-2.57521 5.91525,-2.94915 8.49045,-0.83523l40.7221,33.42782c2.5752,2.11393 2.94914,5.91525 0.83522,8.49045l-33.42782,40.72209c-2.11393,2.57521 -5.91524,2.94915 -8.49045,0.83523z" fill="#4e9eff"/><path d="M254.82195,165.25587c-2.11578,-2.57368 -1.74458,-6.37527 0.8291,-8.49105l40.69796,-33.45719c2.57368,-2.11578 6.37527,-1.74458 8.49106,0.8291l33.4572,40.69796c2.11579,2.57368 1.74458,6.37527 -0.8291,8.49106l-40.69796,33.4572c-2.57368,2.11578 -6.37527,1.74458 -8.49105,-0.8291z" fill="#6aadff"/><path d="M249.34475,158.2555c-1.65436,-2.89196 -0.65107,-6.57751 2.24089,-8.23187l45.73107,-26.16058c2.89196,-1.65436 6.57751,-0.65107 8.23186,2.24089l26.16059,45.73107c1.65435,2.89196 0.65107,6.57751 -2.2409,8.23187l-45.73107,26.16058c-2.89196,1.65436 -6.57751,0.65107 -8.23186,-2.24089z" fill="#82baff"/><path d="M245.06881,151.3447c-1.13796,-3.13137 0.47801,-6.59236 3.60938,-7.73031l49.51665,-17.99469c3.13137,-1.13796 6.59236,0.47802 7.73031,3.60939l17.99469,49.51665c1.13796,3.13137 -0.47802,6.59236 -3.60939,7.73031l-49.51665,17.99469c-3.13137,1.13796 -6.59236,-0.47802 -7.73031,-3.60939z" fill="#9bc8ff"/><path d="M240.02641,148.77242c-0.9288,-3.19964 0.91208,-6.54642 4.11173,-7.47522l50.59635,-14.68727c3.19964,-0.9288 6.54643,0.91208 7.47523,4.11173l14.68727,50.59636c0.9288,3.19964 -0.91209,6.54642 -4.11174,7.47522l-50.59635,14.68727c-3.19964,0.9288 -6.54643,-0.91208 -7.47523,-4.11173z" fill="#b4d6ff"/><path d="M235.38322,145.81812c-0.67588,-3.26244 1.42096,-6.45511 4.68341,-7.13099l51.58952,-10.68777c3.26244,-0.67588 6.45511,1.42097 7.13099,4.68341l10.68777,51.58953c0.67588,3.26244 -1.42096,6.45511 -4.68341,7.13099l-51.58953,10.68777c-3.26244,0.67588 -6.45511,-1.42097 -7.13099,-4.68341z" fill="#d0e5ff"/><path d="M230.34385,144.01462c-0.51417,-3.29181 1.73757,-6.37719 5.02938,-6.89135l52.05382,-8.13063c3.29181,-0.51417 6.37719,1.73757 6.89135,5.02938l8.13063,52.05382c0.51417,3.29181 -1.73757,6.37719 -5.02938,6.89135l-52.05383,8.13063c-3.29181,0.51417 -6.37718,-1.73757 -6.89135,-5.02938z" fill="#e8f2ff"/><path d="M225.40354,142.24489c-0.34955,-3.31333 2.05307,-6.28272 5.36641,-6.63227l52.39421,-5.52764c3.31334,-0.34955 6.28272,2.05307 6.63227,5.36641l5.52763,52.39421c0.34955,3.31333 -2.05307,6.28272 -5.3664,6.63227l-52.3942,5.52764c-3.31333,0.34955 -6.28273,-2.05307 -6.63228,-5.36641z" fill="#ffffff"/></g><path d="M194.78378,164.99477c0,-24.83411 20.13203,-44.96614 44.96614,-44.96614c24.83411,0 44.96614,20.13203 44.96614,44.96614c0,24.83411 -20.13203,44.96614 -44.96614,44.96614c-24.83411,0 -44.96614,-20.13203 -44.96614,-44.96614z" data-paper-data="{&quot;index&quot;:null}" fill-opacity="0.54118" fill="#000000" stroke="none" stroke-width="0" stroke-linecap="butt"/><path d="M198.3687,164.99477c0,-22.85422 18.527,-41.38122 41.38122,-41.38122c22.85422,0 41.38122,18.527 41.38122,41.38122c0,22.85422 -18.527,41.38122 -41.38122,41.38122c-22.85422,0 -41.38122,-18.527 -41.38122,-41.38122z" data-paper-data="{&quot;index&quot;:null}" fill="#ffffff" stroke="none" stroke-width="0" stroke-linecap="butt"/><path d="M344.56792,117.31117c0.45602,0 0.8257,0.36967 0.8257,0.82569v2.54588c0,0.45602 -0.36968,0.82569 -0.8257,0.82569h-2.54587c-0.45602,0 -0.82569,-0.36967 -0.82569,-0.82569v-2.54588c0,-0.45602 0.36967,-0.82569 0.82569,-0.82569z" fill="#ffffff" stroke="none" stroke-width="0" stroke-linecap="butt"/><path d="M338.30644,124.39835c0.45602,0 0.82569,0.36967 0.82569,0.82569v2.54588c0,0.45602 -0.36967,0.82569 -0.82569,0.82569h-2.54587c-0.45602,0 -0.82569,-0.36967 -0.82569,-0.82569v-2.54588c0,-0.45602 0.36967,-0.82569 0.82569,-0.82569z" fill-opacity="0.9098" fill="#ffffff" stroke="none" stroke-width="0" stroke-linecap="butt"/><path d="M344.23629,133.27451c0.41116,0 0.74448,0.33331 0.74448,0.74447v2.29546c0,0.41116 -0.33332,0.74448 -0.74448,0.74448h-2.29546c-0.41116,0 -0.74448,-0.33331 -0.74448,-0.74448v-2.29546c0,-0.41116 0.33332,-0.74447 0.74448,-0.74447z" fill-opacity="0.84706" fill="#ffffff" stroke="none" stroke-width="0" stroke-linecap="butt"/><path d="M338.52527,140.56811c0.41116,0 0.74447,0.33331 0.74447,0.74448v2.29546c0,0.41116 -0.33331,0.74448 -0.74447,0.74448h-2.29547c-0.41116,0 -0.74448,-0.33332 -0.74448,-0.74448v-2.29546c0,-0.41116 0.33332,-0.74448 0.74448,-0.74448z" fill-opacity="0.81569" fill="#ffffff" stroke="none" stroke-width="0" stroke-linecap="butt"/><path d="M344.05468,148.54977c0.32145,0 0.58204,0.26059 0.58204,0.58205v1.79463c0,0.32145 -0.26058,0.58204 -0.58204,0.58204h-1.79464c-0.32145,0 -0.58205,-0.26058 -0.58205,-0.58204v-1.79463c0,-0.32145 0.26059,-0.58205 0.58205,-0.58205z" fill-opacity="0.68627" fill="#ffffff" stroke="none" stroke-width="0" stroke-linecap="butt"/><path d="M338.43841,156.1186c0.26912,0 0.4873,0.21817 0.4873,0.4873v1.50248c0,0.26913 -0.21818,0.48729 -0.4873,0.48729h-1.50248c-0.26912,0 -0.4873,-0.21817 -0.4873,-0.48729v-1.50248c0,-0.26913 0.21818,-0.4873 0.4873,-0.4873z" fill-opacity="0.54118" fill="#ffffff" stroke="none" stroke-width="0" stroke-linecap="butt"/><path d="M346.11131,162.72412c0.2467,0 0.44668,0.19999 0.44668,0.44668v1.37727c0,0.24669 -0.19998,0.44669 -0.44668,0.44669h-1.37727c-0.2467,0 -0.44669,-0.19999 -0.44669,-0.44669v-1.37727c0,-0.24669 0.19999,-0.44668 0.44669,-0.44668z" fill-opacity="0.41961" fill="#ffffff" stroke="none" stroke-width="0" stroke-linecap="butt"/><path d="M136.97412,117.31117c0.45939,0 0.83179,0.37241 0.83179,0.83179v2.5647c0,0.45939 -0.37241,0.83179 -0.83179,0.83179h-2.5647c-0.45939,0 -0.83179,-0.37241 -0.83179,-0.83179v-2.5647c0,-0.45939 0.37241,-0.83179 0.83179,-0.83179z" data-paper-data="{&quot;index&quot;:null}" fill="#ffffff" stroke="none" stroke-width="0" stroke-linecap="butt"/><path d="M143.28189,124.45074c0.45939,0 0.83179,0.37241 0.83179,0.83179v2.5647c0,0.45939 -0.37241,0.83179 -0.83179,0.83179h-2.56471c-0.45939,0 -0.83179,-0.37241 -0.83179,-0.83179v-2.5647c0,-0.45939 0.37241,-0.83179 0.83179,-0.83179z" data-paper-data="{&quot;index&quot;:null}" fill-opacity="0.9098" fill="#ffffff" stroke="none" stroke-width="0" stroke-linecap="butt"/><path d="M137.05594,133.39254c0.41419,0 0.74998,0.33578 0.74998,0.74998v2.31244c0,0.41419 -0.33578,0.74997 -0.74998,0.74997h-2.31244c-0.41419,0 -0.74997,-0.33578 -0.74997,-0.74997v-2.31244c0,-0.41419 0.33578,-0.74998 0.74997,-0.74998z" data-paper-data="{&quot;index&quot;:null}" fill-opacity="0.84706" fill="#ffffff" stroke="none" stroke-width="0" stroke-linecap="butt"/><path d="M142.80918,140.74005c0.41419,0 0.74998,0.33578 0.74998,0.74997v2.31244c0,0.41419 -0.33579,0.74998 -0.74998,0.74998h-2.31244c-0.41419,0 -0.74998,-0.33578 -0.74998,-0.74998v-2.31244c0,-0.41419 0.33578,-0.74997 0.74998,-0.74997z" data-paper-data="{&quot;index&quot;:null}" fill-opacity="0.81569" fill="#ffffff" stroke="none" stroke-width="0" stroke-linecap="butt"/><path d="M136.73435,148.78074c0.32382,0 0.58635,0.26252 0.58635,0.58635v1.8079c0,0.32382 -0.26252,0.58634 -0.58635,0.58634h-1.8079c-0.32382,0 -0.58635,-0.26251 -0.58635,-0.58634v-1.8079c0,-0.32382 0.26251,-0.58635 0.58635,-0.58635z" data-paper-data="{&quot;index&quot;:null}" fill-opacity="0.68627" fill="#ffffff" stroke="none" stroke-width="0" stroke-linecap="butt"/><path d="M142.09783,156.40552c0.27112,0 0.4909,0.21978 0.4909,0.4909v1.51359c0,0.27112 -0.21978,0.4909 -0.4909,0.4909h-1.51359c-0.27112,0 -0.4909,-0.21978 -0.4909,-0.4909v-1.51359c0,-0.27112 0.21978,-0.4909 0.4909,-0.4909z" data-paper-data="{&quot;index&quot;:null}" fill-opacity="0.54118" fill="#ffffff" stroke="none" stroke-width="0" stroke-linecap="butt"/><path d="M137.42524,163.05988c0.24852,0 0.45,0.20146 0.45,0.44999v1.38746c0,0.24852 -0.20147,0.45 -0.45,0.45h-1.38746c-0.24852,0 -0.44999,-0.20147 -0.44999,-0.45v-1.38746c0,-0.24852 0.20146,-0.44999 0.44999,-0.44999z" data-paper-data="{&quot;index&quot;:null}" fill-opacity="0.41961" fill="#ffffff" stroke="none" stroke-width="0" stroke-linecap="butt"/><g stroke-linecap="butt"><path d="M201.76648,164.99477c0,-20.97767 17.00576,-37.98344 37.98344,-37.98344c20.97767,0 37.98344,17.00576 37.98344,37.98344c0,20.97767 -17.00576,37.98344 -37.98344,37.98344c-20.97767,0 -37.98344,-17.00576 -37.98344,-37.98344z" data-paper-data="{&quot;index&quot;:null}" fill="#0090ff" stroke="none" stroke-width="0"/><path d="M236.67452,144.65285h4.92677c0,0 -2.68129,5.20427 -3.2136,10.0655c-0.59311,5.41653 1.09345,8.77352 0.85944,8.77352c-0.42955,0 -3.4492,-3.36414 -3.9684,-8.78368c-0.46536,-4.8575 1.39582,-10.05534 1.39582,-10.05534z" data-paper-data="{&quot;index&quot;:null}" fill="url(#color-1)" stroke="#ffffff" stroke-width="0"/><path d="M242.82532,185.33669h-4.92676c0,0 2.68129,-5.20427 3.21361,-10.0655c0.59311,-5.41653 -0.64929,-8.4774 -0.41527,-8.4774c0.42955,0 3.00505,3.06804 3.52425,8.48756c0.46536,4.8575 -1.39582,10.05534 -1.39582,10.05534z" data-paper-data="{&quot;index&quot;:null}" fill="url(#color-2)" stroke="#ffffff" stroke-width="0"/><path d="M219.40799,168.07017v-4.92676c0,0 5.20427,2.68129 10.06549,3.21361c5.41653,0.59311 7.73712,-0.50122 7.73712,-0.26721c0,0.42955 -2.32776,2.85698 -7.74728,3.37619c-4.8575,0.46536 -10.05534,-1.39582 -10.05534,-1.39582z" data-paper-data="{&quot;index&quot;:null}" fill="url(#color-3)" stroke="#ffffff" stroke-width="0"/><path d="M260.09185,161.91936v4.92677c0,0 -5.20427,-2.68129 -10.0655,-3.2136c-5.41653,-0.59311 -7.44101,0.35317 -7.44101,0.11916c0,-0.42955 2.03164,-2.70892 7.45117,-3.22812c4.8575,-0.46536 10.05534,1.39582 10.05534,1.39582z" data-paper-data="{&quot;index&quot;:null}" fill="url(#color-4)" stroke="#ffffff" stroke-width="0"/><path d="M253.69801,147.86901l2.60202,2.60671c0,0 -4.16963,1.32994 -7.02281,3.61571c-3.17909,2.54688 -5.08273,6.0722 -5.20633,5.94839c-0.22686,-0.22726 0.9765,-4.4617 3.56972,-7.59868c2.32429,-2.81166 6.05739,-4.57211 6.05739,-4.57211z" data-paper-data="{&quot;index&quot;:null}" fill="url(#color-5)" stroke="#ffffff" stroke-width="0"/><path d="M225.80183,182.12051l-2.60203,-2.60671c0,0 4.16963,-1.32994 7.02281,-3.61571c3.17909,-2.54688 5.08273,-6.0722 5.20633,-5.94839c0.22686,0.22726 -0.9765,4.4617 -3.56972,7.59868c-2.32429,2.81166 -6.05739,4.57211 -6.05739,4.57211z" data-paper-data="{&quot;index&quot;:null}" fill="url(#color-6)" stroke="#ffffff" stroke-width="0"/><path d="M221.96265,152.12419l2.53715,-2.8178c0,0 1.59571,4.21358 4.10191,7.02143c2.79247,3.12859 6.5209,4.89235 6.40039,5.0262c-0.22121,0.24567 -4.64023,-0.75933 -8.00723,-3.25329c-3.01782,-2.23532 -5.03221,-5.97655 -5.03221,-5.97655z" data-paper-data="{&quot;index&quot;:null}" fill="url(#color-7)" stroke="#ffffff" stroke-width="0"/><path d="M257.59224,178.00976l-2.46449,2.7371c0,0 -1.55002,-4.09292 -3.98444,-6.82037c-2.7125,-3.039 -6.33417,-4.75226 -6.21711,-4.88227c0.21487,-0.23864 4.50735,0.73759 7.77794,3.16014c2.9314,2.17131 4.88812,5.80539 4.88812,5.80539z" data-paper-data="{&quot;index&quot;:null}" fill="url(#color-8)" stroke="#ffffff" stroke-width="0"/><path d="M235.46054,144.44865c0,-2.43981 1.97785,-4.41765 4.41764,-4.41765c2.43981,0 4.41765,1.97785 4.41765,4.41765c0,2.43981 -1.97785,4.41764 -4.41765,4.41764c-2.43981,0 -4.41764,-1.97785 -4.41764,-4.41764z" data-paper-data="{&quot;index&quot;:null}" fill="#ffffff" stroke="#ffffff" stroke-width="1.5"/><path d="M244.0393,185.5409c0,2.43981 -1.97785,4.41764 -4.41765,4.41764c-2.43981,0 -4.41764,-1.97785 -4.41764,-4.41764c0,-2.43981 1.97785,-4.41765 4.41764,-4.41765c2.43981,0 4.41765,1.97785 4.41765,4.41765z" data-paper-data="{&quot;index&quot;:null}" fill="#ffffff" stroke="#ffffff" stroke-width="1.5"/><path d="M219.2038,169.28416c-2.43981,0 -4.41765,-1.97785 -4.41765,-4.41765c0,-2.43981 1.97785,-4.41764 4.41765,-4.41764c2.43981,0 4.41764,1.97785 4.41764,4.41764c0,2.43981 -1.97785,4.41765 -4.41764,4.41765z" data-paper-data="{&quot;index&quot;:null}" fill="#ffffff" stroke="#ffffff" stroke-width="1.5"/><path d="M260.29605,160.70536c2.43981,0 4.41764,1.97785 4.41764,4.41764c0,2.43981 -1.97785,4.41765 -4.41764,4.41765c-2.43981,0 -4.41765,-1.97785 -4.41765,-4.41765c0,-2.43981 1.97786,-4.41764 4.41765,-4.41764z" data-paper-data="{&quot;index&quot;:null}" fill="#ffffff" stroke="#ffffff" stroke-width="1.5"/><path d="M253.16488,147.11886c1.29089,-1.28857 3.38193,-1.28667 4.67049,0.0042c1.28856,1.29089 1.28667,3.38193 -0.0042,4.67049c-1.29089,1.28857 -3.38193,1.28667 -4.67049,-0.0042c-1.28856,-1.29089 -1.28667,-3.38193 0.0042,-4.67049z" data-paper-data="{&quot;index&quot;:null}" fill="#ffffff" stroke="#ffffff" stroke-width="1.5"/><path d="M226.33495,182.87067c-1.29089,1.28857 -3.38193,1.28667 -4.67049,-0.0042c-1.28857,-1.29089 -1.28667,-3.38193 0.0042,-4.67049c1.29089,-1.28857 3.38192,-1.28667 4.67049,0.0042c1.28857,1.29089 1.28667,3.38193 -0.0042,4.67049z" data-paper-data="{&quot;index&quot;:null}" fill="#ffffff" stroke="#ffffff" stroke-width="1.5"/><path d="M221.22069,152.71334c-1.39541,-1.25643 -1.50808,-3.40617 -0.25164,-4.80159c1.25643,-1.39541 3.40617,-1.50808 4.80158,-0.25164c1.39541,1.25643 1.50809,3.40617 0.25164,4.80158c-1.25643,1.39541 -3.40617,1.50809 -4.80159,0.25165z" data-paper-data="{&quot;index&quot;:null}" fill="#ffffff" stroke="#ffffff" stroke-width="1.5"/><path d="M258.31294,177.43746c1.35545,1.22045 1.46489,3.30863 0.24445,4.66408c-1.22045,1.35545 -3.30863,1.46489 -4.66408,0.24445c-1.35545,-1.22045 -1.46489,-3.30863 -0.24445,-4.66407c1.22045,-1.35545 3.30863,-1.46489 4.66408,-0.24445z" data-paper-data="{&quot;index&quot;:null}" fill="#ffffff" stroke="#ffffff" stroke-width="1.5"/></g><path d="M145.34109,240.90955c-2.10491,0 -3.15737,-0.23086 -3.15737,-0.69258v-22.52933c0,-0.78764 0.35762,-1.18147 1.07284,-1.18147h6.11782c3.43124,0 5.90506,0.70843 7.42151,2.12529c1.52097,1.41233 2.28146,3.46292 2.28146,6.15177c0,2.22261 -0.71974,4.26187 -2.15924,6.11782c-0.71522,0.92345 -1.76993,1.66357 -3.16415,2.22035c-1.38969,0.55678 -3.01026,0.83518 -4.86167,0.83518v6.22647c0,0.27613 -0.43456,0.46624 -1.30368,0.57036c-0.86912,0.10411 -1.61829,0.15617 -2.2475,0.15617zM148.89228,222.55609v5.49314h0.44814c0.81027,0 1.4938,-0.2535 2.05059,-0.76049c0.55678,-0.51152 0.83517,-1.23126 0.83517,-2.15924c0,-0.92797 -0.19238,-1.58887 -0.57716,-1.98269c-0.38024,-0.39383 -1.05698,-0.59073 -2.03021,-0.59073zM163.28306,228.21898c-0.64732,-1.15883 -0.97097,-2.10265 -0.97097,-2.83144c0,-0.7288 0.19691,-1.19732 0.59073,-1.40554c1.31726,-0.57942 3.12795,-0.86912 5.43202,-0.86912c2.30861,0 3.93823,0.53868 4.88884,1.61603c0.95061,1.07735 1.42591,2.67074 1.42591,4.78018v5.49314h1.18146c0.39383,0 0.70164,0.23313 0.92345,0.69938c0.2218,0.46173 0.33272,1.09771 0.33272,1.908c0,0.81028 -0.2037,1.60925 -0.61111,2.39689c-0.4074,0.78764 -0.95739,1.18146 -1.64997,1.18146c-1.25389,0 -2.26335,-0.33498 -3.02837,-1.00492c-0.34403,-0.28065 -0.60885,-0.61789 -0.79444,-1.01172c-1.0683,1.34443 -2.72733,2.01664 -4.97709,2.01664c-1.68845,0 -3.1121,-0.60204 -4.27093,-1.80615c-1.15883,-1.2041 -1.73824,-2.63002 -1.73824,-4.27773c0,-3.77526 2.25882,-5.66289 6.77644,-5.66289h1.9148v-0.35308c0,-0.60205 -0.09959,-0.98909 -0.29876,-1.16109c-0.19465,-0.17202 -0.65184,-0.25802 -1.37158,-0.25802c-0.8827,0 -2.13434,0.18333 -3.75489,0.54999zM166.06697,234.62199c0,0.50698 0.13806,0.89402 0.41419,1.16109c0.27613,0.26708 0.62922,0.40062 1.05925,0.40062c0.43004,0 0.81932,-0.17428 1.16789,-0.52283v-2.67527h-0.97777c-1.10904,0 -1.66356,0.54548 -1.66356,1.6364zM186.68178,240.8077c0,0.16296 -1.05471,0.24444 -3.16415,0.24444c-2.10944,-0.0498 -3.16416,-0.1426 -3.16416,-0.27839v-11.54305h-0.93702c-0.37119,0 -0.66769,-0.22634 -0.8895,-0.67901c-0.22181,-0.45267 -0.33272,-1.01398 -0.33272,-1.68392c0,-2.50326 0.74239,-3.75489 2.22714,-3.75489c1.04115,0 1.91026,0.31913 2.60737,0.9574c0.69711,0.63373 2.18412,0.46399 3.00798,-0.10184c0.82387,-0.57036 1.66357,-0.85555 2.5191,-0.85555c1.34443,0 2.15697,0.34629 2.43763,1.03887c0.0679,0.18559 0.10185,0.45946 0.10185,0.82159c0,0.35761 -0.11091,1.00039 -0.33271,1.92836c-0.21728,0.92797 -0.44361,1.60019 -0.679,2.01665c-0.23085,0.41646 -0.36893,0.62469 -0.41419,0.62469c-0.04526,0 -0.26027,-0.08601 -0.64505,-0.25802c-0.38024,-0.17655 -0.72201,-0.26481 -1.0253,-0.26481c-0.87817,0 -1.31726,0.69485 -1.31726,2.08454zM200.82893,240.63116c0,0.28065 -0.97324,0.42098 -2.91971,0.42098c-2.31767,-0.09506 -3.4765,-0.24671 -3.4765,-0.45493v-12.30355h-1.7722c-0.46624,0 -0.69938,-0.80122 -0.69938,-2.40367c0,-0.41646 0.04074,-0.92571 0.12222,-1.52775c0.08148,-0.60205 0.25123,-0.90307 0.50925,-0.90307h1.8401v-3.06231c0,-0.46173 0.97777,-0.69257 2.9333,-0.69257c1.96005,0 2.94009,0.1856 2.94009,0.55678v2.22714l0.03395,0.97097h2.96045c0.39383,0 0.59074,0.81253 0.59074,2.43763c0,1.62055 -0.1969,2.43083 -0.59073,2.43083h-2.47158zM211.98604,240.63116c0,0.18559 -1.06151,0.27839 -3.18453,0.27839c-2.11849,0 -3.17773,-0.08148 -3.17773,-0.24444v-17.07015c0,-0.15844 1.05924,-0.23765 3.17773,-0.23765c2.12301,0 3.18453,0.0679 3.18453,0.2037zM211.98604,221.51043c0,0.16296 -1.06151,0.24444 -3.18453,0.24444c-2.11849,0 -3.17773,-0.07016 -3.17773,-0.21049v-5.00425c0,-0.23085 1.05924,-0.34629 3.17773,-0.34629c2.12301,0 3.18453,0.07016 3.18453,0.2105zM223.39167,235.62691c1.11356,0 2.04153,-0.21954 2.78391,-0.65863c0.34403,0 0.62694,0.59752 0.84876,1.79257c0.2218,1.19051 0.33272,2.00079 0.33272,2.43083c0,0.43004 -0.05884,0.71296 -0.17654,0.84876c-1.22674,0.76501 -2.90614,1.14751 -5.03821,1.14751c-2.13207,0 -3.94727,-0.79217 -5.44561,-2.37651c-1.4938,-1.58887 -2.24071,-3.75715 -2.24071,-6.50486c0,-2.7477 0.73559,-4.96579 2.20676,-6.65424c1.47117,-1.69299 3.42897,-2.53947 5.87338,-2.53947c2.44894,0 4.14872,0.59073 5.09932,1.7722c0.20823,0.25349 0.31234,0.62921 0.31234,1.12715c0,0.49794 -0.0928,1.10678 -0.27839,1.82652c-0.41646,1.48475 -0.96192,2.34257 -1.63639,2.57342c-0.09054,0.02264 -0.22407,0.03395 -0.40061,0.03395c-0.17202,0 -0.38703,-0.13806 -0.64506,-0.41418c-0.90081,-0.90534 -1.62508,-1.358 -2.17281,-1.358c-0.54321,0 -1.01172,0.27839 -1.40553,0.83517c-0.39383,0.55678 -0.59073,1.45986 -0.59073,2.70923c0,0 0.85779,3.40857 2.57341,3.40857zM236.18325,240.56326c0,0.20823 -1.18146,0.31234 -3.54439,0.31234c-1.85594,-0.02264 -2.78392,-0.11543 -2.78392,-0.27839v-23.67685c0,-0.34403 1.12488,-0.51604 3.37466,-0.51604c1.96911,0.0679 2.95366,0.18333 2.95366,0.34629zM246.82078,241.18794c-2.29503,0 -4.23019,-0.78085 -5.80548,-2.34256c-1.57529,-1.56623 -2.36293,-3.73452 -2.36293,-6.50486c0,-2.77033 0.75822,-4.99973 2.27466,-6.68819c1.52097,-1.69299 3.44028,-2.53947 5.75795,-2.53947c2.31767,0 4.10797,0.59073 5.37092,1.7722c1.26295,1.18146 1.89442,2.61868 1.89442,4.31167c0,3.75263 -2.1547,5.62894 -6.46411,5.62894h-2.40367c0,0.69711 0.19012,1.1792 0.57036,1.44628c0.38477,0.26708 0.94834,0.40062 1.69072,0.40062c1.62508,0 3.16642,-0.37119 4.62402,-1.11357c0.02264,-0.02264 0.12674,0.13806 0.31234,0.4821c0.55678,1.0004 0.83518,1.84236 0.83518,2.52589c0,0.68352 -0.21955,1.12941 -0.65863,1.33764c0,0 -3.34072,1.28329 -5.63575,1.28329zM248.11088,229.85538c0,-0.97324 -0.47531,-1.45985 -1.42591,-1.45985c-0.43908,0 -0.81706,0.13354 -1.13394,0.40062c-0.31234,0.26708 -0.46851,0.65411 -0.46851,1.16109v1.07962h1.88084c0.76501,0 1.14751,-0.39383 1.14751,-1.18146zM273.38254,240.28487c0,0.46173 -1.14751,0.69258 -3.44254,0.69258c-2.29503,0 -3.44254,-0.23085 -3.44254,-0.69258v-17.45039h-4.16908c-0.39382,0 -0.67221,-0.53414 -0.83517,-1.60245c-0.0679,-0.50698 -0.10184,-1.02755 -0.10184,-1.5617c0,-0.53414 0.03395,-1.05473 0.10185,-1.56171c0.16296,-1.0683 0.44135,-1.60245 0.83517,-1.60245h15.12141c0.39382,0 0.67221,0.53414 0.83517,1.60245c0.0679,0.50698 0.10185,1.02757 0.10185,1.56171c0,0.53414 -0.03394,1.05472 -0.10184,1.5617c-0.16296,1.0683 -0.44135,1.60245 -0.83517,1.60245h-4.06723zM280.49196,238.79106c-1.44855,-1.59793 -2.1728,-3.81148 -2.1728,-6.64065c0,-2.82917 0.72426,-5.04274 2.1728,-6.64066c1.44854,-1.59793 3.40182,-2.39688 5.85982,-2.39688c2.45799,0 4.40446,0.79897 5.83942,2.39689c1.43496,1.59793 2.15244,3.81148 2.15244,6.64065c0,2.82917 -0.71747,5.04274 -2.15244,6.64065c-1.43496,1.59793 -3.38143,2.39688 -5.83942,2.39688c-2.458,0 -4.41128,-0.79896 -5.85982,-2.39688zM286.36536,228.91836c-1.30821,0 -1.96231,1.06604 -1.96231,3.19811c0,2.13207 0.6541,3.19811 1.96231,3.19811c1.31274,0 9.15492,-1.06603 9.15492,-3.1981c0,-2.13207 -7.84218,-3.1981 -9.15492,-3.1981zM298.32637,238.79106c-1.44855,-1.59793 -2.17281,-3.81148 -2.17281,-6.64065c0,-2.82917 0.72426,-5.04274 2.17281,-6.64066c1.44854,-1.59793 3.40181,-2.39688 5.8598,-2.39688c2.45799,0 4.40447,0.79897 5.83943,2.39689c1.43496,1.59793 2.15244,3.81148 2.15244,6.64065c0,2.82917 -0.71747,5.04274 -2.15244,6.64065c-1.43496,1.59793 -3.38144,2.39688 -5.83943,2.39688c-2.45799,0 -4.41126,-0.79896 -5.8598,-2.39688zM304.19975,228.91836c-1.30821,0 -1.96231,1.06604 -1.96231,3.19811c0,2.13207 0.6541,3.19811 1.96232,3.19811c1.31274,0 10.63435,-1.06603 10.63435,-3.1981c0,-2.13207 -9.32161,-3.1981 -10.63435,-3.1981zM320.97492,240.56326c0,0.20823 -1.18146,0.31234 -3.54439,0.31234c-1.85594,-0.02264 -2.78392,-0.11543 -2.78392,-0.27839v-23.67685c0,-0.34403 1.12487,-0.51604 3.37465,-0.51604c1.96911,0.0679 2.95367,0.18333 2.95367,0.34629zM329.28349,236.28554c0.69711,0 1.04567,-0.24218 1.04567,-0.72652c0,-0.34855 -0.60205,-0.80123 -1.80615,-1.35801c-2.89708,-1.18146 -4.34562,-3.11662 -4.34562,-5.80548c0,-1.71561 0.62468,-3.02382 1.87404,-3.92464c1.25389,-0.90534 2.75449,-1.35801 4.5018,-1.35801c1.75182,0 3.23431,0.1856 4.44747,0.55678c1.21768,0.37118 1.82652,0.85781 1.82652,1.45986c0,0.50698 -0.24897,1.1792 -0.7469,2.01664c-0.49794,0.83291 -0.8397,1.28331 -1.02529,1.35123c-0.99588,-0.55226 -2.07323,-0.82839 -3.23205,-0.82839c-0.62468,0 -0.93703,0.21954 -0.93703,0.65863c0,0.27613 0.11995,0.51378 0.35988,0.71296c0.24444,0.19464 0.69032,0.43682 1.33764,0.72653c0.65184,0.2897 1.19051,0.55226 1.61603,0.78764c0.43003,0.23085 0.91212,0.55452 1.44628,0.97097c1.11356,0.87818 1.67035,2.02569 1.67035,3.44255c0,1.85142 -0.61563,3.35202 -1.84689,4.5018c-1.22674,1.14525 -3.08041,1.71788 -5.56104,1.71788c-1.64319,0 -3.13699,-0.27839 -4.48142,-0.83517c-1.34443,-0.55678 -2.01664,-1.32179 -2.01664,-2.29503c0,-0.64732 0.15618,-1.32858 0.46852,-2.0438c0.31234,-0.71974 0.63147,-1.19731 0.9574,-1.43269c0,0 3.36104,1.70426 4.44744,1.70426z" fill="none" stroke-opacity="0.5098" stroke="#000000" stroke-width="15" stroke-linecap="square"/><path d="M145.34109,240.90955c-2.10491,0 -3.15737,-0.23086 -3.15737,-0.69258v-22.52933c0,-0.78764 0.35762,-1.18147 1.07284,-1.18147h6.11782c3.43124,0 5.90506,0.70843 7.42151,2.12529c1.52097,1.41233 2.28146,3.46292 2.28146,6.15177c0,2.22261 -0.71974,4.26187 -2.15924,6.11782c-0.71522,0.92345 -1.76993,1.66357 -3.16415,2.22035c-1.38969,0.55678 -3.01026,0.83518 -4.86167,0.83518v6.22647c0,0.27613 -0.43456,0.46624 -1.30368,0.57036c-0.86912,0.10411 -1.61829,0.15617 -2.2475,0.15617zM148.89228,222.55609v5.49314h0.44814c0.81027,0 1.4938,-0.2535 2.05059,-0.76049c0.55678,-0.51152 0.83517,-1.23126 0.83517,-2.15924c0,-0.92797 -0.19238,-1.58887 -0.57716,-1.98269c-0.38024,-0.39383 -1.05698,-0.59073 -2.03021,-0.59073zM163.28306,228.21898c-0.64732,-1.15883 -0.97097,-2.10265 -0.97097,-2.83144c0,-0.7288 0.19691,-1.19732 0.59073,-1.40554c1.31726,-0.57942 3.12795,-0.86912 5.43202,-0.86912c2.30861,0 3.93823,0.53868 4.88884,1.61603c0.95061,1.07735 1.42591,2.67074 1.42591,4.78018v5.49314h1.18146c0.39383,0 0.70164,0.23313 0.92345,0.69938c0.2218,0.46173 0.33272,1.09771 0.33272,1.908c0,0.81028 -0.2037,1.60925 -0.61111,2.39689c-0.4074,0.78764 -0.95739,1.18146 -1.64997,1.18146c-1.25389,0 -2.26335,-0.33498 -3.02837,-1.00492c-0.34403,-0.28065 -0.60885,-0.61789 -0.79444,-1.01172c-1.0683,1.34443 -2.72733,2.01664 -4.97709,2.01664c-1.68845,0 -3.1121,-0.60204 -4.27093,-1.80615c-1.15883,-1.2041 -1.73824,-2.63002 -1.73824,-4.27773c0,-3.77526 2.25882,-5.66289 6.77644,-5.66289h1.9148v-0.35308c0,-0.60205 -0.09959,-0.98909 -0.29876,-1.16109c-0.19465,-0.17202 -0.65184,-0.25802 -1.37158,-0.25802c-0.8827,0 -2.13434,0.18333 -3.75489,0.54999zM166.06697,234.62199c0,0.50698 0.13806,0.89402 0.41419,1.16109c0.27613,0.26708 0.62922,0.40062 1.05925,0.40062c0.43004,0 0.81932,-0.17428 1.16789,-0.52283v-2.67527h-0.97777c-1.10904,0 -1.66356,0.54548 -1.66356,1.6364zM186.68178,240.8077c0,0.16296 -1.05471,0.24444 -3.16415,0.24444c-2.10944,-0.0498 -3.16416,-0.1426 -3.16416,-0.27839v-11.54305h-0.93702c-0.37119,0 -0.66769,-0.22634 -0.8895,-0.67901c-0.22181,-0.45267 -0.33272,-1.01398 -0.33272,-1.68392c0,-2.50326 0.74239,-3.75489 2.22714,-3.75489c1.04115,0 1.91026,0.31913 2.60737,0.9574c0.69711,0.63373 1.04566,1.35801 1.04566,2.17281c0.48436,-0.95061 1.13846,-1.70882 1.96232,-2.27465c0.82387,-0.57036 1.66357,-0.85555 2.5191,-0.85555c1.34443,0 2.15697,0.34629 2.43763,1.03887c0.0679,0.18559 0.10185,0.45946 0.10185,0.82159c0,0.35761 -0.11091,1.00039 -0.33271,1.92836c-0.21728,0.92797 -0.44361,1.60019 -0.679,2.01665c-0.23085,0.41646 -0.36893,0.62469 -0.41419,0.62469c-0.04526,0 -0.26027,-0.08601 -0.64505,-0.25802c-0.38024,-0.17655 -0.72201,-0.26481 -1.0253,-0.26481c-0.87817,0 -1.31726,0.69485 -1.31726,2.08454zM200.82893,240.63116c0,0.28065 -0.97324,0.42098 -2.91971,0.42098c-2.31767,-0.09506 -3.4765,-0.24671 -3.4765,-0.45493v-12.30355h-1.7722c-0.46624,0 -0.69938,-0.80122 -0.69938,-2.40367c0,-0.41646 0.04074,-0.92571 0.12222,-1.52775c0.08148,-0.60205 0.25123,-0.90307 0.50925,-0.90307h1.8401v-3.06231c0,-0.46173 0.97777,-0.69257 2.9333,-0.69257c1.96005,0 2.94009,0.1856 2.94009,0.55678v2.22714l0.03395,0.97097h2.96045c0.39383,0 0.59074,0.81253 0.59074,2.43763c0,1.62055 -0.1969,2.43083 -0.59073,2.43083h-2.47158zM211.98604,240.63116c0,0.18559 -1.06151,0.27839 -3.18453,0.27839c-2.11849,0 -3.17773,-0.08148 -3.17773,-0.24444v-17.07015c0,-0.15844 1.05924,-0.23765 3.17773,-0.23765c2.12301,0 3.18453,0.0679 3.18453,0.2037zM211.98604,221.51043c0,0.16296 -1.06151,0.24444 -3.18453,0.24444c-2.11849,0 -3.17773,-0.07016 -3.17773,-0.21049v-5.00425c0,-0.23085 1.05924,-0.34629 3.17773,-0.34629c2.12301,0 3.18453,0.07016 3.18453,0.2105zM220.81824,232.21831c0,2.2724 0.85781,3.4086 2.57343,3.4086c1.11356,0 2.04153,-0.21954 2.78391,-0.65863c0.34403,0 0.62694,0.59752 0.84876,1.79257c0.2218,1.19051 0.33272,2.00079 0.33272,2.43083c0,0.43004 -0.05884,0.71296 -0.17654,0.84876c-1.22674,0.76501 -2.90614,1.14751 -5.03821,1.14751c-2.13207,0 -3.94727,-0.79217 -5.44561,-2.37651c-1.4938,-1.58887 -2.24071,-3.75715 -2.24071,-6.50486c0,-2.7477 0.73559,-4.96579 2.20676,-6.65424c1.47117,-1.69299 3.42897,-2.53947 5.87338,-2.53947c2.44894,0 4.14872,0.59073 5.09932,1.7722c0.20823,0.25349 0.31234,0.62921 0.31234,1.12715c0,0.49794 -0.0928,1.10678 -0.27839,1.82652c-0.41646,1.48475 -0.96192,2.34257 -1.63639,2.57342c-0.09054,0.02264 -0.22407,0.03395 -0.40061,0.03395c-0.17202,0 -0.38703,-0.13806 -0.64506,-0.41418c-0.90081,-0.90534 -1.62508,-1.358 -2.17281,-1.358c-0.54321,0 -1.01172,0.27839 -1.40553,0.83517c-0.39383,0.55678 -0.59073,1.45986 -0.59073,2.70923zM236.18325,240.56326c0,0.20823 -1.18146,0.31234 -3.54439,0.31234c-1.85594,-0.02264 -2.78392,-0.11543 -2.78392,-0.27839v-23.67685c0,-0.34403 1.12488,-0.51604 3.37466,-0.51604c1.96911,0.0679 2.95366,0.18333 2.95366,0.34629zM252.45652,239.90463c-1.46212,0.85555 -3.34071,1.28331 -5.63574,1.28331c-2.29503,0 -4.23019,-0.78085 -5.80548,-2.34256c-1.57529,-1.56623 -2.36293,-3.73452 -2.36293,-6.50486c0,-2.77033 0.75822,-4.99973 2.27466,-6.68819c1.52097,-1.69299 3.44028,-2.53947 5.75795,-2.53947c2.31767,0 4.10797,0.59073 5.37092,1.7722c1.26295,1.18146 1.89442,2.61868 1.89442,4.31167c0,3.75263 -2.1547,5.62894 -6.46411,5.62894h-2.40367c0,0.69711 0.19012,1.1792 0.57036,1.44628c0.38477,0.26708 0.94834,0.40062 1.69072,0.40062c1.62508,0 3.16642,-0.37119 4.62402,-1.11357c0.02264,-0.02264 0.12674,0.13806 0.31234,0.4821c0.55678,1.0004 0.83518,1.84236 0.83518,2.52589c0,0.68352 -0.21955,1.12941 -0.65863,1.33764zM248.11088,229.85538c0,-0.97324 -0.47531,-1.45985 -1.42591,-1.45985c-0.43908,0 -0.81706,0.13354 -1.13394,0.40062c-0.31234,0.26708 -0.46851,0.65411 -0.46851,1.16109v1.07962h1.88084c0.76501,0 1.14751,-0.39383 1.14751,-1.18146zM273.38254,240.28487c0,0.46173 -1.14751,0.69258 -3.44254,0.69258c-2.29503,0 -3.44254,-0.23085 -3.44254,-0.69258v-17.45039h-4.16908c-0.39382,0 -0.67221,-0.53414 -0.83517,-1.60245c-0.0679,-0.50698 -0.10184,-1.02755 -0.10184,-1.5617c0,-0.53414 0.03395,-1.05473 0.10185,-1.56171c0.16296,-1.0683 0.44135,-1.60245 0.83517,-1.60245h15.12141c0.39382,0 0.67221,0.53414 0.83517,1.60245c0.0679,0.50698 0.10185,1.02757 0.10185,1.56171c0,0.53414 -0.03394,1.05472 -0.10184,1.5617c-0.16296,1.0683 -0.44135,1.60245 -0.83517,1.60245h-4.06723zM280.49196,238.79106c-1.44855,-1.59793 -2.1728,-3.81148 -2.1728,-6.64065c0,-2.82917 0.72426,-5.04274 2.1728,-6.64066c1.44854,-1.59793 3.40182,-2.39688 5.85982,-2.39688c2.45799,0 4.40446,0.79897 5.83942,2.39689c1.43496,1.59793 2.15244,3.81148 2.15244,6.64065c0,2.82917 -0.71747,5.04274 -2.15244,6.64065c-1.43496,1.59793 -3.38143,2.39688 -5.83942,2.39688c-2.458,0 -4.41128,-0.79896 -5.85982,-2.39688zM286.36536,228.91836c-1.30821,0 -1.96231,1.06604 -1.96231,3.19811c0,2.13207 0.6541,3.19811 1.96231,3.19811c1.31274,0 1.96911,-1.06603 1.96911,-3.1981c0,-2.13207 -0.65637,-3.1981 -1.96911,-3.1981zM298.32637,238.79106c-1.44855,-1.59793 -2.17281,-3.81148 -2.17281,-6.64065c0,-2.82917 0.72426,-5.04274 2.17281,-6.64066c1.44854,-1.59793 3.40181,-2.39688 5.8598,-2.39688c2.45799,0 4.40447,0.79897 5.83943,2.39689c1.43496,1.59793 2.15244,3.81148 2.15244,6.64065c0,2.82917 -0.71747,5.04274 -2.15244,6.64065c-1.43496,1.59793 -3.38144,2.39688 -5.83943,2.39688c-2.45799,0 -4.41126,-0.79896 -5.8598,-2.39688zM304.19975,228.91836c-1.30821,0 -1.96231,1.06604 -1.96231,3.19811c0,2.13207 0.6541,3.19811 1.96232,3.19811c1.31274,0 1.9691,-1.06603 1.9691,-3.1981c0,-2.13207 -0.65637,-3.1981 -1.9691,-3.1981zM320.97492,240.56326c0,0.20823 -1.18146,0.31234 -3.54439,0.31234c-1.85594,-0.02264 -2.78392,-0.11543 -2.78392,-0.27839v-23.67685c0,-0.34403 1.12487,-0.51604 3.37465,-0.51604c1.96911,0.0679 2.95367,0.18333 2.95367,0.34629zM324.83602,234.58124c1.87858,1.1362 3.36107,1.7043 4.44747,1.7043c0.69711,0 1.04567,-0.24218 1.04567,-0.72652c0,-0.34855 -0.60205,-0.80123 -1.80615,-1.35801c-2.89708,-1.18146 -4.34562,-3.11662 -4.34562,-5.80548c0,-1.71561 0.62468,-3.02382 1.87404,-3.92464c1.25389,-0.90534 2.75449,-1.35801 4.5018,-1.35801c1.75182,0 3.23431,0.1856 4.44747,0.55678c1.21768,0.37118 1.82652,0.85781 1.82652,1.45986c0,0.50698 -0.24897,1.1792 -0.7469,2.01664c-0.49794,0.83291 -0.8397,1.28331 -1.02529,1.35123c-0.99588,-0.55226 -2.07323,-0.82839 -3.23205,-0.82839c-0.62468,0 -0.93703,0.21954 -0.93703,0.65863c0,0.27613 0.11995,0.51378 0.35988,0.71296c0.24444,0.19464 0.69032,0.43682 1.33764,0.72653c0.65184,0.2897 1.19051,0.55226 1.61603,0.78764c0.43003,0.23085 0.91212,0.55452 1.44628,0.97097c1.11356,0.87818 1.67035,2.02569 1.67035,3.44255c0,1.85142 -0.61563,3.35202 -1.84689,4.5018c-1.22674,1.14525 -3.08041,1.71788 -5.56104,1.71788c-1.64319,0 -3.13699,-0.27839 -4.48142,-0.83517c-1.34443,-0.55678 -2.01664,-1.32179 -2.01664,-2.29503c0,-0.64732 0.15618,-1.32858 0.46852,-2.0438c0.31234,-0.71974 0.63147,-1.19731 0.9574,-1.43269z" fill="#ffffff" stroke="none" stroke-width="1" stroke-linecap="square"/><g stroke="none" stroke-width="0" stroke-linecap="butt"><path d="M104.38251,239.34001c-0.76492,0 -1.38501,-0.62009 -1.38501,-1.38501v-4.27044c0,-0.76492 0.62009,-1.38501 1.38501,-1.38501h4.27044c0.76492,0 1.38501,0.62009 1.38501,1.38501v4.27044c0,0.76492 -0.62009,1.38501 -1.38501,1.38501z" fill="#ffffff"/><path d="M114.88548,227.45204c-0.76492,0 -1.38501,-0.62009 -1.38501,-1.38501v-4.27044c0,-0.76492 0.62009,-1.38501 1.38501,-1.38501h4.27044c0.76492,0 1.38501,0.62009 1.38501,1.38501v4.27044c0,0.76492 -0.62009,1.38501 -1.38501,1.38501z" fill-opacity="0.9098" fill="#ffffff"/><path d="M104.93878,212.56322c-0.68967,0 -1.24877,-0.5591 -1.24877,-1.24877v-3.85039c0,-0.68968 0.5591,-1.24877 1.24877,-1.24877h3.85039c0.68967,0 1.24878,0.55909 1.24878,1.24877v3.85039c0,0.68968 -0.5591,1.24877 -1.24878,1.24877z" fill-opacity="0.84706" fill="#ffffff"/><path d="M114.51841,200.32899c-0.68967,0 -1.24877,-0.5591 -1.24877,-1.24878v-3.85039c0,-0.68968 0.55909,-1.24877 1.24877,-1.24877h3.8504c0.68967,0 1.24877,0.5591 1.24877,1.24877v3.85039c0,0.68968 -0.5591,1.24878 -1.24877,1.24878z" fill-opacity="0.81569" fill="#ffffff"/><path d="M105.24341,186.9406c-0.5392,0 -0.9763,-0.43711 -0.9763,-0.97631v-3.0103c0,-0.5392 0.43711,-0.97631 0.9763,-0.97631h3.01031c0.5392,0 0.97632,0.43711 0.97632,0.97631v3.0103c0,0.5392 -0.43712,0.97631 -0.97632,0.97631z" fill-opacity="0.68627" fill="#ffffff"/><path d="M114.66411,174.2447c-0.45143,0 -0.81738,-0.36596 -0.81738,-0.81738v-2.52025c0,-0.45143 0.36596,-0.81738 0.81738,-0.81738h2.52025c0.45143,0 0.81738,0.36596 0.81738,0.81738v2.52025c0,0.45143 -0.36596,0.81738 -0.81738,0.81738z" fill-opacity="0.54118" fill="#ffffff"/><path d="M107.09387,163.16465c-0.4138,0 -0.74926,-0.33546 -0.74926,-0.74926v-2.31022c0,-0.4138 0.33546,-0.74927 0.74926,-0.74927h2.31023c0.4138,0 0.74927,0.33547 0.74927,0.74927v2.31022c0,0.4138 -0.33547,0.74926 -0.74927,0.74926z" fill-opacity="0.41961" fill="#ffffff"/><path d="M369.96771,239.34001c-0.76492,0 -1.38501,-0.62009 -1.38501,-1.38501v-4.27044c0,-0.76492 0.62009,-1.38501 1.38501,-1.38501h4.27044c0.76492,0 1.38501,0.62009 1.38501,1.38501v4.27044c0,0.76492 -0.62009,1.38501 -1.38501,1.38501z" data-paper-data="{&quot;index&quot;:null}" fill="#ffffff"/><path d="M359.46474,227.45204c-0.76492,0 -1.38501,-0.62009 -1.38501,-1.38501v-4.27044c0,-0.76492 0.62009,-1.38501 1.38501,-1.38501h4.27044c0.76492,0 1.38501,0.62009 1.38501,1.38501v4.27044c0,0.76492 -0.62009,1.38501 -1.38501,1.38501z" data-paper-data="{&quot;index&quot;:null}" fill-opacity="0.9098" fill="#ffffff"/><path d="M369.83147,212.56322c-0.68968,0 -1.24878,-0.5591 -1.24878,-1.24877v-3.85039c0,-0.68968 0.5591,-1.24877 1.24878,-1.24877h3.85039c0.68968,0 1.24877,0.55909 1.24877,1.24877v3.85039c0,0.68968 -0.5591,1.24877 -1.24877,1.24877z" data-paper-data="{&quot;index&quot;:null}" fill-opacity="0.84706" fill="#ffffff"/><path d="M360.25184,200.32899c-0.68968,0 -1.24878,-0.5591 -1.24878,-1.24878v-3.85039c0,-0.68968 0.5591,-1.24877 1.24878,-1.24877h3.85039c0.68968,0 1.24877,0.5591 1.24877,1.24877v3.85039c0,0.68968 -0.5591,1.24878 -1.24877,1.24878z" data-paper-data="{&quot;index&quot;:null}" fill-opacity="0.81569" fill="#ffffff"/><path d="M370.36693,186.9406c-0.5392,0 -0.97631,-0.43711 -0.97631,-0.97631v-3.0103c0,-0.5392 0.43711,-0.97631 0.97631,-0.97631h3.01031c0.5392,0 0.97631,0.43711 0.97631,0.97631v3.0103c0,0.5392 -0.4371,0.97631 -0.97631,0.97631z" data-paper-data="{&quot;index&quot;:null}" fill-opacity="0.68627" fill="#ffffff"/><path d="M361.4363,174.2447c-0.45143,0 -0.81738,-0.36596 -0.81738,-0.81738v-2.52025c0,-0.45143 0.36596,-0.81738 0.81738,-0.81738h2.52025c0.45143,0 0.81738,0.36596 0.81738,0.81738v2.52025c0,0.45143 -0.36596,0.81738 -0.81738,0.81738z" data-paper-data="{&quot;index&quot;:null}" fill-opacity="0.54118" fill="#ffffff"/><path d="M369.21654,163.16465c-0.4138,0 -0.74927,-0.33546 -0.74927,-0.74926v-2.31022c0,-0.4138 0.33547,-0.74927 0.74927,-0.74927h2.31023c0.4138,0 0.74926,0.33547 0.74926,0.74927v2.31022c0,0.4138 -0.33546,0.74926 -0.74926,0.74926z" data-paper-data="{&quot;index&quot;:null}" fill-opacity="0.41961" fill="#ffffff"/></g><path d="M90.35135,117.67133c0,-6.39897 5.91545,-12.49566 13.1192,-12.49566c28.93252,0 219.72832,0 272.60996,0c8.61359,0 13.56814,4.64378 13.56814,12.24625c0,30.59212 0,109.0924 0,125.70487c0,6.03964 -4.85913,11.69754 -13.31873,11.69754c-52.46667,0 -243.42599,0 -272.60996,0c-7.3279,0 -13.36861,-4.5235 -13.36861,-11.94695c0,-30.16113 0,-108.19342 0,-125.20604z" data-paper-data="{&quot;index&quot;:null}" fill="none" stroke="url(#color-9)" stroke-width="10" stroke-linecap="butt"/></g></g></svg>