<svg version="1.1" xmlns="http://www.w3.org/2000/svg" xmlns:xlink="http://www.w3.org/1999/xlink" width="309.2973" height="159.64866" viewBox="0,0,309.2973,159.64866"><defs><linearGradient x1="239.96333" y1="254.83019" x2="239.96333" y2="105.18153" gradientUnits="userSpaceOnUse" id="color-1"><stop offset="0" stop-color="#ab7916"/><stop offset="1" stop-color="#63480c"/></linearGradient></defs><g transform="translate(-85.31468,-100.18152)"><g data-paper-data="{&quot;isPaintingLayer&quot;:true}" fill-rule="nonzero" stroke-linejoin="miter" stroke-miterlimit="10" stroke-dasharray="" stroke-dashoffset="0" style="mix-blend-mode: normal"><path d="M90.34061,254.81457v-149.6389h299.31879v149.6389zM90.34061,254.81457" fill="#ab7916" stroke="none" stroke-width="1" stroke-linecap="butt"/><path d="M302.8506,214.07209c3.2747,-17.90741 0.55424,-35.56893 -7.95646,-51.40184c-2.54287,-4.75202 -8.03453,-11.99812 -12.01569,-15.85828c-8.14772,-7.91743 -17.59516,-13.49691 -28.04376,-16.62524c-3.24152,-0.96797 -10.75889,-2.29112 -14.29314,-2.51164c-22.02518,-1.41682 -42.33885,7.60909 -54.38381,24.14261c-10.75303,14.77127 -13.39738,34.13259 -7.00801,51.19498c1.57685,4.17827 2.48432,5.87416 5.52483,10.25344c3.06588,4.4144 4.38903,5.9288 7.76521,8.80344c10.00364,8.60243 23.38736,12.17962 36.21879,9.7031c15.48749,-2.97026 27.05042,-14.78689 28.48481,-29.03514c1.05774,-10.47006 -2.72436,-19.68918 -10.23002,-24.96811c-4.30317,-3.04246 -10.06219,-4.20754 -15.25916,-3.0854c-2.32625,0.5074 -4.74422,1.61979 -6.17665,2.82975c-0.58742,0.51521 -1.02261,0.97968 -0.96602,1.02261c0.03903,0.05464 0.97968,-0.03122 2.06669,-0.21857c2.67753,-0.42739 5.47214,0.09367 7.9389,1.46366c2.50969,1.39341 3.65135,2.41211 5.65559,5.1033c1.64906,2.18183 1.78957,2.46285 2.53506,4.62322c2.93513,8.58877 -1.4539,17.80398 -10.714,22.4233c-5.18722,2.57604 -9.79482,3.26104 -14.97228,2.23257c-6.97679,-1.40121 -12.36306,-4.99011 -16.54913,-10.97941c-2.67362,-3.84845 -4.31878,-8.0072 -5.16575,-12.96414c-1.9535,-11.65075 1.93594,-23.22148 10.72962,-31.81805c1.84031,-1.79152 2.53116,-2.35357 5.71413,-4.43002c2.56824,-1.67443 4.20754,-2.62483 5.63802,-3.21225c8.66683,-3.71965 17.32975,-4.67981 26.7089,-2.97416c12.44698,2.22672 23.3776,9.3206 30.80325,20.00923c4.95303,7.13486 7.85108,14.61515 9.10397,23.5064c2.44334,17.26145 -3.09711,34.98346 -14.97619,47.85978c-3.70794,4.00653 -4.9745,5.1033 -10.4603,8.88735c-5.45458,3.78796 -7.03338,4.6681 -11.92982,6.68991c-0.05659,0.02342 -0.11319,0.04684 -0.17174,0.07026c-17.62639,-0.00195 -35.28986,-0.00585 -51.95218,-0.00585c-3.32739,-1.32315 -6.55916,-2.90781 -9.65431,-4.75007c-22.45647,-13.36811 -35.98656,-37.55756 -36.37687,-65.06268c-0.23809,-17.7103 5.21844,-34.88784 15.69631,-49.27856c5.64973,-7.79058 11.74247,-13.69792 19.9741,-19.44523c7.13681,-4.95498 13.9809,-8.46972 21.72659,-11.07894h60.12722c2.2716,0.7572 4.52564,1.60417 6.76016,2.53701c3.7821,1.59051 11.40875,5.67901 14.8103,7.96817c8.24529,5.52288 15.03473,11.67807 21.36751,19.31448c2.90781,3.5245 8.75074,12.36696 10.74718,16.2525c4.69738,9.17813 8.01306,18.5846 9.80653,27.94032c3.46985,18.11623 2.30088,36.291 -3.4035,53.77688c-2.51555,7.68325 -5.93856,15.00936 -10.1461,21.84759c-10.8994,-0.00195 -22.51307,-0.00585 -34.48777,-0.00781c11.47511,-11.75613 18.54752,-25.22182 21.38897,-40.74443zM302.8506,214.07209" fill="#ce9519" stroke="none" stroke-width="1" stroke-linecap="butt"/><path d="M159.99724,110.22237c-20.70008,19.91946 -31.93514,47.19625 -31.2521,75.90159c0.1288,5.40189 0.43324,8.84052 1.25094,13.87161c1.70761,10.71205 4.83789,20.35856 9.64455,29.80991c4.20168,8.2492 10.5247,18.23527 17.09166,24.80809c-1.3251,-0.03513 -28.74241,0.19515 -33.90426,0.19711c-2.87853,-4.25828 -5.50922,-8.72928 -7.87645,-13.39933c-8.95175,-17.63615 -13.74281,-38.51381 -13.51643,-58.89969c0.3142,-28.26428 9.58796,-55.05904 26.28931,-76.96323c10.74523,0 35.9085,0.28297 37.87761,0.15222c-1.99839,1.6354 -3.88749,2.86097 -5.60485,4.52174zM159.99724,110.22237" fill="#ce9519" stroke="none" stroke-width="1" stroke-linecap="butt"/><path d="M347.9626,228.79457c6.6743,-28.00277 3.22006,-58.94848 -9.42988,-84.40058c-3.31958,-6.72699 -9.21326,-15.99294 -13.52423,-21.30115c-4.29146,-5.2926 -11.5922,-13.22369 -16.54913,-17.5815c12.164,0 24.49974,0 36.66765,0c1.11629,1.5066 5.4214,6.3035 6.89287,8.42093c5.62436,8.09893 9.07275,14.11555 12.85485,22.44086c16.73258,36.81011 16.70916,80.86828 3.12638,118.21702c-4.62322,0.0683 -27.63003,-0.14051 -27.63003,-0.14051c3.20249,-7.12901 5.67706,-17.61468 7.59152,-25.65506zM347.9626,228.79457" fill="#ce9519" stroke="none" stroke-width="1" stroke-linecap="butt"/><path d="M212.86079,189.17228l0.61279,-57.78926l15.01131,0.16003l-0.61279,57.78536zM251.44095,189.62309l0.61083,-57.78926l15.01522,0.15808l-0.61279,57.78731zM251.44095,189.62309" fill="none" stroke-opacity="0.50196" stroke="#000000" stroke-width="12.5" stroke-linecap="butt"/><path d="M212.86079,189.17228l0.61279,-57.78926l15.01131,0.16003l-0.61279,57.78536zM251.44095,189.62309l0.61083,-57.78926l15.01522,0.15808l-0.61279,57.78731zM251.44095,189.62309" fill="#ffae00" stroke="#d89400" stroke-width="5" stroke-linecap="butt"/><path d="M111.28268,237.64875c-2.65606,0 -3.98311,-0.29273 -3.98311,-0.87429v-28.43016c0,-0.99334 0.45081,-1.49098 1.35242,-1.49098h7.72033c4.33049,0 7.45101,0.89381 9.36548,2.68143c1.91837,1.78372 2.87854,4.37147 2.87854,7.76326c0,2.80437 -0.90747,5.37847 -2.72436,7.72033c-0.90357,1.16507 -2.23452,2.09987 -3.99287,2.80242c-1.75444,0.70256 -3.79967,1.05384 -6.13567,1.05384v7.85693c0,0.34738 -0.54839,0.58742 -1.64516,0.72012c-1.09677,0.13075 -2.04132,0.19711 -2.8356,0.19711zM115.76343,214.48777v6.9319h0.56595c1.02261,0 1.8852,-0.32005 2.58775,-0.96016c0.70256,-0.64401 1.05384,-1.55343 1.05384,-2.72436c0,-1.17093 -0.24199,-2.00424 -0.72793,-2.50189c-0.48008,-0.49765 -1.33486,-0.74549 -2.56238,-0.74549zM133.92259,221.63434c-0.81575,-1.46171 -1.22362,-2.65411 -1.22362,-3.57329c0,-0.91918 0.24785,-1.5105 0.74549,-1.77396c1.66077,-0.72988 3.94603,-1.09677 6.85384,-1.09677c2.91366,0 4.96864,0.68109 6.16885,2.03937c1.2002,1.36023 1.79933,3.37032 1.79933,6.03224v6.9319h1.49098c0.49765,0 0.886,0.29468 1.16507,0.8821c0.28102,0.58351 0.41958,1.3856 0.41958,2.40821c0,1.02261 -0.25565,2.02961 -0.77086,3.0249c-0.51326,0.99334 -1.20801,1.49098 -2.0823,1.49098c-1.58271,0 -2.85512,-0.42349 -3.82113,-1.26851c-0.43324,-0.35518 -0.76891,-0.78062 -1.0031,-1.27631c-1.34657,1.6959 -3.44058,2.54482 -6.28008,2.54482c-2.13109,0 -3.92652,-0.7611 -5.38823,-2.27941c-1.46366,-1.52026 -2.19354,-3.31958 -2.19354,-5.39798c0,-4.76373 2.84926,-7.14657 8.54973,-7.14657h2.41602v-0.44495c0,-0.7611 -0.1249,-1.24899 -0.37665,-1.46561c-0.2459,-0.21662 -0.8216,-0.32591 -1.73102,-0.32591c-1.11238,0 -2.69314,0.23223 -4.73836,0.69475zM137.43733,229.71375c0,0.64011 0.17369,1.12799 0.52106,1.46561c0.34933,0.33567 0.79428,0.50545 1.33681,0.50545c0.54253,0 1.03432,-0.22052 1.47342,-0.65962v-3.37618h-1.23338c-1.39926,0 -2.09791,0.6889 -2.09791,2.06474zM153.62153,215.89288c0,-0.32591 1.2568,-0.48789 3.77039,-0.48789c2.51359,0 3.77039,0.16198 3.77039,0.48789v12.80997c0,1.46171 0.46837,2.19354 1.40512,2.19354c0.70256,0 1.49294,-0.30834 2.37308,-0.92503v-14.07847c0,-0.29078 1.24314,-0.43715 3.72746,-0.43715c2.48432,0 3.72746,0.14637 3.72746,0.43715v14.38682h1.1397c0.99334,0 1.49098,0.9504 1.49098,2.85316c0,0.96407 -0.20296,1.94374 -0.60888,2.93903c-0.58937,1.28412 -1.37974,1.92813 -2.37308,1.92813c-1.95935,0 -3.4074,-0.80404 -4.34415,-2.40821l-0.04293,0.04293c-1.78176,1.57685 -3.69818,2.36528 -5.74926,2.36528c-2.83365,0 -4.92376,-0.70841 -6.27228,-2.12524c-1.34267,-1.41682 -2.014,-3.76454 -2.014,-7.04314zM178.62672,229.66301c2.36918,1.43244 4.24072,2.15061 5.61265,2.15061c0.8782,0 1.31925,-0.30639 1.31925,-0.91723c0,-0.44105 -0.7611,-1.0109 -2.27941,-1.71346c-3.65525,-1.49098 -5.48385,-3.93237 -5.48385,-7.32611c0,-2.16427 0.78843,-3.81528 2.36528,-4.95303c1.58075,-1.14166 3.47571,-1.71346 5.68096,-1.71346c2.20915,0 4.08069,0.23419 5.6107,0.70256c1.53782,0.46837 2.30478,1.08311 2.30478,1.84226c0,0.64011 -0.3142,1.48903 -0.9426,2.54482c-0.6284,1.05188 -1.05969,1.61978 -1.29388,1.70565c-1.2568,-0.6967 -2.61508,-1.04603 -4.07679,-1.04603c-0.78843,0 -1.18264,0.27712 -1.18264,0.83136c0,0.34933 0.15027,0.64791 0.45276,0.89966c0.30834,0.24589 0.87234,0.55034 1.68809,0.91723c0.82355,0.36494 1.50269,0.6967 2.03937,0.99334c0.54253,0.29078 1.15141,0.70061 1.8247,1.22557c1.40512,1.10848 2.10767,2.55653 2.10767,4.34415c0,2.336 -0.77672,4.22901 -2.33015,5.68096c-1.54758,1.44415 -3.88749,2.16817 -7.01777,2.16817c-2.07255,0 -3.95774,-0.35128 -5.65364,-1.05384c-1.69785,-0.70256 -2.54482,-1.66857 -2.54482,-2.8961c0,-0.8177 0.19711,-1.67833 0.59132,-2.57995c0.39421,-0.90747 0.79623,-1.5105 1.20801,-1.80713zM214.02977,236.38024c-1.84421,1.07921 -4.21535,1.61979 -7.11144,1.61979c-2.8961,0 -5.33749,-0.98553 -7.32611,-2.9566c-1.98668,-1.97692 -2.98197,-4.71299 -2.98197,-8.20821c0,-3.49718 0.95821,-6.30936 2.87073,-8.44045c1.92032,-2.13499 4.3422,-3.20444 7.26562,-3.20444c2.92537,0 5.18331,0.74549 6.77773,2.23647c1.59442,1.49098 2.39065,3.30397 2.39065,5.44092c0,4.73446 -2.71851,7.10364 -8.15747,7.10364h-3.03271c0,0.8782 0.24004,1.48708 0.72012,1.8247c0.48594,0.33762 1.1963,0.50545 2.13304,0.50545c2.05108,0 3.99677,-0.46837 5.83513,-1.40512c0.02927,-0.02927 0.16003,0.17369 0.39421,0.60888c0.70256,1.2607 1.05384,2.32429 1.05384,3.18688c0,0.86258 -0.27712,1.42463 -0.83136,1.68809zM208.54591,223.69908c0,-1.22752 -0.59913,-1.84226 -1.79933,-1.84226c-0.55424,0 -1.03042,0.16783 -1.43049,0.50545c-0.39421,0.33762 -0.59132,0.82551 -0.59132,1.46561v1.36218h2.37308c0.96602,0 1.44805,-0.49765 1.44805,-1.49098zM241.57588,207.7276c0,-0.58156 1.58466,-0.87429 4.75592,-0.87429c3.17517,0 4.76373,0.29273 4.76373,0.87429v20.13608c0,2.98587 -1.06945,5.42335 -3.20444,7.30855c-2.13109,1.8852 -5.07598,2.82779 -8.83466,2.82779c-3.75868,0 -6.81481,-0.97187 -9.16838,-2.91366c-2.35357,-1.94765 -3.53035,-4.57248 -3.53035,-7.8745v-19.43352c0,-0.58742 1.58661,-0.8821 4.75592,-0.8821c3.17712,0 4.76373,0.29468 4.76373,0.8821v19.7848c0,0.58351 0.30639,1.04798 0.91723,1.39731c0.64596,0.35323 1.31925,0.53082 2.0218,0.53082c0.70256,0 1.33681,-0.16003 1.90276,-0.48008c0.5718,-0.32591 0.85673,-0.80794 0.85673,-1.44805zM264.65294,237.29747c0,0.35323 -1.22752,0.53082 -3.68452,0.53082c-2.92537,-0.121 -4.38708,-0.31225 -4.38708,-0.57376v-15.52652h-2.23647c-0.58742,0 -0.8821,-1.0109 -0.8821,-3.03271c0,-0.52497 0.05074,-1.16898 0.15417,-1.92813c0.10343,-0.75915 0.31615,-1.1397 0.64206,-1.1397h2.32234v-3.86407c0,-0.58351 1.23338,-0.87429 3.70209,-0.87429c2.47261,0 3.70989,0.23419 3.70989,0.70256v2.81023l0.04293,1.22557h3.73527c0.49765,0 0.74549,1.02456 0.74549,3.07564c0,2.04522 -0.24785,3.06783 -0.74549,3.06783h-3.11858zM278.73141,237.29747c0,0.23419 -1.33876,0.35128 -4.01824,0.35128c-2.67362,0 -4.01043,-0.10343 -4.01043,-0.3103v-21.53924c0,-0.20101 1.33681,-0.30054 4.01043,-0.30054c2.67948,0 4.01824,0.08587 4.01824,0.2576zM278.73141,213.16852c0,0.20491 -1.33876,0.30834 -4.01824,0.30834c-2.67362,0 -4.01043,-0.08782 -4.01043,-0.26541v-6.31521c0,-0.29078 1.33681,-0.43715 4.01043,-0.43715c2.67948,0 4.01824,0.08977 4.01824,0.26541zM290.66513,237.2116c0,0.26151 -1.49098,0.39421 -4.47295,0.39421c-2.34186,-0.02927 -3.51279,-0.14637 -3.51279,-0.35128v-29.87821c0,-0.43324 1.41878,-0.65182 4.25828,-0.65182c2.48432,0.08587 3.72746,0.23223 3.72746,0.43715zM302.63984,237.29747c0,0.23419 -1.33876,0.35128 -4.01824,0.35128c-2.67362,0 -4.01043,-0.10343 -4.01043,-0.3103v-21.53924c0,-0.20101 1.33681,-0.30054 4.01043,-0.30054c2.67948,0 4.01824,0.08587 4.01824,0.2576zM302.63984,213.16852c0,0.20491 -1.33876,0.30834 -4.01824,0.30834c-2.67362,0 -4.01043,-0.08782 -4.01043,-0.26541v-6.31521c0,-0.29078 1.33681,-0.43715 4.01043,-0.43715c2.67948,0 4.01824,0.08977 4.01824,0.26541zM316.68123,237.29747c0,0.35323 -1.22752,0.53082 -3.68452,0.53082c-2.92342,-0.121 -4.38708,-0.31225 -4.38708,-0.57376v-15.52652h-2.23647c-0.58742,0 -0.8821,-1.0109 -0.8821,-3.03271c0,-0.52497 0.05074,-1.16898 0.15417,-1.92813c0.10343,-0.75915 0.3181,-1.1397 0.64206,-1.1397h2.32234v-3.86407c0,-0.58351 1.23338,-0.87429 3.70209,-0.87429c2.47261,0 3.70989,0.23419 3.70989,0.70256v2.81023l0.04293,1.22557h3.73526c0.49765,0 0.74549,1.02456 0.74549,3.07564c0,2.04522 -0.24785,3.06783 -0.74549,3.06783h-3.11858zM330.7597,237.29747c0,0.23419 -1.33876,0.35128 -4.01824,0.35128c-2.67362,0 -4.01043,-0.10343 -4.01043,-0.3103v-21.53924c0,-0.20101 1.33681,-0.30054 4.01043,-0.30054c2.67948,0 4.01824,0.08587 4.01824,0.2576zM330.7597,213.16852c0,0.20491 -1.33876,0.30834 -4.01824,0.30834c-2.67362,0 -4.01043,-0.08782 -4.01043,-0.26541v-6.31521c0,-0.29078 1.33681,-0.43715 4.01043,-0.43715c2.67948,0 4.01824,0.08977 4.01824,0.26541zM351.29585,236.38024c-1.84421,1.07921 -4.21535,1.61979 -7.11144,1.61979c-2.8961,0 -5.33749,-0.98553 -7.32611,-2.9566c-1.98668,-1.97692 -2.98197,-4.71299 -2.98197,-8.20821c0,-3.49718 0.95821,-6.30936 2.87073,-8.44045c1.92032,-2.13499 4.3422,-3.20444 7.26562,-3.20444c2.92537,0 5.18331,0.74549 6.77773,2.23647c1.59442,1.49098 2.39065,3.30397 2.39065,5.44092c0,4.73446 -2.71851,7.10364 -8.15747,7.10364h-3.03271c0,0.8782 0.24004,1.48708 0.72012,1.8247c0.48594,0.33762 1.1963,0.50545 2.13304,0.50545c2.05108,0 5.99516,-1.23143 6.22934,-0.79623c0.70256,1.2607 1.05384,2.32429 1.05384,3.18688c0,0.86258 -0.27712,1.42463 -0.83136,1.68809zM345.812,223.69908c0,-1.22752 -0.59913,-1.84226 -1.79933,-1.84226c-0.55424,0 -1.03042,0.16783 -1.43049,0.50545c-0.39421,0.33762 -0.59132,0.82551 -0.59132,1.46561v1.36218h2.37308c0.96602,0 1.44805,-0.49765 1.44805,-1.49098zM356.95339,229.66301c2.37113,1.43244 4.24072,2.15061 5.61265,2.15061c0.88015,0 1.31925,-0.30639 1.31925,-0.91723c0,-0.44105 -0.75915,-1.0109 -2.27941,-1.71346c-3.65525,-1.49098 -5.48385,-3.93237 -5.48385,-7.32611c0,-2.16427 0.78843,-3.81528 2.36528,-4.95303c1.58271,-1.14166 3.47571,-1.71346 5.68096,-1.71346c2.21111,0 4.08069,0.23419 5.61265,0.70256c1.53587,0.46837 2.30478,1.08311 2.30478,1.84226c0,0.64011 -0.3142,1.48903 -0.9426,2.54482c-0.6284,1.05188 -1.05969,1.61978 -1.29388,1.70565c-1.2568,-0.6967 -2.61703,-1.04603 -4.07874,-1.04603c-0.78843,0 -1.18264,0.27712 -1.18264,0.83136c0,0.34933 0.15222,0.64791 0.45471,0.89966c0.30834,0.24589 0.87039,0.55034 1.68809,0.91723c0.8216,0.36494 1.50074,0.6967 2.03937,0.99334c0.54253,0.29078 1.14946,0.70061 1.8247,1.22557c1.40512,1.10848 2.10767,2.55653 2.10767,4.34415c0,2.336 -0.77672,4.22901 -2.33015,5.68096c-1.54953,1.44415 -3.88749,2.16817 -7.01777,2.16817c-2.0745,0 -3.95969,-0.35128 -5.65559,-1.05384c-1.6959,-0.70256 -2.54482,-1.66857 -2.54482,-2.8961c0,-0.8177 0.19711,-1.67833 0.59132,-2.57995c0.39421,-0.90747 0.79623,-1.5105 1.20801,-1.80713zM356.95339,229.66301" fill="none" stroke-opacity="0.51765" stroke="#000000" stroke-width="7.5" stroke-linecap="square"/><path d="M111.28268,237.64875c-2.65606,0 -3.98311,-0.29273 -3.98311,-0.87429v-28.43016c0,-0.99334 0.45081,-1.49098 1.35242,-1.49098h7.72033c4.33049,0 7.45101,0.89381 9.36548,2.68143c1.91837,1.78372 2.87853,4.37147 2.87853,7.76326c0,2.80438 -0.90747,5.37847 -2.72436,7.72033c-0.90357,1.16507 -2.23452,2.09987 -3.99287,2.80242c-1.75444,0.70256 -3.79967,1.05384 -6.13567,1.05384v7.85694c0,0.34738 -0.54839,0.58742 -1.64516,0.72012c-1.09677,0.13075 -2.04132,0.19711 -2.8356,0.19711zM115.76343,214.48777v6.9319h0.56595c1.02261,0 1.8852,-0.32005 2.58775,-0.96016c0.70256,-0.64401 1.05384,-1.55343 1.05384,-2.72436c0,-1.17093 -0.24199,-2.00424 -0.72793,-2.50189c-0.48008,-0.49765 -1.33486,-0.74549 -2.56238,-0.74549zM133.92259,221.63434c-0.81575,-1.46171 -1.22362,-2.65411 -1.22362,-3.57329c0,-0.91918 0.24785,-1.5105 0.74549,-1.77396c1.66077,-0.72988 3.94603,-1.09677 6.85384,-1.09677c2.91366,0 4.96864,0.68109 6.16885,2.03937c1.2002,1.36023 1.79933,3.37032 1.79933,6.03224v6.9319h1.49098c0.49764,0 0.886,0.29468 1.16507,0.8821c0.28102,0.58351 0.41958,1.3856 0.41958,2.40821c0,1.02261 -0.25565,2.02961 -0.77086,3.0249c-0.51326,0.99334 -1.20801,1.49098 -2.0823,1.49098c-1.58271,0 -2.85512,-0.42349 -3.82113,-1.26851c-0.43324,-0.35518 -0.76891,-0.78062 -1.0031,-1.27631c-1.34657,1.6959 -3.44058,2.54482 -6.28008,2.54482c-2.13109,0 -3.92652,-0.7611 -5.38823,-2.27941c-1.46366,-1.52026 -2.19354,-3.31958 -2.19354,-5.39798c0,-4.76373 2.84926,-7.14657 8.54973,-7.14657h2.41602v-0.44495c0,-0.7611 -0.1249,-1.24899 -0.37665,-1.46561c-0.2459,-0.21662 -0.8216,-0.32591 -1.73102,-0.32591c-1.11238,0 -2.69314,0.23223 -4.73836,0.69475zM137.43733,229.71375c0,0.64011 0.17369,1.12799 0.52106,1.46561c0.34933,0.33567 0.79428,0.50545 1.33681,0.50545c0.54253,0 1.03432,-0.22052 1.47342,-0.65962v-3.37618h-1.23338c-1.39926,0 -2.09792,0.6889 -2.09792,2.06474zM153.62153,215.89288c0,-0.32591 1.2568,-0.48789 3.77039,-0.48789c2.51359,0 3.77039,0.16198 3.77039,0.48789v12.80997c0,1.46171 0.46837,2.19354 1.40512,2.19354c0.70256,0 1.49294,-0.30834 2.37308,-0.92503v-14.07847c0,-0.29078 1.24314,-0.43715 3.72746,-0.43715c2.48432,0 3.72746,0.14637 3.72746,0.43715v14.38682h1.1397c0.99334,0 1.49098,0.9504 1.49098,2.85316c0,0.96406 -0.20296,1.94374 -0.60888,2.93903c-0.58937,1.28412 -1.37974,1.92813 -2.37308,1.92813c-1.95935,0 -3.4074,-0.80404 -4.34415,-2.40821l-0.04293,0.04293c-1.78176,1.57685 -3.69818,2.36528 -5.74926,2.36528c-2.83365,0 -4.92376,-0.70841 -6.27228,-2.12524c-1.34267,-1.41682 -2.014,-3.76454 -2.014,-7.04314zM178.62672,229.66301c2.36918,1.43244 4.24072,2.15061 5.61265,2.15061c0.8782,0 1.31925,-0.30639 1.31925,-0.91723c0,-0.44105 -0.7611,-1.0109 -2.27941,-1.71346c-3.65525,-1.49098 -5.48385,-3.93237 -5.48385,-7.32611c0,-2.16427 0.78843,-3.81528 2.36528,-4.95303c1.58075,-1.14166 3.47571,-1.71346 5.68096,-1.71346c2.20915,0 4.08069,0.23419 5.6107,0.70256c1.53782,0.46837 2.30478,1.08311 2.30478,1.84226c0,0.64011 -0.3142,1.48903 -0.9426,2.54482c-0.6284,1.05188 -1.05969,1.61979 -1.29388,1.70565c-1.2568,-0.6967 -2.61508,-1.04603 -4.07679,-1.04603c-0.78843,0 -1.18264,0.27712 -1.18264,0.83136c0,0.34933 0.15027,0.64791 0.45276,0.89966c0.30834,0.24589 0.87234,0.55034 1.68809,0.91723c0.82355,0.36494 1.50269,0.6967 2.03937,0.99334c0.54253,0.29078 1.15141,0.70061 1.8247,1.22557c1.40512,1.10848 2.10767,2.55653 2.10767,4.34415c0,2.336 -0.77672,4.22901 -2.33015,5.68096c-1.54758,1.44415 -3.88749,2.16817 -7.01777,2.16817c-2.07255,0 -3.95774,-0.35128 -5.65364,-1.05384c-1.69785,-0.70256 -2.54482,-1.66857 -2.54482,-2.8961c0,-0.8177 0.19711,-1.67833 0.59132,-2.57995c0.39421,-0.90747 0.79623,-1.5105 1.20801,-1.80713zM214.02977,236.38024c-1.84421,1.07921 -4.21535,1.61979 -7.11144,1.61979c-2.8961,0 -5.33749,-0.98553 -7.32611,-2.9566c-1.98668,-1.97692 -2.98197,-4.71299 -2.98197,-8.20821c0,-3.49718 0.95821,-6.30936 2.87073,-8.44045c1.92032,-2.13499 4.3422,-3.20444 7.26562,-3.20444c2.92537,0 5.18331,0.74549 6.77773,2.23648c1.59442,1.49098 2.39065,3.30397 2.39065,5.44092c0,4.73446 -2.71851,7.10364 -8.15747,7.10364h-3.03271c0,0.8782 0.24004,1.48708 0.72012,1.8247c0.48594,0.33762 1.1963,0.50545 2.13304,0.50545c2.05108,0 3.99677,-0.46837 5.83513,-1.40512c0.02927,-0.02927 0.16003,0.17369 0.39421,0.60888c0.70256,1.2607 1.05384,2.32429 1.05384,3.18688c0,0.86258 -0.27712,1.42463 -0.83136,1.68809zM208.54591,223.69908c0,-1.22752 -0.59913,-1.84226 -1.79933,-1.84226c-0.55424,0 -1.03042,0.16783 -1.43049,0.50545c-0.39421,0.33762 -0.59132,0.82551 -0.59132,1.46561v1.36218h2.37308c0.96602,0 1.44805,-0.49765 1.44805,-1.49098zM241.57588,207.7276c0,-0.58156 1.58466,-0.87429 4.75592,-0.87429c3.17517,0 4.76373,0.29273 4.76373,0.87429v20.13608c0,2.98587 -1.06945,5.42335 -3.20444,7.30855c-2.13109,1.8852 -5.07598,2.82779 -8.83466,2.82779c-3.75868,0 -6.81481,-0.97187 -9.16838,-2.91366c-2.35357,-1.94765 -3.53035,-4.57248 -3.53035,-7.8745v-19.43352c0,-0.58742 1.58661,-0.8821 4.75592,-0.8821c3.17712,0 4.76373,0.29468 4.76373,0.8821v19.7848c0,0.58351 0.30639,1.04798 0.91723,1.39731c0.64596,0.35323 1.31925,0.53082 2.0218,0.53082c0.70256,0 1.33681,-0.16003 1.90276,-0.48008c0.5718,-0.32591 0.85673,-0.80794 0.85673,-1.44805zM264.65294,237.29747c0,0.35323 -1.22752,0.53082 -3.68452,0.53082c-2.92537,-0.121 -4.38708,-0.31225 -4.38708,-0.57376v-15.52652h-2.23647c-0.58742,0 -0.8821,-1.0109 -0.8821,-3.03271c0,-0.52497 0.05074,-1.16898 0.15417,-1.92813c0.10343,-0.75915 0.31615,-1.1397 0.64206,-1.1397h2.32234v-3.86407c0,-0.58351 1.23338,-0.87429 3.70209,-0.87429c2.47261,0 3.70989,0.23419 3.70989,0.70256v2.81023l0.04293,1.22557h3.73526c0.49764,0 0.74549,1.02456 0.74549,3.07564c0,2.04522 -0.24785,3.06783 -0.74549,3.06783h-3.11858zM278.73141,237.29747c0,0.23419 -1.33876,0.35128 -4.01824,0.35128c-2.67362,0 -4.01043,-0.10343 -4.01043,-0.3103v-21.53924c0,-0.20101 1.33681,-0.30054 4.01043,-0.30054c2.67948,0 4.01824,0.08587 4.01824,0.2576zM278.73141,213.16852c0,0.20491 -1.33876,0.30834 -4.01824,0.30834c-2.67362,0 -4.01043,-0.08782 -4.01043,-0.26541v-6.31521c0,-0.29078 1.33681,-0.43715 4.01043,-0.43715c2.67948,0 4.01824,0.08977 4.01824,0.26541zM290.66513,237.2116c0,0.26151 -1.49098,0.39421 -4.47295,0.39421c-2.34186,-0.02927 -3.51279,-0.14637 -3.51279,-0.35128v-29.87821c0,-0.43324 1.41878,-0.65182 4.25828,-0.65182c2.48432,0.08587 3.72746,0.23223 3.72746,0.43715zM302.63984,237.29747c0,0.23419 -1.33876,0.35128 -4.01824,0.35128c-2.67362,0 -4.01043,-0.10343 -4.01043,-0.3103v-21.53924c0,-0.20101 1.33681,-0.30054 4.01043,-0.30054c2.67948,0 4.01824,0.08587 4.01824,0.2576zM302.63984,213.16852c0,0.20491 -1.33876,0.30834 -4.01824,0.30834c-2.67362,0 -4.01043,-0.08782 -4.01043,-0.26541v-6.31521c0,-0.29078 1.33681,-0.43715 4.01043,-0.43715c2.67948,0 4.01824,0.08977 4.01824,0.26541zM316.68123,237.29747c0,0.35323 -1.22752,0.53082 -3.68452,0.53082c-2.92342,-0.121 -4.38708,-0.31225 -4.38708,-0.57376v-15.52652h-2.23648c-0.58742,0 -0.8821,-1.0109 -0.8821,-3.03271c0,-0.52497 0.05074,-1.16898 0.15417,-1.92813c0.10343,-0.75915 0.3181,-1.1397 0.64206,-1.1397h2.32234v-3.86407c0,-0.58351 1.23338,-0.87429 3.70209,-0.87429c2.47261,0 3.70989,0.23419 3.70989,0.70256v2.81023l0.04293,1.22557h3.73526c0.49765,0 0.74549,1.02456 0.74549,3.07564c0,2.04522 -0.24785,3.06783 -0.74549,3.06783h-3.11857zM330.7597,237.29747c0,0.23419 -1.33876,0.35128 -4.01824,0.35128c-2.67362,0 -4.01043,-0.10343 -4.01043,-0.3103v-21.53924c0,-0.20101 1.33681,-0.30054 4.01043,-0.30054c2.67948,0 4.01824,0.08587 4.01824,0.2576zM330.7597,213.16852c0,0.20491 -1.33876,0.30834 -4.01824,0.30834c-2.67362,0 -4.01043,-0.08782 -4.01043,-0.26541v-6.31521c0,-0.29078 1.33681,-0.43715 4.01043,-0.43715c2.67948,0 4.01824,0.08977 4.01824,0.26541zM351.29585,236.38024c-1.84421,1.07921 -4.21535,1.61979 -7.11144,1.61979c-2.8961,0 -5.33749,-0.98553 -7.32611,-2.9566c-1.98668,-1.97692 -2.98197,-4.71299 -2.98197,-8.20821c0,-3.49718 0.95821,-6.30936 2.87073,-8.44045c1.92032,-2.13499 4.3422,-3.20444 7.26562,-3.20444c2.92537,0 5.18331,0.74549 6.77773,2.23648c1.59442,1.49098 2.39065,3.30397 2.39065,5.44092c0,4.73446 -2.71851,7.10364 -8.15747,7.10364h-3.03271c0,0.8782 0.24004,1.48708 0.72012,1.8247c0.48594,0.33762 1.1963,0.50545 2.13304,0.50545c2.05108,0 3.99677,-0.46837 5.83513,-1.40512c0.02927,-0.02927 0.16003,0.17369 0.39421,0.60888c0.70256,1.2607 1.05384,2.32429 1.05384,3.18688c0,0.86258 -0.27712,1.42463 -0.83136,1.68809zM345.812,223.69908c0,-1.22752 -0.59913,-1.84226 -1.79933,-1.84226c-0.55424,0 -1.03042,0.16783 -1.43049,0.50545c-0.39421,0.33762 -0.59132,0.82551 -0.59132,1.46561v1.36218h2.37308c0.96602,0 1.44805,-0.49765 1.44805,-1.49098zM356.95339,229.66301c2.37113,1.43244 4.24072,2.15061 5.61265,2.15061c0.88015,0 1.31925,-0.30639 1.31925,-0.91723c0,-0.44105 -0.75915,-1.0109 -2.27941,-1.71346c-3.65525,-1.49098 -5.48385,-3.93237 -5.48385,-7.32611c0,-2.16427 0.78843,-3.81528 2.36528,-4.95303c1.58271,-1.14166 3.47571,-1.71346 5.68096,-1.71346c2.21111,0 4.08069,0.23419 5.61265,0.70256c1.53587,0.46837 2.30478,1.08311 2.30478,1.84226c0,0.64011 -0.3142,1.48903 -0.9426,2.54482c-0.6284,1.05188 -1.05969,1.61979 -1.29388,1.70565c-1.2568,-0.6967 -2.61703,-1.04603 -4.07874,-1.04603c-0.78843,0 -1.18264,0.27712 -1.18264,0.83136c0,0.34933 0.15222,0.64791 0.45471,0.89966c0.30834,0.24589 0.87039,0.55034 1.68809,0.91723c0.8216,0.36494 1.50074,0.6967 2.03937,0.99334c0.54253,0.29078 1.14946,0.70061 1.8247,1.22557c1.40512,1.10848 2.10767,2.55653 2.10767,4.34415c0,2.336 -0.77672,4.22901 -2.33015,5.68096c-1.54953,1.44415 -3.88749,2.16817 -7.01777,2.16817c-2.0745,0 -3.95969,-0.35128 -5.65559,-1.05384c-1.6959,-0.70256 -2.54482,-1.66857 -2.54482,-2.8961c0,-0.8177 0.19711,-1.67833 0.59132,-2.57995c0.39421,-0.90747 0.79623,-1.5105 1.20801,-1.80713zM356.95339,229.66301" fill="#ffffff" stroke="none" stroke-width="1" stroke-linecap="butt"/><path d="M90.31468,117.67718c0,-6.39897 5.91545,-12.49566 13.1192,-12.49566c28.93252,0 219.72832,0 272.60996,0c8.61359,0 13.56814,4.64378 13.56814,12.24625c0,30.59212 0,109.0924 0,125.70487c0,6.03964 -4.85913,11.69754 -13.31873,11.69754c-52.46667,0 -243.42599,0 -272.60996,0c-7.3279,0 -13.36861,-4.5235 -13.36861,-11.94695c0,-30.16113 0,-108.19342 0,-125.20604z" data-paper-data="{&quot;index&quot;:null}" fill="none" stroke="url(#color-1)" stroke-width="10" stroke-linecap="butt"/></g></g></svg>