<svg version="1.1" xmlns="http://www.w3.org/2000/svg" xmlns:xlink="http://www.w3.org/1999/xlink" width="309.2973" height="159.7315" viewBox="0,0,309.2973,159.7315"><defs><linearGradient x1="240" y1="105.65934" x2="240" y2="255.30799" gradientUnits="userSpaceOnUse" id="color-1"><stop offset="0" stop-color="#5fa2ff"/><stop offset="1" stop-color="#f1f3f9"/></linearGradient><linearGradient x1="389.64865" y1="180.48367" x2="90.35135" y2="180.48367" gradientUnits="userSpaceOnUse" id="color-2"><stop offset="0" stop-color="#f2f4fa" stop-opacity="0"/><stop offset="1" stop-color="#f2f4fa" stop-opacity="0.17255"/></linearGradient><linearGradient x1="90.35135" y1="180.48367" x2="389.64865" y2="180.48367" gradientUnits="userSpaceOnUse" id="color-3"><stop offset="0" stop-color="#f2f4fa" stop-opacity="0"/><stop offset="1" stop-color="#f2f4fa" stop-opacity="0.17255"/></linearGradient></defs><g transform="translate(-85.35135,-100.08408)"><g data-paper-data="{&quot;isPaintingLayer&quot;:true}" stroke-miterlimit="10" stroke-dasharray="" stroke-dashoffset="0" style="mix-blend-mode: normal"><g fill-rule="nonzero" stroke="none" stroke-width="0.72289" stroke-linecap="butt" stroke-linejoin="miter"><path d="M90.35135,105.65934h299.2973l0,149.25658c-99.66633,-0.32477 -199.33406,-0.36416 -299.00072,-0.11817c-0.05187,-0.56361 -0.15213,-1.11321 -0.29658,-1.6446z" fill="url(#color-1)"/><path d="M90.35135,105.65934h299.2973l0,149.25658c-99.66633,-0.32477 -199.33406,-0.36416 -299.00072,-0.11817c-0.05187,-0.56361 -0.15213,-1.11321 -0.29658,-1.6446z" data-paper-data="{&quot;index&quot;:null}" fill="url(#color-2)"/><path d="M90.35135,105.65934h299.2973l0,149.25658c-99.66633,-0.32477 -199.33406,-0.36416 -299.00072,-0.11817c-0.05187,-0.56361 -0.15213,-1.11321 -0.29658,-1.6446z" fill="url(#color-3)"/></g><g fill="none" fill-rule="nonzero" stroke="#77b1fc" stroke-width="10" stroke-linecap="round" stroke-linejoin="miter"><path d="M171.53392,105.19918c-0.10207,25.74848 15.91551,81.98144 6.63961,112.13512c-6.56065,21.32708 -23.14562,32.03051 -36.99035,37.36318"/><path d="M215.18136,105.22088c-0.09299,25.75836 15.91298,81.9682 6.63969,112.11341c-6.5413,21.26419 -23.04789,31.96729 -36.86779,37.31586"/><path d="M265.06434,105.19643c-0.10322,25.74722 15.91582,81.98311 6.6396,112.13787c-6.53756,21.25203 -23.02901,31.95505 -36.84408,37.30668"/><path d="M308.71209,105.14549c-0.1246,25.72392 15.92172,82.01415 6.63937,112.1888c-6.5502,21.29312 -23.09282,31.9964 -36.92418,37.33766"/><path d="M345.9167,105.08984c-0.14807,25.6983 15.92813,82.04802 6.63908,112.24446c-6.57275,21.36642 -23.20684,32.06996 -37.06693,37.39264"/><path d="M124.56126,105.11639c-0.13686,25.71055 15.92508,82.03186 6.63923,112.2179c-6.59867,21.45069 -23.33819,32.15422 -37.23078,37.45536"/></g><g fill="none" fill-rule="nonzero" stroke="#77b1fc" stroke-width="10" stroke-linecap="round" stroke-linejoin="miter"><path d="M384.02138,170.59332c0,0 -14.74693,-19.92803 -40.17979,-25.0008c-24.1508,-4.81705 -130.8724,9.59989 -183.91196,3.01981c-59.26212,-7.35206 -63.95101,-35.47123 -63.95101,-35.47123"/><path d="M384.02138,197.05158c0,0 -14.74693,-19.92803 -40.17979,-25.0008c-24.1508,-4.81705 -130.8724,9.59989 -183.91196,3.01981c-59.26212,-7.35206 -63.95101,-35.47123 -63.95101,-35.47123"/><path d="M384.02138,227.28959c0,0 -14.74693,-19.92803 -40.17979,-25.0008c-24.1508,-4.81705 -130.8724,9.59989 -183.91196,3.01981c-59.26212,-7.35206 -63.95101,-35.47123 -63.95101,-35.47123"/><path d="M384.02138,253.74785c0,0 -14.74693,-19.92803 -40.17979,-25.0008c-24.1508,-4.81705 -130.8724,9.59989 -183.91196,3.01981c-59.26212,-7.35206 -63.95101,-35.47123 -63.95101,-35.47123"/><path d="M355.41379,254.81559c-3.56148,-1.46649 -7.42475,-2.68878 -11.57219,-3.51601c-14.34646,-2.86151 -57.83047,1.06427 -101.89025,3.34397"/><path d="M162.98488,254.66932c-1.03688,-0.10937 -2.05559,-0.22593 -3.05524,-0.34994c-59.26212,-7.35206 -63.95101,-35.47123 -63.95101,-35.47123"/><path d="M384.02138,142.11919c0,0 -14.74693,-19.92803 -40.17979,-25.0008c-24.1508,-4.81705 -130.8724,9.59989 -183.91196,3.01981c-22.96025,-2.84845 -37.72872,-8.81417 -47.2065,-15.05411"/></g><g stroke="#575e75" stroke-width="5" stroke-linecap="round"><path d="M161.38266,210.3715l-2.94953,7.20066l-2.93042,-7.18873c-1.99899,-4.90791 -3.00445,-9.94719 -2.9949,-15.00795l0.08717,-47.08136c0.00478,-2.0157 2.67487,-3.65407 5.96951,-3.66004c3.28986,-0.00597 5.95756,1.62045 5.95279,3.63615l-0.08598,47.08255c-0.00836,5.06196 -1.03174,10.1072 -3.04864,15.0187" fill="#ffffff" fill-rule="evenodd" stroke-linejoin="round"/><path d="M145.77645,175.40827c0,0 5.77486,-0.47288 3.34837,-7.04065c-5.25183,-14.21266 2.90176,-16.68692 2.90176,-16.68692" fill="none" fill-rule="evenodd" stroke-linejoin="round"/><path d="M163.63959,146.55188c0.55289,0.55289 0.87531,1.20967 0.87411,1.90584l-0.04179,22.2528c-0.00955,-0.68304 -0.30809,-1.28729 -0.84784,-1.82704c-1.04368,-1.04368 -2.94953,-1.73867 -5.10375,-1.74583c-3.24806,0.00478 -5.90741,1.60851 -5.96114,3.59675l0.0406,-22.25399c0.00478,-2.01093 2.67487,-3.65407 5.96472,-3.67198c2.15184,0.00717 4.0338,0.69977 5.07629,1.74225M162.49799,207.27867c-0.32362,1.04487 -0.70096,2.06228 -1.11533,3.0976l-2.95311,7.19947l-2.92445,-7.18992c-0.41318,-1.02935 -0.78335,-2.04915 -1.10339,-3.09282c1.04248,-0.60543 2.47545,-0.98278 4.04814,-0.98636c1.57388,-0.00239 3.00206,0.37019 4.04694,0.97323" fill="#4c97ff" fill-rule="evenodd" stroke-linejoin="round"/><path d="M163.64078,146.36679c0.55409,0.55409 0.8765,1.21086 0.87411,1.90824l-0.07403,47.07539c-0.02388,5.06315 -1.05084,10.10959 -3.05939,15.02467l-2.9543,7.19827l-1.60254,-3.92873l1.33386,-3.26358c2.00615,-4.91508 3.03311,-9.95913 3.057,-15.02228l0.07523,-47.07658c0,-0.69738 -0.32242,-1.35415 -0.87531,-1.90704c-0.77141,-0.77141 -1.99421,-1.34938 -3.46539,-1.60254c0.50393,-0.09314 1.04727,-0.14688 1.61328,-0.14688c2.15303,0.00836 4.035,0.70096 5.07749,1.74345" fill="#575e75" fill-rule="evenodd" stroke-linejoin="round" opacity="0.15"/><path d="M146.96341,172.7931c0.59707,0.59707 0.59827,1.56313 0.00119,2.1602c-0.59707,0.59707 -1.56432,0.59707 -2.1602,0.00119c-0.59707,-0.59707 -0.5923,-1.56432 0.00358,-2.1602c0.59707,-0.59707 1.56194,-0.59707 2.159,0z" fill="#575e75" fill-rule="evenodd" stroke-linejoin="round"/><path d="M158.86463,144.87928c0,0 26.93921,-0.47688 27.07898,19.71896c0.12889,18.62317 -21.56269,13.24083 -21.56269,13.24083" fill="none" fill-rule="nonzero" stroke-linejoin="miter"/><path d="M204.42151,214.19032c0,0 -3.63897,-22.84608 -2.36639,-44.4729c0.45094,-7.6635 -0.47316,-15.57226 2.36639,-21.70386c4.81598,-10.39943 25.76977,0 25.76977,0" fill="none" fill-rule="nonzero" stroke-linejoin="miter"/><path d="M230.19128,214.19032c0,0 -22.12043,4.36042 -25.76977,0c-6.45465,-7.71235 0,-66.17676 0,-66.17676" data-paper-data="{&quot;index&quot;:null}" fill="none" fill-rule="nonzero" stroke-linejoin="miter"/><path d="M203.93932,181.10193h24.91192" fill="none" fill-rule="nonzero" stroke-linejoin="miter"/><path d="M285.33858,147.21902c0,0 -0.0483,54.46757 0,64.63588c0.15329,32.267 -41.21362,-85.25602 -42.39088,-60.46583c-0.52728,11.1032 0,63.59337 0,63.59337" fill="none" fill-rule="nonzero" stroke-linejoin="miter"/><path d="M296.88343,181.10193h38.75773" fill="none" fill-rule="nonzero" stroke-linejoin="miter"/><path d="M316.26229,200.4808v-38.75773" fill="none" fill-rule="nonzero" stroke-linejoin="miter"/></g><path d="M90.35135,117.62116c0,-6.39897 5.91545,-12.49566 13.1192,-12.49566c28.93252,0 219.72832,0 272.60996,0c8.61359,0 13.56814,4.64378 13.56814,12.24625c0,30.59212 0,109.0924 0,125.70487c0,6.03964 -4.85913,11.69754 -13.31873,11.69754c-52.46667,0 -243.42599,0 -272.60996,0c-7.3279,0 -13.36861,-4.5235 -13.36861,-11.94695c0,-30.16113 0,-108.19342 0,-125.20604z" data-paper-data="{&quot;index&quot;:null}" fill="none" fill-rule="nonzero" stroke="#575e75" stroke-width="10" stroke-linecap="butt" stroke-linejoin="miter"/></g></g></svg>