<svg version="1.1" xmlns="http://www.w3.org/2000/svg" xmlns:xlink="http://www.w3.org/1999/xlink" width="309.2973" height="159.64866" viewBox="0,0,309.2973,159.64866"><defs><linearGradient x1="240.00005" y1="254.5676" x2="240.00005" y2="104.91894" gradientUnits="userSpaceOnUse" id="color-1"><stop offset="0" stop-color="#0c7452"/><stop offset="1" stop-color="#0d845d"/></linearGradient></defs><g transform="translate(-85.3514,-99.91893)"><g data-paper-data="{&quot;isPaintingLayer&quot;:true}" fill-rule="nonzero" stroke-linecap="butt" stroke-linejoin="miter" stroke-miterlimit="10" stroke-dasharray="" stroke-dashoffset="0" style="mix-blend-mode: normal"><path d="M90.35135,254.82432v-149.64865h299.29731v149.64866z" fill="#091b15" stroke="none" stroke-width="1"/><path d="M320.11125,209.76941c-0.10386,-0.5353 0.24589,-1.05344 0.78119,-1.15731l1.9385,-0.37611c0.48463,-0.09403 0.77395,0.10126 1.06328,0.29657l1.15731,0.78119c0.28932,0.1953 0.57866,0.39059 1.06327,0.29656l2.90774,-0.56416c0.48463,-0.09403 0.67992,-0.38335 0.87522,-0.67268l0.78119,-1.15731c0.1953,-0.28932 0.3906,-0.57866 0.87522,-0.67268l26.16966,-5.0775c0.5353,-0.10386 1.05344,0.24589 1.15731,0.78119l1.88056,9.69247c0.10386,0.5353 -0.24589,1.05344 -0.78119,1.15731l-22.29268,4.32527c-0.48463,0.09403 -0.67992,0.38335 -0.87522,0.67268l-0.78119,1.15731c-0.1953,0.28932 -0.3906,0.57866 -0.87522,0.67268l-2.90774,0.56416c-0.48463,0.09403 -0.77395,-0.10127 -1.06328,-0.29657l-1.15731,-0.78119c-0.28932,-0.1953 -0.57866,-0.3906 -1.06328,-0.29657l-1.9385,0.37611c-0.5353,0.10386 -0.88505,0.622 -0.78119,1.15731l1.88056,9.69247c0.10386,0.5353 0.622,0.88505 1.15731,0.78118l1.9385,-0.37611c0.48463,-0.09403 0.77395,0.10127 1.06328,0.29657l1.15731,0.78119c0.28932,0.1953 0.57866,0.39059 1.06327,0.29656l2.90774,-0.56416c0.48463,-0.09403 0.67992,-0.38335 0.87522,-0.67268l0.78119,-1.15731c0.1953,-0.28932 0.3906,-0.57866 0.87522,-0.67268l22.29268,-4.32527c0.5353,-0.10386 1.05344,0.24589 1.15731,0.78119l1.12833,5.81548c0.10386,0.5353 -0.24589,1.05344 -0.78119,1.15731l-26.16966,5.0775c-0.48463,0.09403 -0.67992,0.38335 -0.87522,0.67268l-0.78119,1.15731c-0.1953,0.28932 -0.3906,0.57866 -0.87522,0.67269l-2.90774,0.56416c-0.48463,0.09403 -0.77395,-0.10128 -1.06328,-0.29657l-1.15731,-0.78118c-0.28932,-0.1953 -0.57866,-0.3906 -1.06328,-0.29657l-1.9385,0.37611c-0.5353,0.10386 -1.05344,-0.24589 -1.15731,-0.78119z" fill="#04261a" stroke="#08573e" stroke-width="0.5"/><path d="M275.35789,118.62359c6.54228,-4.9764 17.86757,-4.16674 23.6354,1.68973l9.60188,0.68645c0.54389,0.03888 0.95329,0.51132 0.9144,1.05522l-0.70405,9.84808c-0.03888,0.54389 -0.51132,0.95329 -1.05522,0.9144l-21.41957,-1.53132c-0.49241,-0.03521 -0.75621,0.19341 -1.02001,0.422l-1.05521,0.9144c-0.26381,0.2286 -0.52761,0.4572 -1.02001,0.422l-2.95442,-0.21121c-0.49241,-0.03521 -0.72101,-0.29901 -0.94961,-0.56281l-0.9144,-1.05521c-0.2286,-0.26381 -0.4572,-0.52761 -0.9496,-0.56282l-1.96961,-0.14081c-0.54389,-0.03888 -0.95329,-0.51132 -0.9144,-1.05522z" fill="#04261a" stroke="#08573e" stroke-width="0.5"/><path d="M128.73646,148.58935c0.11083,-0.5339 0.63349,-0.87687 1.16739,-0.76603l1.93343,0.40135c0.48336,0.10034 0.67487,0.39218 0.86637,0.68404l0.76604,1.16739c0.19151,0.29185 0.38303,0.58369 0.86638,0.68403l2.90013,0.60203c0.48336,0.10034 0.77521,-0.09117 1.06705,-0.28267l1.16739,-0.76603c0.29185,-0.19151 0.5837,-0.38302 1.06705,-0.28269l26.10122,5.41831c0.5339,0.11083 0.87687,0.63349 0.76604,1.16739l-2.00678,9.66712c-0.11083,0.5339 -0.63349,0.87687 -1.16739,0.76604l-22.23438,-4.61559c-0.48336,-0.10034 -0.77521,0.09117 -1.06705,0.28268l-1.16739,0.76604c-0.29185,0.19151 -0.5837,0.38302 -1.06705,0.28269l-2.90013,-0.60203c-0.48336,-0.10034 -0.67486,-0.39218 -0.86637,-0.68404l-0.76604,-1.16739c-0.19151,-0.29185 -0.38302,-0.5837 -0.86637,-0.68404l-1.93343,-0.40135c-0.5339,-0.11083 -1.05656,0.23213 -1.16739,0.76604l-2.00678,9.66712c-0.11083,0.5339 0.23213,1.05656 0.76603,1.16739l1.93343,0.40135c0.48336,0.10034 0.67487,0.39219 0.86638,0.68404l0.76603,1.16739c0.19151,0.29185 0.38302,0.58369 0.86637,0.68403l2.90013,0.60203c0.48336,0.10034 0.7752,-0.09117 1.06705,-0.28268l1.16739,-0.76603c0.29185,-0.19151 0.5837,-0.38302 1.06705,-0.28269l22.23438,4.61559c0.5339,0.11083 0.87687,0.63349 0.76603,1.16739l-1.20407,5.80027c-0.11083,0.5339 -0.63349,0.87687 -1.16739,0.76603l-26.10123,-5.4183c-0.48336,-0.10034 -0.77521,0.09117 -1.06705,0.28269l-1.16739,0.76604c-0.29185,0.19151 -0.5837,0.38302 -1.06705,0.28268l-2.90013,-0.60203c-0.48336,-0.10034 -0.67487,-0.39219 -0.86638,-0.68404l-0.76603,-1.16739c-0.19151,-0.29185 -0.38302,-0.5837 -0.86637,-0.68403l-1.93343,-0.40135c-0.5339,-0.11083 -0.87687,-0.63349 -0.76603,-1.16739z" fill="#04261a" stroke="#08573e" stroke-width="0.5"/><path d="M98.46496,123.91146c-0.06608,-0.54126 0.31913,-1.03362 0.8604,-1.0997l1.9601,-0.23929c0.49002,-0.05983 0.76494,0.15528 1.03987,0.37038l1.09969,0.8604c0.27493,0.2151 0.54985,0.4302 1.03987,0.37037l2.94013,-0.35894c0.49002,-0.05983 0.70512,-0.33475 0.92023,-0.60967l0.8604,-1.09969c0.2151,-0.27493 0.4302,-0.54985 0.92022,-0.60967l33.07652,-4.03807c0.54126,-0.06608 1.03361,0.31913 1.09969,0.8604l1.19647,9.80045c0.06608,0.54126 -0.31914,1.03362 -0.8604,1.0997l-33.07652,4.03807c-0.49003,0.05983 -0.70512,0.33474 -0.92023,0.60967l-0.8604,1.09969c-0.2151,0.27493 -0.4302,0.54985 -0.92023,0.60967l-2.94013,0.35894c-0.49002,0.05983 -0.76494,-0.15527 -1.03987,-0.37037l-1.09969,-0.8604c-0.27493,-0.2151 -0.54985,-0.4302 -1.03987,-0.37038l-1.9601,0.23929c-0.54126,0.06608 -1.03361,-0.31913 -1.09969,-0.8604z" fill="#04261a" stroke="#08573e" stroke-width="0.5"/><path d="M101.26446,221.84839c0.09745,-0.5365 0.61136,-0.89244 1.14787,-0.79499l1.94285,0.35288c0.48572,0.08822 0.68447,0.37518 0.88322,0.66215l0.79499,1.14787c0.19875,0.28697 0.3975,0.57394 0.88321,0.66216l2.91428,0.52931c0.48572,0.08822 0.77268,-0.11053 1.05965,-0.30928l1.14787,-0.79499c0.28697,-0.19875 0.57394,-0.3975 1.05965,-0.30928l53.42857,9.70405c0.5365,0.09744 0.89244,0.61136 0.79499,1.14787l-1.76437,9.71429c-0.09744,0.5365 -0.61136,0.89243 -1.14787,0.79499l-53.42857,-9.70405c-0.48572,-0.08822 -0.77268,0.11053 -1.05964,0.30928l-1.14787,0.79499c-0.28697,0.19875 -0.57394,0.3975 -1.05965,0.30928l-2.91428,-0.52931c-0.48572,-0.08822 -0.68446,-0.37519 -0.88321,-0.66216l-0.79499,-1.14787c-0.19875,-0.28697 -0.3975,-0.57393 -0.88321,-0.66215l-1.94285,-0.35287c-0.5365,-0.09744 -0.89244,-0.61137 -0.79499,-1.14787z" fill="#04261a" stroke="#08573e" stroke-width="0.5"/><path d="M283.40726,181.06499c-0.05664,-0.54233 0.33708,-1.0279 0.87942,-1.08454l1.96396,-0.20511c0.49099,-0.05128 0.76213,0.16857 1.03327,0.38843l1.08454,0.87942c0.27114,0.21986 0.54228,0.43971 1.03326,0.38843l2.94594,-0.30769c0.49099,-0.05128 0.71084,-0.32241 0.9307,-0.59356l0.87942,-1.08454c0.21985,-0.27114 0.43972,-0.54228 0.9307,-0.59356l43.45261,-4.53837c0.54233,-0.05664 1.0279,0.33708 1.08454,0.87942l1.02562,9.8198c0.05664,0.54233 -0.33708,1.0279 -0.87942,1.08454l-43.45262,4.53838c-0.49099,0.05128 -0.71084,0.32242 -0.9307,0.59355l-0.87942,1.08454c-0.21985,0.27114 -0.43972,0.54228 -0.9307,0.59355l-2.94593,0.30768c-0.49099,0.05128 -0.76213,-0.16857 -1.03326,-0.38843l-1.08454,-0.87942c-0.27114,-0.21986 -0.54228,-0.43972 -1.03326,-0.38843l-1.96396,0.20513c-0.54233,0.05664 -1.0279,-0.33708 -1.08454,-0.87942z" fill="#04261a" stroke="#08573e" stroke-width="0.5"/><path d="M159.85044,203.83756c4.48913,-6.88577 15.42771,-9.92964 22.82836,-6.35242l9.27402,-2.58066c0.52532,-0.14618 1.06969,0.16117 1.21587,0.6865l2.64684,9.51181c0.14618,0.52532 -0.16117,1.06969 -0.6865,1.21587l-20.6882,5.75687c-0.47559,0.13234 -0.64721,0.43631 -0.81884,0.74028l-0.6865,1.21586c-0.17162,0.30397 -0.34326,0.60794 -0.81884,0.74028l-2.85354,0.79406c-0.47559,0.13234 -0.77956,-0.03929 -1.08353,-0.21092l-1.21586,-0.6865c-0.30397,-0.17162 -0.60794,-0.34326 -1.08353,-0.21091l-1.90236,0.52937c-0.52532,0.14618 -1.06969,-0.16117 -1.21587,-0.6865z" fill="#04261a" stroke="#08573e" stroke-width="0.5"/><g fill="#0c7452" stroke="#0e996c" stroke-width="0.5"><path d="M206.43107,132.67027c6.17076,-5.43027 17.52496,-5.43027 23.69572,0h9.62638c0.54528,0 0.98732,0.44204 0.98732,0.98732v9.87321c0,0.54528 -0.44204,0.98732 -0.98732,0.98732h-21.47424c-0.49366,0 -0.74049,0.24683 -0.98732,0.49366l-0.98732,0.98732c-0.24683,0.24683 -0.49366,0.49366 -0.98732,0.49366h-2.96196c-0.49366,0 -0.74049,-0.24683 -0.98732,-0.49366l-0.98732,-0.98732c-0.24683,-0.24683 -0.49366,-0.49366 -0.98732,-0.49366h-1.97464c-0.54528,0 -0.98732,-0.44204 -0.98732,-0.98732z"/><path d="M206.43107,145.50544c0,-0.54528 0.44204,-0.98732 0.98732,-0.98732h1.97464c0.49366,0 0.74049,0.24683 0.98732,0.49366l0.98732,0.98732c0.24683,0.24683 0.49366,0.49366 0.98732,0.49366h2.96196c0.49366,0 0.74049,-0.24683 0.98732,-0.49366l0.98732,-0.98732c0.24683,-0.24683 0.49366,-0.49366 0.98732,-0.49366h54.30268c0.54528,0 0.98732,0.44204 0.98732,0.98732v9.87321c0,0.54528 -0.44204,0.98732 -0.98732,0.98732h-54.30268c-0.49366,0 -0.74049,0.24683 -0.98732,0.49366l-0.98732,0.98732c-0.24683,0.24683 -0.49366,0.49366 -0.98732,0.49366h-2.96196c-0.49366,0 -0.74049,-0.24683 -0.98732,-0.49366l-0.98732,-0.98732c-0.24683,-0.24683 -0.49366,-0.49366 -0.98732,-0.49366h-1.97464c-0.54528,0 -0.98732,-0.44204 -0.98732,-0.98732z"/><path d="M206.43107,157.3533c0,-0.54528 0.44204,-0.98732 0.98732,-0.98732h1.97464c0.49366,0 0.74049,0.24683 0.98732,0.49366l0.98732,0.98732c0.24683,0.24683 0.49366,0.49366 0.98732,0.49366h2.96196c0.49366,0 0.74049,-0.24683 0.98732,-0.49366l0.98732,-0.98732c0.24683,-0.24683 0.49366,-0.49366 0.98732,-0.49366h26.65768c0.54528,0 0.98732,0.44204 0.98732,0.98732v9.87321c0,0.54528 -0.44204,0.98732 -0.98732,0.98732h-22.7084c-0.49366,0 -0.74049,0.24683 -0.98732,0.49366l-0.98732,0.98732c-0.24683,0.24683 -0.49366,0.49366 -0.98732,0.49366h-2.96196c-0.49366,0 -0.74049,-0.24683 -0.98732,-0.49366l-0.98732,-0.98732c-0.24683,-0.24683 -0.49366,-0.49366 -0.98732,-0.49366h-1.97465c-0.54528,0 -0.98732,0.44204 -0.98732,0.98732v53.31536c0,0.54528 0.44204,0.98732 0.98732,0.98732h1.97465c0.49366,0 0.74049,0.24683 0.98732,0.49366l0.98732,0.98732c0.24683,0.24683 0.49366,0.49366 0.98732,0.49366h2.96196c0.49366,0 0.74049,-0.24683 0.98732,-0.49366l0.98732,-0.98732c0.24683,-0.24683 0.49366,-0.49366 0.98732,-0.49366h22.7084c0.54528,0 0.98732,0.44204 0.98732,0.98732v5.92393c0,0.54528 -0.44204,0.98732 -0.98732,0.98732h-37.51821c-0.54528,0 -0.98732,-0.44204 -0.98732,-0.98732z"/><path d="M210.38035,169.20116c0,-0.54528 0.44204,-0.98732 0.98732,-0.98732h1.97465c0.49366,0 0.74049,0.24683 0.98732,0.49366l0.98732,0.98732c0.24683,0.24683 0.49366,0.49366 0.98732,0.49366h2.96196c0.49366,0 0.74049,-0.24683 0.98732,-0.49366l0.98732,-0.98732c0.24683,-0.24683 0.49366,-0.49366 0.98732,-0.49366h49.11925c0.54528,0 0.98732,0.44204 0.98732,0.98732v9.87321c0,0.54528 -0.44204,0.98732 -0.98732,0.98732h-49.11925c-0.49366,0 -0.74049,0.24683 -0.98732,0.49366l-0.98732,0.98732c-0.24683,0.24683 -0.49366,0.49366 -0.98732,0.49366h-2.96196c-0.49366,0 -0.74049,-0.24683 -0.98732,-0.49366l-0.98732,-0.98732c-0.24683,-0.24683 -0.49366,-0.49366 -0.98732,-0.49366h-1.97465c-0.54528,0 -0.98732,-0.44204 -0.98732,-0.98732z"/><path d="M210.38035,181.04902c0,-0.54528 0.44204,-0.98732 0.98732,-0.98732h1.97465c0.49366,0 0.74049,0.24683 0.98732,0.49366l0.98732,0.98732c0.24683,0.24683 0.49366,0.49366 0.98732,0.49366h2.96196c0.49366,0 0.74049,-0.24683 0.98732,-0.49366l0.98732,-0.98732c0.24683,-0.24683 0.49366,-0.49366 0.98732,-0.49366h33.3221c0.54528,0 0.98732,0.44204 0.98732,0.98732v9.87321c0,0.54528 -0.44204,0.98732 -0.98732,0.98732h-33.3221c-0.49366,0 -0.74049,0.24683 -0.98732,0.49366l-0.98732,0.98732c-0.24683,0.24683 -0.49366,0.49366 -0.98732,0.49366h-2.96196c-0.49366,0 -0.74049,-0.24683 -0.98732,-0.49366l-0.98732,-0.98732c-0.24683,-0.24683 -0.49366,-0.49366 -0.98732,-0.49366h-1.97465c-0.54528,0 -0.98732,-0.44204 -0.98732,-0.98732z"/><path d="M210.38035,192.89688c0,-0.54528 0.44204,-0.98732 0.98732,-0.98732h1.97465c0.49366,0 0.74049,0.24683 0.98732,0.49366l0.98732,0.98732c0.24683,0.24683 0.49366,0.49366 0.98732,0.49366h2.96196c0.49366,0 0.74049,-0.24683 0.98732,-0.49366l0.98732,-0.98732c0.24683,-0.24683 0.49366,-0.49366 0.98732,-0.49366h26.65768c0.54528,0 0.98732,0.44204 0.98732,0.98732v9.87321c0,0.54528 -0.44204,0.98732 -0.98732,0.98732h-22.7084c-0.49366,0 -0.74049,0.24683 -0.98732,0.49366l-0.98732,0.98733c-0.24683,0.24683 -0.49366,0.49366 -0.98732,0.49366h-2.96196c-0.49366,0 -0.74049,-0.24683 -0.98732,-0.49366l-0.98732,-0.98733c-0.24683,-0.24683 -0.49366,-0.49366 -0.98732,-0.49366h-1.97465c-0.54528,0 -0.98732,0.44204 -0.98732,0.98732v9.87321c0,0.54528 0.44204,0.98732 0.98732,0.98732h1.97465c0.49366,0 0.74049,0.24683 0.98732,0.49366l0.98732,0.98732c0.24683,0.24683 0.49366,0.49366 0.98732,0.49366h2.96196c0.49366,0 0.74049,-0.24683 0.98732,-0.49366l0.98732,-0.98732c0.24683,-0.24683 0.49366,-0.49366 0.98732,-0.49366h22.7084c0.54528,0 0.98732,0.44204 0.98732,0.98732v5.92393c0,0.54528 -0.44204,0.98732 -0.98732,0.98732h-26.65768c-0.49366,0 -0.74049,0.24683 -0.98732,0.49366l-0.98732,0.98732c-0.24683,0.24683 -0.49366,0.49366 -0.98732,0.49366h-2.96196c-0.49366,0 -0.74049,-0.24683 -0.98732,-0.49366l-0.98732,-0.98732c-0.24683,-0.24683 -0.49366,-0.49366 -0.98732,-0.49366h-1.97465c-0.54528,0 -0.98732,-0.44204 -0.98732,-0.98732z"/><path d="M214.32963,204.74474c0,-0.54528 0.44204,-0.98732 0.98732,-0.98732h1.97465c0.49366,0 0.74049,0.24683 0.98732,0.49366l0.98732,0.98733c0.24683,0.24683 0.49366,0.49366 0.98732,0.49366h2.96196c0.49366,0 0.74049,-0.24683 0.98732,-0.49366l0.98732,-0.98733c0.24683,-0.24683 0.49366,-0.49366 0.98732,-0.49366h43.68897c0.54528,0 0.98732,0.44204 0.98732,0.98732v9.87321c0,0.54528 -0.44204,0.98732 -0.98732,0.98732h-43.68897c-0.49366,0 -0.74049,0.24683 -0.98732,0.49366l-0.98732,0.98732c-0.24683,0.24683 -0.49366,0.49365 -0.98732,0.49365h-2.96196c-0.49366,0 -0.74049,-0.24682 -0.98732,-0.49365l-0.98732,-0.98732c-0.24683,-0.24683 -0.49366,-0.49366 -0.98732,-0.49366h-1.97465c-0.54528,0 -0.98732,-0.44204 -0.98732,-0.98732z"/></g><path d="M327.56817,140.77045c0.14882,-0.52458 0.69472,-0.8292 1.2193,-0.68037l1.89968,0.53892c0.47492,0.13473 0.64501,0.43956 0.81511,0.74439l0.68038,1.2193c0.1701,0.30483 0.34019,0.60965 0.81511,0.74439l2.84951,0.80839c0.47492,0.13473 0.77974,-0.03537 1.08458,-0.20547l1.2193,-0.68037c0.30483,-0.1701 0.60965,-0.34019 1.08458,-0.20546l32.05706,9.09436c0.52458,0.14882 0.8292,0.69472 0.68038,1.21931l-2.69463,9.49839c-0.14882,0.52458 -0.69472,0.8292 -1.2193,0.68038l-32.05706,-9.09438c-0.47492,-0.13473 -0.77974,0.03536 -1.08458,0.20547l-1.2193,0.68038c-0.30483,0.1701 -0.60965,0.34018 -1.08458,0.20545l-2.84951,-0.80839c-0.47492,-0.13473 -0.64501,-0.43956 -0.81511,-0.74438l-0.68037,-1.2193c-0.1701,-0.30483 -0.34019,-0.60965 -0.81511,-0.74438l-1.89968,-0.53892c-0.52458,-0.14882 -0.8292,-0.69472 -0.68037,-1.2193z" fill="#04261a" stroke="#08573e" stroke-width="0.5"/><text transform="translate(167.21672,186.40434) scale(0.55509,0.55509)" font-size="40" xml:space="preserve" fill-opacity="0.10588" fill="#ffffff" fill-rule="nonzero" stroke-opacity="0.50196" stroke="#000000" stroke-width="5" stroke-linecap="butt" stroke-linejoin="miter" stroke-miterlimit="10" stroke-dasharray="" stroke-dashoffset="0" font-family="Sans Serif" font-weight="normal" text-anchor="start" style="mix-blend-mode: normal"><tspan x="0" dy="0">Scratchblocks</tspan></text><text transform="translate(167.21672,186.40434) scale(0.55509,0.55509)" font-size="40" xml:space="preserve" fill="#ffffff" fill-rule="nonzero" stroke="none" stroke-width="1" stroke-linecap="butt" stroke-linejoin="miter" stroke-miterlimit="10" stroke-dasharray="" stroke-dashoffset="0" font-family="Sans Serif" font-weight="normal" text-anchor="start" style="mix-blend-mode: normal"><tspan x="0" dy="0">Scratchblocks</tspan></text><path d="M90.3514,117.41459c0,-6.39897 5.91545,-12.49566 13.1192,-12.49566c28.93252,0 219.72832,0 272.60996,0c8.61359,0 13.56814,4.64378 13.56814,12.24625c0,30.59212 0,109.0924 0,125.70487c0,6.03964 -4.85913,11.69754 -13.31873,11.69754c-52.46667,0 -243.42599,0 -272.60996,0c-7.3279,0 -13.36861,-4.5235 -13.36861,-11.94695c0,-30.16113 0,-108.19342 0,-125.20604z" data-paper-data="{&quot;index&quot;:null}" fill="none" stroke="url(#color-1)" stroke-width="10"/></g></g></svg>