<svg version="1.1" xmlns="http://www.w3.org/2000/svg" xmlns:xlink="http://www.w3.org/1999/xlink" width="309.2973" height="159.64866" viewBox="0,0,309.2973,159.64866"><g transform="translate(-85.35135,-100.17567)"><g data-paper-data="{&quot;isPaintingLayer&quot;:true}" fill-rule="nonzero" stroke-linejoin="miter" stroke-miterlimit="10" stroke-dasharray="" stroke-dashoffset="0" style="mix-blend-mode: normal"><path d="M90.17458,254.82433v-149.64866h299.65085v149.64866zM90.17458,254.82433" fill="#4b21cc" stroke="none" stroke-width="1" stroke-linecap="butt"/><path d="M94.2469,162.64525c11.21305,-0.96876 20.85968,4.69148 21.39484,10.88883c0.53712,6.1954 -7.97863,13.60762 -19.19169,14.57834c-1.55666,0.13477 -5.79305,1.0547 -5.79305,1.0547l0.05469,-26.30116c0,0 2.51175,-0.13282 3.53521,-0.22071zM95.98716,182.76078c7.46495,-0.64649 13.76192,-4.56061 13.40449,-8.68567c-0.35548,-4.12701 -7.23253,-6.90049 -14.69748,-6.25595c-1.6426,0.14258 -2.88285,0.4043 -3.81451,0.76759c-0.1543,0.06055 -0.1836,0.38087 -0.1836,0.38087l-0.01758,12.80878c0,0 0.14063,0.37891 0.36915,0.48438c1.07619,0.4961 2.64066,0.69728 4.93952,0.50001zM95.98716,182.76078" fill="#391899" stroke="#391899" stroke-width="1" stroke-linecap="butt"/><path d="M101.23138,179.13964c-0.80665,0.20313 -1.62502,-0.28516 -1.82815,-1.09181l-1.18361,-4.7071c-0.20313,-0.80665 0.28711,-1.62502 1.09377,-1.82815l28.80315,-7.24425c0.80665,-0.20313 1.62502,0.28711 1.82815,1.09377l1.18361,4.7071c0.20313,0.80665 -0.28711,1.62502 -1.09377,1.82815zM101.23138,179.13964" fill="#391899" stroke="#391899" stroke-width="1" stroke-linecap="butt"/><path d="M117.0695,171.87195c-1.98831,-5.89462 4.59186,-14.94162 15.25608,-18.53543c10.66617,-3.59576 21.37726,-0.37696 23.36362,5.51766c1.98831,5.89462 -4.53327,15.1096 -15.19944,18.70535c-10.66422,3.5938 -21.43391,0.20508 -23.42026,-5.68758zM138.77489,172.46766c7.09971,-2.39261 12.29315,-7.68566 10.96891,-11.60954c-1.32228,-3.92388 -8.65833,-4.99422 -15.75999,-2.59965c-7.09971,2.39261 -12.29315,7.68566 -10.96891,11.60954c1.32228,3.92388 8.65833,4.99421 15.75999,2.59965zM138.77489,172.46766" fill="#391899" stroke="#391899" stroke-width="1" stroke-linecap="butt"/><path d="M143.78083,167.41486c-0.68555,0.47071 -1.62307,0.29688 -2.09378,-0.39063l-2.74418,-4.00201c-0.46876,-0.68555 -0.29493,-1.62307 0.39258,-2.09378l24.4945,-16.79321c0.68751,-0.47071 1.62502,-0.29493 2.09573,0.39063l2.74223,4.00201c0.47071,0.68751 0.29688,1.62502 -0.39063,2.09573zM143.78083,167.41486" fill="#391899" stroke="#391899" stroke-width="1" stroke-linecap="butt"/><path d="M155.57983,154.85803c-3.35942,-5.23445 0.82228,-15.60765 10.29312,-21.68782c9.4728,-6.07821 20.64679,-5.56063 24.00621,-0.32618c3.35942,5.23445 -0.72657,15.75999 -10.19937,21.83821c-9.47084,6.08017 -20.74054,5.41024 -24.09996,0.17579zM176.77935,150.16265c6.30673,-4.04889 10.05679,-10.44351 7.81847,-13.92989c-2.23636,-3.48443 -9.61342,-2.73832 -15.9182,1.30861c-6.30673,4.04693 -10.05679,10.44351 -7.82043,13.92794c2.23636,3.48638 9.61342,2.74027 15.92015,-1.30666zM176.77935,150.16265" fill="#391899" stroke="#391899" stroke-width="1" stroke-linecap="butt"/><path d="M180.40831,144.04342c-0.55079,0.62306 -1.50393,0.68165 -2.12698,0.13086l-3.63287,-3.21684c-0.62306,-0.55079 -0.68165,-1.50197 -0.13086,-2.12503l19.67997,-22.24446c0.55079,-0.62306 1.50393,-0.67969 2.12698,-0.12891l3.63287,3.21489c0.62306,0.55079 0.68165,1.50393 0.13086,2.12698zM180.40831,144.04342" fill="#391899" stroke="#391899" stroke-width="1" stroke-linecap="butt"/><path d="M188.31468,129.54516c-4.59186,-4.19537 -3.21684,-15.29515 4.37506,-23.60386c0.23633,-0.25977 0.33789,-0.25196 0.33789,-0.25196l25.38123,-0.01172c0,0 0.03711,0.11719 0.04883,0.29688c0.30274,5.13875 -1.94729,11.79119 -6.89659,17.20728c-7.58995,8.30871 -18.65457,10.55875 -23.24643,6.36338zM207.59621,119.55869c3.8399,-4.20319 5.90634,-9.28139 5.33602,-12.72089c-0.05078,-0.29883 -0.20899,-0.85548 -0.20899,-0.85548l-11.9865,-0.21094c0,0 -2.90043,2.23636 -4.21295,3.67193c-5.05281,5.53133 -7.03526,12.67792 -3.97662,15.47093c3.05668,2.79301 9.99429,0.17579 15.04905,-5.35555zM207.59621,119.55869" fill="#391899" stroke="#391899" stroke-width="1" stroke-linecap="butt"/><path d="M209.52983,112.71289c-0.3711,0.74415 -1.27736,1.04494 -2.02151,0.67188l-4.33796,-2.17386c-0.74415,-0.3711 -1.04494,-1.27736 -0.67188,-2.02151l1.72268,-3.50591l8.49231,0.0625zM209.52983,112.71289" fill="#391899" stroke="#391899" stroke-width="1" stroke-linecap="butt"/><path d="M385.46794,213.65576c-11.19548,-1.16017 -19.60185,-8.53919 -18.96121,-14.72482c0.64063,-6.18759 10.4025,-11.8615 21.59602,-10.70133c0.15625,0.01563 1.21095,0.29297 1.21095,0.29297l-0.00781,25.49061c0,0 -3.01567,-0.27344 -3.83795,-0.35743zM387.55,193.57344c-7.45519,-0.77345 -14.37521,1.88479 -14.80295,6.00399c-0.42774,4.1192 5.80282,8.13879 13.25605,8.91224c0.25,0.02539 3.13872,0.47071 3.13872,0.47071l0.15039,-15.14866c0,0 -1.56252,-0.22071 -1.74221,-0.23829zM387.55,193.57344" fill="#391899" stroke="#391899" stroke-width="1" stroke-linecap="butt"/><path d="M381.71593,196.13988c0.83009,-0.04883 1.54104,0.5879 1.58987,1.41799l0.27539,4.84382c0.04688,0.83204 -0.5879,1.54299 -1.41799,1.58987l-29.65277,1.68752c-0.83009,0.04688 -1.54104,-0.5879 -1.58987,-1.41799l-0.27539,-4.84577c-0.04688,-0.83009 0.5879,-1.54104 1.41799,-1.58987zM381.71593,196.13988" fill="#391899" stroke="#391899" stroke-width="1" stroke-linecap="butt"/><path d="M364.79381,200.29424c0.83986,6.1622 -7.32628,13.80684 -18.47683,15.32835c-11.15251,1.52151 -21.06671,-3.66021 -21.90657,-9.82241c-0.83986,-6.1622 7.30089,-13.98458 18.45144,-15.50608c11.15251,-1.51955 21.09015,3.83795 21.93196,10.00015zM343.58842,195.61839c-7.42394,1.01173 -13.52168,5.2325 -12.96113,9.33412c0.5586,4.10357 7.56261,6.53721 14.98655,5.52352c7.42589,-1.01173 13.52168,-5.23055 12.96308,-9.33412c-0.56056,-4.10357 -7.56456,-6.53525 -14.9885,-5.52352zM343.58842,195.61839" fill="#391899" stroke="#391899" stroke-width="1" stroke-linecap="butt"/><path d="M337.71919,199.63603c0.76173,-0.33204 1.65042,0.01563 1.98245,0.77931l1.94144,4.44733c0.33204,0.76173 -0.01758,1.65042 -0.77931,1.98245l-27.2211,11.87713c-0.76368,0.33203 -1.65042,-0.01563 -1.98245,-0.77931l-1.94144,-4.44733c-0.33203,-0.76173 0.01563,-1.65041 0.77931,-1.98245zM337.71919,199.63603" fill="#391899" stroke="#391899" stroke-width="1" stroke-linecap="butt"/><path d="M323.76587,209.74555c2.31449,5.77352 -3.7481,15.17405 -14.19552,19.35966c-10.44742,4.18561 -21.32453,1.57034 -23.63706,-4.20319c-2.31253,-5.77352 3.68365,-15.34007 14.13107,-19.52567c10.44742,-4.18561 21.38898,-1.40432 23.70151,4.3692zM302.06243,210.3647c-6.95713,2.7852 -11.84587,8.36145 -10.30483,12.20526c1.53908,3.84381 8.92591,4.50202 15.88109,1.71487c6.95518,-2.78715 11.84392,-8.36145 10.30288,-12.20526c-1.53908,-3.84381 -8.92396,-4.50202 -15.87914,-1.71487zM302.06243,210.3647" fill="#391899" stroke="#391899" stroke-width="1" stroke-linecap="butt"/><path d="M297.34361,215.689c0.66017,-0.50782 1.60549,-0.38673 2.11331,0.27344l2.96293,3.84185c0.50782,0.65821 0.38673,1.60549 -0.27149,2.11331l-23.51987,18.13503c-0.65821,0.50977 -1.60354,0.38673 -2.11331,-0.27149l-2.96293,-3.84381c-0.50782,-0.65821 -0.38477,-1.60354 0.27344,-2.11136zM297.34361,215.689" fill="#391899" stroke="#391899" stroke-width="1" stroke-linecap="butt"/><path d="M286.84736,228.43723c3.7188,4.98445 0.27735,15.62913 -8.74427,22.35775c-1.28517,0.959 -2.61527,1.78713 -3.961,2.48832c-0.56641,0.29297 -1.70315,1.07033 -1.70315,1.07033l-16.01195,-0.00195c0,0 -1.75979,-0.89259 -2.24613,-1.54494c-3.7188,-4.98445 -0.38282,-15.77171 8.63684,-22.50033c9.02162,-6.73057 20.31084,-6.85361 24.02965,-1.86917zM266.03065,234.6131c-6.00595,4.48054 -9.29701,11.12321 -6.82236,14.44162c2.4766,3.32036 9.78334,2.05862 15.78929,-2.42191c6.00595,-4.48053 9.29701,-11.12516 6.82237,-14.44357c-2.4766,-3.32036 -9.78335,-2.05667 -15.78929,2.42386zM266.03065,234.6131" fill="#391899" stroke="#391899" stroke-width="1" stroke-linecap="butt"/><path d="M262.84115,240.97061c0.50587,-0.66016 1.45119,-0.78517 2.11136,-0.2793l3.85162,2.95317c0.66016,0.50587 0.78517,1.45119 0.2793,2.11136l-7.26573,8.54114l-9.55287,0.04297zM262.84115,240.97061" fill="#391899" stroke="#391899" stroke-width="1" stroke-linecap="butt"/><path d="M330.34604,115.7852c-7.74816,8.16223 -18.85184,10.20132 -23.36362,5.92001c-3.17387,-3.01372 -3.32817,-9.38686 -0.44336,-15.74242c0.14258,-0.31446 0.19531,-0.30664 0.19531,-0.30664h29.79926c0,0 -0.14453,0.30274 -0.22071,0.51759c-1.16994,3.28716 -3.15434,6.64853 -5.96688,9.61147zM312.795,105.6581c0,0 -3.87896,9.2306 -1.49221,11.49626c3.002,2.8516 9.98843,0.36719 15.14866,-5.06843c3.41997,-3.60161 5.49227,-6.37509 5.49227,-6.37509zM312.795,105.6581" fill="#391899" stroke="#391899" stroke-width="1" stroke-linecap="butt"/><path d="M296.73032,131.93778c-0.66212,0.50391 -1.60549,0.37501 -2.11136,-0.28516l-2.94145,-3.85943c-0.50391,-0.66212 -0.37696,-1.60745 0.28516,-2.11136l23.61948,-18.00417c0.66212,-0.50587 1.60744,-0.37696 2.11136,0.28321l2.94145,3.85943c0.50391,0.66212 0.37696,1.60744 -0.28516,2.11136zM296.73032,131.93778" fill="#391899" stroke="#391899" stroke-width="1" stroke-linecap="butt"/><path d="M294.64044,143.64107c-9.45912,6.0997 -20.73077,5.4532 -24.10191,0.22461c-3.36919,-5.22664 0.79298,-15.6096 10.2521,-21.70735c9.45912,-6.0997 20.63311,-5.6036 24.00425,-0.37501c3.36919,5.22664 -0.69532,15.76 -10.15445,21.85774zM299.52137,125.18182c-2.24417,-3.48052 -9.61928,-2.71879 -15.9182,1.34182c-6.29697,4.05865 -10.0353,10.46304 -7.79113,13.94356c2.24417,3.48052 9.61928,2.71879 15.9182,-1.33986c6.29697,-4.06061 10.0353,-10.465 7.79113,-13.94552zM299.52137,125.18182" fill="#391899" stroke="#391899" stroke-width="1" stroke-linecap="butt"/><path d="M256.25512,148.57669c-0.79493,0.24414 -1.63674,-0.20313 -1.88089,-1.00001l-1.41799,-4.64069c-0.24414,-0.79493 0.20313,-1.63674 1.00001,-1.88089l28.4008,-8.68372c0.79493,-0.24414 1.63674,0.20313 1.88089,1.00001l1.41994,4.64069c0.24219,0.79493 -0.20508,1.63674 -1.00001,1.88088zM256.25512,148.57669" fill="#391899" stroke="#391899" stroke-width="1" stroke-linecap="butt"/><path d="M252.32147,160.02412c-10.65641,3.61724 -21.43391,0.25 -23.43198,-5.64071c-1.99808,-5.88876 4.56061,-14.94944 15.21897,-18.56472c10.65836,-3.61724 21.37726,-0.41993 23.37534,5.47078c1.99808,5.88876 -4.50397,15.11936 -15.16233,18.73465zM261.54231,143.30513c-1.3301,-3.92193 -8.6681,-4.97663 -15.7639,-2.5684c-7.09776,2.40629 -12.27752,7.71105 -10.94742,11.63103c1.3301,3.92193 8.66809,4.97663 15.76585,2.5684c7.09581,-2.40629 12.27752,-7.7091 10.94547,-11.63103zM261.54231,143.30513" fill="#391899" stroke="#391899" stroke-width="1" stroke-linecap="butt"/><path d="M213.88927,155.48304c-0.83204,0.04102 -1.53908,-0.59767 -1.58205,-1.42776l-0.24805,-4.84577c-0.04297,-0.83204 0.59571,-1.53908 1.42776,-1.58206l29.66059,-1.5215c0.83009,-0.04297 1.53713,0.59571 1.5801,1.42775l0.25,4.84577c0.04102,0.83009 -0.59767,1.53909 -1.42776,1.5801zM213.88927,155.48304" fill="#391899" stroke="#391899" stroke-width="1" stroke-linecap="butt"/><path d="M207.81691,165.31522c-11.22868,0.75587 -20.77764,-5.26765 -21.19562,-11.47282c-0.41798,-6.20517 8.25012,-13.27558 19.4788,-14.03145c11.22868,-0.75587 20.76592,5.08796 21.1839,11.29313c0.41797,6.20517 -8.2384,13.45527 -19.46708,14.21114zM221.02414,151.52595c-0.27735,-4.13092 -7.09971,-7.03721 -14.57443,-6.5333c-7.47667,0.50391 -13.84786,4.29694 -13.56855,8.42786c0.27735,4.13287 7.09971,7.03721 14.57443,6.5333c7.47667,-0.50196 13.84786,-4.29694 13.56856,-8.42786zM221.02414,151.52595" fill="#391899" stroke="#391899" stroke-width="1" stroke-linecap="butt"/><path d="M171.84178,151.04938c-0.81446,-0.17383 -1.334,-0.97267 -1.16212,-1.78713l1.00587,-4.74616c0.17188,-0.81446 0.97072,-1.334 1.78518,-1.16213l29.05511,6.15243c0.81446,0.17188 1.334,0.97072 1.16213,1.78518l-1.00392,4.74616c-0.17383,0.81447 -0.97267,1.334 -1.78713,1.16213zM171.84178,151.04938" fill="#391899" stroke="#391899" stroke-width="1" stroke-linecap="butt"/><path d="M247.58507,210.19673c-1.53322,6.02743 -11.97088,10.04897 -22.87729,7.27354c-10.90836,-2.77543 -18.15261,-11.29899 -16.61938,-17.32642c1.53518,-6.02743 12.01775,-10.22281 22.92416,-7.44542c10.90641,2.77543 18.10769,11.47087 16.57251,17.4983zM229.68637,197.90358c-7.26182,-1.84768 -14.4963,-0.22462 -15.5178,3.78716c-1.0215,4.01373 4.55671,8.89857 11.81853,10.74625c7.26182,1.84768 14.4963,0.22656 15.5178,-3.78717c1.0215,-4.01373 -4.55671,-8.89661 -11.81853,-10.74625zM229.68637,197.90358" fill="#391899" stroke="#391899" stroke-width="1" stroke-linecap="butt"/><path d="M223.54175,199.59501c0.82814,0.07422 1.44143,0.80665 1.36721,1.63479l-0.43165,4.8321c-0.07422,0.83009 -0.80665,1.44143 -1.63479,1.36721l-29.58246,-2.64457c-0.82814,-0.07422 -1.43948,-0.8047 -1.36525,-1.63284l0.43165,-4.83406c0.07422,-0.82814 0.8047,-1.44143 1.63479,-1.3672zM223.54175,199.59501" fill="#391899" stroke="#391899" stroke-width="1" stroke-linecap="butt"/><path d="M206.1958,201.24347c-0.06445,6.22079 -9.25599,12.59589 -20.51007,12.4787c-11.25407,-0.11719 -20.30889,-6.68369 -20.24443,-12.90253c0.06445,-6.22079 9.25795,-12.77558 20.51202,-12.65839c11.25407,0.11719 20.30694,6.86338 20.24248,13.08222zM185.89668,193.53438c-7.4923,-0.07813 -14.13888,3.20903 -14.18185,7.34972c-0.04297,4.14069 6.53135,7.56652 14.0256,7.64464c7.4923,0.07813 14.13888,-3.20903 14.18185,-7.34972c0.04297,-4.14069 -6.5333,-7.56652 -14.02559,-7.64464zM185.89668,193.53438" fill="#391899" stroke="#391899" stroke-width="1" stroke-linecap="butt"/><path d="M179.504,196.65552c0.80275,-0.2168 1.63088,0.25586 1.84964,1.05861l1.27346,4.68366c0.2168,0.80275 -0.25586,1.62893 -1.05861,1.84768l-28.66057,7.79113c-0.80275,0.21875 -1.63088,-0.25586 -1.84768,-1.05861l-1.27345,-4.68366c-0.21875,-0.80275 0.25586,-1.62893 1.05861,-1.84768zM179.504,196.65552" fill="#391899" stroke="#391899" stroke-width="1" stroke-linecap="butt"/><path d="M164.23034,204.62829c1.44924,6.04892 -5.9161,14.46701 -16.86157,17.08814c-10.94547,2.62113 -21.32453,-1.5469 -22.77377,-7.59582c-1.44924,-6.04892 5.87509,-14.64084 16.82056,-17.26197c10.94547,-2.62113 21.36554,1.72073 22.81478,7.76964zM142.66558,202.08333c-7.28722,1.74417 -12.93378,6.54892 -11.96892,10.57633c0.96486,4.0274 8.1759,5.75204 15.46311,4.00592c7.28722,-1.74417 12.93378,-6.54893 11.96892,-10.57633c-0.96486,-4.0274 -8.1759,-5.75204 -15.46311,-4.00592zM142.66558,202.08333" fill="#391899" stroke="#391899" stroke-width="1" stroke-linecap="butt"/><path d="M137.22409,206.66543c0.72657,-0.40821 1.64455,-0.14844 2.05081,0.57618l2.37308,4.23248c0.40626,0.72657 0.14844,1.64456 -0.57618,2.05081l-25.90663,14.52365c-0.72657,0.40626 -1.64455,0.14844 -2.05081,-0.57813l-2.37308,-4.23248c-0.40626,-0.72657 -0.14844,-1.64455 0.57618,-2.05081zM137.22409,206.66543" fill="#391899" stroke="#391899" stroke-width="1" stroke-linecap="butt"/><path d="M124.98563,217.75153c2.95512,5.47273 -2.00003,15.50218 -11.90447,20.84796c-7.15635,3.86334 -14.93967,4.22272 -19.8206,2.06058c-1.05666,-0.46876 -2.55668,-1.75003 -2.55668,-1.75003l0.02539,-13.26777c0,0 0.66993,-1.06447 1.0508,-1.59182c2.16605,-3.00786 5.27547,-5.8497 9.16029,-7.94543c9.90249,-5.34578 21.0921,-3.82818 24.04527,1.64651zM103.49118,220.83165c-6.59385,3.5606 -10.81656,9.65444 -8.84974,13.29902c1.96682,3.64263 9.37904,3.45709 15.97289,-0.10156c6.59385,-3.5606 10.81656,-9.65444 8.84974,-13.29707c-1.96683,-3.64458 -9.37904,-3.45904 -15.97289,0.09961zM103.49118,220.83165" fill="#391899" stroke="#391899" stroke-width="1" stroke-linecap="butt"/><path d="M99.41104,226.65791c0.59571,-0.57813 1.5508,-0.56446 2.12894,0.03125l3.38091,3.48247c0.58009,0.59571 0.56642,1.54885 -0.03125,2.12894l-14.2463,13.75606l0.07422,-9.96303zM99.41104,226.65791" fill="#391899" stroke="#391899" stroke-width="1" stroke-linecap="butt"/><path d="M370.14154,139.73672c-10.83219,3.05278 -21.41828,-0.87501 -23.10385,-6.86143c-1.68752,-5.98641 5.33992,-14.68967 16.17211,-17.74245c10.83219,-3.05278 21.36945,0.70313 23.05698,6.68955c1.68557,5.98641 -5.29109,14.86154 -16.12523,17.91432zM380.22763,123.52359c-1.12306,-3.98443 -8.39661,-5.42391 -15.6096,-3.39067c-7.21299,2.03128 -12.66425,7.05479 -11.54119,11.04118c1.12306,3.98639 8.39661,5.42391 15.60765,3.39263c7.21299,-2.03323 12.6662,-7.05674 11.54314,-11.04313zM380.22763,123.52359" fill="#391899" stroke="#391899" stroke-width="1" stroke-linecap="butt"/><path d="M339.51414,149.95952c-0.65235,0.51563 -1.59963,0.4043 -2.11526,-0.24805l-3.00786,-3.8067c-0.51563,-0.65431 -0.40626,-1.60159 0.24805,-2.11722l23.30307,-18.41043c0.65235,-0.51759 1.59963,-0.40626 2.11527,0.24805l3.00786,3.8067c0.51759,0.65235 0.40625,1.59963 -0.24805,2.11527zM339.51414,149.95952" fill="#391899" stroke="#391899" stroke-width="1" stroke-linecap="butt"/><path d="M345.01813,158.31316c-6.54697,9.15248 -17.26392,12.70526 -22.32259,9.08607c-5.05867,-3.61919 -5.0157,-14.8049 1.53322,-23.95738c6.54697,-9.15443 17.11939,-12.80878 22.17806,-9.19154c5.05867,3.61919 5.16024,14.90842 -1.38869,24.06285zM342.75638,139.3539c-3.36919,-2.41019 -9.94546,1.01369 -14.3049,7.10948c-4.35944,6.09384 -5.47469,13.42403 -2.1055,15.83226c3.36724,2.41019 9.9435,-1.01369 14.30294,-7.10753c4.35944,-6.09579 5.47469,-13.42598 2.10745,-15.83422zM342.75638,139.3539" fill="#391899" stroke="#391899" stroke-width="1" stroke-linecap="butt"/><path d="M311.15045,177.04c-0.64845,0.51954 -1.59768,0.41407 -2.11722,-0.23633l-3.02739,-3.79107c-0.51954,-0.6504 -0.41407,-1.59768 0.23633,-2.11722l23.20542,-18.53738c0.6504,-0.51759 1.59768,-0.41212 2.11722,0.23828l3.02739,3.79107c0.51954,0.6504 0.41407,1.59768 -0.23633,2.11722zM311.15045,177.04" fill="#391899" stroke="#391899" stroke-width="1" stroke-linecap="butt"/><path d="M311.71101,189.13197c-8.5763,7.28722 -19.83623,8.12707 -23.86363,3.38872c-4.0274,-4.7403 -1.26564,-15.5803 7.31065,-22.86752c8.5763,-7.28722 19.71903,-8.26379 23.74644,-3.52544c4.0274,4.7403 1.38284,15.71703 -7.19346,23.00424zM314.1251,170.19029c-2.68168,-3.15434 -9.89467,-1.43166 -15.60374,3.41997c-5.71102,4.85163 -8.57434,11.69158 -5.89266,14.84787c2.68168,3.15434 9.89272,1.43166 15.60374,-3.41997c5.70907,-4.85163 8.57239,-11.69158 5.89266,-14.84787zM314.1251,170.19029" fill="#391899" stroke="#391899" stroke-width="1" stroke-linecap="butt"/><path d="M274.30616,199.06571c-0.75587,0.34571 -1.65042,0.01367 -1.99612,-0.74415l-2.01565,-4.41413c-0.34571,-0.75587 -0.01172,-1.65042 0.74415,-1.99612l27.01406,-12.34002c0.75782,-0.34571 1.65042,-0.01172 1.99612,0.74415l2.01761,4.41413c0.34571,0.75587 0.01172,1.65042 -0.74415,1.99612zM274.30616,199.06571" fill="#391899" stroke="#391899" stroke-width="1" stroke-linecap="butt"/><path d="M272.28465,210.44478c-10.16226,4.83796 -21.25812,2.75785 -23.93199,-2.85746c-2.67582,-5.61532 2.77934,-15.38304 12.93964,-20.221c10.16226,-4.83991 21.18195,-2.91996 23.85582,2.69535c2.67387,5.61532 -2.70317,15.5432 -12.86347,20.38311zM279.48397,192.75897c-1.78128,-3.73834 -9.19349,-3.92584 -15.95726,-0.70509c-6.76572,3.2227 -11.29118,9.09584 -9.5099,12.83417c1.77932,3.73833 9.19154,3.92779 15.95726,0.70509c6.76572,-3.22075 11.28923,-9.09584 9.5099,-12.83417zM279.48397,192.75897" fill="#391899" stroke="#391899" stroke-width="1" stroke-linecap="butt"/><path d="M233.58291,210.43306c-0.82032,0.14063 -1.59768,-0.41211 -1.73635,-1.23244l-0.81446,-4.78327c-0.14063,-0.82032 0.41211,-1.59768 1.23049,-1.73831l29.27972,-4.98445c0.82032,-0.13867 1.59768,0.41211 1.73635,1.23244l0.81446,4.78327c0.14063,0.82032 -0.41211,1.59963 -1.23049,1.73831zM233.58291,210.43306" fill="#391899" stroke="#391899" stroke-width="1" stroke-linecap="butt"/><path d="M372.32712,129.74048c-0.82423,0.10547 -1.5801,-0.47657 -1.68557,-1.30275l-0.61719,-4.81257c-0.10547,-0.82618 0.47657,-1.5801 1.30275,-1.68557l17.98854,-2.37308l0.00781,7.92981zM372.32712,129.74048" fill="#391899" stroke="#391899" stroke-width="1" stroke-linecap="butt"/><path d="M246.6417,166.00273c-3.63872,2.50199 -8.28137,3.51763 -12.91816,2.42191c-7.9923,-1.88675 -13.19355,-9.3849 -12.41815,-17.33814c-0.51173,0.04883 -1.02931,0.07422 -1.55276,0.07422c-8.95716,0 -16.21703,-7.26182 -16.21703,-16.21899c0,-3.41216 1.05471,-6.58017 2.85551,-9.19349l-1.37698,-1.37502c-1.15041,-1.15041 -1.15041,-3.01958 0,-4.16998c0.57618,-0.57423 1.3301,-0.86329 2.08597,-0.86329c0.75392,0 1.50978,0.28906 2.08401,0.86329l1.37697,1.37697c2.61137,-1.80276 5.77938,-2.85551 9.19154,-2.85551c8.95716,0 16.21899,7.25987 16.21899,16.21703c0,0.52345 -0.02539,1.04103 -0.07227,1.55081c1.72268,-0.16602 3.50005,-0.05664 5.27937,0.36329c3.14458,0.7422 5.85946,2.3555 7.94543,4.5235c0.26758,0.27735 10.44156,-10.14663 18.05495,-2.26761c1.74417,1.80667 0.11328,11.88299 -4.02936,15.79906c-2.14652,2.02933 -7.588,-12.34002 -12.77362,-9.42787c-5.18758,2.91215 0.8965,15.68968 0.43946,16.3518l31.96922,31.96922c1.15041,1.15041 1.15041,3.01957 0,4.16998c-0.57618,0.57423 -1.3301,0.8633 -2.08597,0.8633c-0.75392,0 -2.08402,-0.86134 -2.08402,-0.86134zM246.6417,166.00273" fill="none" stroke-opacity="0.50196" stroke="#000000" stroke-width="8" stroke-linecap="butt"/><path d="M245.94638,156.96549c2.61332,-1.80081 5.77938,-2.85551 9.19349,-2.85551c8.95716,0 16.22094,7.26378 16.22094,16.21899c0,3.41411 -1.0547,6.58018 -2.85746,9.19349l-4.16998,4.17194c-2.61332,1.80081 -5.78133,2.85551 -9.19349,2.85551c-8.95716,0 -16.21899,-7.26378 -16.21899,-16.22094c0,-3.41411 1.05471,-6.58018 2.85551,-9.19349zM245.94638,156.96549" fill="none" stroke-opacity="0.50196" stroke="#000000" stroke-width="8" stroke-linecap="butt"/><path d="M322.78148,180.87989h-0.00195c-0.47462,0.13281 -1.00197,0.08204 -1.46682,-0.17969c-0.92775,-0.5254 -1.25588,-1.7051 -0.73243,-2.63285l22.63509,-40.07675c-1.59573,-1.334 -2.8184,-3.14848 -3.41802,-5.30281c-1.57229,-5.65438 1.73636,-11.51384 7.39269,-13.08613c2.15433,-0.59962 4.33795,-0.49024 6.30478,0.1875l0.62696,-1.10939c0.52345,-0.92775 1.70315,-1.25588 2.6309,-0.73243c0.9297,0.5254 1.25783,1.7051 0.73243,2.63285l-0.62696,1.10939c1.59573,1.334 2.8184,3.14849 3.41802,5.30281c1.57229,5.65438 -1.73635,11.51384 -7.39073,13.08613c-2.15628,0.59962 -4.33991,0.49024 -6.30478,-0.1875l-22.63509,40.07871c-0.26368,0.4629 -0.68947,0.77735 -1.16408,0.91017zM322.78148,180.87989" fill="none" stroke-opacity="0.50196" stroke="#000000" stroke-width="8" stroke-linecap="butt"/><path d="M335.14885,152.27206c-0.98244,-0.82228 -1.83206,-1.83597 -2.48637,-3.02739c-2.83012,-5.1407 -0.95705,-11.60368 4.18561,-14.4338c2.73441,-1.50588 5.84384,-1.67971 8.5802,-0.74025l3.36724,1.89847c0.98244,0.82228 1.83206,1.83792 2.48636,3.02739c2.83012,5.1407 0.95705,11.60368 -4.18561,14.4338c-2.73441,1.50588 -5.84384,1.67971 -8.5802,0.74025zM335.14885,152.27206" fill="none" stroke-opacity="0.50196" stroke="#000000" stroke-width="8" stroke-linecap="butt"/><path d="M327.08818,166.5457c-1.59573,-1.334 -2.8184,-3.14848 -3.41802,-5.30476c-1.57229,-5.65242 1.73831,-11.51384 7.39269,-13.08613c2.15433,-0.59962 4.33991,-0.49024 6.30478,0.1875l3.36528,1.90237c1.59573,1.33205 2.81645,3.14653 3.41607,5.30086c1.57229,5.65438 -1.73635,11.51579 -7.39073,13.08808c-2.15433,0.59962 -4.33796,0.49024 -6.30478,-0.1875zM327.08818,166.5457" fill="none" stroke-opacity="0.50196" stroke="#000000" stroke-width="8" stroke-linecap="butt"/><path d="M156.59547,199.14774c-0.15821,0.46876 -0.4961,0.87697 -0.97462,1.1133c-0.95509,0.47462 -2.11527,0.08203 -2.58793,-0.87306l-20.43975,-41.23888c-1.99807,0.57032 -4.18561,0.56251 -6.30478,-0.15234c-5.56258,-1.87698 -8.5509,-7.90637 -6.67392,-13.46699c0.71486,-2.11917 2.03323,-3.86529 3.69732,-5.10945l-0.56642,-1.14259c-0.47266,-0.95509 -0.08203,-2.11722 0.87306,-2.58988c0.95704,-0.47266 2.11722,-0.08203 2.58988,0.87306l0.56641,1.14259c2.00003,-0.57032 4.18561,-0.56251 6.30673,0.15235c5.56063,1.87503 8.54895,7.90441 6.67393,13.46699c-0.71486,2.11917 -2.03323,3.86334 -3.69927,5.10945l20.43975,41.24084c0.23633,0.47852 0.25782,1.00587 0.09961,1.47463zM156.59547,199.14774" fill="none" stroke-opacity="0.50196" stroke="#000000" stroke-width="8" stroke-linecap="butt"/><path d="M139.87843,172.84462c-1.23244,0.35157 -2.55082,0.48438 -3.9024,0.35743c-5.84384,-0.54884 -10.13687,-5.7286 -9.58998,-11.57244c0.29102,-3.10942 1.89261,-5.77938 4.20905,-7.51378l3.46099,-1.71878c1.23244,-0.35157 2.54887,-0.48438 3.9024,-0.35743c5.84384,0.54688 10.13686,5.7286 9.58998,11.57243c-0.29102,3.10747 -1.89261,5.77743 -4.20905,7.51378zM139.87843,172.84462" fill="none" stroke-opacity="0.50196" stroke="#000000" stroke-width="8" stroke-linecap="butt"/><path d="M147.15588,187.53038c-2.00003,0.57227 -4.18756,0.56446 -6.30673,-0.15039c-5.56063,-1.87503 -8.54895,-7.90637 -6.67393,-13.46895c0.71485,-2.11917 2.03323,-3.86529 3.69927,-5.10945l3.46294,-1.71682c1.99808,-0.57032 4.18561,-0.56251 6.30478,0.15234c5.56063,1.87698 8.55091,7.90637 6.67588,13.46699c-0.71486,2.11917 -2.03323,3.86529 -3.69927,5.1114zM147.15588,187.53038" fill="none" stroke-opacity="0.50196" stroke="#000000" stroke-width="8" stroke-linecap="butt"/><path d="M137.01315,162.06322c1.27346,-4.48444 9.17592,-7.28526 17.29127,-4.98445c8.11535,2.30277 13.37129,8.83607 12.09978,13.32051c-1.27346,4.48444 -9.21302,7.41417 -17.32838,5.11336c-8.11535,-2.30277 -13.33418,-8.96302 -12.06268,-13.44942zM150.17545,171.63757c5.40242,1.53322 10.85758,0.46485 11.7033,-2.52152c0.84767,-2.98637 -3.23247,-6.75791 -8.63684,-8.29114c-5.40438,-1.53322 -10.85758,-0.46485 -11.7033,2.52152c-0.84767,2.98637 3.23247,6.75987 8.63684,8.29114zM150.17545,171.63757" fill="none" stroke-opacity="0.50196" stroke="#000000" stroke-width="8" stroke-linecap="butt"/><path d="M154.15598,170.08872c-0.59962,-0.16992 -0.94923,-0.79493 -0.77931,-1.39455l0.99415,-3.4981c0.16992,-0.59962 0.79298,-0.94923 1.3926,-0.77931l21.41828,6.07431c0.59962,0.16992 0.94728,0.79493 0.77736,1.39455l-0.9922,3.50005c-0.16992,0.59962 -0.79493,0.94728 -1.39455,0.77736zM154.15598,170.08872" fill="none" stroke-opacity="0.50196" stroke="#000000" stroke-width="8" stroke-linecap="butt"/><path d="M168.86518,167.18634c3.14067,-3.44341 11.46305,-2.41996 17.69557,3.26567c6.23251,5.68368 8.01769,13.87715 4.87507,17.32056c-3.14067,3.44536 -11.5529,2.51957 -17.78541,-3.16411c-6.23251,-5.68563 -7.9259,-13.97677 -4.78522,-17.42213zM176.36333,181.63186c4.15045,3.78521 9.506,5.2657 11.59783,2.9727c2.09183,-2.29496 0.12695,-7.4923 -4.0235,-11.27751c-4.1485,-3.78521 -9.506,-5.26375 -11.59783,-2.97075c-2.09183,2.293 -0.12695,7.49034 4.0235,11.27555zM176.36333,181.63186" fill="none" stroke-opacity="0.50196" stroke="#000000" stroke-width="8" stroke-linecap="butt"/><path d="M182.96694,184.88972c-0.59571,-0.18164 -0.93165,-0.81251 -0.75196,-1.40822l1.06056,-3.48052c0.18164,-0.59571 0.81251,-0.93361 1.40822,-0.75196l21.29718,6.48447c0.59571,0.18164 0.93165,0.81251 0.75001,1.40822l-1.05861,3.48052c-0.18164,0.59571 -0.81251,0.93165 -1.40823,0.75001zM182.96694,184.88972" fill="none" stroke-opacity="0.50196" stroke="#000000" stroke-width="8" stroke-linecap="butt"/><path d="M194.93587,193.00898c-1.67971,-4.34967 2.95122,-11.33805 10.82047,-14.37716c7.86925,-3.03911 15.99633,-0.97853 17.67604,3.37114c1.67971,4.34772 -2.90239,11.46306 -10.77359,14.50216c-7.86925,3.03911 -16.0432,0.85157 -17.72292,-3.49614zM211.20954,192.74726c5.23836,-2.02347 8.95521,-6.15634 7.83605,-9.05091c-1.1172,-2.89457 -6.64658,-3.45708 -11.88689,-1.43361c-5.23836,2.02347 -8.95521,6.15634 -7.83605,9.05091c1.1172,2.89653 6.64658,3.45708 11.88689,1.43362zM211.20954,192.74726" fill="none" stroke-opacity="0.50196" stroke="#000000" stroke-width="8" stroke-linecap="butt"/><path d="M215.1139,188.4093c-0.49024,0.38673 -1.19923,0.30079 -1.58596,-0.18946l-2.24613,-2.86137c-0.38477,-0.49024 -0.29883,-1.20119 0.19141,-1.58596l17.51002,-13.7463c0.49024,-0.38477 1.19924,-0.29883 1.58596,0.19141l2.24613,2.85942c0.38477,0.49024 0.29883,1.20119 -0.19141,1.58596zM215.1139,188.4093" fill="none" stroke-opacity="0.50196" stroke="#000000" stroke-width="8" stroke-linecap="butt"/><path d="M249.34486,168.70589c-1.25197,3.58794 -4.5528,7.47667 -9.31654,9.87319c-7.53722,3.78912 -15.88499,2.40824 -17.98073,-1.75784c-2.09378,-4.16412 1.83596,-11.57048 9.37318,-15.3596c2.82817,-1.4219 5.7618,-2.13284 8.43372,-2.24613zM238.2197,174.98137c5.01765,-2.52347 8.31457,-6.99815 6.92002,-9.77163c-1.39455,-2.77153 -6.95127,-2.79496 -11.96892,-0.27149c-5.0196,2.52347 -8.31457,6.99815 -6.92002,9.77163c1.39455,2.77153 6.95127,2.79496 11.96892,0.27149zM238.2197,174.98137" fill="none" stroke-opacity="0.50196" stroke="#000000" stroke-width="8" stroke-linecap="butt"/><path d="M260.22783,147.53957c-0.50391,0.36719 -1.21096,0.25586 -1.5762,-0.24805l-2.14066,-2.94145c-0.36719,-0.50391 -0.25586,-1.21096 0.24805,-1.57815l17.99635,-13.0998c0.50391,-0.36719 1.21096,-0.25586 1.57815,0.24805l2.14066,2.9395c0.36719,0.50391 0.25586,1.21096 -0.24805,1.57815zM260.22783,147.53957" fill="none" stroke-opacity="0.50196" stroke="#000000" stroke-width="8" stroke-linecap="butt"/><path d="M262.00911,141.41838c2.2891,2.09769 0.79493,7.45128 -3.00004,11.59196c-3.79498,4.14069 -8.99818,6.09384 -11.28532,3.99615c-2.2891,-2.09769 -0.79493,-7.45128 3.00004,-11.59197c3.79498,-4.14069 8.99623,-6.09188 11.28532,-3.99615zM262.00911,141.41838" fill="none" stroke-opacity="0.50196" stroke="#000000" stroke-width="8" stroke-linecap="butt"/><path d="M286.57197,135.85971c-0.59766,-0.17578 -0.94142,-0.80275 -0.76564,-1.40237l1.02345,-3.49028c0.17579,-0.59766 0.80275,-0.93947 1.40041,-0.76564l21.36164,6.26572c0.59962,0.17578 0.94142,0.80274 0.76564,1.40041l-1.02345,3.49029c-0.17579,0.59962 -0.80275,0.94142 -1.40041,0.76564zM286.57197,135.85971" fill="none" stroke-opacity="0.50196" stroke="#000000" stroke-width="8" stroke-linecap="butt"/><path d="M281.15001,142.24457c-8.40637,-0.72267 -14.79319,-6.27353 -14.39474,-10.91813c0.39844,-4.6446 7.62706,-8.89271 16.03148,-8.17199c8.40637,0.72071 14.8049,6.13876 14.40646,10.78336c-0.39844,4.6446 -7.63878,9.02747 -16.0432,8.30676zM292.5076,133.53546c0.26563,-3.09184 -4.45709,-6.02157 -10.05288,-6.50205c-5.59578,-0.48048 -10.7482,1.60354 -11.01383,4.69538c-0.26563,3.09184 4.4571,6.02353 10.05288,6.504c5.59578,0.47852 10.7482,-1.60354 11.01383,-4.69734zM292.5076,133.53546" fill="none" stroke-opacity="0.50196" stroke="#000000" stroke-width="8" stroke-linecap="butt"/><path d="M316.39271,147.45558c-0.61915,-0.08399 -1.05275,-0.65235 -0.96876,-1.26955l0.48438,-3.60552c0.08399,-0.6172 0.65235,-1.0508 1.26955,-0.96876l22.06282,2.96684c0.6172,0.08399 1.0508,0.65235 0.96876,1.26955l-0.48438,3.60552c-0.08399,0.6172 -0.65235,1.0508 -1.26955,0.96876zM316.39271,147.45558" fill="none" stroke-opacity="0.50196" stroke="#000000" stroke-width="8" stroke-linecap="butt"/><path d="M307.58204,149.78179c-7.09385,-4.56452 -10.14859,-12.45721 -7.62706,-16.37719c2.52152,-3.91998 10.8986,-4.30084 17.99245,0.26368c7.09581,4.56257 10.2228,12.34197 7.69933,16.26391c-2.52152,3.91998 -10.97086,4.41413 -18.06472,-0.15039zM321.69162,147.38722c1.67971,-2.60941 -1.12697,-7.40636 -5.8497,-10.44547c-4.72468,-3.03911 -10.2521,-3.60356 -11.93181,-0.9922c-1.67971,2.60941 1.12697,7.40636 5.8497,10.44546c4.72468,3.03911 10.25405,3.60357 11.93181,0.9922zM321.69162,147.38722" fill="none" stroke-opacity="0.50196" stroke="#000000" stroke-width="8" stroke-linecap="butt"/><path d="M107.35647,228.18332c1.21291,0.67384 2.36917,1.01173 3.4688,1.01173c1.10549,0 1.65823,-0.42969 1.65823,-1.28713c0,-0.38868 -0.15625,-0.73439 -0.47071,-1.03322c-0.31055,-0.29883 -0.88087,-0.64259 -1.71291,-1.02736c-0.83204,-0.39063 -1.4551,-0.69532 -1.87112,-0.91212c-0.41602,-0.22461 -0.96876,-0.58985 -1.65823,-1.09572c-0.6836,-0.50782 -1.209,-1.03517 -1.57424,-1.58205c-1.03517,-1.47658 -1.55276,-3.35747 -1.55276,-5.64461c0,-2.28714 0.84962,-4.21491 2.54887,-5.78133c1.69924,-1.57229 3.92584,-2.35746 6.67978,-2.35746c1.87112,0 3.59771,0.20313 5.17977,0.60743c1.58205,0.4004 2.39847,0.9258 2.44925,1.57424c0,0.07617 0,0.15234 0,0.22852c0,0.91408 -0.28711,2.06448 -0.85939,3.45318c-0.56837,1.38479 -0.96876,2.15628 -1.20119,2.31253c-1.66409,-0.85548 -3.15239,-1.28518 -4.46686,-1.28518c-1.30861,0 -1.96097,0.4668 -1.96097,1.40041c0,0.57227 0.48048,1.08009 1.44534,1.5215c0.20703,0.10547 0.50391,0.25 0.88868,0.4336c0.39063,0.17774 0.83986,0.39063 1.34768,0.63868c0.50587,0.24805 1.0508,0.56056 1.63479,0.93556c0.58204,0.37501 1.21486,0.87501 1.89456,1.49807c1.37307,1.29885 2.06057,3.01176 2.06057,5.14265c0,2.77934 -0.76564,5.05085 -2.29691,6.8165c-1.53127,1.7637 -3.89459,2.67191 -7.08995,2.72269c-1.55666,0 -2.96684,-0.12891 -4.22858,-0.38868c-1.25783,-0.25782 -2.3555,-0.76368 -3.29497,-1.51369c-0.93165,-0.75587 -1.39846,-1.66604 -1.39846,-2.73051c0,-1.06447 0.19532,-2.12308 0.58595,-3.17192c0.39063,-1.0547 0.8047,-1.75003 1.24611,-2.08402c0,0 1.34182,0.92189 2.54886,1.59768zM132.65371,243.17572c0,0.18164 -1.10939,0.27344 -3.33013,0.27344c-2.21683,0 -3.32427,-0.0918 -3.32427,-0.27344v-20.05888h-1.32424c-0.62306,0 -1.05275,-0.57032 -1.28517,-1.71096c-0.08203,-0.36524 -0.1211,-0.83204 -0.1211,-1.40041c0,-0.57227 0.18164,-1.25002 0.54688,-2.03128c0.51759,-1.14064 1.34963,-1.71096 2.49418,-1.71096c0.75196,0 1.44338,0.17383 2.07816,0.5254c0.63868,0.34962 1.0801,0.67384 1.32229,0.97267c0.24805,0.29883 0.37305,0.47462 0.37305,0.5254c1.74026,-1.34963 3.62115,-2.02346 5.64461,-2.02346c2.02737,0 3.76763,0.78517 5.21883,2.35745c1.4551,1.56643 2.18167,3.9942 2.18167,7.2794c0,3.28716 -0.72657,5.83211 -2.18167,7.63683c-1.45119,1.80081 -3.29107,2.70121 -5.52352,2.70121c-1.01369,0 -1.93753,-0.05078 -2.76957,-0.15234zM134.25139,223.07778c-0.44141,0 -0.86916,0.14258 -1.28518,0.42579v6.89268c0.44141,0.05664 0.79884,0.08399 1.07228,0.08399c0.27344,0 0.48829,0 0.63868,0c1.06642,-0.10742 1.59768,-1.47072 1.59768,-4.09185c0,-2.20706 -0.67384,-3.3106 -2.02347,-3.3106zM154.42942,236.04867c0,0.18164 -1.18166,0.27344 -3.54497,0.27344c-2.36331,-0.05664 -3.54497,-0.16016 -3.54497,-0.3125v-12.93183h-1.04884c-0.41602,0 -0.74806,-0.25196 -0.99611,-0.75978c-0.24805,-0.50782 -0.37305,-1.13673 -0.37305,-1.88674c0,-2.80473 0.83204,-4.20709 2.49418,-4.20709c1.16799,0 2.14066,0.35743 2.92192,1.07228c0.78126,0.71095 1.17189,1.52151 1.17189,2.43558c0.54102,-1.06642 1.27541,-1.91409 2.1973,-2.54887c0.92384,-0.63868 1.86331,-0.959 2.82231,-0.959c1.50588,0 2.41605,0.38868 2.73051,1.16408c0.07617,0.20899 0.11524,0.51563 0.11524,0.91993c0,0.40235 -0.125,1.12111 -0.37305,2.16019c-0.24414,1.04103 -0.49805,1.79299 -0.76173,2.2598c-0.25782,0.4668 -0.41212,0.70118 -0.4629,0.70118c-0.05078,0 -0.29102,-0.09766 -0.72267,-0.28907c-0.42579,-0.19922 -0.8086,-0.29688 -1.14845,-0.29688c-0.98439,0 -1.47658,0.77735 -1.47658,2.33402zM168.44525,235.84944c0,0.20899 -1.18947,0.3125 -3.56646,0.3125c-2.37503,0 -3.5606,-0.0918 -3.5606,-0.27344v-19.12333c0,-0.17774 1.18556,-0.26758 3.5606,-0.26758c2.37699,0 3.56646,0.07617 3.56646,0.22852zM168.44525,214.42921c0,0.1836 -1.18947,0.27344 -3.56646,0.27344c-2.37503,0 -3.5606,-0.07813 -3.5606,-0.23438v-5.6075c0,-0.25782 1.18556,-0.38673 3.5606,-0.38673c2.37699,0 3.56646,0.07813 3.56646,0.23438zM180.91027,235.84944c0,0.31446 -1.08986,0.47266 -3.26958,0.47266c-2.59769,-0.10742 -3.89459,-0.27735 -3.89459,-0.50977v-13.7834h-1.98636c-0.52149,0 -0.78321,-0.89845 -0.78321,-2.6934c0,-0.4668 0.04492,-1.03713 0.13672,-1.71096c0.0918,-0.67384 0.28125,-1.01173 0.57032,-1.01173h2.06253v-3.43169c0,-0.51563 1.09572,-0.7754 3.28521,-0.7754c2.19534,0 3.29497,0.20899 3.29497,0.62501v2.49418l0.03711,1.08791h3.31646c0.44141,0 0.66212,0.91017 0.66212,2.73051c0,1.81643 -0.22071,2.72269 -0.66212,2.72269h-2.76957zM188.19163,233.84941c-1.7637,-1.75393 -2.64652,-4.18365 -2.64652,-7.28721c0,-3.10356 0.84962,-5.60164 2.54887,-7.4923c1.70315,-1.89651 3.85357,-2.84575 6.44931,-2.84575c2.59769,0 4.60163,0.66212 6.01767,1.98636c1.41408,1.32228 2.12113,2.93364 2.12113,4.83015c0,4.20319 -2.41215,6.30673 -7.24034,6.30673h-2.6934c0,0.77931 0.2129,1.32033 0.63868,1.61917c0.43165,0.29883 1.06252,0.44922 1.89456,0.44922c1.82034,0 5.32234,-1.09377 5.52938,-0.70704c0.62501,1.11916 0.93556,2.06253 0.93556,2.82817c0,0.76759 -0.24414,1.26564 -0.73634,1.50002c0,0 -3.74224,1.43752 -6.31454,1.43752c0,0 -4.73835,-0.87501 -6.504,-2.62504zM196.14096,223.77896c0,-1.09181 -0.53321,-1.63674 -1.59768,-1.63674c-0.49219,0 -0.91407,0.15039 -1.26955,0.44923c-0.34962,0.29883 -0.5254,0.73243 -0.5254,1.3008v1.209h2.10745c0.85743,0 1.28518,-0.44141 1.28518,-1.32228zM196.14096,223.77896" fill="none" stroke-opacity="0.5098" stroke="#000000" stroke-width="8.5" stroke-linecap="square"/><path d="M104.8076,226.58564c0.49219,0.39063 1.34182,0.92189 2.54886,1.59768c1.21291,0.67384 2.36917,1.01173 3.4688,1.01173c1.10549,0 1.65823,-0.42969 1.65823,-1.28713c0,-0.38868 -0.15625,-0.73439 -0.47071,-1.03322c-0.31055,-0.29883 -0.88087,-0.64259 -1.71291,-1.02736c-0.83204,-0.39063 -1.4551,-0.69532 -1.87112,-0.91212c-0.41602,-0.22461 -0.96876,-0.58985 -1.65823,-1.09572c-0.6836,-0.50782 -1.209,-1.03517 -1.57424,-1.58205c-1.03517,-1.47658 -1.55276,-3.35747 -1.55276,-5.64461c0,-2.28714 0.84962,-4.2149 2.54887,-5.78133c1.69924,-1.57229 3.92584,-2.35746 6.67978,-2.35746c1.87112,0 3.59771,0.20313 5.17977,0.60743c1.58205,0.4004 2.39847,0.9258 2.44925,1.57424c0,0.07617 0,0.15234 0,0.22852c0,0.91408 -0.28711,2.06448 -0.85939,3.45318c-0.56837,1.38479 -0.96876,2.15628 -1.20119,2.31253c-1.66409,-0.85548 -3.15239,-1.28518 -4.46686,-1.28518c-1.30861,0 -1.96097,0.4668 -1.96097,1.40041c0,0.57227 0.48048,1.08009 1.44534,1.5215c0.20703,0.10547 0.50391,0.25 0.88868,0.4336c0.39063,0.17774 0.83986,0.39063 1.34768,0.63868c0.50587,0.24805 1.0508,0.56056 1.63479,0.93556c0.58204,0.37501 1.21486,0.87501 1.89456,1.49807c1.37307,1.29885 2.06057,3.01176 2.06057,5.14265c0,2.77934 -0.76564,5.05085 -2.29691,6.8165c-1.53127,1.7637 -3.89459,2.67191 -7.08995,2.72269c-1.55666,0 -2.96684,-0.12891 -4.22858,-0.38868c-1.25783,-0.25782 -2.3555,-0.76368 -3.29497,-1.51369c-0.93165,-0.75587 -1.39846,-1.66604 -1.39846,-2.73051c0,-1.06447 0.19532,-2.12308 0.58595,-3.17192c0.39063,-1.0547 0.8047,-1.75003 1.24611,-2.08402zM132.65371,243.17572c0,0.18164 -1.10939,0.27344 -3.33013,0.27344c-2.21683,0 -3.32427,-0.0918 -3.32427,-0.27344v-20.05888h-1.32424c-0.62306,0 -1.05275,-0.57032 -1.28517,-1.71096c-0.08203,-0.36524 -0.1211,-0.83204 -0.1211,-1.40041c0,-0.57227 0.18164,-1.25002 0.54688,-2.03128c0.51759,-1.14064 1.34963,-1.71096 2.49418,-1.71096c0.75196,0 1.44338,0.17383 2.07816,0.5254c0.63868,0.34962 1.0801,0.67384 1.32229,0.97267c0.24805,0.29883 0.37305,0.47462 0.37305,0.5254c1.74026,-1.34963 3.62115,-2.02346 5.64461,-2.02346c2.02737,0 3.76763,0.78517 5.21883,2.35745c1.4551,1.56643 2.18167,3.9942 2.18167,7.2794c0,3.28716 -0.72657,5.83211 -2.18167,7.63683c-1.45119,1.80081 -3.29106,2.70121 -5.52352,2.70121c-1.01369,0 -1.93753,-0.05078 -2.76957,-0.15234zM134.25139,223.07778c-0.44141,0 -0.86916,0.14258 -1.28518,0.42579v6.89268c0.44141,0.05664 0.79884,0.08399 1.07228,0.08399c0.27344,0 0.48829,0 0.63868,0c1.06642,-0.10742 1.59768,-1.47072 1.59768,-4.09185c0,-2.20706 -0.67384,-3.3106 -2.02347,-3.3106zM154.42942,236.04867c0,0.18164 -1.18166,0.27344 -3.54497,0.27344c-2.36331,-0.05664 -3.54497,-0.16016 -3.54497,-0.3125v-12.93183h-1.04884c-0.41602,0 -0.74806,-0.25196 -0.99611,-0.75978c-0.24805,-0.50782 -0.37305,-1.13673 -0.37305,-1.88674c0,-2.80473 0.83204,-4.20709 2.49418,-4.20709c1.16799,0 2.14066,0.35743 2.92192,1.07228c0.78126,0.71095 1.17189,1.52151 1.17189,2.43558c0.54102,-1.06642 1.27541,-1.91409 2.1973,-2.54887c0.92384,-0.63868 1.86331,-0.959 2.82231,-0.959c1.50588,0 2.41605,0.38868 2.73051,1.16408c0.07617,0.20899 0.11524,0.51563 0.11524,0.91993c0,0.40235 -0.125,1.12111 -0.37305,2.16019c-0.24414,1.04103 -0.49805,1.79299 -0.76173,2.2598c-0.25782,0.4668 -0.41212,0.70118 -0.4629,0.70118c-0.05078,0 -0.29102,-0.09766 -0.72267,-0.28907c-0.42579,-0.19922 -0.80861,-0.29688 -1.14845,-0.29688c-0.98439,0 -1.47658,0.77735 -1.47658,2.33402zM168.44525,235.84944c0,0.20899 -1.18947,0.3125 -3.56646,0.3125c-2.37503,0 -3.5606,-0.0918 -3.5606,-0.27344v-19.12333c0,-0.17774 1.18556,-0.26758 3.5606,-0.26758c2.37699,0 3.56646,0.07617 3.56646,0.22852zM168.44525,214.42921c0,0.1836 -1.18947,0.27344 -3.56646,0.27344c-2.37503,0 -3.5606,-0.07813 -3.5606,-0.23438v-5.6075c0,-0.25782 1.18556,-0.38673 3.5606,-0.38673c2.37699,0 3.56646,0.07813 3.56646,0.23438zM180.91027,235.84944c0,0.31446 -1.08986,0.47266 -3.26958,0.47266c-2.5977,-0.10742 -3.89459,-0.27735 -3.89459,-0.50977v-13.7834h-1.98636c-0.52149,0 -0.78321,-0.89845 -0.78321,-2.6934c0,-0.4668 0.04492,-1.03713 0.13672,-1.71096c0.0918,-0.67384 0.28125,-1.01173 0.57032,-1.01173h2.06253v-3.43169c0,-0.51563 1.09572,-0.7754 3.28521,-0.7754c2.19534,0 3.29497,0.20899 3.29497,0.62501v2.49418l0.03711,1.08791h3.31646c0.44141,0 0.66212,0.91017 0.66212,2.73051c0,1.81643 -0.22071,2.72269 -0.66212,2.72269h-2.76957zM201.01018,235.03693c-1.6387,0.95705 -3.74224,1.43752 -6.31454,1.43752c-2.57035,0 -4.73835,-0.87501 -6.504,-2.62504c-1.7637,-1.75393 -2.64652,-4.18365 -2.64652,-7.28721c0,-3.10356 0.84962,-5.60164 2.54887,-7.4923c1.70315,-1.89651 3.85357,-2.84575 6.44931,-2.84575c2.5977,0 4.60163,0.66212 6.01767,1.98636c1.41408,1.32228 2.12113,2.93364 2.12113,4.83015c0,4.20319 -2.41215,6.30673 -7.24034,6.30673h-2.6934c0,0.77931 0.2129,1.32033 0.63868,1.61917c0.43165,0.29883 1.06252,0.44922 1.89456,0.44922c1.82034,0 3.54693,-0.41602 5.17976,-1.24807c0.02539,-0.02539 0.14258,0.1543 0.34961,0.54102c0.62501,1.11916 0.93556,2.06253 0.93556,2.82817c0,0.76759 -0.24414,1.26564 -0.73634,1.50002zM196.14096,223.77896c0,-1.09181 -0.53321,-1.63674 -1.59768,-1.63674c-0.49219,0 -0.91408,0.15039 -1.26955,0.44923c-0.34962,0.29883 -0.5254,0.73243 -0.5254,1.3008v1.209h2.10745c0.85743,0 1.28518,-0.44141 1.28518,-1.32228zM196.14096,223.77896" fill="#ffffff" stroke="none" stroke-width="1" stroke-linecap="butt"/><path d="M217.56901,235.26936v-25.12927c0,-0.87892 0.39844,-1.31838 1.19728,-1.31838h6.82432c3.82623,0 6.58604,0.79103 8.27747,2.37113c1.69729,1.57424 2.54496,3.86139 2.54496,6.86143c0,2.47855 -0.80275,4.75397 -2.40824,6.82432c-0.79884,1.02931 -1.97464,1.85549 -3.52935,2.4766c-1.5508,0.6211 -3.35747,0.93165 -5.42391,0.93165v6.94542c0,0.30664 -0.48438,0.51954 -1.45315,0.63673c-0.97072,0.11524 -1.80471,0.17383 -2.50785,0.17383c0,0 -3.52153,-0.25782 -3.52153,-0.77345zM225.05154,215.56985v6.12704h0.50001c0.90431,0 1.66604,-0.28321 2.28714,-0.84767c0.6211,-0.57032 0.93165,-1.37307 0.93165,-2.40824c0,-1.03517 -0.21485,-1.77346 -0.64259,-2.21292c-0.42384,-0.43751 -1.1797,-0.65821 -2.26566,-0.65821zM240.02051,218.7281c0,-0.81251 0.22071,-1.33596 0.66017,-1.56838c1.46877,-0.64454 3.48833,-0.96876 6.05868,-0.96876c2.57425,0 4.39264,0.60157 5.4532,1.80276c1.06056,1.20119 1.58987,2.97856 1.58987,5.33211v6.12704h1.31838c0.43946,0 0.78321,0.25977 1.02931,0.77931c0.24805,0.51563 0.3711,1.22463 0.3711,2.12894c0,0.90431 -0.22657,1.79495 -0.68165,2.67387c-0.45313,0.87892 -1.06838,1.31838 -1.83987,1.31838c-1.39846,0 -2.52543,-0.375 -3.37895,-1.12111c-0.38282,-0.31446 -0.67775,-0.68947 -0.88478,-1.12892c-1.19142,1.50002 -3.04301,2.25003 -5.55281,2.25003c-1.88284,0 -3.47075,-0.67188 -4.76374,-2.01565c-1.29299,-1.34182 -1.93753,-2.93364 -1.93753,-4.77155c0,-4.211 2.51957,-6.3165 7.5587,-6.3165h2.1348v-0.39258c0,-0.67188 -0.11133,-1.10353 -0.33399,-1.29689c-0.2168,-0.19141 -0.72657,-0.28711 -1.52932,-0.28711c-0.98439,0 -2.38089,0.20508 -4.18756,0.61329c0,0 -1.084,-2.34574 -1.084,-3.15825zM244.21002,229.02903c0,0.56446 0.1543,0.99611 0.46094,1.29494c0.3086,0.29883 0.70314,0.44727 1.18166,0.44727c0.48048,0 0.91407,-0.19531 1.30275,-0.58399v-2.98442h-1.08986c-1.2383,0 -1.85549,0.60938 -1.85549,1.8262zM267.2045,235.92953c0,0.18164 -1.17775,0.27149 -3.52935,0.27149c-2.35355,-0.05469 -3.52935,-0.1582 -3.52935,-0.31055v-12.87519h-1.04689c-0.41407,0 -0.74415,-0.25196 -0.9922,-0.75782c-0.2461,-0.50391 -0.3711,-1.13088 -0.3711,-1.87698c0,-2.79301 0.82814,-4.18951 2.48441,-4.18951c1.16213,0 2.13089,0.35548 2.90824,1.06838c0.77931,0.70704 1.16798,1.51369 1.16798,2.42386c0.53907,-1.06056 1.26955,-1.90628 2.18753,-2.53715c0.91994,-0.63673 1.8555,-0.95509 2.81059,-0.95509c1.50002,0 2.40629,0.38672 2.71879,1.15822c0.07617,0.20704 0.11328,0.51368 0.11328,0.91798c0,0.39844 -0.12305,1.11525 -0.3711,2.15042c-0.24219,1.03517 -0.49415,1.78518 -0.75782,2.25003c-0.25586,0.4629 -0.41016,0.69532 -0.46094,0.69532c-0.05078,0 -0.29102,-0.0957 -0.71876,-0.28711c-0.42579,-0.19727 -0.80665,-0.29493 -1.14455,-0.29493c-0.98048,0 -1.46877,0.7754 -1.46877,2.32425zM275.96244,233.74004c-1.75589,-1.74807 -2.63481,-4.16607 -2.63481,-7.25596c0,-3.08989 0.84571,-5.57625 2.53715,-7.46105c1.69729,-1.88674 3.83795,-2.83207 6.42197,-2.83207c2.58598,0 4.5821,0.65821 5.99227,1.97659c1.40822,1.31838 2.11136,2.92192 2.11136,4.81062c0,4.18561 -2.40238,6.27743 -7.20909,6.27743h-2.68168c0,0.77736 0.2129,1.31643 0.63673,1.61331c0.42969,0.29883 1.05666,0.44727 1.88479,0.44727c1.81253,0 5.30086,-1.08791 5.50789,-0.70509c0.6211,1.1172 0.93166,2.05667 0.93166,2.8184c0,0.76173 -0.2461,1.25978 -0.73634,1.49221c0,0 -3.72466,1.43166 -6.28525,1.43166c0,0 -4.71882,-0.87111 -6.47666,-2.61332zM283.87857,223.71255c0,-1.08595 -0.53126,-1.62893 -1.59182,-1.62893c-0.48829,0 -0.91017,0.14844 -1.26369,0.44727c-0.34962,0.29688 -0.52345,0.72853 -0.52345,1.29494v1.20314h2.09769c0.85353,0 1.28127,-0.43751 1.28127,-1.31643zM301.01163,235.73226c0,0.18164 -0.92775,0.27149 -2.78715,0.27149c-2.58402,-0.07422 -3.87701,-0.2168 -3.87701,-0.42383v-12.56464h-1.00783c-0.67188,0 -1.11135,-0.56837 -1.31838,-1.7051c-0.05469,-0.33789 -0.08203,-0.67384 -0.08203,-1.00587c0,-0.80275 0.15625,-1.60549 0.46876,-2.40824c0.46485,-1.13673 1.18752,-1.7051 2.16605,-1.7051c0.98439,0 1.86331,0.23243 2.63676,0.69728c0.77736,0.46485 1.29689,0.9297 1.56057,1.3926c1.62502,-1.3926 3.5606,-2.08988 5.80868,-2.08988c2.25199,0 3.87896,0.60938 4.88484,1.8262c1.00978,1.21096 1.51369,3.20122 1.51369,5.96688v11.63493c0,0.30664 -1.10549,0.46094 -3.31646,0.46094c-2.20706,0 -3.31059,-0.1543 -3.31059,-0.46094v-11.2111c0,-1.29103 -0.45118,-1.93753 -1.35549,-1.93753c-0.26172,0 -0.62501,0.11133 -1.08986,0.33203c-0.46485,0.21875 -0.76173,0.37892 -0.89454,0.48634zM323.1975,235.73226c0,0.3125 -1.08595,0.46876 -3.25786,0.46876c-2.58402,-0.10547 -3.87701,-0.2754 -3.87701,-0.50782v-13.72285h-1.97659c-0.51954,0 -0.78126,-0.89454 -0.78126,-2.68168c0,-0.46485 0.04687,-1.03322 0.13672,-1.70315c0.0918,-0.67188 0.28125,-1.00783 0.56837,-1.00783h2.05276v-3.41607c0,-0.51563 1.08986,-0.77345 3.27153,-0.77345c2.18558,0 3.27935,0.20703 3.27935,0.6211v2.48441l0.03906,1.084h3.30083c0.43946,0 0.66017,0.90626 0.66017,2.71879c0,1.80667 -0.22071,2.71098 -0.66017,2.71098h-2.7559zM335.64104,235.73226c0,0.20703 -1.18361,0.31055 -3.55083,0.31055c-2.36331,0 -3.54497,-0.0918 -3.54497,-0.27344v-19.04129c0,-0.17579 1.18166,-0.26368 3.54497,-0.26368c2.36722,0 3.55083,0.07422 3.55083,0.22657zM335.64104,214.40382c0,0.18164 -1.18361,0.27344 -3.55083,0.27344c-2.36331,0 -3.54497,-0.08008 -3.54497,-0.23633v-5.58211c0,-0.25586 1.18166,-0.38477 3.54497,-0.38477c2.36722,0 3.55083,0.07813 3.55083,0.23438zM347.23496,235.73226c0,0.18164 -0.92775,0.27149 -2.78715,0.27149c-2.58402,-0.07422 -3.87701,-0.2168 -3.87701,-0.42383v-12.56464h-1.00783c-0.67188,0 -1.11134,-0.56837 -1.31838,-1.7051c-0.05469,-0.33789 -0.08203,-0.67384 -0.08203,-1.00587c0,-0.80275 0.15625,-1.60549 0.46876,-2.40824c0.46485,-1.13673 1.18752,-1.7051 2.16605,-1.7051c0.98439,0 1.86331,0.23243 2.63676,0.69728c0.77736,0.46485 1.29689,0.9297 1.56057,1.3926c1.62502,-1.3926 3.5606,-2.08988 5.80868,-2.08988c2.25199,0 3.88092,0.60938 4.88484,1.8262c1.00978,1.21096 1.51565,3.20122 1.51565,5.96688v11.63493c0,0.30664 -1.10744,0.46094 -3.31841,0.46094c-2.20706,0 -3.3106,-0.1543 -3.3106,-0.46094v-11.2111c0,-1.29103 -0.45118,-1.93753 -1.35549,-1.93753c-0.26172,0 -0.62501,0.11133 -1.08986,0.33203c-0.46485,0.21875 -0.76173,0.37892 -0.89455,0.48634zM367.63369,235.96664c-2.5059,0 -4.44343,-0.80861 -5.81649,-2.42387c-1.36916,-1.61526 -2.05276,-4.00592 -2.05276,-7.17198c0,-3.16606 0.89845,-5.64852 2.69535,-7.44542c1.7969,-1.7969 4.18951,-2.6973 7.17198,-2.6973c2.99028,0 5.45321,0.66016 7.39269,1.97854v19.31278c0,1.91409 -0.77736,3.38091 -2.33207,4.40046c-1.55081,1.01954 -3.54107,1.52932 -5.96884,1.52932c-2.42777,0 -6.90635,-1.08791 -6.90635,-1.57619c0,-1.65627 0.27149,-3.89264 0.81642,-4.66413c1.73245,0.74611 3.58013,1.12111 5.545,1.12111c1.42385,0 2.1348,-0.50196 2.1348,-1.50783v-1.16603c-1.10939,0.20703 -2.00393,0.31055 -2.67972,0.31055zM369.42083,222.54652c-1.73245,0 -2.59769,1.30666 -2.59769,3.92193c0,1.62698 0.33594,2.68363 1.00587,3.17387c0.43946,0.33789 0.87892,0.50782 1.31838,0.50782c0.43946,0 0.82814,-0.03906 1.16603,-0.11328v-7.36925c-0.3125,-0.08203 -0.60938,-0.12109 -0.89259,-0.12109zM369.42083,222.54652" fill="none" stroke-opacity="0.5098" stroke="#000000" stroke-width="8.5" stroke-linecap="square"/><path d="M221.09054,236.04281c-2.34769,0 -3.52153,-0.25782 -3.52153,-0.77345v-25.12927c0,-0.87892 0.39844,-1.31838 1.19728,-1.31838h6.82432c3.82623,0 6.58603,0.79103 8.27747,2.37113c1.69729,1.57424 2.54496,3.86139 2.54496,6.86143c0,2.47855 -0.80275,4.75397 -2.40824,6.82432c-0.79884,1.02931 -1.97464,1.8555 -3.52935,2.4766c-1.55081,0.6211 -3.35747,0.93165 -5.42391,0.93165v6.94542c0,0.30664 -0.48438,0.51954 -1.45315,0.63673c-0.97072,0.11524 -1.80471,0.17383 -2.50785,0.17383zM225.05154,215.56985v6.12704h0.50001c0.90431,0 1.66604,-0.28321 2.28714,-0.84767c0.6211,-0.57032 0.93165,-1.37306 0.93165,-2.40824c0,-1.03517 -0.21485,-1.77346 -0.64259,-2.21292c-0.42383,-0.43751 -1.1797,-0.65821 -2.26566,-0.65821zM241.10451,221.88635c-0.72267,-1.29299 -1.084,-2.34574 -1.084,-3.15825c0,-0.81251 0.22071,-1.33596 0.66017,-1.56838c1.46877,-0.64454 3.48833,-0.96876 6.05868,-0.96876c2.57426,0 4.39264,0.60157 5.4532,1.80276c1.06056,1.20119 1.58987,2.97856 1.58987,5.33211v6.12704h1.31838c0.43946,0 0.78321,0.25977 1.02931,0.77931c0.24805,0.51563 0.3711,1.22463 0.3711,2.12894c0,0.90431 -0.22657,1.79495 -0.68165,2.67387c-0.45313,0.87892 -1.06838,1.31838 -1.83987,1.31838c-1.39846,0 -2.52543,-0.37501 -3.37895,-1.12111c-0.38282,-0.31446 -0.67774,-0.68947 -0.88478,-1.12892c-1.19142,1.50002 -3.04301,2.25003 -5.55281,2.25003c-1.88284,0 -3.47076,-0.67188 -4.76374,-2.01565c-1.29299,-1.34182 -1.93753,-2.93364 -1.93753,-4.77155c0,-4.211 2.51957,-6.3165 7.5587,-6.3165h2.1348v-0.39258c0,-0.67188 -0.11133,-1.10353 -0.33399,-1.29689c-0.2168,-0.19141 -0.72657,-0.28711 -1.52932,-0.28711c-0.98439,0 -2.38089,0.20508 -4.18756,0.61329zM244.21002,229.02903c0,0.56446 0.1543,0.99611 0.46094,1.29494c0.3086,0.29883 0.70314,0.44727 1.18166,0.44727c0.48047,0 0.91407,-0.19531 1.30275,-0.58399v-2.98442h-1.08986c-1.2383,0 -1.85549,0.60938 -1.85549,1.8262zM267.2045,235.92953c0,0.18164 -1.17775,0.27149 -3.52935,0.27149c-2.35355,-0.05469 -3.52935,-0.15821 -3.52935,-0.31055v-12.87519h-1.04689c-0.41407,0 -0.74415,-0.25196 -0.9922,-0.75782c-0.2461,-0.50391 -0.3711,-1.13088 -0.3711,-1.87698c0,-2.79301 0.82814,-4.18951 2.48441,-4.18951c1.16213,0 2.13089,0.35548 2.90824,1.06838c0.77931,0.70704 1.16798,1.51369 1.16798,2.42386c0.53907,-1.06056 1.26955,-1.90628 2.18753,-2.53715c0.91994,-0.63673 1.8555,-0.95509 2.81059,-0.95509c1.50002,0 2.40629,0.38672 2.71879,1.15822c0.07617,0.20704 0.11328,0.51368 0.11328,0.91798c0,0.39844 -0.12305,1.11525 -0.3711,2.15042c-0.24219,1.03517 -0.49415,1.78518 -0.75782,2.25003c-0.25586,0.4629 -0.41016,0.69532 -0.46094,0.69532c-0.05078,0 -0.29102,-0.0957 -0.71876,-0.28711c-0.42579,-0.19727 -0.80665,-0.29493 -1.14455,-0.29493c-0.98048,0 -1.46877,0.7754 -1.46877,2.32425zM288.72434,234.9217c-1.63088,0.95314 -3.72466,1.43166 -6.28525,1.43166c-2.56058,0 -4.71882,-0.87111 -6.47666,-2.61332c-1.75589,-1.74807 -2.63481,-4.16608 -2.63481,-7.25596c0,-3.08989 0.84572,-5.57625 2.53715,-7.46105c1.69729,-1.88675 3.83795,-2.83207 6.42197,-2.83207c2.58598,0 4.5821,0.65821 5.99227,1.97659c1.40822,1.31838 2.11136,2.92192 2.11136,4.81062c0,4.18561 -2.40238,6.27743 -7.20909,6.27743h-2.68168c0,0.77736 0.2129,1.31643 0.63673,1.61331c0.42969,0.29883 1.05666,0.44727 1.88479,0.44727c1.81253,0 3.53326,-0.41407 5.15828,-1.24221c0.02539,-0.02539 0.14258,0.1543 0.34961,0.53712c0.6211,1.1172 0.93166,2.05667 0.93166,2.8184c0,0.76173 -0.2461,1.25978 -0.73634,1.49221zM283.87857,223.71255c0,-1.08595 -0.53126,-1.62893 -1.59182,-1.62893c-0.48829,0 -0.91017,0.14844 -1.26369,0.44727c-0.34962,0.29688 -0.52345,0.72853 -0.52345,1.29494v1.20314h2.09769c0.85353,0 1.28127,-0.43751 1.28127,-1.31643zM301.01163,235.73226c0,0.18164 -0.92775,0.27149 -2.78715,0.27149c-2.58402,-0.07422 -3.87701,-0.2168 -3.87701,-0.42383v-12.56464h-1.00783c-0.67188,0 -1.11134,-0.56837 -1.31838,-1.7051c-0.05469,-0.33789 -0.08203,-0.67384 -0.08203,-1.00587c0,-0.80275 0.15625,-1.60549 0.46876,-2.40824c0.46485,-1.13673 1.18752,-1.7051 2.16605,-1.7051c0.98439,0 1.86331,0.23243 2.63676,0.69728c0.77735,0.46485 1.29689,0.9297 1.56057,1.3926c1.62502,-1.3926 3.5606,-2.08988 5.80868,-2.08988c2.25199,0 3.87896,0.60938 4.88484,1.8262c1.00978,1.21096 1.51369,3.20122 1.51369,5.96688v11.63493c0,0.30664 -1.10549,0.46094 -3.31646,0.46094c-2.20706,0 -3.31059,-0.1543 -3.31059,-0.46094v-11.2111c0,-1.29103 -0.45118,-1.93753 -1.35549,-1.93753c-0.26172,0 -0.62501,0.11133 -1.08986,0.33203c-0.46485,0.21875 -0.76173,0.37891 -0.89454,0.48634zM323.1975,235.73226c0,0.3125 -1.08595,0.46876 -3.25786,0.46876c-2.58402,-0.10547 -3.87701,-0.2754 -3.87701,-0.50782v-13.72285h-1.97659c-0.51954,0 -0.78126,-0.89454 -0.78126,-2.68168c0,-0.46485 0.04688,-1.03322 0.13672,-1.70315c0.0918,-0.67188 0.28125,-1.00783 0.56837,-1.00783h2.05276v-3.41607c0,-0.51563 1.08986,-0.77345 3.27153,-0.77345c2.18558,0 3.27935,0.20703 3.27935,0.6211v2.48441l0.03906,1.084h3.30083c0.43946,0 0.66017,0.90626 0.66017,2.71879c0,1.80667 -0.22071,2.71098 -0.66017,2.71098h-2.7559zM335.64104,235.73226c0,0.20703 -1.18361,0.31055 -3.55083,0.31055c-2.36331,0 -3.54497,-0.0918 -3.54497,-0.27344v-19.04129c0,-0.17579 1.18166,-0.26368 3.54497,-0.26368c2.36722,0 3.55083,0.07422 3.55083,0.22657zM335.64104,214.40382c0,0.18164 -1.18361,0.27344 -3.55083,0.27344c-2.36331,0 -3.54497,-0.08008 -3.54497,-0.23633v-5.58211c0,-0.25586 1.18166,-0.38477 3.54497,-0.38477c2.36722,0 3.55083,0.07813 3.55083,0.23438zM347.23496,235.73226c0,0.18164 -0.92775,0.27149 -2.78715,0.27149c-2.58402,-0.07422 -3.87701,-0.2168 -3.87701,-0.42383v-12.56464h-1.00783c-0.67188,0 -1.11134,-0.56837 -1.31838,-1.7051c-0.05469,-0.33789 -0.08203,-0.67384 -0.08203,-1.00587c0,-0.80275 0.15625,-1.60549 0.46876,-2.40824c0.46485,-1.13673 1.18752,-1.7051 2.16605,-1.7051c0.98439,0 1.86331,0.23243 2.63676,0.69728c0.77736,0.46485 1.29689,0.9297 1.56057,1.3926c1.62502,-1.3926 3.5606,-2.08988 5.80868,-2.08988c2.25199,0 3.88092,0.60938 4.88484,1.8262c1.00978,1.21096 1.51565,3.20122 1.51565,5.96688v11.63493c0,0.30664 -1.10744,0.46094 -3.31841,0.46094c-2.20706,0 -3.3106,-0.1543 -3.3106,-0.46094v-11.2111c0,-1.29103 -0.45118,-1.93753 -1.35549,-1.93753c-0.26172,0 -0.62501,0.11133 -1.08986,0.33203c-0.46485,0.21875 -0.76173,0.37891 -0.89455,0.48634zM367.63369,235.96664c-2.5059,0 -4.44342,-0.80861 -5.81649,-2.42387c-1.36916,-1.61526 -2.05276,-4.00592 -2.05276,-7.17198c0,-3.16606 0.89845,-5.64852 2.69535,-7.44542c1.7969,-1.7969 4.18951,-2.6973 7.17198,-2.6973c2.99028,0 5.45321,0.66016 7.39269,1.97854v19.31278c0,1.91409 -0.77736,3.38091 -2.33207,4.40046c-1.55081,1.01954 -3.54107,1.52932 -5.96884,1.52932c-2.42777,0 -4.59968,-0.31055 -6.51377,-0.93165c-0.26172,-0.6211 -0.39258,-1.1758 -0.39258,-1.66604c0,-1.65627 0.27149,-2.87114 0.81642,-3.64263c1.73245,0.74611 3.58013,1.12111 5.545,1.12111c1.42385,0 2.1348,-0.50196 2.1348,-1.50783v-1.16603c-1.10939,0.20703 -2.00393,0.31055 -2.67972,0.31055zM369.42083,222.54652c-1.73245,0 -2.59769,1.30666 -2.59769,3.92193c0,1.62698 0.33594,2.68363 1.00587,3.17387c0.43946,0.33789 0.87892,0.50782 1.31838,0.50782c0.43946,0 0.82814,-0.03906 1.16603,-0.11328v-7.36925c-0.3125,-0.08203 -0.60938,-0.12109 -0.89259,-0.12109zM369.42083,222.54652" fill="#ffffff" stroke="none" stroke-width="1" stroke-linecap="butt"/><path d="M278.75349,197.97585l-49.66869,-49.67065c-2.61137,1.80081 -5.77938,2.85551 -9.19154,2.85551c-8.95716,0 -16.21899,-7.26182 -16.21899,-16.21899c0,-3.41216 1.0547,-6.58017 2.85551,-9.19349l-1.37502,-1.37502c-1.15041,-1.15041 -1.15041,-3.01958 0,-4.16998c1.15041,-1.15041 3.01762,-1.15041 4.16998,0l1.37502,1.37697c2.61332,-1.80276 5.77938,-2.85551 9.19349,-2.85551c8.95716,0 16.21703,7.25987 16.21703,16.21703c0,3.41411 -1.05275,6.58018 -2.85551,9.19349l49.66869,49.66869c1.15041,1.15041 1.15041,3.01957 0,4.16998c-0.57618,0.57423 -1.3301,0.8633 -2.08402,0.8633c-0.75392,0 -1.50979,-0.28711 -2.08597,-0.86134zM278.75349,197.97585" fill="#ffffff" stroke="none" stroke-width="1" stroke-linecap="butt"/><path d="M278.75349,197.97585l-31.97117,-31.97312c-3.64068,2.50199 -8.28137,3.51568 -12.92011,2.42191c-8.71692,-2.05862 -14.11544,-10.79508 -12.05682,-19.512c0.47657,-2.01761 1.31057,-3.85748 2.41996,-5.46688l-19.07059,-19.07254c-1.15041,-1.15041 -1.15041,-3.01958 0,-4.16998c1.15041,-1.15041 3.01762,-1.15041 4.16998,0l19.0745,19.0745c3.63873,-2.50199 8.28137,-3.51763 12.91816,-2.42191c8.71692,2.05862 14.11544,10.79312 12.05682,19.512c-0.47657,2.01761 -1.31056,3.85748 -2.418,5.46688l31.96726,31.96922c1.15041,1.15041 1.15041,3.01957 0,4.16998c-0.57618,0.57423 -1.3301,0.8633 -2.08402,0.8633c-0.75392,0 -1.50979,-0.28711 -2.08597,-0.86134zM278.75349,197.97585" fill="#ffffff" stroke="none" stroke-width="1" stroke-linecap="butt"/><path d="M278.75349,197.97585l-14.28146,-14.28146c-2.61332,1.80081 -5.77938,2.85551 -9.19349,2.85551c-8.95716,0 -16.21703,-7.26378 -16.21703,-16.22094c0,-3.41411 1.05275,-6.58017 2.85356,-9.19349l-36.7603,-36.76225c-1.15041,-1.15041 -1.15041,-3.01958 0,-4.16998c1.15041,-1.15041 3.01762,-1.15041 4.16998,0l36.7603,36.76225c2.61332,-1.80081 5.78133,-2.85551 9.19349,-2.85551c8.95716,0 16.22094,7.26378 16.22094,16.21899c0,3.41411 -1.0547,6.58017 -2.85551,9.19349l14.27951,14.28146c1.15041,1.15041 1.15041,3.01957 0,4.16998c-0.57618,0.57423 -1.3301,0.8633 -2.08402,0.8633c-0.75392,0 -1.50979,-0.28711 -2.08597,-0.86134zM278.75349,197.97585" fill="#ffffff" stroke="none" stroke-width="1" stroke-linecap="butt"/><path d="M205.15477,124.37321c-1.15041,-1.15041 -1.15041,-3.01958 0,-4.16998c1.15041,-1.15041 3.01762,-1.15041 4.16998,0l73.59873,73.60068c0.57618,0.57423 0.86329,1.3301 0.86329,2.08597c0,0.75587 -0.28711,1.50979 -0.86329,2.08597c-0.57618,0.57227 -1.3301,0.86134 -2.08402,0.86134c-0.75392,0 -1.50979,-0.28711 -2.08597,-0.86134l-18.06276,-18.06276c-0.01172,-0.01367 -0.02539,-0.02539 -0.03711,-0.03906zM205.15477,124.37321" fill="#ffffff" stroke="none" stroke-width="1" stroke-linecap="butt"/><path d="M322.92015,180.87989c-0.47657,0.13281 -1.00392,0.08203 -1.46877,-0.17969c-0.92775,-0.5254 -1.25588,-1.7051 -0.73243,-2.63285l22.6351,-40.07675c-1.59573,-1.334 -2.81645,-3.14848 -3.41607,-5.30281c-1.57424,-5.65438 1.73635,-11.51384 7.39073,-13.08613c2.15433,-0.59962 4.33991,-0.49024 6.30478,0.1875l0.62696,-1.10939c0.52345,-0.92775 1.70315,-1.25588 2.63285,-0.73243c0.92775,0.5254 1.25588,1.7051 0.73243,2.63285l-0.62696,1.10939c1.59573,1.334 2.81645,3.14848 3.41607,5.30281c1.57229,5.65438 -1.73635,11.51384 -7.39073,13.08613c-2.15433,0.59962 -4.33991,0.49024 -6.30478,-0.1875l-22.63509,40.07871c-0.26172,0.4629 -0.68751,0.77735 -1.16408,0.91017zM322.92015,180.87989" fill="#ffffff" stroke="none" stroke-width="1" stroke-linecap="butt"/><path d="M322.92015,180.87989c-0.47657,0.13281 -1.00392,0.08203 -1.46877,-0.17969c-0.92775,-0.5254 -1.25588,-1.7051 -0.73243,-2.63285l14.56857,-25.7953c-0.98244,-0.82228 -1.83206,-1.83596 -2.48636,-3.02739c-2.83012,-5.1407 -0.95704,-11.60368 4.18561,-14.4338c2.73441,-1.50588 5.84384,-1.67971 8.5802,-0.74025l8.69349,-15.39085c0.52345,-0.92775 1.70315,-1.25588 2.63285,-0.73243c0.92775,0.5254 1.25588,1.7051 0.73243,2.63285l-8.69153,15.3889c0.98244,0.82228 1.83206,1.83792 2.48832,3.02739c2.83012,5.1407 0.95509,11.60368 -4.18756,14.4338c-2.73441,1.50588 -5.84384,1.67971 -8.5802,0.74025l-14.57052,25.7992c-0.26172,0.4629 -0.68751,0.77735 -1.16408,0.91017zM322.92015,180.87989" fill="#ffffff" stroke="none" stroke-width="1" stroke-linecap="butt"/><path d="M322.92015,180.87989c-0.47657,0.13281 -1.00392,0.08203 -1.46877,-0.17969c-0.92775,-0.5254 -1.25588,-1.7051 -0.73243,-2.63285l6.50791,-11.52165c-1.59573,-1.334 -2.8184,-3.14848 -3.41802,-5.30476c-1.57229,-5.65243 1.73831,-11.51384 7.39269,-13.08613c2.15628,-0.59962 4.33991,-0.49024 6.30478,0.1875l16.75415,-29.66254c0.52345,-0.92775 1.70315,-1.25588 2.63285,-0.73243c0.92775,0.5254 1.25588,1.7051 0.73243,2.63285l-16.75415,29.66449c1.59573,1.33205 2.8184,3.14653 3.41802,5.30086c1.57229,5.65438 -1.73635,11.51579 -7.39073,13.08808c-2.15628,0.59962 -4.33991,0.49024 -6.30673,-0.1875l-6.50791,11.52361c-0.26368,0.4629 -0.68751,0.77735 -1.16408,0.91017zM322.92015,180.87989" fill="#ffffff" stroke="none" stroke-width="1" stroke-linecap="butt"/><path d="M332.3324,165.36404c-0.00391,0.00977 -0.00977,0.01953 -0.01563,0.03125l-8.23254,14.57443c-0.26368,0.4629 -0.68751,0.77735 -1.16408,0.91017c-0.47657,0.13281 -1.00392,0.08203 -1.46877,-0.17774c-0.4629,-0.26368 -0.77735,-0.68947 -0.91017,-1.16603c-0.13281,-0.47657 -0.08399,-1.00392 0.17774,-1.46877l33.54151,-59.38758c0.52345,-0.92775 1.70315,-1.25588 2.63285,-0.73243c0.92775,0.5254 1.25588,1.7051 0.73243,2.63285zM332.3324,165.36404" fill="#ffffff" stroke="none" stroke-width="1" stroke-linecap="butt"/><path d="M156.73414,199.14774c-0.1582,0.46876 -0.4961,0.87697 -0.97267,1.1133c-0.95509,0.47462 -2.11526,0.08203 -2.58988,-0.87306l-20.4378,-41.24084c-2.00003,0.57227 -4.18756,0.56446 -6.30673,-0.15039c-5.56063,-1.87698 -8.54895,-7.90637 -6.67393,-13.46699c0.71486,-2.11917 2.03323,-3.86529 3.69927,-5.10945l-0.56642,-1.14259c-0.47462,-0.95509 -0.08203,-2.11722 0.87306,-2.58988c0.95509,-0.47266 2.11527,-0.08203 2.58793,0.87306l0.56642,1.14259c2.00003,-0.57032 4.18756,-0.56251 6.30673,0.15235c5.56063,1.87503 8.54895,7.90441 6.67392,13.46699c-0.71485,2.11917 -2.03323,3.86334 -3.69732,5.10945l20.43975,41.24084c0.23438,0.47852 0.25586,1.00587 0.09766,1.47463zM156.73414,199.14774" fill="#ffffff" stroke="none" stroke-width="1" stroke-linecap="butt"/><path d="M156.73414,199.14774c-0.1582,0.46876 -0.4961,0.87697 -0.97267,1.1133c-0.95509,0.47462 -2.11526,0.08203 -2.58988,-0.87306l-13.15449,-26.54336c-1.23244,0.35157 -2.54886,0.48438 -3.9024,0.35743c-5.84384,-0.54884 -10.13687,-5.7286 -9.58998,-11.57244c0.29102,-3.10942 1.89456,-5.77938 4.20905,-7.51378l-7.84777,-15.83812c-0.47462,-0.95509 -0.08203,-2.11722 0.87306,-2.58988c0.95509,-0.47266 2.11527,-0.08203 2.58793,0.87306l7.84972,15.83617c1.23049,-0.35157 2.54886,-0.48438 3.90045,-0.35743c5.84384,0.54688 10.13687,5.7286 9.58998,11.57243c-0.29102,3.10747 -1.89261,5.77743 -4.20905,7.51378l13.15839,26.54726c0.23438,0.47852 0.25586,1.00587 0.09766,1.47463zM156.73414,199.14774" fill="#ffffff" stroke="none" stroke-width="1" stroke-linecap="butt"/><path d="M156.73414,199.14774c-0.1582,0.46876 -0.4961,0.87697 -0.97267,1.1133c-0.95509,0.47462 -2.11526,0.08203 -2.58988,-0.87306l-5.87509,-11.8576c-2.00003,0.57227 -4.18952,0.56446 -6.30869,-0.15039c-5.55867,-1.87503 -8.54895,-7.90637 -6.67197,-13.46895c0.71486,-2.11917 2.03128,-3.86529 3.69732,-5.10945l-15.12717,-30.52388c-0.47462,-0.95509 -0.08203,-2.11722 0.87306,-2.58988c0.95509,-0.47266 2.11527,-0.08203 2.58793,0.87306l15.12913,30.52388c2.00003,-0.57032 4.18561,-0.56251 6.30478,0.15234c5.56258,1.87698 8.5509,7.90637 6.67588,13.46699c-0.71485,2.11917 -2.03323,3.86529 -3.69732,5.1114l5.87704,11.8576c0.23438,0.47852 0.25586,1.00587 0.09766,1.47463zM156.73414,199.14774" fill="#ffffff" stroke="none" stroke-width="1" stroke-linecap="butt"/><path d="M149.18716,182.64359c0.00586,0.00977 0.00977,0.02149 0.01563,0.03125l7.4337,14.99827c0.23438,0.47852 0.25586,1.00587 0.09766,1.47463c-0.1582,0.46876 -0.4961,0.87697 -0.97072,1.11525c-0.47852,0.23633 -1.00782,0.25586 -1.47658,0.09766c-0.46876,-0.1582 -0.87892,-0.49415 -1.11525,-0.97267l-30.2856,-61.11026c-0.47462,-0.95509 -0.08203,-2.11722 0.87306,-2.58988c0.95509,-0.47266 2.11527,-0.08203 2.58793,0.87306zM149.18716,182.64359" fill="#ffffff" stroke="none" stroke-width="1" stroke-linecap="butt"/><path d="M137.15378,162.06322c1.2715,-4.48444 9.17396,-7.28526 17.28932,-4.98445c8.11535,2.30277 13.37129,8.83607 12.09978,13.32051c-1.2715,4.48444 -9.21107,7.41417 -17.32838,5.11336c-8.11535,-2.30277 -13.33418,-8.96302 -12.06072,-13.44942zM150.31413,171.63757c5.40437,1.53322 10.85758,0.46485 11.7033,-2.52152c0.84767,-2.98637 -3.23247,-6.75791 -8.63684,-8.29114c-5.40242,-1.53322 -10.85563,-0.46485 -11.7033,2.52152c-0.84767,2.98637 3.23442,6.75987 8.63684,8.29114zM150.31413,171.63757" fill="#ffffff" stroke="#ffffff" stroke-width="0.5" stroke-linecap="butt"/><path d="M154.29465,170.08872c-0.59962,-0.16992 -0.94728,-0.79493 -0.77735,-1.39455l0.9922,-3.4981c0.16992,-0.59962 0.79493,-0.94923 1.39455,-0.77931l21.41633,6.07431c0.59962,0.16992 0.94728,0.79493 0.77735,1.39455l-0.9922,3.50005c-0.16992,0.59962 -0.79493,0.94728 -1.39455,0.77736zM154.29465,170.08872" fill="#ffffff" stroke="#ffffff" stroke-width="0.5" stroke-linecap="butt"/><path d="M169.00385,167.18634c3.14262,-3.44341 11.46306,-2.41996 17.69752,3.26567c6.23251,5.68368 8.01574,13.87715 4.87507,17.32056c-3.14262,3.44536 -11.55485,2.51957 -17.78737,-3.16411c-6.23251,-5.68563 -7.9259,-13.97677 -4.78523,-17.42213zM176.50201,181.63186c4.15045,3.78521 9.50795,5.2657 11.59978,2.9727c2.09183,-2.29496 0.125,-7.4923 -4.0235,-11.27751c-4.15045,-3.78521 -9.50795,-5.26375 -11.59978,-2.97075c-2.09183,2.293 -0.125,7.49034 4.0235,11.27555zM176.50201,181.63186" fill="#ffffff" stroke="#ffffff" stroke-width="0.5" stroke-linecap="butt"/><path d="M183.10562,184.88972c-0.59571,-0.18164 -0.93165,-0.81251 -0.75001,-1.40822l1.05861,-3.48052c0.18164,-0.59571 0.81251,-0.93361 1.41018,-0.75196l21.29523,6.48447c0.59766,0.18164 0.93361,0.81251 0.75196,1.40822l-1.06056,3.48052c-0.18164,0.59571 -0.81251,0.93165 -1.40822,0.75001zM183.10562,184.88972" fill="#ffffff" stroke="#ffffff" stroke-width="0.5" stroke-linecap="butt"/><path d="M195.07454,193.00898c-1.67971,-4.34967 2.95122,-11.33805 10.82047,-14.37716c7.86925,-3.03911 15.99633,-0.97853 17.67604,3.37114c1.67971,4.34772 -2.90239,11.46306 -10.77164,14.50216c-7.86925,3.03911 -16.04516,0.85157 -17.72487,-3.49614zM211.34822,192.74726c5.24031,-2.02347 8.95521,-6.15634 7.83605,-9.05091c-1.1172,-2.89457 -6.64658,-3.45708 -11.88494,-1.43361c-5.24031,2.02347 -8.95521,6.15634 -7.838,9.05091c1.11916,2.89653 6.64658,3.45708 11.88689,1.43362zM211.34822,192.74726" fill="#ffffff" stroke="#ffffff" stroke-width="0.5" stroke-linecap="butt"/><path d="M215.25257,188.4093c-0.49024,0.38673 -1.19924,0.30079 -1.58401,-0.18946l-2.24613,-2.86137c-0.38477,-0.49024 -0.30079,-1.20119 0.18946,-1.58596l17.51002,-13.7463c0.49024,-0.38477 1.20119,-0.29883 1.58596,0.19141l2.24613,2.85942c0.38477,0.49024 0.29883,1.20119 -0.19141,1.58596zM215.25257,188.4093" fill="#ffffff" stroke="#ffffff" stroke-width="0.5" stroke-linecap="butt"/><path d="M222.18822,176.82124c-2.09378,-4.16412 1.83596,-11.57048 9.37318,-15.3596c7.53527,-3.79107 15.82445,-2.52933 17.91823,1.63674c2.09573,4.16412 -1.77542,11.68963 -9.31068,15.4807c-7.53722,3.78912 -15.88695,2.40824 -17.98073,-1.75784zM238.35837,174.98137c5.01765,-2.52347 8.31457,-6.99815 6.92002,-9.77163c-1.39455,-2.77153 -6.95127,-2.79496 -11.96892,-0.27149c-5.01765,2.52347 -8.31457,6.99815 -6.92002,9.77163c1.39455,2.77153 6.95127,2.79496 11.96892,0.27149zM238.35837,174.98137" fill="#ffffff" stroke="#ffffff" stroke-width="0.5" stroke-linecap="butt"/><path d="M260.36651,147.53957c-0.50391,0.36719 -1.209,0.25586 -1.5762,-0.24805l-2.14066,-2.94145c-0.36719,-0.50391 -0.25586,-1.21096 0.24805,-1.57815l17.99831,-13.0998c0.50391,-0.36719 1.209,-0.25586 1.5762,0.24805l2.14066,2.9395c0.36719,0.50391 0.25586,1.21096 -0.24805,1.57815zM260.36651,147.53957" fill="#ffffff" stroke="#ffffff" stroke-width="0.5" stroke-linecap="butt"/><path d="M262.11653,155.73109c-5.6993,6.21884 -13.99435,7.89269 -17.4319,4.74225c-3.4356,-3.15044 -2.39261,-11.46892 3.30864,-17.68776c5.6993,-6.21884 13.89668,-7.98254 17.33228,-4.83405c3.43755,3.15044 2.49223,11.56072 -3.20903,17.77956zM262.14778,141.41838c-2.28714,-2.09573 -7.49035,-0.14453 -11.28532,3.99615c-3.79498,4.14069 -5.28914,9.49428 -3.00004,11.59197c2.2891,2.09769 7.49034,0.14453 11.28532,-3.99615c3.79498,-4.14069 5.28914,-9.49428 3.00004,-11.59196zM262.14778,141.41838" fill="#ffffff" stroke="#ffffff" stroke-width="0.5" stroke-linecap="butt"/><path d="M286.71064,135.85971c-0.59766,-0.17578 -0.94142,-0.80275 -0.76564,-1.40237l1.02345,-3.49028c0.17579,-0.59766 0.80275,-0.93947 1.40237,-0.76564l21.36164,6.26572c0.59766,0.17578 0.94142,0.80274 0.76564,1.40041l-1.02345,3.49029c-0.17579,0.59962 -0.80274,0.94142 -1.40236,0.76564zM286.71064,135.85971" fill="#ffffff" stroke="#ffffff" stroke-width="0.5" stroke-linecap="butt"/><path d="M281.28869,142.24457c-8.40442,-0.72267 -14.79319,-6.27353 -14.39279,-10.91813c0.39844,-4.6446 7.62511,-8.89271 16.03148,-8.17199c8.40442,0.72071 14.80295,6.13876 14.40451,10.78336c-0.39844,4.6446 -7.63878,9.02747 -16.0432,8.30676zM292.64627,133.53546c0.26563,-3.09184 -4.4571,-6.02157 -10.05288,-6.50205c-5.59578,-0.48048 -10.7482,1.60354 -11.01383,4.69538c-0.26367,3.09184 4.4571,6.02353 10.05288,6.504c5.59578,0.47852 10.7482,-1.60354 11.01383,-4.69734zM292.64627,133.53546" fill="#ffffff" stroke="#ffffff" stroke-width="0.5" stroke-linecap="butt"/><path d="M316.53139,147.45558c-0.6172,-0.08399 -1.0508,-0.65235 -0.96876,-1.26955l0.48438,-3.60552c0.08399,-0.6172 0.65235,-1.0508 1.26955,-0.96876l22.06282,2.96684c0.61915,0.08399 1.05275,0.65235 0.96876,1.26955l-0.48438,3.60552c-0.08399,0.6172 -0.65235,1.0508 -1.26955,0.96876zM316.53139,147.45558" fill="#ffffff" stroke="#ffffff" stroke-width="0.5" stroke-linecap="butt"/><path d="M307.72071,149.78179c-7.09385,-4.56452 -10.14859,-12.45721 -7.62707,-16.37719c2.52347,-3.91998 10.8986,-4.30084 17.9944,0.26368c7.09385,4.56257 10.22085,12.34197 7.69933,16.26391c-2.52347,3.91998 -10.97086,4.41217 -18.06667,-0.15039zM321.83225,147.38722c1.67776,-2.60941 -1.12697,-7.40636 -5.85165,-10.44547c-4.72272,-3.03911 -10.2521,-3.60356 -11.93181,-0.9922c-1.67776,2.60941 1.12697,7.40636 5.85165,10.44546c4.72272,3.03911 10.2521,3.60357 11.93181,0.9922zM321.83225,147.38722" fill="#ffffff" stroke="#ffffff" stroke-width="0.5" stroke-linecap="butt"/><path d="M90.35135,117.67133c0,-6.39897 5.91545,-12.49566 13.1192,-12.49566c28.93252,0 219.72832,0 272.60996,0c8.61359,0 13.56814,4.64378 13.56814,12.24625c0,30.59212 0,109.0924 0,125.70487c0,6.03964 -4.85913,11.69754 -13.31873,11.69754c-52.46667,0 -243.42599,0 -272.60996,0c-7.3279,0 -13.36861,-4.5235 -13.36861,-11.94695c0,-30.16113 0,-108.19342 0,-125.20604z" data-paper-data="{&quot;index&quot;:null}" fill="none" stroke="#391899" stroke-width="10" stroke-linecap="butt"/></g></g></svg>