<svg version="1.1" xmlns="http://www.w3.org/2000/svg" xmlns:xlink="http://www.w3.org/1999/xlink" width="309.2973" height="159.64866" viewBox="0,0,309.2973,159.64866"><g transform="translate(-85.35135,-100.17567)"><g data-paper-data="{&quot;isPaintingLayer&quot;:true}" fill-rule="nonzero" stroke-linejoin="miter" stroke-miterlimit="10" stroke-dasharray="" stroke-dashoffset="0" style="mix-blend-mode: normal"><path d="M90.35134,254.82433v-149.64866h299.29732v149.64866z" fill="#ff661a" stroke="none" stroke-width="1" stroke-linecap="butt"/><path d="M103.71839,141.43819c-3.26577,0 -5.91385,-2.64029 -5.91385,-5.89631v-14.24585c0,-3.25603 2.64808,-5.89436 5.91385,-5.89436h14.29456c3.26577,0 5.91385,2.63834 5.91385,5.89436v14.24585c0,3.25603 -2.64808,5.89631 -5.91385,5.89631zM103.71839,141.43819" fill="#e74e02" stroke="none" stroke-width="1" stroke-linecap="butt"/><path d="M137.72839,141.43819c-3.26772,0 -5.9158,-2.64029 -5.9158,-5.89631v-14.24585c0,-3.25603 2.64808,-5.89436 5.9158,-5.89436h43.86576c3.26772,0 5.9158,2.63834 5.9158,5.89436v14.24585c0,3.25603 -2.64808,5.89631 -5.9158,5.89631zM137.72839,141.43819" fill="#e74e02" stroke="none" stroke-width="1" stroke-linecap="butt"/><path d="M103.71839,175.82426c-3.26577,0 -5.91385,-2.63834 -5.91385,-5.89436v-14.24585c0,-3.25603 2.64808,-5.89631 5.91385,-5.89631h14.29456c3.26577,0 5.91385,2.64029 5.91385,5.89631v14.24585c0,3.25603 -2.64808,5.89436 -5.91385,5.89436zM103.71839,175.82426" fill="#e74e02" stroke="none" stroke-width="1" stroke-linecap="butt"/><path d="M137.72839,175.82426c-3.26772,0 -5.9158,-2.63834 -5.9158,-5.89436v-14.24585c0,-3.25603 2.64808,-5.89631 5.9158,-5.89631h43.86576c3.26772,0 5.9158,2.64029 5.9158,5.89631v14.24585c0,3.25603 -2.64808,5.89436 -5.9158,5.89436zM137.72839,175.82426" fill="#e74e02" stroke="none" stroke-width="1" stroke-linecap="butt"/><path d="M103.71839,210.21227c-3.26577,0 -5.91385,-2.64029 -5.91385,-5.89631v-14.24585c0,-3.25603 2.64808,-5.89436 5.91385,-5.89436h14.29456c3.26577,0 5.91385,2.63834 5.91385,5.89436v14.24585c0,3.25603 -2.64808,5.89631 -5.91385,5.89631zM103.71839,210.21227" fill="#e74e02" stroke="none" stroke-width="1" stroke-linecap="butt"/><path d="M137.72839,210.21227c-3.26772,0 -5.9158,-2.64029 -5.9158,-5.89631v-14.24585c0,-3.25603 2.64808,-5.89436 5.9158,-5.89436h43.86576c3.26772,0 5.9158,2.63834 5.9158,5.89436v14.24585c0,3.25603 -2.64808,5.89631 -5.9158,5.89631zM137.72839,210.21227" fill="#e74e02" stroke="none" stroke-width="1" stroke-linecap="butt"/><path d="M103.71839,244.59834c-3.26577,0 -5.91385,-2.63834 -5.91385,-5.89436v-14.24585c0,-3.25603 2.64808,-5.89631 5.91385,-5.89631h14.29456c3.26577,0 5.91385,2.64029 5.91385,5.89631v14.24585c0,3.25603 -2.64808,5.89436 -5.91385,5.89436zM103.71839,244.59834" fill="#e74e02" stroke="none" stroke-width="1" stroke-linecap="butt"/><path d="M137.72839,244.59834c-3.26772,0 -5.9158,-2.63834 -5.9158,-5.89436v-14.24585c0,-3.25603 2.64808,-5.89631 5.9158,-5.89631h43.86576c3.26772,0 5.9158,2.64029 5.9158,5.89631v14.24585c0,3.25603 -2.64808,5.89436 -5.9158,5.89436zM137.72839,244.59834" fill="#e74e02" stroke="none" stroke-width="1" stroke-linecap="butt"/><path d="M201.30959,141.43819c-3.26577,0 -5.91385,-2.64029 -5.91385,-5.89631v-14.24585c0,-3.25603 2.64808,-5.89436 5.91385,-5.89436h14.29456c3.26577,0 5.91385,2.63834 5.91385,5.89436v14.24585c0,3.25603 -2.64808,5.89631 -5.91385,5.89631zM201.30959,141.43819" fill="#e74e02" stroke="none" stroke-width="1" stroke-linecap="butt"/><path d="M235.31958,141.43819c-3.26772,0 -5.9158,-2.64029 -5.9158,-5.89631v-14.24585c0,-3.25603 2.64808,-5.89436 5.9158,-5.89436h43.86576c3.26772,0 5.9158,2.63834 5.9158,5.89436v14.24585c0,3.25603 -2.64808,5.89631 -5.9158,5.89631zM235.31958,141.43819" fill="#e74e02" stroke="none" stroke-width="1" stroke-linecap="butt"/><path d="M201.30959,175.82426c-3.26577,0 -5.91385,-2.63834 -5.91385,-5.89436v-14.24585c0,-3.25603 2.64808,-5.89631 5.91385,-5.89631h14.29456c3.26577,0 5.91385,2.64029 5.91385,5.89631v14.24585c0,3.25603 -2.64808,5.89436 -5.91385,5.89436zM201.30959,175.82426" fill="#cc4602" stroke="none" stroke-width="1" stroke-linecap="butt"/><path d="M235.31958,175.82426c-3.26772,0 -5.9158,-2.63834 -5.9158,-5.89436v-14.24585c0,-3.25603 2.64808,-5.89631 5.9158,-5.89631h43.86576c3.26772,0 5.9158,2.64029 5.9158,5.89631v14.24585c0,3.25603 -2.64808,5.89436 -5.9158,5.89436zM235.31958,175.82426" fill="#cc4602" stroke="none" stroke-width="1" stroke-linecap="butt"/><path d="M201.30959,210.21227c-3.26577,0 -5.91385,-2.64029 -5.91385,-5.89631v-14.24585c0,-3.25603 2.64808,-5.89436 5.91385,-5.89436h14.29456c3.26577,0 5.91385,2.63834 5.91385,5.89436v14.24585c0,3.25603 -2.64808,5.89631 -5.91385,5.89631zM201.30959,210.21227" fill="#e74e02" stroke="none" stroke-width="1" stroke-linecap="butt"/><path d="M235.31958,210.21227c-3.26772,0 -5.9158,-2.64029 -5.9158,-5.89631v-14.24585c0,-3.25603 2.64808,-5.89436 5.9158,-5.89436h43.86576c3.26772,0 5.9158,2.63834 5.9158,5.89436v14.24585c0,3.25603 -2.64808,5.89631 -5.9158,5.89631zM235.31958,210.21227" fill="#e74e02" stroke="none" stroke-width="1" stroke-linecap="butt"/><path d="M201.30959,244.59834c-3.26577,0 -5.91385,-2.63834 -5.91385,-5.89436v-14.24585c0,-3.25603 2.64808,-5.89631 5.91385,-5.89631h14.29456c3.26577,0 5.91385,2.64029 5.91385,5.89631v14.24585c0,3.25603 -2.64808,5.89436 -5.91385,5.89436zM201.30959,244.59834" fill="#e74e02" stroke="none" stroke-width="1" stroke-linecap="butt"/><path d="M235.31958,244.59834c-3.26772,0 -5.9158,-2.63834 -5.9158,-5.89436v-14.24585c0,-3.25603 2.64808,-5.89631 5.9158,-5.89631h43.86576c3.26772,0 5.9158,2.64029 5.9158,5.89631v14.24585c0,3.25603 -2.64808,5.89436 -5.9158,5.89436zM235.31958,244.59834" fill="#e74e02" stroke="none" stroke-width="1" stroke-linecap="butt"/><path d="M298.90078,141.43819c-3.26577,0 -5.91385,-2.64029 -5.91385,-5.89631v-14.24585c0,-3.25603 2.64808,-5.89436 5.91385,-5.89436h14.29456c3.26577,0 5.91385,2.63834 5.91385,5.89436v14.24585c0,3.25603 -2.64808,5.89631 -5.91385,5.89631zM298.90078,141.43819" fill="#e74e02" stroke="none" stroke-width="1" stroke-linecap="butt"/><path d="M332.91077,141.43819c-3.26772,0 -5.9158,-2.64029 -5.9158,-5.89631v-14.24585c0,-3.25603 2.64808,-5.89436 5.9158,-5.89436h43.86576c3.26772,0 5.9158,2.63834 5.9158,5.89436v14.24585c0,3.25603 -2.64808,5.89631 -5.9158,5.89631zM332.91077,141.43819" fill="#e74e02" stroke="none" stroke-width="1" stroke-linecap="butt"/><path d="M298.90078,175.82426c-3.26577,0 -5.91385,-2.63834 -5.91385,-5.89436v-14.24585c0,-3.25603 2.64808,-5.89631 5.91385,-5.89631h14.29456c3.26577,0 5.91385,2.64029 5.91385,5.89631v14.24585c0,3.25603 -2.64808,5.89436 -5.91385,5.89436zM298.90078,175.82426" fill="#e74e02" stroke="none" stroke-width="1" stroke-linecap="butt"/><path d="M332.91077,175.82426c-3.26772,0 -5.9158,-2.63834 -5.9158,-5.89436v-14.24585c0,-3.25603 2.64808,-5.89631 5.9158,-5.89631h43.86576c3.26772,0 5.9158,2.64029 5.9158,5.89631v14.24585c0,3.25603 -2.64808,5.89436 -5.9158,5.89436zM332.91077,175.82426" fill="#e74e02" stroke="none" stroke-width="1" stroke-linecap="butt"/><path d="M298.90078,210.21227c-3.26577,0 -5.91385,-2.64029 -5.91385,-5.89631v-14.24585c0,-3.25603 2.64808,-5.89436 5.91385,-5.89436h14.29456c3.26577,0 5.91385,2.63834 5.91385,5.89436v14.24585c0,3.25603 -2.64808,5.89631 -5.91385,5.89631zM298.90078,210.21227" fill="#e74e02" stroke="none" stroke-width="1" stroke-linecap="butt"/><path d="M332.91077,210.21227c-3.26772,0 -5.9158,-2.64029 -5.9158,-5.89631v-14.24585c0,-3.25603 2.64808,-5.89436 5.9158,-5.89436h43.86576c3.26772,0 5.9158,2.63834 5.9158,5.89436v14.24585c0,3.25603 -2.64808,5.89631 -5.9158,5.89631zM332.91077,210.21227" fill="#e74e02" stroke="none" stroke-width="1" stroke-linecap="butt"/><path d="M298.90078,244.59834c-3.26577,0 -5.91385,-2.63834 -5.91385,-5.89436v-14.24585c0,-3.25603 2.64808,-5.89631 5.91385,-5.89631h14.29456c3.26577,0 5.91385,2.64029 5.91385,5.89631v14.24585c0,3.25603 -2.64808,5.89436 -5.91385,5.89436zM298.90078,244.59834" fill="#e74e02" stroke="none" stroke-width="1" stroke-linecap="butt"/><path d="M332.91077,244.59834c-3.26772,0 -5.9158,-2.63834 -5.9158,-5.89436v-14.24585c0,-3.25603 2.64808,-5.89631 5.9158,-5.89631h43.86576c3.26772,0 5.9158,2.64029 5.9158,5.89631v14.24585c0,3.25603 -2.64808,5.89436 -5.9158,5.89436zM332.91077,244.59834" fill="#e74e02" stroke="none" stroke-width="1" stroke-linecap="butt"/><path d="M311.9171,119.09806c0.06235,0.31956 0.17732,78.10959 0.07015,78.69025c-0.16173,0.86905 -0.37607,1.45557 -1.20226,1.51792c-0.69368,0.05261 -139.29017,0.32346 -140.18261,0.27475c-0.85931,-0.04677 -2.1512,-0.8028 -2.16094,-1.68355c-0.00974,-0.8067 -0.11886,-77.63998 0.0721,-78.4876c0.14224,-0.63718 1.08339,-1.03273 1.31527,-1.06391c0.21824,-0.03118 34.94335,-0.07015 77.14311,-0.05456c46.88212,0.01169 59.76009,-0.22019 63.24215,-0.13445c1.10873,0.02923 1.64068,0.62159 1.70303,0.94115zM311.9171,119.09806" fill="none" stroke-opacity="0.50196" stroke="#000000" stroke-width="7.5" stroke-linecap="butt"/><path d="M311.85474,119.63391c0.11886,6.03076 0.1325,78.85783 0.1325,78.85783l-0.88854,0.93336l-64.42297,0.00779l-77.17233,-0.00779l-0.90413,-0.90218l-0.00585,-14.89277l0.00585,-64.30606c0,0 0.99766,-0.947 1.22954,-0.97817c0.21824,-0.03118 34.94335,-0.07015 77.14311,-0.05456c48.08827,0.01169 60.12837,0.03702 63.2363,0.13055c0.88659,0.02533 1.63873,0.82034 1.64652,1.212zM311.85474,119.63391" fill="#e8f0fd" stroke="#cad1dd" stroke-width="1" stroke-linecap="butt"/><path d="M311.23121,187.51361c0.2007,0.00974 0.41894,0.03118 0.51247,0.04677c0.1403,0.02533 0.16952,10.8846 0.16952,10.8846c0,0 -0.59626,0.89439 -1.10678,0.90413c-4.87527,0.08574 -64.22227,0.50273 -64.22227,0.50273l-77.18013,-0.25721l-0.80865,-0.97817l-0.09353,-4.94932v-6.07753l0.4053,-0.04482c0.23383,-0.02338 0.59041,-0.04482 0.82424,-0.04677c0.21824,-0.0039 34.95115,-0.02923 77.1509,-0.02728c61.79632,0.00195 64.06833,0.02728 64.34892,0.04287zM311.23121,187.51361" fill="#ffffff" stroke="#cad1dd" stroke-width="1" stroke-linecap="butt"/><path d="M246.88228,130.62179c-42.19975,0 -76.93266,-0.02338 -77.1509,-0.02728c-0.23383,-0.00195 -0.59041,-0.02533 -0.82424,-0.04871l-0.4053,-0.04287v-6.07753l0.09353,-4.94932l0.80865,-0.98012l77.18013,-0.25526c0,0 59.09758,0.16563 63.97285,0.25331c0.50857,0.00779 1.35619,1.15159 1.35619,1.15159c0,0 -0.02923,10.86122 -0.16952,10.88655c-0.09353,0.01559 -0.31177,0.03702 -0.51247,0.04677c-0.28059,0.01559 -2.5526,0.04092 -64.34892,0.04287zM246.88228,130.62179" fill="#ffffff" stroke="#cad1dd" stroke-width="1" stroke-linecap="butt"/><path d="M228.64969,191.44968c0.01559,-0.01559 0.03118,1.08729 0.03118,2.45322v2.4844h-1.09119v-4.79733l0.51442,-0.06235c0.265,-0.03118 0.51442,-0.07794 0.54559,-0.07794zM228.64969,191.44968" fill="#585e73" stroke="none" stroke-width="1" stroke-linecap="butt"/><path d="M244.3667,191.5588c0.4053,0.10912 0.42089,0.15588 0.37412,0.947l-0.04677,0.82424l0.4053,-0.24941c0.21824,-0.1403 0.63912,-0.26305 0.93336,-0.26305c0.8106,0 1.0756,0.49688 1.15354,2.18822l0.06235,1.38152h-1.12236v-1.17887c0,-1.24317 -0.17147,-1.61535 -0.74629,-1.61535c-0.43648,0 -0.68589,0.74435 -0.62354,1.84723l0.04677,0.947h-0.98207v-2.2194c0,-1.212 0.03118,-2.31293 0.06235,-2.46881c0.06235,-0.18706 0.17147,-0.21824 0.48324,-0.1403zM244.3667,191.5588" fill="#585e73" stroke="none" stroke-width="1" stroke-linecap="butt"/><path d="M242.23304,191.85498c0.38971,0.06041 0.46765,0.13835 0.46765,0.51247c0,0.341 0.07794,0.45011 0.31177,0.45011c0.23188,0 0.30982,0.10717 0.30982,0.38776c0,0.27864 -0.07794,0.38776 -0.30982,0.38776c-0.28059,0 -0.31177,0.10912 -0.31177,1.00935c0,0.90023 0.03118,1.00935 0.31177,1.00935c0.23188,0 0.30982,0.10912 0.30982,0.38776c0,0.35658 -0.06235,0.38776 -0.63718,0.38776c-0.91972,0 -1.0756,-0.23188 -1.0756,-1.6134c0,-0.947 -0.04677,-1.18082 -0.23383,-1.18082c-0.1403,0 -0.23383,-0.1403 -0.23383,-0.38776c0,-0.24941 0.09353,-0.38776 0.23383,-0.38776c0.15588,0 0.23383,-0.15588 0.23383,-0.43648c0,-0.24747 0.03118,-0.48129 0.07794,-0.52611c0.04677,-0.03118 0.28059,-0.04677 0.54559,0zM242.23304,191.85498" fill="#585e73" stroke="none" stroke-width="1" stroke-linecap="butt"/><path d="M172.3249,192.59933c0.32736,0.06235 0.38971,0.18706 0.43648,0.73071c0.04677,0.63523 0.04677,0.63523 0.60795,0.58846c0.49883,-0.04677 0.57677,0 0.63912,0.34294c0.09353,0.43453 0.04677,0.45012 -0.76383,0.40335c-0.51442,-0.03118 -0.51442,-0.01559 -0.51442,0.68199c0,0.68394 -0.01559,0.71512 -0.43453,0.71512c-0.4053,0 -0.42089,-0.03118 -0.35853,-0.71512l0.04677,-0.71317l-0.71707,0.04677c-0.68589,0.06235 -0.71707,0.04677 -0.71707,-0.35853c0,-0.41894 0.03118,-0.43453 0.71707,-0.43453c0.70148,0 0.71707,0 0.68589,-0.51247c-0.01559,-0.26305 -0.03118,-0.57287 -0.01559,-0.6664c0.01559,-0.09353 0.18706,-0.1403 0.38776,-0.10912zM172.3249,192.59933" fill="#585e73" stroke="none" stroke-width="1" stroke-linecap="butt"/><path d="M232.55849,193.99644c0.24941,0.90023 0.1403,0.99376 -1.24512,0.99376c-0.6703,0 -1.23148,0.04677 -1.23148,0.09353c0,0.41894 1.26266,0.72876 1.4809,0.37217c0.04677,-0.09353 0.341,-0.15588 0.63718,-0.15588c0.29618,0 0.53001,0.06235 0.53001,0.15588c0,0.07794 -0.06235,0.15588 -0.15588,0.15588c-0.07794,0 -0.15588,0.07794 -0.15588,0.16952c0,0.35853 -0.56118,0.59041 -1.4166,0.606c-0.73265,0 -0.9353,-0.06235 -1.27825,-0.38776c-0.68589,-0.68394 -0.65471,-2.00311 0.06235,-2.71628c0.88854,-0.88659 2.44543,-0.48129 2.77279,0.71317zM230.28453,193.82691c-0.31177,0.341 -0.24941,0.38776 0.57677,0.38776c0.79501,0 0.9353,-0.09353 0.59236,-0.43453c-0.24941,-0.24941 -0.9353,-0.23383 -1.16913,0.04677zM230.28453,193.82691" fill="#585e73" stroke="none" stroke-width="1" stroke-linecap="butt"/><path d="M233.19761,192.81756h0.43648c0.23383,0 0.51442,0.07599 0.62354,0.18511c0.1403,0.1403 0.23383,0.1403 0.37217,0c0.31177,-0.30982 1.23148,-0.21629 1.63678,0.15588c0.32736,0.29423 0.35853,0.4657 0.35853,1.78487v1.44388h-1.16913l0.04677,-1.16328c0.06235,-1.19641 -0.09353,-1.63094 -0.54559,-1.63094c-0.52806,0 -0.69953,0.43453 -0.63718,1.63094l0.04677,1.16328h-1.16913zM233.19761,192.81756" fill="#585e73" stroke="none" stroke-width="1" stroke-linecap="butt"/><path d="M238.60289,192.81756c0.32736,0 0.70148,0.09158 0.8106,0.18511c0.17147,0.15588 0.21824,0.15588 0.28059,0c0.04677,-0.09353 0.24941,-0.18511 0.45206,-0.18511h0.37217v2.06351c0,1.95634 -0.01559,2.09664 -0.341,2.39087c-0.43648,0.38971 -1.20031,0.57482 -1.82384,0.43453c-0.49883,-0.10717 -1.30748,-0.8067 -1.21395,-1.06975c0.09353,-0.265 0.94894,-0.18706 1.16718,0.09158c0.10912,0.15588 0.38971,0.28059 0.62354,0.28059c0.31177,0 0.46765,-0.10912 0.62354,-0.4657c0.20265,-0.43453 0.10912,-0.97817 -0.10912,-0.66835c-0.4053,0.62159 -1.80825,0.38776 -2.14925,-0.37217c-0.35853,-0.75993 -0.24941,-1.66211 0.24747,-2.20381c0.35853,-0.37412 0.57677,-0.48129 1.06001,-0.48129zM238.182,194.29262c-0.07794,0.68199 0.01559,0.96258 0.38971,1.16328c0.37412,0.20265 0.43648,0.18706 0.77942,-0.2007c0.45206,-0.48129 0.48324,-0.76188 0.1403,-1.27435c-0.42089,-0.65082 -1.23148,-0.45012 -1.30943,0.31177zM238.182,194.29262" fill="#585e73" stroke="none" stroke-width="1" stroke-linecap="butt"/><path d="M305.87269,193.26768h1.79072l-0.04677,0.40335l-0.04482,0.40335h-1.69914c-1.38542,0 -1.72836,-0.04677 -1.83748,-0.24941c-0.07794,-0.13835 -0.09353,-0.32541 -0.04677,-0.40335c0.06235,-0.09158 0.871,-0.15394 1.88425,-0.15394zM305.87269,193.26768" fill="#585e73" stroke="none" stroke-width="1" stroke-linecap="butt"/><path d="M305.87269,194.66479h1.79072l-0.04677,0.41894l-0.04482,0.43453l-1.4809,0.04677c-1.85307,0.06235 -2.13366,-0.01559 -2.0869,-0.4657c0.01559,-0.20265 0.04677,-0.37217 0.04677,-0.40335c0.01559,-0.01559 0.82424,-0.03118 1.82189,-0.03118zM305.87269,194.66479" fill="#585e73" stroke="none" stroke-width="1" stroke-linecap="butt"/><path d="M174.99441,136.18295h0.51442l-0.04677,2.35969l-0.04677,2.37528l-0.49883,0.04677l-0.51247,0.04677v-3.11963h-0.63912c-0.59236,0 -0.62354,-0.01559 -0.57677,-0.41894c0.03118,-0.34294 0.1403,-0.45012 0.51442,-0.51247c0.28059,-0.04677 0.53001,-0.21824 0.62354,-0.43453c0.10912,-0.24941 0.27864,-0.34294 0.66835,-0.34294zM174.99441,136.18295" fill="#585e73" stroke="none" stroke-width="1" stroke-linecap="butt"/><path d="M174.63588,149.53637c0.43648,0.01559 0.90413,0.10717 1.0756,0.23188c0.31177,0.23383 0.71707,0.93141 0.71707,1.24318c0,0.48129 -0.54559,1.16328 -1.32501,1.69134c-0.46765,0.30982 -0.85541,0.63718 -0.85541,0.73071c0,0.09158 0.38776,0.13835 1.05806,0.12276c1.02883,-0.04677 1.04442,-0.03118 1.09119,0.37412l0.04677,0.41894h-1.86866c-1.71472,0 -2.18238,-0.10912 -1.73031,-0.38971c0.09353,-0.04482 0.15588,-0.21629 0.15588,-0.37217c0,-0.15394 0.28059,-0.52806 0.63912,-0.8067c1.5413,-1.2724 1.71278,-1.49064 1.55689,-1.8784c-0.09353,-0.24941 -0.265,-0.37217 -0.59236,-0.40335c-0.43453,-0.04677 -0.48129,0 -0.57482,0.49688c-0.09353,0.49688 -0.17147,0.55729 -0.56118,0.55729c-0.42089,0 -0.46765,-0.04482 -0.46765,-0.51052c0,-0.32736 0.15588,-0.68394 0.43648,-1.00935c0.37412,-0.43648 0.51442,-0.49688 1.19836,-0.49688zM174.63588,149.53637" fill="#585e73" stroke="none" stroke-width="1" stroke-linecap="butt"/><path d="M175.77383,163.33795c0.43648,0.37217 0.51442,1.66211 0.09353,1.7537c-0.20265,0.03118 -0.17147,0.12471 0.15588,0.48129c0.4053,0.43453 0.57677,1.35229 0.24941,1.35229c-0.07794,0 -0.15588,0.10717 -0.15588,0.24747c0,0.1403 -0.1403,0.28059 -0.31177,0.32541c-0.17147,0.04677 -0.31177,0.1403 -0.31177,0.21824c0,0.26305 -1.69719,0.15588 -2.04013,-0.1403c-0.24941,-0.21629 -0.76383,-1.11652 -0.76383,-1.36593c0,-0.03118 0.28059,-0.06235 0.63912,-0.06235c0.38971,0 0.59236,0.06235 0.53001,0.15588c-0.17147,0.27864 0.23383,0.62159 0.73071,0.62159c0.32736,0 0.48324,-0.09353 0.57677,-0.35853c0.18706,-0.48129 0.04677,-0.71317 -0.51442,-0.85346c-0.66835,-0.17147 -0.65276,-0.66835 0.03118,-0.83788c0.49883,-0.12471 0.59236,-0.32541 0.4053,-0.8067c-0.1403,-0.35853 -0.99571,-0.32736 -0.99571,0.02923c0,0.38971 -0.29618,0.65276 -0.73265,0.65276c-0.29618,0 -0.35853,-0.07794 -0.35853,-0.4657c0,-0.27864 0.1403,-0.63718 0.35853,-0.85347c0.45206,-0.48129 1.86866,-0.54365 2.41425,-0.09353zM175.77383,163.33795" fill="#585e73" stroke="none" stroke-width="1" stroke-linecap="butt"/><path d="M175.29059,176.39518h0.51442v1.47505c0,1.33476 0.03118,1.49064 0.28059,1.44388c0.18706,-0.03118 0.28059,0.07794 0.31177,0.37217c0.04677,0.35658 -0.01559,0.43453 -0.265,0.43453c-0.265,0 -0.32736,0.09353 -0.32736,0.54365c0,0.51247 -0.03118,0.54365 -0.54559,0.54365c-0.51442,0 -0.54559,-0.03118 -0.54559,-0.54365v-0.54365h-2.02454v-0.4657c0,-0.30982 0.15588,-0.63523 0.46765,-0.947c0.24941,-0.26305 0.49883,-0.62159 0.54559,-0.77552c0.06235,-0.17147 0.1403,-0.29618 0.20265,-0.29618c0.06235,0 0.28059,-0.27864 0.49883,-0.61964c0.32541,-0.51247 0.4657,-0.62159 0.88659,-0.62159zM174.63588,178.07093c-0.2007,0.1403 -0.85541,1.05611 -0.85541,1.19641c0,0.04677 0.23383,0.07794 0.51442,0.04677c0.41894,-0.03118 0.48129,-0.10912 0.45012,-0.38776c-0.03118,-0.18706 0.03118,-0.48129 0.12471,-0.66835c0.17147,-0.30982 0.06235,-0.40335 -0.23383,-0.18706zM174.63588,178.07093" fill="#585e73" stroke="none" stroke-width="1" stroke-linecap="butt"/><path d="M245.37605,136.86105c0,0.28059 -0.28059,0.42089 -0.95479,0.42089c-0.58846,0 -1.00935,0.16757 -1.12236,0.41894c-0.11107,0.33515 0.08379,0.41894 0.84177,0.41894c0.75799,0 1.03858,0.1403 1.29189,0.69953c0.6742,1.48285 -0.89828,2.85463 -2.47076,2.12587c-0.36438,-0.16758 -0.67225,-0.47545 -0.67225,-0.72681c0,-0.47545 0.70148,-0.58651 0.98207,-0.1403c0.28059,0.44817 1.17887,0.3371 1.37568,-0.16758c0.30787,-0.78332 -0.36633,-1.25876 -1.4049,-1.06196c-0.95284,0.16758 -0.95284,0.16758 -0.78527,-0.75604c0.08379,-0.53195 0.1968,-1.11847 0.28059,-1.31527c0.1403,-0.53195 2.63834,-0.44622 2.63834,0.08379zM245.37605,136.86105" fill="#5c6277" stroke="#585e73" stroke-width="0.2" stroke-linecap="butt"/><path d="M245.09546,150.29045c0.50467,0.58651 0.11302,0.89439 -0.58846,0.47545c-0.45012,-0.28059 -0.6742,-0.28059 -0.98402,-0.02728c-0.64497,0.53001 -0.47545,1.00545 0.39361,0.89438c1.03858,-0.1403 1.54325,0.28059 1.54325,1.28604c0,1.62314 -1.45946,2.29539 -2.60911,1.1477c-0.70148,-0.69953 -0.75799,-2.65782 -0.11302,-3.58143c0.50468,-0.72681 1.82384,-0.83788 2.35775,-0.19486zM243.41192,152.52739c-0.45012,0.56118 -0.16952,1.25876 0.5339,1.25876c0.64497,0 0.89828,-0.50273 0.53195,-1.20226c-0.30787,-0.58651 -0.61769,-0.61574 -1.06586,-0.05651zM243.41192,152.52739" fill="#5c6277" stroke="#585e73" stroke-width="0.2" stroke-linecap="butt"/><path d="M243.8328,163.29898c1.79656,0 1.85307,0.11107 0.84177,2.06936c-0.39361,0.75604 -0.70148,1.67965 -0.70148,2.04208c0,0.44817 -0.16758,0.64497 -0.5339,0.64497c-0.44817,0 -0.50467,-0.1403 -0.3371,-0.92361c0.1403,-0.47545 0.42089,-1.28799 0.6742,-1.79072c0.61769,-1.20226 0.61769,-1.20226 -0.50467,-1.20226c-0.6742,0 -0.98207,-0.14029 -0.98207,-0.42089c0,-0.33515 0.36438,-0.41894 1.54325,-0.41894zM243.8328,163.29898" fill="#5c6277" stroke="#585e73" stroke-width="0.2" stroke-linecap="butt"/><path d="M245.17925,178.37686c-0.28059,0.42089 -0.25136,0.61574 0.05651,0.86905c1.37568,1.14575 -0.72876,2.8254 -2.41425,1.95829c-0.58846,-0.3371 -0.75799,-1.79072 -0.22408,-2.12782c0.22408,-0.11107 0.22408,-0.25136 0,-0.47545c-0.42089,-0.41894 -0.39361,-0.92166 0.1403,-1.45362c1.03858,-1.03468 3.17224,0.05456 2.44153,1.22954zM243.4392,177.53898c-0.53195,0.33515 -0.16758,1.20226 0.45012,1.09119c0.28059,-0.05651 0.50467,-0.3371 0.50467,-0.61574c0,-0.61574 -0.39361,-0.81255 -0.95479,-0.47545zM243.13132,180.11302c0,0.64302 0.84177,0.92166 1.34645,0.41894c0.36633,-0.33515 0.36633,-0.50273 0.05651,-0.83983c-0.61769,-0.75409 -1.40296,-0.50273 -1.40296,0.42089zM243.13132,180.11302" fill="#5c6277" stroke="#585e73" stroke-width="0.2" stroke-linecap="butt"/><path d="M307.00675,159.46423c1.09898,0.75604 0.89438,0.70927 0.89438,5.908v4.64145c0,0 -0.31956,0.70148 -0.5339,0.91582c-0.24162,0.23967 -0.84372,0.45791 -0.84372,0.45791h-55.66034l-0.51052,-0.35464c-1.03663,-0.69563 -1.05222,-0.77163 -1.06781,-5.69172c-0.01559,-4.24199 0,-4.44269 0.32541,-5.0448c0.17147,-0.33905 0.5417,-0.72486 0.80475,-0.84762c0.4014,-0.19875 47.86419,-0.22798 55.40118,-0.03702c0.17342,0.0039 1.19056,0.05261 1.19056,0.05261zM307.00675,159.46423" fill="#56f202" stroke="#349201" stroke-width="0.75" stroke-linecap="butt"/><path d="M307.89334,178.80164v4.64145c0,0 -0.4014,0.78332 -0.64497,1.02883c-0.2085,0.20655 -0.73266,0.34489 -0.73266,0.34489h-55.66034l-0.51052,-0.35464c-1.03663,-0.69563 -1.05222,-0.77163 -1.06781,-5.69172c-0.01559,-4.24199 0,-4.44269 0.32541,-5.04285c0.17147,-0.341 0.5417,-0.72486 0.80475,-0.84957c0.39556,-0.1968 47.39069,-0.22603 55.62721,-0.04092c0.77163,0.01559 1.35814,0.26305 1.58417,0.81644c0.30397,0.7424 0.27475,2.17068 0.27475,5.14807zM307.89334,178.80164" fill="#ff661a" stroke="#cd5214" stroke-width="0.75" stroke-linecap="butt"/><path d="M252.23495,193.31639c-0.28059,0.42089 -0.25136,0.61574 0.05651,0.86711c1.37568,1.1477 -0.72876,2.8254 -2.41425,1.95829c-0.58846,-0.33515 -0.75799,-1.79072 -0.22408,-2.12587c0.22408,-0.11107 0.22408,-0.25136 0,-0.47545c-0.42089,-0.41894 -0.39361,-0.92361 0.1403,-1.45557c1.03858,-1.03468 3.17224,0.05651 2.44153,1.23148zM250.4949,192.47657c-0.53195,0.3371 -0.16758,1.2042 0.45012,1.09119c0.28059,-0.05456 0.50467,-0.33515 0.50467,-0.61379c0,-0.61574 -0.39361,-0.81255 -0.95479,-0.4774zM250.18703,195.0506c0,0.64497 0.84177,0.92361 1.34645,0.42089c0.36633,-0.3371 0.36633,-0.50467 0.05651,-0.83982c-0.61769,-0.75604 -1.40296,-0.50273 -1.40296,0.41894zM250.18703,195.0506" fill="#5c6277" stroke="#585e73" stroke-width="0.2" stroke-linecap="butt"/><path d="M225.2826,123.28939c0,0.52026 -0.52221,0.49298 -1.12626,-0.05651c-0.54949,-0.49298 -1.45752,-0.32736 -1.29384,0.24747c0.08379,0.16368 0.49688,0.4657 0.96258,0.60405c1.76149,0.57482 2.25642,1.67186 1.12821,2.43764c-1.18277,0.82229 -3.24434,0.27475 -3.24434,-0.84957c0,-0.49298 0.71512,-0.4657 0.9353,0.05456c0.08184,0.24747 0.49493,0.41114 0.98986,0.41114c1.15354,0 1.01714,-0.79306 -0.19291,-1.2042c-0.49493,-0.16563 -1.07365,-0.49493 -1.29189,-0.71317c-0.606,-0.57677 -0.24747,-1.56274 0.63133,-1.86476c1.15549,-0.38386 2.50194,0.13835 2.50194,0.93336zM225.2826,123.28939" fill="#585e73" stroke="#5c6277" stroke-width="0.125" stroke-linecap="butt"/><path d="M232.29544,122.30148c0.33125,0 0.41309,0.43842 0.41309,2.33047c0,1.89009 -0.08184,2.32852 -0.41309,2.32852c-0.32931,0 -0.41114,-0.43842 -0.41114,-2.32852c0,-1.89204 0.08184,-2.33047 0.41114,-2.33047zM232.29544,122.30148" fill="#585e73" stroke="#5c6277" stroke-width="0.125" stroke-linecap="butt"/><path d="M234.2206,122.30148c0.22019,0 0.41309,0.10912 0.41309,0.27474c0,0.1364 -0.19291,0.27475 -0.41309,0.27475c-0.22019,0 -0.41309,-0.13835 -0.41309,-0.27475c0,-0.16563 0.19291,-0.27474 0.41309,-0.27474zM234.2206,122.30148" fill="#585e73" stroke="#5c6277" stroke-width="0.25" stroke-linecap="butt"/><path d="M245.49492,122.30148c0.33125,0 0.41309,0.43842 0.41309,2.27591v2.30124l-1.34645,0.02728c-1.78877,0.02728 -2.33826,-0.68394 -1.87061,-2.49414c0.19291,-0.7385 0.52221,-0.87685 1.78682,-0.76773c0.46765,0.02923 0.606,-0.08184 0.606,-0.65666c0,-0.43842 0.16368,-0.68589 0.41114,-0.68589zM243.62626,124.41176c-0.35853,0.35658 -0.19291,1.67186 0.24747,1.83748c0.60405,0.21824 0.60405,0.21824 0.9353,-0.38386c0.16368,-0.3293 0.21824,-0.82229 0.1364,-1.09703c-0.16563,-0.52026 -0.96258,-0.74045 -1.31917,-0.35658zM243.62626,124.41176" fill="#585e73" stroke="#5c6277" stroke-width="0.125" stroke-linecap="butt"/><path d="M248.93216,122.30148c0.49688,0 0.55144,0.19291 0.55144,1.91932v1.91737h1.09898c0.79891,0 1.10093,0.11107 1.10093,0.41114c0,0.3293 -0.35853,0.41114 -1.65042,0.41114h-1.65042v-2.32852c0,-2.13756 0.05456,-2.33047 0.54949,-2.33047zM248.93216,122.30148" fill="#585e73" stroke="#5c6277" stroke-width="0.125" stroke-linecap="butt"/><path d="M252.92084,122.30148c0.22019,0 0.41309,0.10912 0.41309,0.27474c0,0.1364 -0.19291,0.27475 -0.41309,0.27475c-0.22019,0 -0.41309,-0.13835 -0.41309,-0.27475c0,-0.16563 0.19291,-0.27474 0.41309,-0.27474zM252.92084,122.30148" fill="#585e73" stroke="#5c6277" stroke-width="0.25" stroke-linecap="butt"/><path d="M227.29156,123.12377c0.10912,0.38386 0.38386,0.54949 0.96258,0.54949c0.71512,0 0.85152,0.1364 1.01714,0.82034c0.27475,1.17887 0.60405,1.23343 0.96258,0.13835c0.16368,-0.52026 0.49493,-0.95869 0.71512,-0.95869c0.49493,0 0.49493,0.08184 -0.38581,2.32852c-0.66056,1.67186 -0.85152,1.91932 -1.51208,2.00116c-0.54949,0.05456 -0.7424,-0.02728 -0.7424,-0.35658c0,-0.24747 0.1364,-0.35658 0.27474,-0.27475c0.54949,0.3293 0.60405,-0.68394 0.13835,-2.02649c-0.38581,-1.04247 -0.606,-1.28994 -0.99181,-1.20615c-0.65861,0.19096 -0.71317,1.67186 -0.10912,1.89009c0.57677,0.22019 0.52221,0.93141 -0.08184,0.93141c-0.76968,0 -1.15549,-0.57482 -1.15549,-1.67186c0,-0.57482 -0.16563,-1.09508 -0.32931,-1.17692c-0.27669,-0.13835 -0.27669,-0.19291 0,-0.3293c0.16368,-0.08184 0.32931,-0.38386 0.32931,-0.68589c0,-0.68589 0.71512,-0.68589 0.90803,0.02728zM227.29156,123.12377" fill="#585e73" stroke="#5c6277" stroke-width="0.125" stroke-linecap="butt"/><path d="M258.1449,122.57622c0.22019,0 0.41309,0.19096 0.41309,0.41114c0,0.24552 0.19291,0.49298 0.41309,0.57482c0.22019,0.11107 0.41114,0.27474 0.41114,0.41114c0,0.13835 -0.19096,0.24747 -0.41114,0.24747c-0.27475,0 -0.41309,0.2728 -0.41309,0.82229c0,0.49298 0.16563,0.90413 0.41309,0.98597c0.57677,0.22019 0.52221,0.93141 -0.08379,0.93141c-0.76968,0 -1.15354,-0.57482 -1.15354,-1.67186c0,-0.57482 -0.16563,-1.09508 -0.33125,-1.17692c-0.27475,-0.13835 -0.27475,-0.19291 0,-0.3293c0.16563,-0.08184 0.33125,-0.38386 0.33125,-0.68589c0,-0.27475 0.19096,-0.52026 0.41114,-0.52026zM258.1449,122.57622" fill="#585e73" stroke="#5c6277" stroke-width="0.125" stroke-linecap="butt"/><path d="M240.24357,123.39851c0.60405,0 1.53935,0.84957 1.53935,1.39711c0,0.43842 -0.19291,0.52026 -1.09898,0.52026c-0.77163,0 -1.10093,0.11107 -1.10093,0.38386c0,0.54949 0.54949,0.68589 1.32112,0.35658c0.79696,-0.35658 1.15354,0.02728 0.49493,0.52026c-1.23928,0.8788 -2.72407,0.19291 -2.72407,-1.26071c0,-0.6021 0.19291,-1.06781 0.606,-1.42439c0.35659,-0.27475 0.76968,-0.49298 0.96258,-0.49298zM240.10523,124.2208c-0.27474,0 -0.52221,0.10912 -0.52221,0.2728c0,0.13835 0.32931,0.27475 0.71512,0.27475c0.38581,0 0.63328,-0.10912 0.52221,-0.27475c-0.08184,-0.16368 -0.41309,-0.2728 -0.71512,-0.2728zM240.10523,124.2208" fill="#585e73" stroke="#5c6277" stroke-width="0.125" stroke-linecap="butt"/><path d="M256.52371,123.86422c0.46765,0.4657 0.46765,0.49298 0,0.57482c-0.24747,0.05456 -0.66056,-0.05456 -0.88074,-0.24552c-0.30203,-0.24747 -0.49493,-0.24747 -0.71512,-0.02728c-0.30203,0.30008 -0.16563,0.38386 1.65042,1.01325c0.41309,0.16563 0.44037,1.01519 0,1.45362c-0.46765,0.4657 -2.00701,0.41114 -2.4201,-0.08379c-0.49493,-0.6021 -0.11107,-0.84957 0.68784,-0.41114c0.54949,0.27474 0.76968,0.30202 1.01714,0.05651c0.24747,-0.24747 0.05456,-0.43842 -0.82424,-0.79501c-1.23928,-0.4657 -1.5413,-1.20615 -0.66056,-1.69914c0.71512,-0.43842 1.62119,-0.35658 2.14535,0.16368zM256.52371,123.86422" fill="#585e73" stroke="#5c6277" stroke-width="0.125" stroke-linecap="butt"/><path d="M262.3148,123.79991c0.68784,0.52026 0.22993,0.91387 -0.51247,0.44817c-0.38386,-0.22019 -0.65861,-0.24747 -0.82424,-0.08184c-0.19291,0.19096 0.02728,0.43842 0.71512,0.71122c0.76968,0.3293 0.98986,0.57677 0.98986,1.09703c0,0.79501 -0.88074,1.17887 -2.03429,0.87685c-0.85346,-0.21824 -1.18277,-0.98597 -0.44037,-0.98597c0.30203,0 0.54949,0.10912 0.54949,0.2728c0,0.13835 0.24747,0.27474 0.54949,0.27474c0.88074,0 0.63328,-0.71317 -0.3293,-0.98597c-1.04442,-0.30202 -1.3484,-1.12431 -0.606,-1.67186c0.52611,-0.38776 1.03273,-0.45401 1.58417,-0.18122c0.11107,0.05456 0.35853,0.22603 0.35853,0.22603zM262.3148,123.79991" fill="#585e73" stroke="#5c6277" stroke-width="0.125" stroke-linecap="butt"/><path d="M234.2206,123.67326c0.32931,0 0.41309,0.35464 0.41309,1.64263c0,1.28994 -0.08379,1.64458 -0.41309,1.64458c-0.32931,0 -0.41309,-0.35464 -0.41309,-1.64458c0,-1.28799 0.08379,-1.64263 0.41309,-1.64263zM234.2206,123.67326" fill="#585e73" stroke="#5c6277" stroke-width="0.125" stroke-linecap="butt"/><path d="M236.55886,123.67326c1.59391,0 1.6777,0.24552 0.63133,1.47895l-0.71512,0.84957l0.85346,0.08184c0.54949,0.05456 0.8788,0.24747 0.8788,0.49298c0,0.27474 -0.38386,0.38386 -1.51208,0.38386c-1.29189,0 -1.51208,-0.08184 -1.51208,-0.49298c0,-0.2728 0.30203,-0.79501 0.68784,-1.15159c0.38386,-0.35464 0.68784,-0.7385 0.68784,-0.87685c0,-0.10912 -0.30397,-0.21824 -0.68784,-0.21824c-0.38581,0 -0.68784,-0.1364 -0.68784,-0.27475c0,-0.16368 0.63328,-0.2728 1.37568,-0.2728zM236.55886,123.67326" fill="#585e73" stroke="#5c6277" stroke-width="0.125" stroke-linecap="butt"/><path d="M252.92084,123.67326c0.32931,0 0.41309,0.35464 0.41309,1.64263c0,1.28994 -0.08379,1.64458 -0.41309,1.64458c-0.33125,0 -0.41309,-0.35464 -0.41309,-1.64458c0,-1.28799 0.08184,-1.64263 0.41309,-1.64263zM252.92084,123.67326" fill="#585e73" stroke="#5c6277" stroke-width="0.125" stroke-linecap="butt"/><path d="M307.00675,132.65218c1.09898,0.75604 0.89438,0.70927 0.89438,5.908v4.64145c0,0 -0.31956,0.70148 -0.5339,0.91582c-0.24162,0.23967 -0.84372,0.45791 -0.84372,0.45791h-55.66034l-0.51052,-0.35464c-1.03663,-0.69563 -1.05222,-0.77163 -1.06781,-5.69172c-0.01559,-4.24199 0,-4.44269 0.32541,-5.0448c0.17147,-0.33905 0.5417,-0.72486 0.80475,-0.84762c0.4014,-0.19875 47.86419,-0.22798 55.40118,-0.03702c0.17342,0.0039 1.19056,0.05261 1.19056,0.05261zM307.00675,132.65218" fill="#026ce8" stroke="#014088" stroke-width="0.75" stroke-linecap="butt"/><path d="M307.89334,151.98959v4.64145c0,0 -0.4014,0.78332 -0.64497,1.02689c-0.2085,0.20849 -0.73266,0.34684 -0.73266,0.34684h-55.66034l-0.51052,-0.35464c-1.03663,-0.69563 -1.05222,-0.77163 -1.06781,-5.69172c-0.01559,-4.24199 0,-4.44269 0.32541,-5.04285c0.17147,-0.341 0.5417,-0.72486 0.80475,-0.84957c0.39556,-0.1968 47.39069,-0.22603 55.62721,-0.04092c0.77163,0.01559 1.35814,0.26305 1.58417,0.81644c0.30397,0.7424 0.27475,2.17068 0.27475,5.14807zM307.89334,151.98959" fill="#ff661a" stroke="#cd5214" stroke-width="0.75" stroke-linecap="butt"/><path d="M237.93844,159.46423c1.09703,0.75604 0.89438,0.70927 0.89438,5.908v4.64145c0,0 -0.31956,0.70148 -0.5339,0.91582c-0.24162,0.23967 -0.84372,0.45791 -0.84372,0.45791h-55.66034l-0.51052,-0.35464c-1.03663,-0.69563 -1.05222,-0.77163 -1.06781,-5.69172c-0.01559,-4.24199 0,-4.44269 0.32541,-5.0448c0.16952,-0.33905 0.5417,-0.72486 0.80475,-0.84762c0.39945,-0.19875 47.86419,-0.22798 55.40118,-0.03702c0.17342,0.0039 1.19056,0.05261 1.19056,0.05261zM237.93844,159.46423" fill="#ff661a" stroke="#cd5214" stroke-width="0.75" stroke-linecap="butt"/><path d="M238.82503,178.80164v4.64145c0,0 -0.4014,0.78332 -0.64692,1.02689c-0.20655,0.20849 -0.73071,0.34684 -0.73071,0.34684h-55.66034l-0.51052,-0.35464c-1.03663,-0.69563 -1.05222,-0.77163 -1.0678,-5.69172c-0.01559,-4.24199 0,-4.44269 0.32541,-5.04285c0.16952,-0.341 0.5417,-0.72486 0.80475,-0.84957c0.39556,-0.1968 47.39069,-0.22603 55.62721,-0.04092c0.77163,0.01559 1.35814,0.26305 1.58417,0.81644c0.30397,0.7424 0.27474,2.17068 0.27474,5.14807zM238.82503,178.80164" fill="#ffd403" stroke="#b19402" stroke-width="0.75" stroke-linecap="butt"/><path d="M237.93844,132.65218c1.09703,0.75604 0.89438,0.70927 0.89438,5.908v4.64145c0,0 -0.31956,0.70148 -0.5339,0.91582c-0.24162,0.23967 -0.84372,0.45791 -0.84372,0.45791h-55.66034l-0.51052,-0.35464c-1.03663,-0.69563 -1.05222,-0.77163 -1.06781,-5.69172c-0.01559,-4.24199 0,-4.44269 0.32541,-5.0448c0.16952,-0.33905 0.5417,-0.72486 0.80475,-0.84762c0.39945,-0.19875 47.86419,-0.22798 55.40118,-0.03702c0.17342,0.0039 1.19056,0.05261 1.19056,0.05261zM237.93844,132.65218" fill="#ff661a" stroke="#cd5214" stroke-width="0.75" stroke-linecap="butt"/><path d="M238.82503,151.98959v4.64145c0,0 -0.4014,0.78332 -0.64692,1.02689c-0.20655,0.20849 -0.73071,0.34684 -0.73071,0.34684h-55.66034l-0.51052,-0.35464c-1.03663,-0.69563 -1.05222,-0.77163 -1.0678,-5.69172c-0.01559,-4.24199 0,-4.44269 0.32541,-5.04285c0.16952,-0.341 0.5417,-0.72486 0.80475,-0.84957c0.39556,-0.1968 47.39069,-0.22603 55.62721,-0.04092c0.77163,0.01559 1.35814,0.26305 1.58417,0.81644c0.30397,0.7424 0.27474,2.17068 0.27474,5.14807zM238.82503,151.98959" fill="#a902f1" stroke="#5f0187" stroke-width="0.75" stroke-linecap="butt"/><path d="M333.11733,149.63379c3.46257,0 13.94967,0 13.94967,0c0,0 0,-4.12313 0,-4.9006c0,-0.99571 0.83398,-2.80786 2.1512,-1.86671c4.35306,3.10989 14.94343,12.82341 17.39081,14.57321c1.10483,0.78916 0.95479,2.50389 -0.25721,3.37099c-2.38113,1.70108 -11.86862,10.31368 -16.40484,13.55606c-1.73226,1.23733 -2.87996,0.75409 -2.87996,-0.02338c0,-0.99571 0,-5.90995 0,-5.90995c0,0 -10.90604,0 -14.34328,0c-1.92907,0 -4.51869,-2.66367 -4.51869,-4.62586c0,-1.87256 0,-5.91385 0,-9.20495c0,-2.74551 2.85657,-4.9688 4.9123,-4.9688zM333.11733,149.63379" fill="none" stroke-opacity="0.50196" stroke="#000000" stroke-width="7.5" stroke-linecap="butt"/><path d="M157.14765,154.6026c0,3.2911 0,7.33239 0,9.20495c0,1.96219 -2.58962,4.62586 -4.52064,4.62586c-3.43724,0 -14.34328,0 -14.34328,0c0,0 0,4.91424 0,5.90995c0,0.77747 -1.1477,1.26071 -2.87801,0.02338c-4.53817,-3.24239 -14.02566,-11.85498 -16.40679,-13.55606c-1.212,-0.86711 -1.36009,-2.58183 -0.25721,-3.37099c2.44738,-1.7498 13.03775,-11.46332 17.39081,-14.57321c1.31917,-0.94115 2.1512,0.871 2.1512,1.86671c0,0.77747 0,4.9006 0,4.9006c0,0 10.4871,0 13.95162,0c2.05572,0 4.91229,2.2233 4.91229,4.9688zM157.14765,154.6026" fill="none" stroke-opacity="0.50196" stroke="#000000" stroke-width="7.5" stroke-linecap="butt"/><path d="M333.11732,149.63379c3.46257,0 13.94967,0 13.94967,0c0,0 0,-4.12313 0,-4.9006c0,-0.99571 0.83398,-2.80786 2.1512,-1.86671c4.35306,3.10989 14.94343,12.82341 17.39081,14.57321c1.10483,0.78916 0.95479,2.50389 -0.25721,3.37099c-2.38113,1.70108 -11.86862,10.31368 -16.40484,13.55606c-1.73226,1.23733 -2.87996,0.75409 -2.87996,-0.02338c0,-0.99571 0,-5.90995 0,-5.90995c0,0 -10.90604,0 -14.34328,0c-1.92906,0 -4.51869,-2.66367 -4.51869,-4.62586c0,-1.87256 0,-5.91385 0,-9.20495c0,-2.74551 2.85657,-4.9688 4.9123,-4.9688zM333.11732,149.63379" fill="#e8f0fd" stroke="none" stroke-width="1" stroke-linecap="butt"/><path d="M157.14764,154.6026c0,3.2911 0,7.33239 0,9.20495c0,1.96219 -2.58962,4.62586 -4.52064,4.62586c-3.43724,0 -14.34328,0 -14.34328,0c0,0 0,4.91424 0,5.90995c0,0.77747 -1.1477,1.26071 -2.87801,0.02338c-4.53817,-3.24239 -14.02566,-11.85498 -16.40679,-13.55606c-1.212,-0.8671 -1.36009,-2.58183 -0.25721,-3.37099c2.44738,-1.7498 13.03775,-11.46332 17.39081,-14.57321c1.31917,-0.94115 2.1512,0.871 2.1512,1.86671c0,0.77747 0,4.9006 0,4.9006c0,0 10.4871,0 13.95162,0c2.05572,0 4.9123,2.2233 4.9123,4.9688zM157.14764,154.6026" fill="#e8f0fd" stroke="none" stroke-width="1" stroke-linecap="butt"/><path d="M172.58406,231.59371c1.1399,0.63133 2.22719,0.94894 3.26187,0.94894c1.03858,0 1.55884,-0.4014 1.55884,-1.20615c0,-0.36438 -0.14809,-0.68784 -0.44427,-0.96843c-0.29033,-0.28059 -0.82619,-0.6021 -1.60755,-0.96258c-0.78332,-0.36633 -1.36983,-0.65082 -1.75954,-0.85541c-0.39166,-0.20849 -0.91192,-0.55144 -1.55884,-1.02689c-0.64497,-0.47545 -1.13795,-0.96843 -1.4809,-1.48285c-0.97233,-1.38152 -1.45946,-3.14496 -1.45946,-5.28837c0,-2.1434 0.79891,-3.94971 2.39672,-5.41697c1.59586,-1.4731 3.69055,-2.20966 6.27823,-2.20966c1.75954,0 3.38268,0.18901 4.87138,0.56898c1.48674,0.37607 2.30319,1.61924 2.30319,1.68939c0,0.85541 -0.27085,1.93491 -0.80865,3.23654c-0.5339,1.29773 0.08963,4.01596 -0.1286,4.1621c-1.56469,-0.8028 -3.9653,-3.19952 -5.20068,-3.19952c-1.22954,0 -1.84333,0.43648 -1.84333,1.31137c0,0.5378 0.45206,1.01325 1.35814,1.42634c0.19485,0.09938 0.4735,0.23383 0.83593,0.4053c0.36828,0.16758 0.78916,0.36633 1.26656,0.60015c0.4774,0.23188 0.98986,0.52416 1.53741,0.8749c0.54949,0.35269 1.14185,0.82034 1.78098,1.4049c1.29189,1.2159 1.93881,2.82345 1.93881,4.81876c0,2.60521 -0.72096,4.73303 -2.16094,6.38735c-1.43998,1.65432 -3.66133,2.50389 -6.66599,2.5526c-1.46336,0 -2.78838,-0.12276 -3.97504,-0.36438c-1.18277,-0.24162 -2.2155,-0.71512 -3.09819,-1.41854c-0.87685,-0.70732 -1.31527,-1.56079 -1.31527,-2.55845c0,-0.99766 0.18316,-1.98947 0.55144,-2.97349c0.36633,-0.98791 0.75799,-1.63873 1.17303,-1.95245c0,0 1.26071,0.86516 2.39477,1.49649zM196.92145,238.77997c0,0.29423 -1.02494,0.44037 -3.07676,0.44037c-2.43958,-0.09938 -3.66133,-0.25916 -3.66133,-0.4774v-12.91499h-1.86671c-0.49103,0 -0.73655,-0.84177 -0.73655,-2.52337c0,-0.43842 0.04287,-0.97233 0.1286,-1.60561c0.08574,-0.63133 0.265,-0.947 0.53585,-0.947h1.93881v-3.21511c0,-0.48519 1.03078,-0.72681 3.0904,-0.72681c2.06351,0 3.09625,0.19486 3.09625,0.58457v2.33826l0.03507,1.01909h3.11963c0.41504,0 0.62159,0.85347 0.62159,2.55845c0,1.70109 -0.20655,2.5526 -0.62159,2.5526h-2.60326zM200.6919,221.02088c0,-0.27085 1.11457,-0.40725 3.34566,-0.40725c2.23694,0 3.39243,0.12081 3.47037,0.36438l2.63054,8.61844l2.52532,-8.69053c0.09938,-0.19485 0.85736,-0.29228 2.27396,-0.29228c3.24823,0 4.88112,0.15978 4.73303,0.4774l-8.68859,24.41533c-0.02338,0.14614 -0.68784,0.22019 -1.99532,0.22019c-1.30553,0 -2.52142,-0.04287 -3.64769,-0.1286c-1.12042,-0.08574 -1.65627,-0.18901 -1.60755,-0.31372l3.18978,-7.6617zM200.6919,221.02088" fill="none" stroke-opacity="0.50196" stroke="#000000" stroke-width="7.5" stroke-linecap="square"/><path d="M223.60101,232.17438l2.55845,-7.29927h8.43527v7.29927zM223.60101,232.17438" fill="none" stroke-opacity="0.50196" stroke="#000000" stroke-width="7.5" stroke-linecap="square"/><path d="M242.05378,236.84701v-22.70256c0,-0.50857 1.23733,-0.76383 3.71199,-0.76383c2.4805,0 3.71978,0.25526 3.71978,0.76383v17.8838h5.643c0.43842,0 0.74435,0.57287 0.91582,1.71862c0.0721,0.55534 0.10717,1.12626 0.10717,1.71083c0,0.58456 -0.03507,1.18082 -0.10717,1.78877c-0.19485,1.16913 -0.51247,1.7537 -0.95089,1.7537h-11.28016c-0.5378,0 -0.96648,-0.21824 -1.28604,-0.65666c-0.31566,-0.43648 -0.4735,-0.9353 -0.4735,-1.49649zM264.86351,238.77997c0,0.19485 -1.11847,0.29228 -3.35346,0.29228c-2.23109,0 -3.34761,-0.08574 -3.34761,-0.25721v-17.92082c0,-0.16563 1.11652,-0.24941 3.34761,-0.24941c2.23499,0 3.35346,0.0721 3.35346,0.21434zM264.86351,218.706c0,0.17147 -1.11847,0.25721 -3.35346,0.25721c-2.23109,0 -3.34761,-0.07405 -3.34761,-0.22214v-5.25329c0,-0.24162 1.11652,-0.36243 3.34761,-0.36243c2.23499,0 3.35346,0.0721 3.35346,0.22019zM268.93208,232.42769c1.97778,1.19251 3.54052,1.78877 4.68432,1.78877c0.7346,0 1.10093,-0.25331 1.10093,-0.76188c0,-0.36633 -0.63328,-0.84177 -1.90179,-1.42634c-3.05143,-1.23928 -4.57714,-3.27162 -4.57714,-6.09507c0,-1.80046 0.65666,-3.17419 1.97388,-4.11924c1.32112,-0.95089 2.90139,-1.42634 4.74082,-1.42634c1.84528,0 3.40801,0.19485 4.68626,0.58456c1.28215,0.38971 1.92322,0.90023 1.92322,1.53351c0,0.53195 -0.26305,1.23733 -0.78721,2.11612c-0.52416,0.8749 -0.88464,1.3484 -1.0795,1.41855c-1.04832,-0.57872 -2.18432,-0.86905 -3.40412,-0.86905c-0.65861,0 -0.98792,0.22993 -0.98792,0.69173c0,0.29033 0.12666,0.53975 0.37997,0.74824c0.25721,0.2046 0.72681,0.45791 1.4088,0.76188c0.68589,0.30397 1.25292,0.58067 1.70108,0.82813c0.45401,0.24162 0.96064,0.58067 1.52377,1.01909c1.17303,0.92166 1.75954,2.12587 1.75954,3.61456c0,1.9427 -0.64887,3.51908 -1.94465,4.72523c-1.29189,1.20226 -3.24434,1.80436 -5.85734,1.80436c-1.73226,0 -3.30474,-0.29228 -4.72134,-0.87685c-1.4166,-0.58457 -2.12392,-1.38932 -2.12392,-2.41036c0,-0.68004 0.16368,-1.39516 0.49298,-2.14535c0.32931,-0.75604 0.6664,-1.25682 1.00935,-1.50428zM293.06293,238.77997c0,0.29423 -1.02494,0.44037 -3.07481,0.44037c-2.44153,-0.09938 -3.66328,-0.25916 -3.66328,-0.4774v-12.91499l-2.43764,2.56429c-0.49103,0 -0.16563,-3.40607 -0.16563,-5.08766c0,-0.43842 0.04287,-0.97233 0.1286,-1.60561c0.08574,-0.63133 0.265,-0.947 0.5378,-0.947h1.93686v-3.21511c0,-0.48519 1.03078,-0.72681 3.0904,-0.72681c2.06546,0 3.09625,0.19486 3.09625,0.58457v2.33826l0.03702,1.01909h3.11768c0.41504,0 0.62159,0.85347 0.62159,2.55845c0,1.70109 -0.20655,2.5526 -0.62159,2.5526h-2.60326zM303.56951,234.21646c0.7346,0 1.10288,-0.25331 1.10288,-0.76188c0,-0.36633 -0.63523,-0.84177 -1.90373,-1.42634c-3.05143,-1.23928 -4.57714,-3.27162 -4.57714,-6.09507c0,-1.80046 0.65861,-3.17419 1.97388,-4.11924c1.32112,-0.95089 2.90139,-1.42634 4.74277,-1.42634c1.84528,0 3.40607,0.19485 4.68432,0.58456c1.28215,0.38971 1.92322,0.90023 1.92322,1.53351c0,0.53195 -0.26111,1.23733 -0.78527,2.11612c-0.52611,0.8749 -0.88464,1.3484 -1.08145,1.41855c-1.04832,-0.57872 -2.18238,-0.86905 -3.40412,-0.86905c-0.65861,0 -0.98597,0.22993 -0.98597,0.69173c0,0.29033 0.12471,0.53975 0.37802,0.74824c0.25721,0.2046 0.72681,0.45791 1.4088,0.76188c0.68784,0.30397 1.25487,0.58067 1.70303,0.82813c0.45206,0.24162 0.96064,0.58067 1.52377,1.01909c1.17303,0.92166 1.75954,2.12587 1.75954,3.61456c0,1.9427 -0.64887,3.51908 -1.9466,4.72523c-1.29189,1.20226 -3.24434,1.80436 -5.85734,1.80436c-1.73031,0 -3.30474,-0.29228 -4.71939,-0.87685c-1.4166,-0.58457 -2.12587,-1.38932 -2.12587,-2.41036c0,-0.68004 0.16563,-1.39516 0.49493,-2.14535c0.32931,-0.75604 -0.90802,-4.96296 -0.56508,-5.21042c0,0 5.113,5.49491 6.25679,5.49491zM303.56951,234.21646" fill="none" stroke-opacity="0.50196" stroke="#000000" stroke-width="7.5" stroke-linecap="square"/><path d="M170.18929,230.09723c0.46181,0.36633 1.26071,0.86516 2.39477,1.49649c1.1399,0.63133 2.22719,0.94894 3.26187,0.94894c1.03858,0 1.55884,-0.4014 1.55884,-1.20615c0,-0.36438 -0.14809,-0.68784 -0.44427,-0.96843c-0.29033,-0.28059 -0.82619,-0.6021 -1.60755,-0.96258c-0.78332,-0.36633 -1.36983,-0.65082 -1.75954,-0.85541c-0.39166,-0.2085 -0.91192,-0.55144 -1.55884,-1.02689c-0.64497,-0.47545 -1.13795,-0.96843 -1.4809,-1.48285c-0.97233,-1.38152 -1.45946,-3.14496 -1.45946,-5.28837c0,-2.1434 0.79891,-3.94971 2.39672,-5.41697c1.59586,-1.4731 3.69055,-2.20966 6.27823,-2.20966c1.75954,0 3.38268,0.18901 4.87138,0.56898c1.48674,0.37607 2.25447,0.8671 2.30319,1.477c0,0.07015 0,0.14224 0,0.21239c0,0.85541 -0.27085,1.93491 -0.80865,3.23654c-0.5339,1.29773 -0.90997,2.02065 -1.13016,2.16679c-1.56469,-0.8028 -2.96375,-1.2042 -4.19913,-1.2042c-1.22954,0 -1.84333,0.43648 -1.84333,1.31137c0,0.5378 0.45206,1.01325 1.35814,1.42634c0.19486,0.09938 0.4735,0.23383 0.83593,0.4053c0.36828,0.16758 0.78916,0.36633 1.26656,0.60015c0.4774,0.23188 0.98986,0.52416 1.53741,0.8749c0.54949,0.35269 1.14185,0.82034 1.78097,1.4049c1.29189,1.2159 1.93881,2.82345 1.93881,4.81877c0,2.60521 -0.72096,4.73303 -2.16094,6.38735c-1.43998,1.65432 -3.66133,2.50389 -6.66599,2.5526c-1.46336,0 -2.78838,-0.12276 -3.97504,-0.36438c-1.18277,-0.24162 -2.2155,-0.71512 -3.09819,-1.41854c-0.87685,-0.70732 -1.31527,-1.56079 -1.31527,-2.55845c0,-0.99766 0.18316,-1.98947 0.55144,-2.97349c0.36633,-0.98792 0.75799,-1.63873 1.17303,-1.95245zM196.92145,238.77997c0,0.29423 -1.02494,0.44037 -3.07676,0.44037c-2.43958,-0.09938 -3.66133,-0.25916 -3.66133,-0.47739v-12.91499h-1.86671c-0.49103,0 -0.73655,-0.84177 -0.73655,-2.52337c0,-0.43842 0.04287,-0.97233 0.1286,-1.60561c0.08574,-0.63133 0.265,-0.947 0.53585,-0.947h1.93881v-3.21511c0,-0.48519 1.03078,-0.72681 3.0904,-0.72681c2.06351,0 3.09625,0.19486 3.09625,0.58457v2.33826l0.03507,1.01909h3.11963c0.41504,0 0.62159,0.85347 0.62159,2.55845c0,1.70108 -0.20655,2.5526 -0.62159,2.5526h-2.60326zM200.6919,220.93709c0,-0.27085 1.11457,-0.40725 3.34566,-0.40725c2.23694,0 3.39243,0.12276 3.47037,0.36438l2.63054,8.61844l2.52532,-8.69053c0.09938,-0.19486 0.85736,-0.29228 2.27396,-0.29228c3.24823,0 4.79733,0.15978 4.64924,0.47934l-8.6048,24.41339c-0.02338,0.14809 -0.68784,0.22019 -1.99532,0.22019c-1.30553,0 -2.52142,-0.04287 -3.64769,-0.12666c-1.12042,-0.08574 -1.65627,-0.19096 -1.60755,-0.31372l3.18978,-7.66365zM200.6919,220.93709" fill="#ffffff" stroke="none" stroke-width="1" stroke-linecap="butt"/><path d="M237.3753,232.17438h-14.32964c-0.81644,0 -1.37178,-0.68589 -1.66601,-2.05572c-0.11691,-0.54559 -0.17537,-1.07755 -0.17537,-1.59391c0,-0.52026 0.05846,-1.05417 0.17537,-1.59976c0.29423,-1.36593 0.84957,-2.04987 1.66601,-2.04987h14.32964c0.81644,0 1.37178,0.68394 1.66796,2.04987c0.11691,0.54559 0.17537,1.0795 0.17537,1.59976c0,0.51637 -0.05846,1.04832 -0.17537,1.59391c-0.29618,1.36983 -0.85152,2.05572 -1.66796,2.05572zM237.3753,232.17438" fill="#ffffff" stroke="none" stroke-width="1" stroke-linecap="butt"/><path d="M242.05377,236.84701v-22.70256c0,-0.50857 1.23733,-0.76383 3.71199,-0.76383c2.4805,0 3.71978,0.25526 3.71978,0.76383v17.88379h5.643c0.43842,0 0.74435,0.57287 0.91582,1.71862c0.0721,0.55534 0.10717,1.12626 0.10717,1.71083c0,0.58457 -0.03507,1.18082 -0.10717,1.78877c-0.19485,1.16913 -0.51247,1.7537 -0.95089,1.7537h-11.28016c-0.5378,0 -0.96648,-0.21824 -1.28604,-0.65666c-0.31566,-0.43648 -0.4735,-0.9353 -0.4735,-1.49649zM264.8635,238.77997c0,0.19485 -1.11847,0.29228 -3.35345,0.29228c-2.23109,0 -3.34761,-0.08574 -3.34761,-0.25721v-17.92082c0,-0.16563 1.11652,-0.24941 3.34761,-0.24941c2.23499,0 3.35345,0.0721 3.35345,0.21434zM264.8635,218.706c0,0.17147 -1.11847,0.25721 -3.35345,0.25721c-2.23109,0 -3.34761,-0.07404 -3.34761,-0.22213v-5.25329c0,-0.24162 1.11652,-0.36243 3.34761,-0.36243c2.23499,0 3.35345,0.0721 3.35345,0.22019zM268.93207,232.42769c1.97778,1.19251 3.54052,1.78877 4.68431,1.78877c0.7346,0 1.10093,-0.25331 1.10093,-0.76188c0,-0.36633 -0.63328,-0.84177 -1.90179,-1.42634c-3.05143,-1.23928 -4.57714,-3.27162 -4.57714,-6.09507c0,-1.80046 0.65666,-3.17419 1.97388,-4.11924c1.32112,-0.95089 2.90139,-1.42634 4.74082,-1.42634c1.84528,0 3.40801,0.19486 4.68626,0.58457c1.28215,0.38971 1.92322,0.90023 1.92322,1.53351c0,0.53195 -0.26305,1.23733 -0.78721,2.11613c-0.52416,0.8749 -0.88464,1.3484 -1.0795,1.41854c-1.04832,-0.57872 -2.18432,-0.86905 -3.40412,-0.86905c-0.65861,0 -0.98791,0.22993 -0.98791,0.69173c0,0.29033 0.12666,0.53975 0.37997,0.74824c0.25721,0.2046 0.72681,0.45791 1.4088,0.76188c0.68589,0.30397 1.25292,0.58067 1.70108,0.82813c0.45401,0.24162 0.96064,0.58067 1.52377,1.01909c1.17303,0.92166 1.75954,2.12587 1.75954,3.61456c0,1.9427 -0.64887,3.51908 -1.94465,4.72523c-1.29189,1.20226 -3.24434,1.80436 -5.85734,1.80436c-1.73226,0 -3.30474,-0.29228 -4.72134,-0.87685c-1.4166,-0.58457 -2.12392,-1.38932 -2.12392,-2.41036c0,-0.68004 0.16368,-1.39516 0.49298,-2.14535c0.32931,-0.75604 0.6664,-1.25682 1.00935,-1.50428zM293.06292,238.77997c0,0.29423 -1.02494,0.44037 -3.07481,0.44037c-2.44153,-0.09938 -3.66327,-0.25916 -3.66327,-0.47739v-12.91499h-1.86671c-0.49103,0 -0.73655,-0.84177 -0.73655,-2.52337c0,-0.43842 0.04287,-0.97233 0.1286,-1.60561c0.08574,-0.63133 0.265,-0.947 0.5378,-0.947h1.93686v-3.21511c0,-0.48519 1.03078,-0.72681 3.0904,-0.72681c2.06546,0 3.09625,0.19486 3.09625,0.58457v2.33826l0.03702,1.01909h3.11768c0.41504,0 0.62159,0.85347 0.62159,2.55845c0,1.70108 -0.20655,2.5526 -0.62159,2.5526h-2.60326zM298.88519,232.42769c1.97973,1.19251 3.54052,1.78877 4.68431,1.78877c0.7346,0 1.10288,-0.25331 1.10288,-0.76188c0,-0.36633 -0.63523,-0.84177 -1.90373,-1.42634c-3.05143,-1.23928 -4.57714,-3.27162 -4.57714,-6.09507c0,-1.80046 0.65861,-3.17419 1.97388,-4.11924c1.32112,-0.95089 2.90139,-1.42634 4.74277,-1.42634c1.84528,0 3.40607,0.19486 4.68431,0.58457c1.28215,0.38971 1.92322,0.90023 1.92322,1.53351c0,0.53195 -0.26111,1.23733 -0.78527,2.11613c-0.52611,0.8749 -0.88464,1.3484 -1.08145,1.41854c-1.04832,-0.57872 -2.18238,-0.86905 -3.40412,-0.86905c-0.65861,0 -0.98597,0.22993 -0.98597,0.69173c0,0.29033 0.12471,0.53975 0.37802,0.74824c0.25721,0.2046 0.72681,0.45791 1.4088,0.76188c0.68784,0.30397 1.25487,0.58067 1.70303,0.82813c0.45206,0.24162 0.96064,0.58067 1.52377,1.01909c1.17303,0.92166 1.75954,2.12587 1.75954,3.61456c0,1.9427 -0.64887,3.51908 -1.9466,4.72523c-1.29189,1.20226 -3.24434,1.80436 -5.85734,1.80436c-1.73031,0 -3.30474,-0.29228 -4.71939,-0.87685c-1.4166,-0.58457 -2.12587,-1.38932 -2.12587,-2.41036c0,-0.68004 0.16563,-1.39516 0.49493,-2.14535c0.3293,-0.75604 0.66446,-1.25682 1.0074,-1.50428zM298.88519,232.42769" fill="#ffffff" stroke="none" stroke-width="1" stroke-linecap="butt"/><path d="M90.35135,117.67133c0,-6.39897 5.91545,-12.49566 13.1192,-12.49566c28.93252,0 219.72832,0 272.60996,0c8.61359,0 13.56814,4.64378 13.56814,12.24625c0,30.59212 0,109.0924 0,125.70487c0,6.03964 -4.85913,11.69754 -13.31873,11.69754c-52.46667,0 -243.42599,0 -272.60996,0c-7.3279,0 -13.36861,-4.5235 -13.36861,-11.94695c0,-30.16113 0,-108.19342 0,-125.20604z" data-paper-data="{&quot;index&quot;:null}" fill="none" stroke="#e74e02" stroke-width="10" stroke-linecap="butt"/></g></g></svg>